<svg width="40" height="24" viewBox="0 0 40 24" fill="none" xmlns="http://www.w3.org/2000/svg">
<path d="M26.967 14.1442C26.201 14.1442 25.781 14.0399 25.136 13.7767L24.897 13.6685L24.626 15.2326C25.092 15.4233 25.932 15.5871 26.801 15.6C28.842 15.6 30.176 14.6596 30.192 13.2126C30.208 12.4172 29.682 11.8134 28.571 11.3158C27.897 10.9931 27.477 10.7766 27.477 10.4489C27.477 10.1589 27.836 9.85004 28.586 9.85004C29.0844 9.83813 29.5798 9.9291 30.041 10.1172L30.221 10.1966L30.492 8.68515L30.445 8.69508C29.8869 8.49614 29.2979 8.3963 28.705 8.40013C26.785 8.40013 25.43 9.34754 25.42 10.7051C25.408 11.7031 26.384 12.2652 27.121 12.5999C27.878 12.9425 28.131 13.158 28.129 13.4659C28.124 13.9336 27.524 14.1442 26.967 14.1442ZM35.428 8.52824H33.928C33.461 8.52824 33.112 8.65238 32.907 9.10721L30.022 15.5027H32.063L32.471 14.456L34.961 14.458C35.022 14.7023 35.201 15.5027 35.201 15.5027H37L35.428 8.52824ZM33.03 13.0249L33.804 11.0755C33.794 11.0954 33.964 10.6723 34.062 10.4101L34.195 11.012L34.644 13.0249H33.03ZM21.444 15.4471H23.388L24.603 8.46965H22.66V8.46766L21.444 15.4471ZM17.923 13.2841L17.721 12.3149V12.3179L17.039 9.11416C16.922 8.67025 16.58 8.53916 16.156 8.52327H13.025L13 8.67025C13.705 8.83411 14.34 9.07146 14.908 9.36243C14.9962 9.41364 15.0608 9.49702 15.088 9.59482L16.768 15.4928H18.822L21.883 8.52824H19.824L17.923 13.2841Z" fill="#1C33C3"/>
</svg>
