<svg width="40" height="24" viewBox="0 0 40 24" fill="none" xmlns="http://www.w3.org/2000/svg">
<path d="M22.3408 15.9627H17.9795V8.03674H22.3408V15.9627Z" fill="#FF5F00"/>
<path d="M18.2563 12.0001C18.2557 11.2368 18.4268 10.4834 18.7566 9.79683C19.0864 9.11029 19.5664 8.50863 20.1601 8.03741C19.4249 7.45305 18.5419 7.08967 17.612 6.98879C16.6822 6.8879 15.7431 7.05359 14.902 7.46691C14.0608 7.88023 13.3517 8.52452 12.8555 9.32613C12.3593 10.1277 12.0961 11.0544 12.0961 12.0001C12.0962 12.9457 12.3594 13.8721 12.8556 14.6736C13.3517 15.4751 14.0608 16.1193 14.9018 16.5326C15.7428 16.9459 16.6818 17.1116 17.6115 17.0109C18.5412 16.9101 19.4242 16.5469 20.1595 15.9627C19.5659 15.4914 19.0861 14.8897 18.7564 14.2031C18.4267 13.5166 18.2557 12.7633 18.2563 12.0001Z" fill="#EB001B"/>
<path d="M28.2242 12.0001C28.2241 12.9458 27.961 13.8724 27.4648 14.674C26.9686 15.4756 26.2595 16.1199 25.4183 16.5332C24.5772 16.9465 23.6381 17.1122 22.7083 17.0113C21.7784 16.9105 20.8954 16.5471 20.1602 15.9627C21.3194 15.0398 22.0639 13.608 22.0639 12.0001C22.0639 10.3922 21.3194 8.96029 20.1602 8.03741C20.8954 7.45305 21.7784 7.08967 22.7083 6.98879C23.6381 6.8879 24.5772 7.05359 25.4183 7.46691C26.2595 7.88023 26.9686 8.52452 27.4648 9.32613C27.961 10.1277 28.2241 11.0544 28.2242 12.0001Z" fill="#F79E1B"/>
</svg>
