<svg width="40" height="24" viewBox="0 0 40 24" fill="none" xmlns="http://www.w3.org/2000/svg">
<path d="M12.3487 8.46348C12.0698 8.79449 11.6235 9.05558 11.1772 9.01828C11.1214 8.57071 11.3399 8.09516 11.5956 7.80144C11.8745 7.4611 12.3627 7.21866 12.7578 7.20001C12.8043 7.66623 12.623 8.12313 12.3487 8.46348ZM12.7532 9.10686C12.107 9.06957 11.5537 9.47518 11.2469 9.47518C10.9354 9.47518 10.4659 9.12551 9.95449 9.13484C9.28969 9.14416 8.67137 9.5218 8.332 10.1232C7.63465 11.3261 8.15069 13.1071 8.82479 14.0861C9.15487 14.571 9.55003 15.1025 10.0707 15.0838C10.5635 15.0652 10.7588 14.7621 11.3538 14.7621C11.9535 14.7621 12.1256 15.0838 12.6462 15.0745C13.1855 15.0652 13.5249 14.5896 13.855 14.1048C14.2315 13.5546 14.385 13.0185 14.3943 12.9905C14.385 12.9812 13.3529 12.5849 13.3436 11.3914C13.3343 10.3936 14.1572 9.91809 14.1944 9.89012C13.7295 9.20011 13.0042 9.12551 12.7532 9.10686ZM16.4863 7.75482V15.0232H17.6113V12.5383H19.1687C20.5913 12.5383 21.5909 11.5592 21.5909 10.1419C21.5909 8.72456 20.6099 7.75482 19.2059 7.75482H16.4863ZM17.6113 8.70591H18.9084C19.8847 8.70591 20.4426 9.22808 20.4426 10.1465C20.4426 11.065 19.8847 11.5918 18.9038 11.5918H17.6113V8.70591ZM23.6457 15.0792C24.3524 15.0792 25.0079 14.7202 25.3054 14.1514H25.3286V15.0232H26.37V11.4053C26.37 10.3563 25.5332 9.68032 24.2454 9.68032C23.0506 9.68032 22.1673 10.3657 22.1348 11.3074H23.1483C23.2319 10.8599 23.6457 10.5661 24.2129 10.5661C24.9009 10.5661 25.2868 10.8878 25.2868 11.4799V11.8809L23.8828 11.9648C22.5764 12.0441 21.8698 12.5802 21.8698 13.5127C21.8698 14.4544 22.5997 15.0792 23.6457 15.0792ZM23.9479 14.2167C23.3482 14.2167 22.967 13.9276 22.967 13.4847C22.967 13.0278 23.3342 12.762 24.0362 12.7201L25.2868 12.6408V13.0511C25.2868 13.7318 24.7103 14.2167 23.9479 14.2167ZM27.76 17C28.8572 17 29.3732 16.5804 29.8242 15.3076L31.8 9.75025H30.6564L29.3314 14.0442H29.3082L27.9832 9.75025H26.807L28.7131 15.0419L28.6108 15.3636C28.4388 15.9091 28.1599 16.1189 27.6624 16.1189C27.5741 16.1189 27.4021 16.1095 27.3323 16.1002V16.972C27.3974 16.9907 27.6764 17 27.76 17Z" fill="black"/>
</svg>
