<svg width="40" height="24" viewBox="0 0 40 24" fill="none" xmlns="http://www.w3.org/2000/svg">
<path d="M19.2494 11.8411V14.6248H18.3572V7.74042H20.677C21.242 7.74042 21.7774 7.94994 22.1937 8.33906C22.6101 8.69824 22.8183 9.23702 22.8183 9.80573C22.8183 10.3744 22.6101 10.8833 22.1937 11.2724C21.7774 11.6615 21.2718 11.871 20.677 11.871L19.2494 11.8411ZM19.2494 8.57851V10.9731H20.7364C21.0636 10.9731 21.3907 10.8534 21.5989 10.6139C22.0748 10.1649 22.0748 9.41661 21.6287 8.96763L21.5989 8.9377C21.361 8.69824 21.0636 8.54858 20.7364 8.57851H19.2494Z" fill="#5F6368"/>
<path d="M24.8704 9.77576C25.5247 9.77576 26.0303 9.95535 26.4169 10.3145C26.8036 10.6737 26.982 11.1526 26.982 11.7513V14.6247H26.1493V13.9662H26.1195C25.7626 14.505 25.257 14.7744 24.6622 14.7744C24.1566 14.7744 23.7105 14.6247 23.3536 14.3254C23.0265 14.0261 22.8183 13.6071 22.8183 13.1581C22.8183 12.6792 22.9967 12.29 23.3536 11.9907C23.7105 11.6914 24.2161 11.5717 24.8109 11.5717C25.3463 11.5717 25.7626 11.6615 26.0898 11.871V11.6615C26.0898 11.3622 25.9708 11.0628 25.7329 10.8832C25.495 10.6737 25.1976 10.554 24.8704 10.554C24.3648 10.554 23.9782 10.7635 23.7105 11.1826L22.9373 10.7037C23.4131 10.0751 24.0377 9.77576 24.8704 9.77576ZM23.7403 13.188C23.7403 13.4275 23.8592 13.637 24.0377 13.7567C24.2459 13.9064 24.4838 13.9962 24.7217 13.9962C25.0786 13.9962 25.4355 13.8465 25.7031 13.5771C26.0006 13.3077 26.1493 12.9785 26.1493 12.6193C25.8816 12.4098 25.495 12.29 24.9894 12.29C24.6325 12.29 24.3351 12.3798 24.0971 12.5594C23.8592 12.7091 23.7403 12.9186 23.7403 13.188Z" fill="#5F6368"/>
<path d="M31.8 9.92542L28.8557 16.72H27.9635L29.0639 14.3554L27.1307 9.95535H28.0824L29.4803 13.3377H29.51L30.8781 9.95535H31.8V9.92542Z" fill="#5F6368"/>
<path d="M15.7103 11.2424C15.7103 10.973 15.6806 10.7037 15.6508 10.4343H11.9332V11.9608H14.0448C13.9556 12.4397 13.6879 12.8887 13.2716 13.1581V14.1458H14.5504C15.2939 13.4574 15.7103 12.4397 15.7103 11.2424Z" fill="#4285F4"/>
<path d="M11.9332 15.1037C13.0039 15.1037 13.8961 14.7445 14.5504 14.1458L13.2716 13.1581C12.9147 13.3975 12.4686 13.5472 11.9332 13.5472C10.922 13.5472 10.0298 12.8588 9.73242 11.9009H8.42383V12.9186C9.10786 14.2656 10.4462 15.1037 11.9332 15.1037Z" fill="#34A853"/>
<path d="M9.7324 11.901C9.55395 11.4221 9.55395 10.8833 9.7324 10.3744V9.35675H8.42381C7.85873 10.4642 7.85873 11.7812 8.42381 12.9187L9.7324 11.901Z" fill="#FBBC04"/>
<path d="M11.9332 8.75809C12.4983 8.75809 13.0336 8.96761 13.45 9.35673L14.5801 8.21931C13.8664 7.56081 12.9147 7.17169 11.963 7.20162C10.4759 7.20162 9.10785 8.03972 8.45355 9.38666L9.76214 10.4044C10.0298 9.44653 10.922 8.75809 11.9332 8.75809Z" fill="#EA4335"/>
</svg>
