<svg width="40" height="24" viewBox="0 0 40 24" fill="none" xmlns="http://www.w3.org/2000/svg">
<path fill-rule="evenodd" clip-rule="evenodd" d="M12.3641 13.1709V9.61414H13.1914V13.1709H12.3641Z" fill="#949EB5"/>
<path fill-rule="evenodd" clip-rule="evenodd" d="M14.8093 13.1709V9.61414H15.6366V13.1709H14.8093Z" fill="#949EB5"/>
<path fill-rule="evenodd" clip-rule="evenodd" d="M17.2543 13.6649V9.61414H18.0815V13.6649H17.2543Z" fill="#252830"/>
<path fill-rule="evenodd" clip-rule="evenodd" d="M9.9187 13.6649V9.61414H10.746V13.6649H9.9187Z" fill="#252830"/>
<path fill-rule="evenodd" clip-rule="evenodd" d="M13.9659 6.26504C13.9191 6.23504 13.8592 6.23504 13.8124 6.26504L9.81711 8.82806C9.77962 8.85211 9.76464 8.8773 9.75749 8.89849C9.7492 8.92307 9.74779 8.95463 9.75747 8.98766C9.76716 9.02068 9.78538 9.04649 9.80563 9.0627C9.82309 9.07668 9.8493 9.08979 9.89384 9.08979H17.8845C17.929 9.08979 17.9552 9.07668 17.9727 9.0627C17.9929 9.04649 18.0111 9.02068 18.0208 8.98766C18.0305 8.95463 18.0291 8.92307 18.0208 8.89849C18.0137 8.8773 17.9987 8.85212 17.9612 8.82806L13.9659 6.26504ZM13.3657 5.56874C13.6847 5.36413 14.0936 5.36413 14.4126 5.56874L18.4079 8.13177C19.2226 8.65442 18.8524 9.91704 17.8845 9.91704H9.89384C8.92588 9.91704 8.55571 8.65442 9.37043 8.13176L13.3657 5.56874Z" fill="#252830"/>
<path fill-rule="evenodd" clip-rule="evenodd" d="M9.74024 13.48C9.92441 13.2646 10.1936 13.1406 10.477 13.1406H17.523C17.8064 13.1406 18.0756 13.2646 18.2598 13.48L18.8656 14.1885C19.4034 14.8176 18.9564 15.7878 18.1288 15.7878H9.87126C9.04364 15.7878 8.59666 14.8176 9.13448 14.1885L9.74024 13.48ZM10.477 13.9679C10.4355 13.9679 10.396 13.9861 10.369 14.0176L9.76325 14.7261C9.6844 14.8183 9.74993 14.9606 9.87126 14.9606H18.1288C18.2501 14.9606 18.3156 14.8183 18.2368 14.7261L17.631 14.0176C17.604 13.9861 17.5646 13.9679 17.523 13.9679H10.477Z" fill="#252830"/>
</svg>
