<svg width="62" height="13" viewBox="0 0 62 13" fill="none" xmlns="http://www.w3.org/2000/svg">
<path d="M29.9384 5.92071C29.4439 5.92071 28.9661 6.08172 28.615 6.22653V4.70504C28.615 4.65242 28.5724 4.60976 28.5198 4.60976H28.0325C27.9798 4.60976 27.9372 4.65242 27.9372 4.70504V10.2618C27.9372 10.3144 27.9798 10.3571 28.0325 10.3571H28.5188C28.5714 10.3571 28.6141 10.3144 28.6141 10.2618V6.80388C28.8689 6.68574 29.3987 6.47043 29.8498 6.47043C30.3214 6.47043 30.541 6.68241 30.541 7.13733V10.2627C30.541 10.3154 30.5836 10.358 30.6363 10.358H31.1221C31.1748 10.358 31.2174 10.3154 31.2174 10.2627V7.05159C31.2212 6.32466 30.7653 5.92071 29.9384 5.92071ZM25.1838 5.92071C24.0434 5.92071 23.4151 6.35801 23.4151 7.15162V9.20474C23.4151 9.99835 24.0434 10.4352 25.1838 10.4352C26.2647 10.4352 26.8849 9.98692 26.8849 9.20474V8.70313C26.8849 8.65051 26.8422 8.60786 26.7896 8.60786H26.3133C26.2607 8.60786 26.218 8.65051 26.218 8.70313V9.11947C26.218 9.79447 25.5716 9.89498 25.1862 9.89498C24.4531 9.89498 24.0968 9.64156 24.0968 9.11947V7.23689C24.0968 6.69289 24.4226 6.4609 25.1862 6.4609C25.8803 6.4609 26.218 6.7148 26.218 7.23689V7.7304C26.218 7.78302 26.2607 7.82567 26.3133 7.82567H26.7896C26.8422 7.82567 26.8849 7.78302 26.8849 7.7304V7.15162C26.8849 6.36944 26.2647 5.92071 25.1838 5.92071ZM35.791 9.13519V8.87271C35.791 8.8201 35.7483 8.77744 35.6957 8.77744H35.2098C35.1572 8.77744 35.1145 8.8201 35.1145 8.87271V9.0504C35.1145 9.61584 34.7449 9.90308 34.0151 9.90308C33.2853 9.90308 32.9933 9.65585 32.9933 9.0504V8.45209H35.6971C35.7497 8.45209 35.7924 8.40943 35.7924 8.35682V7.22117C35.7924 6.40707 35.1255 5.92071 34.0137 5.92071C33.4844 5.92071 33.0662 6.03361 32.7708 6.25416C32.4755 6.47472 32.313 6.81341 32.313 7.21974V9.13519C32.313 9.54152 32.4712 9.87545 32.7708 10.1008C33.0705 10.3261 33.4854 10.4342 34.0137 10.4342C35.126 10.4352 35.791 9.94929 35.791 9.13519ZM32.9904 7.30596C32.9904 6.70051 33.2867 6.45328 34.0122 6.45328C34.7377 6.45328 35.1117 6.7391 35.1117 7.30596V7.93524H32.9904V7.30596ZM18.509 4.67121C18.4946 4.63322 18.4577 4.60855 18.4171 4.60972H17.8531C17.8127 4.6093 17.7765 4.6343 17.7626 4.67217L15.6623 10.2275C15.6503 10.2572 15.654 10.291 15.6722 10.3174C15.6905 10.3438 15.7207 10.3592 15.7528 10.3585H16.2768C16.3174 10.3588 16.3537 10.3334 16.3673 10.2951L16.8594 8.9537H19.3989L19.891 10.2951C19.9046 10.3334 19.9409 10.3588 19.9815 10.3585H20.5169C20.549 10.3592 20.5793 10.3438 20.5975 10.3174C20.6157 10.291 20.6194 10.2572 20.6074 10.2275L18.509 4.67121ZM17.0695 8.39016L18.1256 5.50913L19.1921 8.39016H17.0695ZM22.2166 4.60976H21.7302C21.6776 4.60976 21.6349 4.65242 21.6349 4.70504V10.2618C21.6349 10.3144 21.6776 10.3571 21.7302 10.3571H22.2166C22.2692 10.3571 22.3118 10.3144 22.3118 10.2618V4.70504C22.3118 4.65242 22.2692 4.60976 22.2166 4.60976ZM41.1577 5.92071C40.6937 5.92071 40.2049 6.05218 39.7048 6.3118C39.477 6.05552 39.1074 5.92071 38.6296 5.92071C38.1813 5.92071 37.7474 6.07505 37.4325 6.22415L37.3915 6.04266C37.3819 5.99796 37.342 5.96637 37.2963 5.96739H36.9366C36.884 5.96739 36.8413 6.01005 36.8413 6.06266V10.2608C36.8413 10.3134 36.884 10.3561 36.9366 10.3561H37.4225C37.4751 10.3561 37.5178 10.3134 37.5178 10.2608V6.75005C37.8405 6.55508 38.2106 6.45243 38.5877 6.45328C39.064 6.45328 39.2984 6.69432 39.2984 7.19021V10.2618C39.2984 10.3144 39.3411 10.3571 39.3937 10.3571H39.8796C39.9322 10.3571 39.9748 10.3144 39.9748 10.2618V7.12114C39.9744 7.01255 39.9625 6.9043 39.9396 6.79816C40.3407 6.56951 40.7189 6.45328 41.0643 6.45328C41.5406 6.45328 41.775 6.69432 41.775 7.19021V10.2618C41.775 10.3144 41.8177 10.3571 41.8703 10.3571H42.3567C42.4093 10.3571 42.4519 10.3144 42.4519 10.2618V7.12114C42.4605 6.36944 41.9741 5.92071 41.1577 5.92071ZM46.8845 5.99785H46.35C46.3087 5.99736 46.2717 6.02352 46.2585 6.06266L45.0919 9.41481L43.8343 6.06076C43.8206 6.0227 43.7843 5.99749 43.7438 5.99785H43.2198C43.1876 5.99716 43.1572 6.0128 43.139 6.03943C43.1208 6.06606 43.1174 6.10008 43.1298 6.12983L44.7418 10.2656L44.6465 10.5871C44.435 11.1997 44.0844 11.2845 43.7367 11.2845C43.6117 11.2886 43.4866 11.2768 43.3646 11.2493C43.3355 11.2412 43.3042 11.247 43.2798 11.265C43.2556 11.2832 43.2414 11.3118 43.2417 11.3422V11.6818C43.2403 11.7264 43.27 11.766 43.3132 11.7771C43.4585 11.8095 43.6074 11.8234 43.7562 11.8185C44.2931 11.8185 44.8995 11.7361 45.2663 10.7524L46.9774 6.13174C46.989 6.10211 46.985 6.06864 46.9669 6.04252C46.9487 6.0164 46.9187 6.00108 46.8869 6.00169L46.8845 5.99785ZM56.991 6.11649C56.7209 5.90546 56.3121 5.80305 55.7419 5.80305C55.1922 5.80305 54.7892 5.89832 54.512 6.09649C54.2119 6.30942 54.0594 6.63858 54.0594 7.07445V7.2831C54.0597 7.40138 54.1555 7.4972 54.2738 7.49746H54.7502C54.8685 7.49746 54.9645 7.40149 54.9645 7.2831V7.09017C54.9645 6.79626 55.0188 6.57142 55.7034 6.57142C56.4212 6.57142 56.4808 6.81674 56.4808 7.09017V7.77089H55.539C54.0918 7.77089 53.7884 8.46638 53.7884 9.0504V9.28191C53.7884 9.68491 53.9208 9.99645 54.1823 10.2094C54.4319 10.4118 54.7968 10.5147 55.2665 10.5147C55.7199 10.5135 56.1695 10.4329 56.5951 10.2765L56.6161 10.3509C56.6424 10.443 56.7265 10.5065 56.8223 10.5066H57.182C57.3004 10.5066 57.3963 10.4107 57.3963 10.2923V7.07445C57.3963 6.64239 57.2639 6.32895 56.9919 6.11649H56.991ZM56.4808 9.52009C56.1245 9.67325 55.741 9.75296 55.3532 9.75446C54.7525 9.75446 54.702 9.51056 54.702 9.28238V9.03515C54.702 8.78078 54.7673 8.53212 55.5476 8.53212H56.4808V9.52009ZM61.8889 5.97215C61.8488 5.91447 61.7829 5.88012 61.7127 5.88022H61.1782C61.0872 5.87992 61.0059 5.93727 60.9757 6.02313L59.9163 9.06707L58.773 6.01836C58.7417 5.93475 58.6618 5.87933 58.5725 5.87926H58.0485C57.9778 5.87933 57.9116 5.91428 57.8717 5.97266C57.8318 6.03105 57.8233 6.10536 57.8489 6.17127L59.4457 10.268L59.3613 10.5481C59.1651 11.1159 58.8469 11.1635 58.5639 11.1635C58.45 11.1675 58.3361 11.1574 58.2247 11.1335C58.1594 11.1137 58.0885 11.1265 58.0342 11.1678C57.9803 11.2084 57.9486 11.2719 57.9484 11.3393V11.679C57.9485 11.7762 58.014 11.8613 58.108 11.8862C58.263 11.9221 58.422 11.9382 58.5811 11.9338C59.2003 11.9338 59.8248 11.7952 60.2007 10.7905L61.9118 6.16984C61.9373 6.10422 61.9288 6.03022 61.8889 5.97215ZM52.9023 4.93607C52.5141 4.63692 51.9387 4.49115 51.1441 4.49115H49.7827C49.6643 4.49115 49.5683 4.58712 49.5683 4.70551V10.2618C49.5683 10.3802 49.6643 10.4761 49.7827 10.4761H50.3176C50.3745 10.4763 50.4291 10.4537 50.4693 10.4135C50.5096 10.3733 50.5321 10.3187 50.532 10.2618V8.21343H51.1441C51.9363 8.21343 52.5103 8.07672 52.8976 7.79423C53.2787 7.5189 53.4692 7.10732 53.4692 6.57142V6.21653C53.4683 5.65776 53.2777 5.2257 52.9023 4.93607ZM52.5051 6.5557C52.5051 7.08541 52.2788 7.41315 51.1536 7.41315H50.5344V5.29048H51.1951C52.3483 5.29048 52.5074 5.74731 52.5074 6.2432L52.5051 6.5557Z" fill="#0059DA"/>
<path d="M3.45315 12.7512V6.73193L0 12.7512H3.45315ZM10.3213 6.73193V12.7512H13.775L10.3213 6.73193ZM4.90653 4.2177V8.93748H4.91177C5.25999 8.59259 6.1727 8.15434 7.13066 8.06288C7.80757 8.01239 8.42493 8.11528 8.87462 8.29106V4.2177L6.88104 0.751221L4.90653 4.2177ZM5.20187 10.7519C5.01132 11.0811 4.91319 11.5803 4.91319 11.9795C4.91074 12.2429 4.95676 12.5045 5.04896 12.7512H8.87462V9.84971C8.43651 9.5591 7.92122 9.40676 7.39552 9.41241C6.41945 9.41384 5.63155 10.0107 5.20187 10.7519Z" fill="#0059DA"/>
</svg>
