<svg width="10" height="10" viewBox="0 0 10 10" fill="none" xmlns="http://www.w3.org/2000/svg">
<path d="M5 0C2.21875 0 0 2.21875 0 5C0 7.78125 2.21875 10 5 10C7.78125 10 10 7.78125 10 5C10 2.21875 7.78125 0 5 0ZM4.51875 1.95625C4.65 1.825 4.7625 1.7375 4.975 1.7375C5.2125 1.71875 5.43125 1.83125 5.51875 2C5.61875 2.11875 5.675 2.38125 5.65 2.5375C5.65 2.58125 5.61875 2.875 5.60625 2.95625L5.43125 5.175C5.43125 5.39375 5.3875 5.6125 5.3 5.78125C5.25625 5.9125 5.125 6 4.95 6C4.81875 6 4.6875 5.9125 4.64375 5.78125C4.55625 5.5625 4.5125 5.3875 4.5125 5.175L4.39375 3C4.35 2.60625 4.35 2.7375 4.35 2.51875C4.35 2.30625 4.39375 2.13125 4.51875 1.95625ZM5.48125 8.0875C5.35 8.21875 5.175 8.2625 5.04375 8.2625C4.86875 8.2625 4.69375 8.21875 4.5625 8.0875C4.43125 7.95625 4.34375 7.78125 4.34375 7.56875C4.34375 7.39375 4.3875 7.21875 4.51875 7.0875C4.65 6.95625 4.825 6.86875 5 6.86875C5.175 6.86875 5.35 6.95625 5.48125 7.0875C5.6125 7.21875 5.65625 7.39375 5.65625 7.56875C5.65 7.78125 5.60625 7.95625 5.48125 8.0875Z" fill="#848b96"/>
</svg>
