<svg width="128" height="25" viewBox="0 0 128 25" fill="none" xmlns="http://www.w3.org/2000/svg">
<path d="M61.4333 10.6077C60.4187 10.6077 59.4383 10.9381 58.7178 11.2353V8.11317C58.7178 8.0052 58.6303 7.91767 58.5223 7.91767H57.5224C57.4144 7.91767 57.3269 8.0052 57.3269 8.11317V19.5156C57.3269 19.6236 57.4144 19.7111 57.5224 19.7111H58.5204C58.6284 19.7111 58.7159 19.6236 58.7159 19.5156V12.42C59.2388 12.1776 60.3258 11.7358 61.2515 11.7358C62.2192 11.7358 62.6699 12.1707 62.6699 13.1042V19.5176C62.6699 19.6255 62.7574 19.7131 62.8654 19.7131H63.8624C63.9704 19.7131 64.0579 19.6255 64.0579 19.5176V12.9283C64.0657 11.4366 63.1303 10.6077 61.4333 10.6077ZM51.677 10.6077C49.3368 10.6077 48.0475 11.5051 48.0475 13.1336V17.3466C48.0475 18.9751 49.3368 19.8714 51.677 19.8714C53.8949 19.8714 55.1676 18.9516 55.1676 17.3466V16.3173C55.1676 16.2093 55.0801 16.1218 54.9721 16.1218H53.9946C53.8866 16.1218 53.7991 16.2093 53.7991 16.3173V17.1716C53.7991 18.5567 52.4726 18.7629 51.6818 18.7629C50.1775 18.7629 49.4463 18.2429 49.4463 17.1716V13.3085C49.4463 12.1922 50.1149 11.7162 51.6818 11.7162C53.1061 11.7162 53.7991 12.2372 53.7991 13.3085V14.3212C53.7991 14.4292 53.8866 14.5167 53.9946 14.5167H54.9721C55.0801 14.5167 55.1676 14.4292 55.1676 14.3212V13.1336C55.1676 11.5285 53.8949 10.6077 51.677 10.6077ZM73.4428 17.2038V16.6652C73.4428 16.5573 73.3553 16.4697 73.2473 16.4697H72.2503C72.1423 16.4697 72.0548 16.5573 72.0548 16.6652V17.0298C72.0548 18.1901 71.2962 18.7796 69.7987 18.7796C68.3012 18.7796 67.702 18.2722 67.702 17.0298V15.8021H73.2503C73.3582 15.8021 73.4458 15.7146 73.4458 15.6066V13.2763C73.4458 11.6057 72.0773 10.6077 69.7958 10.6077C68.7098 10.6077 67.8515 10.8394 67.2455 11.292C66.6395 11.7446 66.3061 12.4395 66.3061 13.2733V17.2038C66.3061 18.0376 66.6307 18.7229 67.2455 19.1852C67.8603 19.6476 68.7117 19.8695 69.7958 19.8695C72.0782 19.8714 73.4428 18.8744 73.4428 17.2038ZM67.6961 13.4503C67.6961 12.2079 68.3041 11.7006 69.7929 11.7006C71.2816 11.7006 72.0489 12.2871 72.0489 13.4503V14.7415H67.6961V13.4503ZM37.9803 8.04377C37.9507 7.96581 37.875 7.91518 37.7917 7.91759H36.6343C36.5515 7.91673 36.4771 7.96802 36.4486 8.04572L32.1388 19.4452C32.1141 19.5062 32.1218 19.5756 32.1592 19.6297C32.1966 19.6839 32.2587 19.7156 32.3245 19.7141H33.3998C33.483 19.7147 33.5576 19.6625 33.5855 19.584L34.5952 16.8314H39.8063L40.816 19.584C40.8439 19.6625 40.9185 19.7147 41.0017 19.7141H42.1004C42.1662 19.7156 42.2284 19.6839 42.2658 19.6297C42.3032 19.5756 42.3109 19.5062 42.2862 19.4452L37.9803 8.04377ZM35.0263 15.675L37.1934 9.76318L39.382 15.675H35.0263ZM45.5881 7.91767H44.5901C44.4822 7.91767 44.3946 8.0052 44.3946 8.11317V19.5156C44.3946 19.6236 44.4822 19.7111 44.5901 19.7111H45.5881C45.6961 19.7111 45.7836 19.6236 45.7836 19.5156V8.11317C45.7836 8.0052 45.6961 7.91767 45.5881 7.91767ZM84.4553 10.6077C83.5032 10.6077 82.5003 10.8775 81.4739 11.4102C81.0067 10.8844 80.2481 10.6077 79.2677 10.6077C78.3479 10.6077 77.4574 10.9244 76.8113 11.2304L76.7272 10.858C76.7075 10.7663 76.6255 10.7014 76.5317 10.7035H75.7937C75.6857 10.7035 75.5982 10.7911 75.5982 10.899V19.5137C75.5982 19.6216 75.6857 19.7092 75.7937 19.7092H76.7907C76.8987 19.7092 76.9862 19.6216 76.9862 19.5137V12.3095C77.6485 11.9095 78.4079 11.6988 79.1817 11.7006C80.1592 11.7006 80.6401 12.1952 80.6401 13.2127V19.5156C80.6401 19.6236 80.7276 19.7111 80.8356 19.7111H81.8326C81.9406 19.7111 82.0281 19.6236 82.0281 19.5156V13.071C82.0271 12.8482 82.0029 12.6261 81.9558 12.4083C82.7789 11.9391 83.555 11.7006 84.2637 11.7006C85.2412 11.7006 85.7221 12.1952 85.7221 13.2127V19.5156C85.7221 19.6236 85.8096 19.7111 85.9176 19.7111H86.9156C87.0236 19.7111 87.1111 19.6236 87.1111 19.5156V13.071C87.1287 11.5285 86.1307 10.6077 84.4553 10.6077ZM96.2067 10.766H95.11C95.0252 10.765 94.9494 10.8187 94.9223 10.899L92.5284 17.7776L89.9478 10.8951C89.9196 10.817 89.8451 10.7653 89.7621 10.766H88.6868C88.6207 10.7646 88.5583 10.7967 88.521 10.8513C88.4837 10.906 88.4766 10.9758 88.5021 11.0368L91.8099 19.5234L91.6144 20.1832C91.1804 21.4403 90.461 21.6143 89.7474 21.6143C89.4909 21.6227 89.2344 21.5984 88.984 21.5419C88.9241 21.5253 88.8599 21.5372 88.81 21.5742C88.7602 21.6115 88.7312 21.6703 88.7318 21.7326V22.4295C88.7289 22.521 88.7898 22.6022 88.8784 22.625C89.1767 22.6914 89.4821 22.72 89.7875 22.71C90.8891 22.71 92.1335 22.5409 92.8862 20.5224L96.3973 11.0408C96.4212 10.98 96.4131 10.9113 96.3758 10.8577C96.3385 10.8041 96.2769 10.7727 96.2116 10.7739L96.2067 10.766ZM116.945 11.0095C116.391 10.5764 115.552 10.3663 114.382 10.3663C113.254 10.3663 112.427 10.5618 111.858 10.9684C111.243 11.4054 110.93 12.0808 110.93 12.9752V13.4034C110.93 13.6461 111.127 13.8427 111.37 13.8432H112.347C112.59 13.8432 112.787 13.6463 112.787 13.4034V13.0075C112.787 12.4044 112.898 11.943 114.303 11.943C115.776 11.943 115.898 12.4464 115.898 13.0075V14.4043H113.966C110.996 14.4043 110.374 15.8314 110.374 17.0298V17.5049C110.374 18.3319 110.645 18.9711 111.182 19.4081C111.694 19.8235 112.443 20.0347 113.407 20.0347C114.337 20.0321 115.26 19.8667 116.133 19.5459L116.176 19.6984C116.23 19.8874 116.403 20.0178 116.599 20.018H117.337C117.58 20.018 117.777 19.8211 117.777 19.5782V12.9752C117.777 12.0886 117.505 11.4454 116.947 11.0095H116.945ZM115.898 17.9937C115.167 18.3079 114.38 18.4715 113.585 18.4746C112.352 18.4746 112.248 17.9741 112.248 17.5059V16.9986C112.248 16.4766 112.382 15.9663 113.983 15.9663H115.898V17.9937ZM126.996 10.7133C126.913 10.5949 126.778 10.5244 126.634 10.5246H125.537C125.351 10.524 125.184 10.6417 125.122 10.8179L122.948 17.0641L120.602 10.8081C120.538 10.6365 120.374 10.5228 120.19 10.5227H119.115C118.97 10.5228 118.834 10.5945 118.753 10.7143C118.671 10.8341 118.653 10.9866 118.706 11.1219L121.982 19.5283L121.809 20.1031C121.406 21.2682 120.754 21.366 120.173 21.366C119.939 21.3742 119.705 21.3535 119.477 21.3044C119.343 21.2638 119.197 21.29 119.086 21.3748C118.975 21.4581 118.91 21.5883 118.91 21.7267V22.4236C118.91 22.6233 119.044 22.7978 119.237 22.8489C119.555 22.9227 119.882 22.9555 120.208 22.9466C121.479 22.9466 122.76 22.6622 123.532 20.6006L127.043 11.119C127.095 10.9843 127.078 10.8324 126.996 10.7133ZM108.555 8.58726C107.759 7.97339 106.578 7.67428 104.947 7.67428H102.154C101.911 7.67428 101.714 7.87122 101.714 8.11415V19.5156C101.714 19.7585 101.911 19.9555 102.154 19.9555H103.252C103.368 19.9557 103.48 19.9095 103.563 19.8269C103.645 19.7444 103.692 19.6323 103.691 19.5156V15.3124H104.947C106.573 15.3124 107.751 15.0319 108.546 14.4522C109.328 13.8872 109.719 13.0427 109.719 11.943V11.2148C109.717 10.0682 109.326 9.18157 108.555 8.58726ZM107.74 11.9107C107.74 12.9977 107.276 13.6702 104.967 13.6702H103.696V9.31451H105.052C107.419 9.31451 107.745 10.2519 107.745 11.2695L107.74 11.9107Z" fill="#0059DA"/>
<path d="M7.08586 24.624V12.2724L0 24.624H7.08586ZM21.1794 12.2724V24.624H28.2662L21.1794 12.2724ZM10.0682 7.1132V16.7982H10.0789C10.7935 16.0905 12.6664 15.1912 14.6321 15.0035C16.0211 14.8999 17.288 15.111 18.2107 15.4717V7.1132L14.1199 0L10.0682 7.1132ZM10.6742 20.5215C10.2832 21.1969 10.0819 22.2213 10.0819 23.0404C10.0768 23.5809 10.1713 24.1177 10.3605 24.624H18.2107V18.6701C17.3117 18.0738 16.2543 17.7611 15.1756 17.7727C13.1727 17.7757 11.5559 19.0005 10.6742 20.5215Z" fill="#0059DA"/>
</svg>
