<svg width="14" height="14" viewBox="0 0 14 14" fill="none" xmlns="http://www.w3.org/2000/svg">
<rect width="14" height="14" rx="5" fill="#0059DA"/>
<path d="M10.6513 5.74036L6.53536 9.86779C6.46063 9.94273 6.36978 10 6.27015 10.0368L3.64441 10.9713C3.26051 11.1079 2.8898 10.7332 3.03047 10.3497L3.98435 7.74016C4.01951 7.64171 4.07666 7.55355 4.14992 7.48008L8.26729 3.34971C8.73471 2.88099 9.49371 2.88393 9.96406 3.35559L10.6454 4.03884C11.1157 4.50904 11.1187 5.27164 10.6513 5.74036ZM5.79247 9.58714L4.42979 8.22064C4.33601 8.1266 4.18362 8.1266 4.08985 8.22064C3.99607 8.31468 3.99607 8.46749 4.08985 8.56153L5.45253 9.92803C5.54631 10.0221 5.6987 10.0221 5.79247 9.92803C5.88625 9.83399 5.88625 9.68118 5.79247 9.58714Z" fill="white"/>
</svg>
