<svg width="20" height="20" viewBox="0 0 20 20" fill="none" xmlns="http://www.w3.org/2000/svg">
<path d="M4.59999 3H12.9998C13.3998 3 13.5998 3.23333 13.5998 3.69999V13.4998C13.5998 13.9665 13.3998 14.1998 12.9998 14.1998H4.59999C4.2 14.1998 4 13.9665 4 13.4998V3.69999C4 3.23333 4.2 3 4.59999 3Z" fill="#94ACBA"/>
<path d="M15.4 4.3999C15.0687 4.3999 14.8 4.7133 14.8 5.09989V15.5997H5.80019C5.46882 15.5997 5.2002 15.9131 5.2002 16.2997C5.2002 16.6863 5.46882 16.9997 5.80019 16.9997H14.8C15.4628 16.9997 16 16.3729 16 15.5997V5.09989C16 4.7133 15.7314 4.3999 15.4 4.3999Z" fill="#94ACBA"/>
</svg>
