<svg width="16" height="16" viewBox="0 0 16 16" fill="none" xmlns="http://www.w3.org/2000/svg">
<path fill-rule="evenodd" clip-rule="evenodd" d="M7.3335 1.33325C6.22893 1.33325 5.3335 2.22868 5.3335 3.33325V3.99992H6.66683V3.33325C6.66683 2.96506 6.96531 2.66659 7.3335 2.66659H12.6668C13.035 2.66659 13.3335 2.96506 13.3335 3.33325V8.66659C13.3335 9.03477 13.035 9.33325 12.6668 9.33325H11.3335V10.6666H12.6668C13.7714 10.6666 14.6668 9.77115 14.6668 8.66659V3.33325C14.6668 2.22868 13.7714 1.33325 12.6668 1.33325H7.3335ZM3.3335 4.66659C2.22893 4.66659 1.3335 5.56202 1.3335 6.66659V11.9999C1.3335 13.1045 2.22893 13.9999 3.3335 13.9999H8.66683C9.7714 13.9999 10.6668 13.1045 10.6668 11.9999V6.66659C10.6668 5.56202 9.7714 4.66659 8.66683 4.66659H3.3335ZM2.66683 6.66659C2.66683 6.2984 2.96531 5.99992 3.3335 5.99992H8.66683C9.03502 5.99992 9.3335 6.2984 9.3335 6.66659V11.9999C9.3335 12.3681 9.03502 12.6666 8.66683 12.6666H3.3335C2.96531 12.6666 2.66683 12.3681 2.66683 11.9999V6.66659Z" fill="#252830"/>
</svg>
