<svg width="20" height="20" viewBox="0 0 20 20" fill="none" xmlns="http://www.w3.org/2000/svg">
<path d="M3.30909 6.801C3.49433 6.64108 3.74196 6.54641 4.0037 6.53542C4.26544 6.52443 4.52255 6.59792 4.72491 6.74156L4.80013 6.80039L10.0149 11.2995L15.1945 6.77067C15.3787 6.6097 15.6257 6.51369 15.8875 6.50135C16.1493 6.48902 16.407 6.56125 16.6103 6.70396L16.6863 6.76218C16.8728 6.92107 16.9841 7.13421 16.9984 7.36005C17.0127 7.58589 16.929 7.80822 16.7636 7.98369L16.6961 8.04858L10.7699 13.2294C10.5844 13.3915 10.3352 13.4877 10.0715 13.4989C9.80775 13.5101 9.54875 13.4356 9.34566 13.29L9.27395 13.2336L3.30909 8.0874C3.2111 8.00291 3.13337 7.9026 3.08033 7.79218C3.0273 7.68177 3 7.56342 3 7.4439C3 7.32438 3.0273 7.20603 3.08033 7.09561C3.13337 6.9852 3.2111 6.88488 3.30909 6.80039V6.801Z" fill="#0059DA"/>
</svg>
