<svg width="24" height="24" viewBox="0 0 24 24" fill="none" xmlns="http://www.w3.org/2000/svg">
<path d="M10.5778 12.6008L15.3359 7.60779C15.6882 7.23818 15.6882 6.64681 15.3359 6.27721C14.9837 5.9076 14.4202 5.9076 14.0679 6.27721L8.80387 11.8011C8.75264 11.8347 8.70781 11.8751 8.66298 11.9221C8.48367 12.1103 8.39401 12.3522 8.40042 12.6008C8.40042 12.8428 8.48367 13.0914 8.66298 13.2796C8.70781 13.3266 8.75264 13.3669 8.80387 13.4005L14.0679 18.9245C14.2409 19.1059 14.4714 19.2 14.7019 19.2C14.9325 19.2 15.163 19.1059 15.3359 18.9245C15.6882 18.5549 15.6882 17.9635 15.3359 17.5939L10.5778 12.6008Z" fill="#252830"/>
</svg>
