<svg width="24" height="24" viewBox="0 0 24 24" fill="none" xmlns="http://www.w3.org/2000/svg">
<path fill-rule="evenodd" clip-rule="evenodd" d="M18.4768 5.09082H5.9768C5.28979 5.09082 4.72681 5.41234 4.72681 6.09083C4.72681 6.7693 5.28979 7.09082 5.9768 7.09082H18.4768C19.1639 7.09082 19.7268 6.7693 19.7268 6.09083C19.7251 5.41074 19.1639 5.09082 18.4768 5.09082ZM18.6283 11.2591H7.64343C7.03968 11.2591 6.54494 11.5806 6.54494 12.2591C6.54494 12.9376 7.03968 13.2591 7.64343 13.2591H18.6283C19.232 13.2591 19.7268 12.9376 19.7268 12.2591C19.7253 11.579 19.2321 11.2591 18.6283 11.2591ZM9.61311 17.2979H18.4768C19.1638 17.2979 19.7251 17.6177 19.7268 18.2979C19.7268 18.9763 19.1638 19.2979 18.4768 19.2979H9.61311C8.92609 19.2979 8.36311 18.9763 8.36311 18.2979C8.36311 17.6194 8.92609 17.2979 9.61311 17.2979Z" fill="#252830"/>
<path d="M19.7268 6.09083H19.7723L19.7723 6.09072L19.7268 6.09083ZM19.7268 12.2591H19.7722V12.259L19.7268 12.2591ZM19.7268 18.2979H19.7722L19.7722 18.2978L19.7268 18.2979ZM5.9768 5.13627H18.4768V5.04537H5.9768V5.13627ZM4.77226 6.09083C4.77226 5.76597 4.90618 5.52968 5.12095 5.37312C5.33747 5.21529 5.63958 5.13627 5.9768 5.13627V5.04537C5.62701 5.04537 5.30412 5.12711 5.0674 5.29966C4.82892 5.47349 4.68135 5.73721 4.68135 6.09083H4.77226ZM5.9768 7.04537C5.63958 7.04537 5.33747 6.96635 5.12095 6.80852C4.90618 6.65197 4.77226 6.41569 4.77226 6.09083H4.68135C4.68135 6.44445 4.82892 6.70815 5.0674 6.88198C5.30412 7.05453 5.62701 7.13627 5.9768 7.13627V7.04537ZM18.4768 7.04537H5.9768V7.13627H18.4768V7.04537ZM19.6814 6.09083C19.6814 6.41569 19.5475 6.65197 19.3327 6.80852C19.1162 6.96635 18.8141 7.04537 18.4768 7.04537V7.13627C18.8266 7.13627 19.1495 7.05453 19.3862 6.88198C19.6247 6.70815 19.7723 6.44445 19.7723 6.09083H19.6814ZM18.4768 5.13627C18.8141 5.13627 19.1158 5.21491 19.3321 5.37253C19.5466 5.52886 19.6806 5.76517 19.6814 6.09095L19.7723 6.09072C19.7714 5.7364 19.6239 5.47271 19.3856 5.29906C19.1491 5.12669 18.8266 5.04537 18.4768 5.04537V5.13627ZM7.64343 11.3046H18.6283V11.2137H7.64343V11.3046ZM6.5904 12.2591C6.5904 11.932 6.70911 11.6953 6.8968 11.5397C7.08569 11.383 7.34905 11.3046 7.64343 11.3046V11.2137C7.33406 11.2137 7.04818 11.296 6.83876 11.4697C6.62815 11.6444 6.49949 11.9078 6.49949 12.2591H6.5904ZM7.64343 13.2137C7.34905 13.2137 7.08569 13.1352 6.8968 12.9786C6.70911 12.8229 6.5904 12.5863 6.5904 12.2591H6.49949C6.49949 12.6104 6.62815 12.8738 6.83876 13.0485C7.04818 13.2222 7.33406 13.3046 7.64343 13.3046V13.2137ZM18.6283 13.2137H7.64343V13.3046H18.6283V13.2137ZM19.6813 12.2591C19.6813 12.5863 19.5626 12.8229 19.3749 12.9786C19.186 13.1352 18.9227 13.2137 18.6283 13.2137V13.3046C18.9377 13.3046 19.2236 13.2222 19.433 13.0485C19.6436 12.8738 19.7722 12.6104 19.7722 12.2591H19.6813ZM18.6283 11.3046C18.9227 11.3046 19.1857 11.3826 19.3744 11.5391C19.5619 11.6945 19.6806 11.9312 19.6813 12.2592L19.7722 12.259C19.7715 11.907 19.6428 11.6436 19.4324 11.4691C19.2232 11.2956 18.9376 11.2137 18.6283 11.2137V11.3046ZM18.4768 17.2524H9.61311V17.3433H18.4768V17.2524ZM19.7722 18.2978C19.7713 17.9434 19.6238 17.6797 19.3855 17.5061C19.149 17.3337 18.8265 17.2524 18.4768 17.2524V17.3433C18.814 17.3433 19.1157 17.4219 19.332 17.5795C19.5465 17.7359 19.6805 17.9722 19.6813 18.298L19.7722 18.2978ZM18.4768 19.3433C18.8266 19.3433 19.1495 19.2616 19.3862 19.089C19.6247 18.9152 19.7722 18.6515 19.7722 18.2979H19.6813C19.6813 18.6227 19.5474 18.859 19.3326 19.0155C19.1161 19.1734 18.814 19.2524 18.4768 19.2524V19.3433ZM9.61311 19.3433H18.4768V19.2524H9.61311V19.3433ZM8.31766 18.2979C8.31766 18.6515 8.46523 18.9152 8.7037 19.089C8.94042 19.2616 9.26331 19.3433 9.61311 19.3433V19.2524C9.27589 19.2524 8.97378 19.1734 8.75726 19.0155C8.54249 18.859 8.40857 18.6227 8.40857 18.2979H8.31766ZM9.61311 17.2524C9.26331 17.2524 8.94042 17.3342 8.70371 17.5067C8.46523 17.6805 8.31766 17.9442 8.31766 18.2979H8.40857C8.40857 17.973 8.54249 17.7367 8.75725 17.5802C8.97378 17.4223 9.27589 17.3433 9.61311 17.3433V17.2524Z" fill="white"/>
</svg>
