<svg width="166" height="166" viewBox="0 0 166 166" fill="none" xmlns="http://www.w3.org/2000/svg">
<path opacity="0.2" d="M15.8033 38.1261C17.494 37.5734 18.4191 35.7468 17.8696 34.0463C17.3201 32.3457 15.504 31.4153 13.8133 31.968C12.1226 32.5207 11.1974 34.3473 11.747 36.0478C12.2965 37.7483 14.1126 38.6788 15.8033 38.1261Z" fill="#2173E6"/>
<path opacity="0.2" d="M31.3978 26.3107C32.5475 25.9349 33.1766 24.6928 32.8029 23.5364C32.4292 22.3801 31.1943 21.7473 30.0446 22.1232C28.8949 22.499 28.2658 23.7411 28.6395 24.8975C29.0132 26.0538 30.2481 26.6865 31.3978 26.3107Z" fill="#2173E6"/>
<path opacity="0.2" d="M136.287 24.1243C137.127 23.3523 137.185 22.0416 136.418 21.1968C135.65 20.352 134.347 20.293 133.507 21.065C132.667 21.837 132.609 23.1477 133.376 23.9925C134.144 24.8373 135.447 24.8963 136.287 24.1243Z" fill="#2173E6"/>
<path opacity="0.05" d="M80.0963 144.365C115.44 144.365 144.091 115.548 144.091 79.9999C144.091 44.4517 115.44 15.6343 80.0963 15.6343C44.753 15.6343 16.1016 44.4517 16.1016 79.9999C16.1016 115.548 44.753 144.365 80.0963 144.365Z" fill="#015CDB"/>
<path opacity="0.3" d="M121.007 44.3139V114.052C117.062 119.273 112.327 123.915 106.917 127.512H49.9958V40.3687C50.1086 37.8159 51.123 35.4951 52.701 33.8706C54.5045 32.0141 56.8715 30.9697 59.5767 30.9697H106.917C112.327 34.5668 117.174 39.0923 121.007 44.3139Z" fill="#CED7E2"/>
<path d="M110.748 43.3856H78.7373V30.9697H120.78C120.893 30.9697 121.006 30.9697 121.006 30.9697C127.543 31.0858 132.841 36.6555 132.841 43.5016H118.977" fill="#CED7E2"/>
<g filter="url(#filter0_d_3190_24523)">
<path d="M121.907 30.9697C119.427 31.0858 117.173 32.2461 115.482 33.8706C115.369 33.9867 115.144 34.2187 115.031 34.4508C113.566 36.1914 112.551 38.5121 112.551 40.9488V115.212C112.551 122.174 107.141 127.744 100.378 127.744H41.3152V40.3687C41.4279 37.8159 42.4423 35.4951 44.0204 33.8706C45.8238 32.0141 48.1908 30.9697 50.896 30.9697H110.184H121.456C121.681 30.9697 121.794 30.9697 121.907 30.9697Z" fill="white"/>
</g>
<path d="M100.715 47.9111H83.2446C82.5683 47.9111 82.1174 47.3309 82.1174 46.7507C82.1174 46.1705 82.681 45.5903 83.2446 45.5903H100.828C101.504 45.5903 101.955 46.1705 101.955 46.7507C101.955 47.3309 101.392 47.9111 100.715 47.9111Z" fill="#CED7E2"/>
<path d="M75.0179 47.9111H52.1367C51.4604 47.9111 51.0095 47.3309 51.0095 46.7507C51.0095 46.1705 51.5731 45.5903 52.1367 45.5903H75.0179C75.6942 45.5903 76.1451 46.1705 76.1451 46.7507C76.1451 47.3309 75.6942 47.9111 75.0179 47.9111Z" fill="#CED7E2"/>
<path d="M89.6691 59.6303H66.9006C66.2243 59.6303 65.7734 59.0501 65.7734 58.4699C65.7734 57.7737 66.337 57.3096 66.9006 57.3096H89.6691C90.3454 57.3096 90.7963 57.8898 90.7963 58.4699C90.7963 59.1661 90.3454 59.6303 89.6691 59.6303Z" fill="#CED7E2"/>
<path d="M59.5759 59.6303H52.1367C51.4604 59.6303 51.0095 59.0501 51.0095 58.4699C51.0095 57.7737 51.5731 57.3096 52.1367 57.3096H59.5759C60.2522 57.3096 60.7031 57.8898 60.7031 58.4699C60.7031 59.1661 60.1395 59.6303 59.5759 59.6303Z" fill="#E3EAF2"/>
<path d="M100.718 71.4665H86.7409C86.0646 71.4665 85.6138 70.8863 85.6138 70.3061C85.6138 69.6099 86.1773 69.1458 86.7409 69.1458H100.718C101.394 69.1458 101.845 69.7259 101.845 70.3061C101.958 70.8863 101.394 71.4665 100.718 71.4665Z" fill="#E3EAF2"/>
<path d="M80.0901 71.4665H52.1367C51.4604 71.4665 51.0095 70.8863 51.0095 70.3061C51.0095 69.6099 51.5731 69.1458 52.1367 69.1458H80.0901C80.7664 69.1458 81.2173 69.7259 81.2173 70.3061C81.2173 70.8863 80.7664 71.4665 80.0901 71.4665Z" fill="#CED7E2"/>
<path d="M89.6695 83.186H74.2275C73.5512 83.186 73.1003 82.6058 73.1003 82.0256C73.1003 81.4454 73.6639 80.8652 74.2275 80.8652H89.6695C90.3458 80.8652 90.7967 81.4454 90.7967 82.0256C90.7967 82.6058 90.3458 83.186 89.6695 83.186Z" fill="#CED7E2"/>
<path d="M67.5787 83.186H52.1367C51.4604 83.186 51.0095 82.6058 51.0095 82.0256C51.0095 81.4454 51.5731 80.8652 52.1367 80.8652H67.5787C68.255 80.8652 68.7058 81.4454 68.7058 82.0256C68.7058 82.6058 68.255 83.186 67.5787 83.186Z" fill="#E3EAF2"/>
<path d="M100.717 95.0219H90.0087C89.3325 95.0219 88.8816 94.4417 88.8816 93.8615C88.8816 93.1653 89.4452 92.7012 90.0087 92.7012H100.717C101.393 92.7012 101.844 93.2814 101.844 93.8615C101.957 94.4417 101.393 95.0219 100.717 95.0219Z" fill="#CED7E2"/>
<path d="M83.0205 95.0219H64.986C64.3097 95.0219 63.8589 94.4417 63.8589 93.8615C63.8589 93.1653 64.4225 92.7012 64.986 92.7012H83.0205C83.6968 92.7012 84.1477 93.2814 84.1477 93.8615C84.2604 94.4417 83.6968 95.0219 83.0205 95.0219Z" fill="#E3EAF2"/>
<path d="M58.3362 95.0219H52.0241C51.3478 95.0219 50.897 94.4417 50.897 93.8615C50.897 93.1653 51.4606 92.7012 52.0241 92.7012H58.3362C59.0125 92.7012 59.4633 93.2814 59.4633 93.8615C59.4633 94.4417 59.0125 95.0219 58.3362 95.0219Z" fill="#CED7E2"/>
<path d="M89.6708 106.741H78.9628C78.2866 106.741 77.8357 106.161 77.8357 105.581C77.8357 105.001 78.3993 104.42 78.9628 104.42H89.6708C90.3471 104.42 90.798 105.001 90.798 105.581C90.798 106.161 90.3471 106.741 89.6708 106.741Z" fill="#CED7E2"/>
<path d="M71.9746 106.741H52.1367C51.4604 106.741 51.0095 106.161 51.0095 105.581C51.0095 105.001 51.5731 104.421 52.1367 104.421H71.9746C72.6509 104.421 73.1018 105.001 73.1018 105.581C73.1018 106.161 72.5382 106.741 71.9746 106.741Z" fill="#E3EAF2"/>
<path d="M74.4541 117.765H90.0088C90.0088 120.434 91.0233 122.987 92.8267 124.727C94.5175 126.468 96.8845 127.628 99.5897 127.628H29.3679C26.7755 127.628 24.2957 126.584 22.605 124.727C20.9143 122.987 19.7871 120.55 19.7871 117.765H65.8877C66.0005 117.765 74.5668 117.881 74.4541 117.765Z" fill="#CED7E2"/>
<g filter="url(#filter1_d_3190_24523)">
<path d="M152.989 126.198C150.156 140.159 136.417 149.276 122.537 146.284C108.656 143.435 99.5912 129.616 102.566 115.655C105.398 101.694 119.137 92.5772 133.018 95.5689C137.975 96.5661 142.507 98.9879 146.048 102.692C152.139 108.818 154.83 117.65 152.989 126.198Z" fill="url(#paint0_linear_3190_24523)"/>
</g>
<path d="M155.674 134.233C155.5 134.768 155.327 135.125 154.98 135.661C152.032 141.552 147.349 146.372 141.627 149.228C140.933 149.585 140.239 149.942 139.719 150.121L118.215 127.984L123.417 128.163L128.967 128.342L132.956 125.485C132.956 125.485 136.077 119.951 135.904 119.594C135.73 119.237 132.262 113.703 132.262 113.703L136.077 114.417L155.674 134.233Z" fill="url(#paint1_linear_3190_24523)"/>
<path d="M140.416 131.198L135.907 126.557C139.376 121.201 137.988 114.061 132.786 110.49C127.583 106.92 120.646 108.348 117.178 113.704C113.71 119.059 115.097 126.2 120.3 129.77C124.115 132.269 128.971 132.269 132.612 129.77L137.121 134.412C137.988 135.304 139.376 135.304 140.243 134.412C141.283 133.519 141.283 132.091 140.416 131.198ZM121.86 124.95C119.259 122.273 119.259 117.81 121.86 115.132C124.462 112.454 128.797 112.454 131.398 115.132C134 117.81 134 122.273 131.398 124.95C128.624 127.628 124.462 127.628 121.86 124.95Z" fill="url(#paint2_linear_3190_24523)"/>
<defs>
<filter id="filter0_d_3190_24523" x="17.3152" y="6.96973" width="128.592" height="144.774" filterUnits="userSpaceOnUse" color-interpolation-filters="sRGB">
<feFlood flood-opacity="0" result="BackgroundImageFix"/>
<feColorMatrix in="SourceAlpha" type="matrix" values="0 0 0 0 0 0 0 0 0 0 0 0 0 0 0 0 0 0 127 0" result="hardAlpha"/>
<feOffset/>
<feGaussianBlur stdDeviation="12"/>
<feComposite in2="hardAlpha" operator="out"/>
<feColorMatrix type="matrix" values="0 0 0 0 0 0 0 0 0 0 0 0 0 0 0 0 0 0 0.04 0"/>
<feBlend mode="normal" in2="BackgroundImageFix" result="effect1_dropShadow_3190_24523"/>
<feBlend mode="normal" in="SourceGraphic" in2="effect1_dropShadow_3190_24523" result="shape"/>
</filter>
<filter id="filter1_d_3190_24523" x="90.384" y="90.644" width="74.7918" height="75.0848" filterUnits="userSpaceOnUse" color-interpolation-filters="sRGB">
<feFlood flood-opacity="0" result="BackgroundImageFix"/>
<feColorMatrix in="SourceAlpha" type="matrix" values="0 0 0 0 0 0 0 0 0 0 0 0 0 0 0 0 0 0 127 0" result="hardAlpha"/>
<feOffset dy="7.26"/>
<feGaussianBlur stdDeviation="5.808"/>
<feColorMatrix type="matrix" values="0 0 0 0 0.603922 0 0 0 0 0.639216 0 0 0 0 0.717647 0 0 0 0.4 0"/>
<feBlend mode="normal" in2="BackgroundImageFix" result="effect1_dropShadow_3190_24523"/>
<feBlend mode="normal" in="SourceGraphic" in2="effect1_dropShadow_3190_24523" result="shape"/>
</filter>
<linearGradient id="paint0_linear_3190_24523" x1="102.003" y1="120.906" x2="153.556" y2="120.906" gradientUnits="userSpaceOnUse">
<stop stop-color="#FFD76F"/>
<stop offset="0.0001" stop-color="#B7BCC8"/>
<stop offset="1" stop-color="#939EB4"/>
</linearGradient>
<linearGradient id="paint1_linear_3190_24523" x1="121.953" y1="121.523" x2="138.278" y2="140.278" gradientUnits="userSpaceOnUse">
<stop stop-color="#8693B0"/>
<stop offset="1" stop-color="#8995B0" stop-opacity="0"/>
</linearGradient>
<linearGradient id="paint2_linear_3190_24523" x1="137.745" y1="131.592" x2="122.301" y2="116.589" gradientUnits="userSpaceOnUse">
<stop offset="0.0113208" stop-color="#CFD4DF"/>
<stop offset="1" stop-color="white"/>
</linearGradient>
</defs>
</svg>
