<svg width="40" height="40" viewBox="0 0 40 40" fill="none" xmlns="http://www.w3.org/2000/svg">
<rect width="40" height="40" rx="6" fill="#BABFC8"/>
<path d="M11.3395 10H14.1708C14.367 10.0101 14.5519 10.0951 14.6873 10.2376C14.8226 10.38 14.8981 10.569 14.8981 10.7655C14.8981 10.962 14.8226 11.151 14.6873 11.2935C14.5519 11.4359 14.367 11.521 14.1708 11.531H12.2958C12.1953 11.5311 12.0957 11.5509 12.0029 11.5894C11.91 11.6279 11.8257 11.6843 11.7546 11.7554C11.6836 11.8265 11.6272 11.9109 11.5888 12.0037C11.5503 12.0966 11.5306 12.1961 11.5306 12.2967V14.1717C11.5205 14.3678 11.4355 14.5527 11.2931 14.688C11.1507 14.8233 10.9618 14.8987 10.7653 14.8987C10.5689 14.8987 10.3799 14.8233 10.2375 14.688C10.0951 14.5527 10.0101 14.3678 10 14.1717V11.3393C10 11.1634 10.0347 10.9892 10.102 10.8267C10.1693 10.6642 10.268 10.5166 10.3924 10.3922C10.5168 10.2678 10.6644 10.1692 10.8269 10.1019C10.9895 10.0346 11.1636 9.99997 11.3395 10ZM29.2351 14.9004C29.0384 14.9004 28.8492 14.8247 28.7068 14.6891C28.5643 14.5535 28.4794 14.3683 28.4697 14.1719V12.2969C28.4697 12.1964 28.4499 12.0968 28.4115 12.004C28.373 11.9111 28.3167 11.8267 28.2456 11.7556C28.1746 11.6845 28.0902 11.6281 27.9974 11.5896C27.9045 11.5511 27.805 11.5313 27.7045 11.5313H25.8308C25.6346 11.5212 25.4497 11.4362 25.3143 11.2937C25.179 11.1512 25.1035 10.9622 25.1035 10.7657C25.1035 10.5692 25.179 10.3802 25.3143 10.2378C25.4497 10.0953 25.6346 10.0103 25.8308 10.0002H28.661C29.0162 10.0002 29.3568 10.1413 29.608 10.3925C29.8591 10.6437 30.0002 10.9843 30.0002 11.3395V14.1719C29.9906 14.3683 29.9058 14.5535 29.7634 14.6892C29.6209 14.8248 29.4318 14.9005 29.2351 14.9004ZM25.8304 28.469H27.7054C27.8059 28.4689 27.9054 28.4491 27.9983 28.4106C28.0911 28.3721 28.1755 28.3157 28.2465 28.2446C28.3176 28.1735 28.3739 28.0891 28.4124 27.9963C28.4508 27.9034 28.4706 27.8039 28.4706 27.7033V25.8636C28.4736 25.6667 28.5523 25.4785 28.6904 25.3381C28.8286 25.1977 29.0154 25.1159 29.2123 25.1096C29.4091 25.1034 29.6008 25.1732 29.7476 25.3046C29.8943 25.436 29.9848 25.6188 30.0002 25.8152V28.6607C30.0002 29.0159 29.8591 29.3566 29.608 29.6077C29.3568 29.8589 29.0162 30 28.661 30H25.8306C25.6344 29.9899 25.4495 29.9049 25.3141 29.7624C25.1788 29.62 25.1033 29.431 25.1033 29.2345C25.1033 29.038 25.1788 28.849 25.3141 28.7065C25.4495 28.5641 25.6341 28.479 25.8304 28.469ZM10.7663 25.0996C10.9611 25.0996 11.1485 25.1738 11.2905 25.3071C11.4325 25.4404 11.5185 25.6228 11.5308 25.8172V27.7033C11.5308 27.8039 11.5506 27.9034 11.589 27.9963C11.6274 28.0891 11.6838 28.1735 11.7548 28.2446C11.8259 28.3157 11.9103 28.3721 12.0031 28.4106C12.096 28.4491 12.1955 28.4689 12.296 28.469H14.171C14.3672 28.479 14.5521 28.5641 14.6875 28.7065C14.8228 28.849 14.8983 29.038 14.8983 29.2345C14.8983 29.431 14.8228 29.62 14.6875 29.7624C14.5521 29.9049 14.3672 29.9899 14.171 30H11.3395C10.9843 30 10.6437 29.8589 10.3925 29.6077C10.1413 29.3566 10.0002 29.0159 10.0002 28.6607V25.858C10.0023 25.6562 10.0839 25.4633 10.2274 25.3213C10.3708 25.1793 10.5645 25.0996 10.7663 25.0996Z" fill="white"/>
<path opacity="0.5" d="M26.7793 14.2861H24.9943V20.0006H26.7793V14.2861ZM23.9233 14.2861H22.8523V20.0006H23.9233V14.2861ZM21.7813 14.2861H19.9963V20.0006H21.7813V14.2861ZM18.9253 14.2861H16.0693V20.0006H18.9253V14.2861ZM14.9983 14.2861H13.2132V20.0006H14.9983V14.2861ZM26.7793 22.1433H24.9943V25.7147H26.7793V22.1433ZM23.9233 22.1433H22.8523V25.7147H23.9233V22.1433ZM21.7813 22.1433H19.9963V25.7147H21.7813V22.1433ZM18.9253 22.1433H16.0693V25.7147H18.9253V22.1433ZM14.9983 22.1433H13.2132V25.7147H14.9983V22.1433Z" fill="white"/>
<rect x="10" y="20.3" width="20" height="1.5" rx="0.75" fill="white"/>
</svg>
