<svg width="16" height="16" viewBox="0 0 16 16" fill="none" xmlns="http://www.w3.org/2000/svg">
<path d="M8.94831 7.59944L5.77621 10.9281C5.54139 11.1745 5.54139 11.5688 5.77621 11.8152C6.01102 12.0616 6.38672 12.0616 6.62153 11.8152L10.1309 8.13257C10.1651 8.11017 10.195 8.08329 10.2248 8.05193C10.3444 7.92649 10.4042 7.7652 10.3999 7.59944C10.3999 7.43816 10.3444 7.27239 10.2248 7.14695C10.195 7.11559 10.1651 7.08871 10.1309 7.06631L6.62153 3.38368C6.50626 3.26272 6.35257 3.2 6.19887 3.2C6.04517 3.2 5.89148 3.26272 5.77621 3.38368C5.54139 3.63009 5.54139 4.02434 5.77621 4.27074L8.94831 7.59944Z" fill="#FF8D24"/>
</svg>
