<svg width="20" height="20" viewBox="0 0 20 20" fill="none" xmlns="http://www.w3.org/2000/svg">
<path d="M15.4444 4.55556H13.1111C12.9049 4.55552 12.7071 4.47357 12.5612 4.32771C12.4154 4.18185 12.3335 3.98404 12.3335 3.77778C12.3335 3.57152 12.4154 3.37371 12.5612 3.22785C12.7071 3.08199 12.9049 3.00003 13.1111 3H16.2222C16.4285 3 16.6263 3.08194 16.7722 3.22781C16.9181 3.37367 17 3.5715 17 3.77778V6.88889C17 7.09515 16.918 7.29295 16.7722 7.43878C16.6263 7.58462 16.4285 7.66655 16.2222 7.66655C16.016 7.66655 15.8182 7.58462 15.6723 7.43878C15.5264 7.29295 15.4445 7.09515 15.4444 6.88889V4.55556ZM4.55556 4.55556V6.88889C4.55557 6.99104 4.53546 7.09219 4.49638 7.18657C4.4573 7.28095 4.40002 7.3667 4.32779 7.43894C4.25557 7.51117 4.16982 7.56847 4.07545 7.60757C3.98108 7.64666 3.87993 7.66679 3.77778 7.66679C3.67563 7.66679 3.57448 7.64666 3.48011 7.60757C3.38574 7.56847 3.29999 7.51117 3.22776 7.43894C3.15554 7.3667 3.09825 7.28095 3.05917 7.18657C3.02009 7.09219 2.99998 6.99104 3 6.88889V3.77778C3 3.5715 3.08194 3.37367 3.22781 3.22781C3.37367 3.08194 3.5715 3 3.77778 3H6.88889C6.99104 2.99998 7.09219 3.02009 7.18657 3.05917C7.28095 3.09825 7.3667 3.15554 7.43894 3.22776C7.51117 3.29999 7.56847 3.38574 7.60757 3.48011C7.64666 3.57448 7.66679 3.67563 7.66679 3.77778C7.66679 3.87993 7.64666 3.98108 7.60757 4.07545C7.56847 4.16982 7.51117 4.25557 7.43894 4.32779C7.3667 4.40002 7.28095 4.4573 7.18657 4.49638C7.09219 4.53546 6.99104 4.55557 6.88889 4.55556H4.55556ZM15.4444 15.4444V13.1111C15.4445 12.9049 15.5264 12.7071 15.6723 12.5612C15.8182 12.4154 16.016 12.3335 16.2222 12.3335C16.4285 12.3335 16.6263 12.4154 16.7722 12.5612C16.918 12.7071 17 12.9049 17 13.1111V16.2222C17 16.4285 16.9181 16.6263 16.7722 16.7722C16.6263 16.9181 16.4285 17 16.2222 17H13.1111C12.9049 17 12.7071 16.918 12.5612 16.7722C12.4154 16.6263 12.3335 16.4285 12.3335 16.2222C12.3335 16.016 12.4154 15.8182 12.5612 15.6723C12.7071 15.5264 12.9049 15.4445 13.1111 15.4444H15.4444ZM4.55556 15.4444H6.88889C7.09515 15.4445 7.29295 15.5264 7.43878 15.6723C7.58462 15.8182 7.66655 16.016 7.66655 16.2222C7.66655 16.4285 7.58462 16.6263 7.43878 16.7722C7.29295 16.918 7.09515 17 6.88889 17H3.77778C3.5715 17 3.37367 16.9181 3.22781 16.7722C3.08194 16.6263 3 16.4285 3 16.2222V13.1111C3.00003 12.9049 3.08199 12.7071 3.22785 12.5612C3.37371 12.4154 3.57152 12.3335 3.77778 12.3335C3.98404 12.3335 4.18185 12.4154 4.32771 12.5612C4.47357 12.7071 4.55552 12.9049 4.55556 13.1111V15.4444ZM6.11111 10.7778C5.90483 10.7778 5.707 10.6958 5.56114 10.55C5.41528 10.4041 5.33333 10.2063 5.33333 10C5.33333 9.79372 5.41528 9.59589 5.56114 9.45003C5.707 9.30417 5.90483 9.22222 6.11111 9.22222H13.8889C14.0952 9.22222 14.293 9.30417 14.4389 9.45003C14.5847 9.59589 14.6667 9.79372 14.6667 10C14.6667 10.2063 14.5847 10.4041 14.4389 10.55C14.293 10.6958 14.0952 10.7778 13.8889 10.7778H6.11111Z" fill="#B7BCC5"/>
</svg>
