<?xml version="1.0" encoding="UTF-8"?>
<svg width="16px" height="16px" viewBox="0 0 16 16" version="1.1" xmlns="http://www.w3.org/2000/svg" xmlns:xlink="http://www.w3.org/1999/xlink">
    <title>编组 3</title>
    <g id="页面-1" stroke="none" stroke-width="1" fill="none" fill-rule="evenodd">
        <g id="Select-Crypto" transform="translate(-761.000000, -261.000000)" fill="#999999" fill-rule="nonzero">
            <g id="搜索" transform="translate(761.000000, 261.000000)">
                <path d="M1.62899337,7.31451028 C1.60211889,5.28236723 2.66007282,3.3902344 4.40433416,2.35085993 C6.14859549,1.31148546 8.31416943,1.28277505 10.0853052,2.27554364 C11.856441,3.26831223 12.964061,5.13173465 12.9909354,7.1638777 C13.0324796,10.3052986 10.5227006,12.8856436 7.38518699,12.9272397 C4.24767337,12.9688357 1.67053772,10.4559312 1.62899337,7.31451028 L1.62899337,7.31451028 Z M15.7641865,14.6341867 L12.9935981,11.858815 C14.2021247,10.3471865 14.7610487,8.41660703 14.5472959,6.49218692 C14.3335432,4.5677668 13.3646419,2.80731165 11.8539424,1.59847084 C8.70890606,-0.918790807 4.12137129,-0.407369034 1.60636002,2.7408789 C-0.724888253,5.64678656 -0.49464792,9.84459753 2.14038797,12.477437 C4.77542385,15.1102765 8.9684831,15.332078 11.8659247,12.9918918 L14.6351817,15.7645975 C14.9412593,16.0722935 15.4366402,16.079226 15.7511872,15.7802153 C16.0657341,15.4812046 16.0845059,14.9855145 15.7934768,14.6635134 L15.7641865,14.6341867 L15.7641865,14.6341867 Z" id="形状"></path>
            </g>
        </g>
    </g>
</svg>