<svg width="12" height="12" viewBox="0 0 12 12" fill="none" xmlns="http://www.w3.org/2000/svg">
<path fill-rule="evenodd" clip-rule="evenodd" d="M9.7452 8.89411L11.8231 10.9756L11.8451 10.9976C12.0634 11.2391 12.0493 11.6109 11.8134 11.8352C11.5775 12.0594 11.2059 12.0542 10.9764 11.8234L8.89944 9.74392C6.72636 11.4991 3.58157 11.3327 1.60529 9.35808C-0.370986 7.38345 -0.543666 4.23509 1.20477 2.05566C3.09103 -0.305527 6.53168 -0.689093 8.89046 1.19885C10.0235 2.10548 10.7502 3.42583 10.9105 4.86914C11.0708 6.31246 10.6516 7.76039 9.7452 8.89411ZM3.30323 1.76315C1.99504 2.54268 1.20157 3.96178 1.22173 5.48589C1.25289 7.84196 3.18574 9.72664 5.53887 9.69544C7.89201 9.66424 9.77434 7.72898 9.74319 5.37292C9.72303 3.84881 8.89231 2.45124 7.56396 1.70667C6.23561 0.962089 4.61143 0.983622 3.30323 1.76315Z" fill="#848B96"/>
</svg>
