<svg width="160" height="160" viewBox="0 0 160 160" fill="none" xmlns="http://www.w3.org/2000/svg">
<path opacity="0.2" d="M15.8033 38.1261C17.494 37.5734 18.4191 35.7468 17.8696 34.0463C17.3201 32.3457 15.504 31.4153 13.8133 31.968C12.1226 32.5207 11.1974 34.3473 11.747 36.0478C12.2965 37.7483 14.1126 38.6788 15.8033 38.1261Z" fill="#2173E6"/>
<path opacity="0.2" d="M31.3978 26.3107C32.5475 25.9349 33.1766 24.6928 32.8029 23.5364C32.4292 22.3801 31.1943 21.7473 30.0446 22.1232C28.8949 22.499 28.2658 23.7411 28.6395 24.8975C29.0132 26.0538 30.2481 26.6865 31.3978 26.3107Z" fill="#2173E6"/>
<path opacity="0.2" d="M136.287 24.1243C137.127 23.3523 137.185 22.0416 136.418 21.1968C135.65 20.352 134.347 20.293 133.507 21.065C132.667 21.837 132.609 23.1477 133.376 23.9925C134.144 24.8373 135.447 24.8963 136.287 24.1243Z" fill="#2173E6"/>
<path opacity="0.05" d="M79.9948 144.365C115.338 144.365 143.99 115.548 143.99 79.9999C143.99 44.4517 115.338 15.6343 79.9948 15.6343C44.6514 15.6343 16 44.4517 16 79.9999C16 115.548 44.6514 144.365 79.9948 144.365Z" fill="#015CDB"/>
<path fill-rule="evenodd" clip-rule="evenodd" d="M124 126.733C112.531 137.662 97.0411 144.365 79.9948 144.365C62.4531 144.365 46.56 137.267 35 125.77V63.375C35 55.0907 41.7157 48.375 50 48.375H109C117.284 48.375 124 55.0907 124 63.375V126.733Z" fill="white"/>
<path d="M79 99.2504C89.3554 99.2504 97.7501 90.8558 97.7501 80.5004C97.7501 70.145 89.3554 61.7504 79 61.7504C68.6447 61.7504 60.25 70.145 60.25 80.5004C60.25 90.8558 68.6447 99.2504 79 99.2504Z" fill="url(#paint0_linear_3896_16000)"/>
<path d="M97 82C96.8266 82.5356 92.8452 92.4644 92.4983 93L78.4687 84C78.0489 83.5802 80.3451 80.8619 78.4692 77C78.2958 76.643 78.4708 70 78.4708 70L97 82Z" fill="url(#paint1_linear_3896_16000)"/>
<path fill-rule="evenodd" clip-rule="evenodd" d="M79.1119 84.7307L79.1121 84.7309L84.9126 88.1924C85.2542 88.4157 85.6187 88.4942 85.9574 88.4942C86.6426 88.4942 87.3112 88.1386 87.7062 87.5067L87.7112 87.4986L87.7161 87.4904C88.2748 86.5324 87.9914 85.2827 87.0066 84.7061L81.1965 81.2387L81.1965 81.2387L81.19 81.2349C81.0312 81.1427 80.8135 80.9133 80.6296 80.5899C80.4461 80.2673 80.3574 79.9587 80.3574 79.7692V72.0817C80.3574 70.9677 79.4401 70.0504 78.3262 70.0504C77.2122 70.0504 76.2949 70.9677 76.2949 72.0817V79.7692C76.2949 81.6574 77.4789 83.7552 79.1119 84.7307Z" fill="url(#paint2_linear_3896_16000)"/>
<path d="M91.125 108.875H67.875C66.4943 108.875 65.375 109.995 65.375 111.375C65.375 112.756 66.4943 113.875 67.875 113.875H91.125C92.5057 113.875 93.625 112.756 93.625 111.375C93.625 109.995 92.5057 108.875 91.125 108.875Z" fill="url(#paint3_linear_3896_16000)"/>
<path d="M99.75 121.375H59.25C57.8693 121.375 56.75 122.495 56.75 123.875C56.75 125.256 57.8693 126.375 59.25 126.375H99.75C101.131 126.375 102.25 125.256 102.25 123.875C102.25 122.495 101.131 121.375 99.75 121.375Z" fill="url(#paint4_linear_3896_16000)"/>
<defs>
<linearGradient id="paint0_linear_3896_16000" x1="60.2519" y1="80.4857" x2="97.7472" y2="80.4857" gradientUnits="userSpaceOnUse">
<stop stop-color="#FFD76F"/>
<stop offset="0.0001" stop-color="#B7BCC8"/>
<stop offset="1" stop-color="#939EB4"/>
</linearGradient>
<linearGradient id="paint1_linear_3896_16000" x1="68.9535" y1="78.5227" x2="85.2778" y2="97.2782" gradientUnits="userSpaceOnUse">
<stop stop-color="#8693B0"/>
<stop offset="1" stop-color="#8995B0" stop-opacity="0"/>
</linearGradient>
<linearGradient id="paint2_linear_3896_16000" x1="86.5005" y1="86.071" x2="76.7873" y2="79.9021" gradientUnits="userSpaceOnUse">
<stop offset="0.0113208" stop-color="#CFD4DF"/>
<stop offset="1" stop-color="white"/>
</linearGradient>
<linearGradient id="paint3_linear_3896_16000" x1="65.2493" y1="108.625" x2="95.8743" y2="108.875" gradientUnits="userSpaceOnUse">
<stop stop-color="#CED7E2" stop-opacity="0.5"/>
<stop offset="1" stop-color="#CED7E2"/>
</linearGradient>
<linearGradient id="paint4_linear_3896_16000" x1="56.5475" y1="121.125" x2="105.867" y2="121.774" gradientUnits="userSpaceOnUse">
<stop stop-color="#CED7E2" stop-opacity="0.5"/>
<stop offset="1" stop-color="#CED7E2"/>
</linearGradient>
</defs>
</svg>
