<svg width="24" height="24" viewBox="0 0 24 24" fill="none" xmlns="http://www.w3.org/2000/svg">
<path d="M16.0456 17.6651L12 13.6189L7.95435 17.6651C7.50781 18.1116 6.78293 18.1116 6.33639 17.6651C5.88985 17.2185 5.88985 16.4935 6.33639 16.0469L10.382 12.0007L6.3349 7.95311C5.88837 7.50651 5.88837 6.78154 6.3349 6.33495C6.78144 5.88835 7.50633 5.88835 7.95287 6.33495L12 10.3811L16.0456 6.33495C16.4922 5.88835 17.2171 5.88835 17.6636 6.33495C18.1101 6.78154 18.1101 7.50651 17.6636 7.95311L13.618 11.9993L17.6651 16.0469C18.1116 16.4935 18.1116 17.2185 17.6651 17.6651C17.2186 18.1116 16.4937 18.1116 16.0456 17.6651V17.6651Z" fill="#252830"/>
</svg>
