<svg width="20" height="20" viewBox="0 0 20 20" fill="none" xmlns="http://www.w3.org/2000/svg">
<path d="M13.3714 14.7209L10 11.3491L6.62863 14.7209C6.25651 15.093 5.65244 15.093 5.28033 14.7209C4.90821 14.3487 4.90821 13.7446 5.28033 13.3724L8.6517 10.0006L5.27909 6.62759C4.90697 6.25543 4.90697 5.65128 5.27909 5.27912C5.6512 4.90696 6.25527 4.90696 6.62739 5.27912L10 8.65091L13.3714 5.27912C13.7435 4.90696 14.3476 4.90696 14.7197 5.27912C15.0918 5.65128 15.0918 6.25543 14.7197 6.62759L11.3483 9.99938L14.7209 13.3724C15.093 13.7446 15.093 14.3487 14.7209 14.7209C14.3488 15.093 13.7447 15.093 13.3714 14.7209Z" fill="#848B96"/>
</svg>
