<svg width="14" height="14" viewBox="0 0 14 14" fill="none" xmlns="http://www.w3.org/2000/svg">
<path d="M7 14C10.8659 14 14 10.8659 14 7C14 3.13407 10.8659 0 7 0C3.13407 0 0 3.13407 0 7C0 10.8659 3.13407 14 7 14ZM4.00382 9.25382L6.475 6.78247V3.85C6.475 3.71076 6.53031 3.57723 6.62877 3.47877C6.72723 3.38031 6.86076 3.325 7 3.325C7.13924 3.325 7.27277 3.38031 7.37123 3.47877C7.46969 3.57723 7.525 3.71076 7.525 3.85V7C7.52497 7.13923 7.46964 7.27274 7.37117 7.37117L4.74617 9.99617C4.69774 10.0463 4.63981 10.0863 4.57576 10.1138C4.51171 10.1413 4.44282 10.1558 4.37311 10.1564C4.3034 10.157 4.23427 10.1438 4.16975 10.1174C4.10523 10.091 4.04661 10.052 3.99732 10.0027C3.94802 9.95339 3.90904 9.89477 3.88264 9.83025C3.85625 9.76573 3.84296 9.6966 3.84357 9.62689C3.84417 9.55718 3.85866 9.48829 3.88617 9.42424C3.91369 9.36019 3.95368 9.30225 4.00382 9.25382Z" fill="#DBDBDB"/>
</svg>
