<svg width="176" height="176" viewBox="0 0 176 176" fill="none" xmlns="http://www.w3.org/2000/svg">
<circle cx="88" cy="88" r="88" fill="#DAE0FF" fill-opacity="0.22"/>
<circle cx="88" cy="88" r="73" fill="#DAE0FF"/>
<mask id="mask0_2595_3513" style="mask-type:alpha" maskUnits="userSpaceOnUse" x="15" y="14" width="147" height="148">
<circle cx="88.4999" cy="88.0388" r="73.0519" fill="#DAFFEF"/>
</mask>
<g mask="url(#mask0_2595_3513)">
<path d="M133.012 129.735C124.463 121.445 105.041 114.815 104.841 115.278C104.642 115.742 100.041 117.232 89.5071 117.242C79.3276 117.242 74.7862 115.722 74.5918 115.278C74.3973 114.835 53.9734 121.455 45.424 129.735C37.3432 137.577 36.401 154.76 35.9025 161.739H142.558C142.06 154.76 141.093 137.577 133.012 129.735Z" fill="#786DBD"/>
<path d="M84.7812 125.024H94.2578V161.739H84.7812V125.024Z" fill="#DDDAFF"/>
<path d="M101.317 102.611C101.317 102.611 102.035 96.5295 102.204 96.0908C101.915 96.3002 101.097 96.7389 100.813 96.9632C99.0086 98.3939 94.2528 98.8825 89.4023 98.7728C84.5568 98.8825 79.801 98.3939 77.9964 96.9632C77.7123 96.7389 76.8947 96.3002 76.6056 96.0908C76.7751 96.5295 77.4979 102.616 77.4929 102.611C77.6724 113.748 75.6385 115.348 74.6265 119.007C77.8519 124.8 82.5329 119.007 85.7632 124.795C86.4561 126.046 92.3535 126.046 93.0464 124.795C96.2718 118.997 100.958 124.795 104.183 119.007C103.176 115.348 101.137 113.748 101.317 102.611Z" fill="#FAC396"/>
<path d="M77.3883 108.254C77.3832 112.788 79.1051 117.153 82.2039 120.462C83.7205 122.122 85.5413 123.476 87.5679 124.45C88.0664 124.675 89.5619 124.774 89.188 125.607C89.0539 125.844 88.8596 126.042 88.6247 126.18C87.1292 127.237 86.1073 128.743 85.1352 130.248C84.1082 131.843 82.9367 133.279 81.9098 134.859C81.7169 135.252 81.3846 135.56 80.9776 135.722C80.3046 135.891 80.3495 135.308 80.185 134.959C79.8964 134.361 79.5631 133.787 79.188 133.239L76.6954 129.47C75.2348 127.277 73.7592 125.054 72.9217 122.561C72.0842 120.069 71.9247 117.222 73.1311 114.874C74.2178 112.726 76.2966 111.17 77.184 108.937" fill="white"/>
<path d="M101.426 108.254C101.41 111.492 100.526 114.667 98.8649 117.448C97.2043 120.228 94.8283 122.512 91.9846 124.062C91.2368 124.465 90.2847 124.49 89.5818 124.994C88.4352 125.816 90.5489 126.489 91.1222 126.958C93.8889 129.211 95.6087 132.247 97.2688 135.378C97.4034 135.642 97.7673 135.876 97.9866 135.692C98.0577 135.633 98.1155 135.56 98.1561 135.477C98.6704 134.459 99.2586 133.479 99.9159 132.546C100.703 131.549 101.466 130.502 102.164 129.455C103.62 127.262 105.095 125.039 105.938 122.546C106.78 120.054 106.935 117.207 105.723 114.859C104.642 112.711 102.558 111.155 101.671 108.922" fill="white"/>
<path d="M87.1393 128.419C87.1393 128.713 87.1971 129.004 87.3096 129.276C87.422 129.547 87.5869 129.794 87.7947 130.002C88.0026 130.21 88.2494 130.375 88.521 130.487C88.7926 130.6 89.0837 130.658 89.3776 130.658C89.6716 130.658 89.9627 130.6 90.2343 130.487C90.5059 130.375 90.7527 130.21 90.9606 130.002C91.1684 129.794 91.3333 129.547 91.4457 129.276C91.5582 129.004 91.616 128.713 91.6159 128.419C91.616 128.125 91.5582 127.834 91.4457 127.562C91.3333 127.291 91.1684 127.044 90.9606 126.836C90.7527 126.628 90.5059 126.463 90.2343 126.351C89.9627 126.238 89.6716 126.18 89.3776 126.18C89.0837 126.18 88.7926 126.238 88.521 126.351C88.2494 126.463 88.0026 126.628 87.7947 126.836C87.5869 127.044 87.422 127.291 87.3096 127.562C87.1971 127.834 87.1393 128.125 87.1393 128.419Z" fill="#786DBD"/>
<path d="M87.1393 140.892C87.1393 141.186 87.1971 141.477 87.3096 141.748C87.422 142.02 87.5869 142.267 87.7947 142.475C88.0026 142.683 88.2494 142.848 88.521 142.96C88.7926 143.073 89.0837 143.131 89.3776 143.131C89.6716 143.131 89.9627 143.073 90.2343 142.96C90.5059 142.848 90.7527 142.683 90.9606 142.475C91.1684 142.267 91.3333 142.02 91.4457 141.748C91.5582 141.477 91.616 141.186 91.6159 140.892C91.616 140.598 91.5582 140.307 91.4457 140.035C91.3333 139.763 91.1684 139.517 90.9606 139.309C90.7527 139.101 90.5059 138.936 90.2343 138.823C89.9627 138.711 89.6716 138.653 89.3776 138.653C89.0837 138.653 88.7926 138.711 88.521 138.823C88.2494 138.936 88.0026 139.101 87.7947 139.309C87.5869 139.517 87.422 139.763 87.3096 140.035C87.1971 140.307 87.1393 140.598 87.1393 140.892Z" fill="#786DBD"/>
<path d="M65.3843 88.3337C65.3843 88.3337 60.5787 81.4194 64.5568 71.6935C68.5349 61.9676 88.9238 55.7412 88.9238 55.7412L114.208 63.9317C114.208 63.9317 116.611 88.8571 111.058 93.3686C105.504 97.8801 65.3843 88.3337 65.3843 88.3337Z" fill="#553C0B"/>
<path d="M67.4381 98.1994C69.9756 104.251 75.9876 111.161 84.3226 113.778C94.542 117.018 102.947 111.006 107.753 105.029C112.807 98.7478 113.301 89.8693 112.015 82.8254C111.088 77.7406 108.725 72.3567 102.872 69.4105C98.7495 67.3417 93.4005 66.8083 88.4154 67.3318C83.4303 67.8552 78.7543 69.3258 74.3176 71.0606C72.4578 71.7827 70.7782 72.9023 69.3962 74.3412C68.0142 75.78 66.9631 77.5033 66.3165 79.3907C65.8952 80.7748 65.6934 82.2163 65.7183 83.6629C65.6286 88.1694 65.5139 93.5982 67.4381 98.1994Z" fill="#FAC396"/>
<path d="M63.9883 94.874C65.6534 98.4134 67.9365 101.554 69.6514 98.528C70.6484 96.7982 69.9256 94.4054 69.3523 92.6706C68.8538 91.1451 68.6992 88.842 67.8568 87.5409C66.3612 85.3226 61.1967 85.0484 61.8148 88.8171C62.3359 90.9034 63.064 92.9324 63.9883 94.874ZM114.417 94.874C112.752 98.4134 110.469 101.554 108.754 98.528C107.757 96.7982 108.48 94.4054 109.053 92.6706C109.552 91.1451 109.707 88.842 110.549 87.5409C112.02 85.3226 117.209 85.0484 116.586 88.8171C116.07 90.9042 115.343 92.9335 114.417 94.874Z" fill="#FAC396"/>
<path d="M117.134 56.1203C117.069 54.1968 116.567 52.3135 115.665 50.6134C114.763 48.9133 113.485 47.441 111.929 46.3084C110.373 45.1758 108.58 44.4126 106.685 44.0768C104.79 43.741 102.843 43.8414 100.993 44.3704C99.8891 42.4038 98.2805 40.7674 96.3331 39.6304C94.3856 38.4933 92.1699 37.8968 89.9147 37.9024C87.6596 37.908 85.4469 38.5155 83.5051 39.6622C81.5633 40.8089 79.9628 42.4532 78.869 44.4253C77.0098 43.86 75.0455 43.7299 73.128 44.0449C71.2105 44.36 69.3912 45.1118 67.8107 46.2423C66.2301 47.3728 64.9308 48.8516 64.013 50.5644C63.0952 52.2772 62.5837 54.1782 62.5179 56.1203C60.7182 56.59 59.0565 57.4825 57.671 58.7234C56.2855 59.9644 55.2161 61.518 54.5517 63.2553C53.8872 64.9926 53.6469 66.8634 53.8507 68.7122C54.0545 70.561 54.6965 72.3345 55.7235 73.8853C56.7504 75.4362 58.1325 76.7196 59.7551 77.6289C61.3776 78.5383 63.1938 79.0474 65.0526 79.1138C66.9114 79.1803 68.7592 78.8023 70.4426 78.0111C72.126 77.22 73.5963 76.0386 74.7313 74.5651C75.1256 74.605 75.5215 74.625 75.9178 74.6249C77.9773 74.6319 80.0073 74.1361 81.8317 73.1805C83.6561 72.2249 85.2196 70.8383 86.3865 69.1413C87.5467 69.4755 88.7484 69.6433 89.9558 69.6398C91.0999 69.6395 92.2386 69.4835 93.3406 69.1762C94.5052 70.8577 96.0601 72.2319 97.8721 73.1808C99.684 74.1298 101.699 74.6253 103.745 74.6249C104.141 74.6252 104.537 74.6053 104.931 74.5651C106.066 76.0386 107.536 77.22 109.22 78.0111C110.903 78.8023 112.751 79.1803 114.61 79.1138C116.469 79.0474 118.285 78.5383 119.907 77.6289C121.53 76.7196 122.912 75.4362 123.939 73.8853C124.966 72.3345 125.608 70.561 125.812 68.7122C126.015 66.8634 125.775 64.9926 125.111 63.2553C124.446 61.518 123.377 59.9644 121.991 58.7234C120.606 57.4825 118.944 56.59 117.144 56.1203H117.134Z" fill="#553C0B"/>
<path d="M112.294 82.8255C111.863 80.9174 111.209 79.0668 110.345 77.312C110.061 83.7527 108.406 98.703 99.2231 98.2494C87.4184 97.6761 81.6357 99.1367 76.3665 97.8007C71.0972 96.4647 68.3903 77.7557 68.3903 77.7557L67.0194 77.7008C66.6755 78.3838 66.2168 78.8374 66.0224 79.3808C65.6011 80.7649 65.3993 82.2065 65.4242 83.653C65.3943 85.0987 65.3644 86.6441 65.3943 88.2144C65.8533 91.7596 66.6036 95.261 67.6376 98.6831C70.2847 104.61 76.187 111.206 84.2977 113.773C94.5171 117.013 102.922 111.001 107.728 105.024C108.697 103.807 109.52 102.48 110.18 101.071C112.578 94.7847 112.673 91.7339 112.857 89.685C112.882 87.386 112.693 85.0897 112.294 82.8255Z" fill="#CF9B36"/>
</g>
<path d="M171.304 111.252C161.21 107.09 152.301 102.068 144.924 96.3681C142.936 94.8322 140.503 94 138.001 94C135.498 94 133.065 94.8322 131.078 96.3681C123.701 102.066 114.791 107.09 104.696 111.252C104.197 111.455 103.769 111.804 103.466 112.254C103.164 112.704 103.002 113.234 103 113.778V136.237C103 155.675 132.873 176 138 176C143.127 176 173 155.673 173 136.237V113.778C172.998 113.234 172.836 112.704 172.534 112.254C172.231 111.804 171.803 111.455 171.304 111.252Z" fill="#5653FF"/>
<mask id="mask1_2595_3513" style="mask-type:alpha" maskUnits="userSpaceOnUse" x="103" y="94" width="70" height="82">
<path d="M171.304 111.252C161.21 107.09 152.301 102.068 144.924 96.3681C142.936 94.8322 140.503 94 138.001 94C135.498 94 133.065 94.8322 131.078 96.3681C123.701 102.066 114.791 107.09 104.696 111.252C104.197 111.455 103.769 111.804 103.466 112.254C103.164 112.704 103.002 113.234 103 113.778V136.237C103 155.675 132.873 176 138 176C143.127 176 173 155.673 173 136.237V113.778C172.998 113.234 172.836 112.704 172.534 112.254C172.231 111.804 171.803 111.455 171.304 111.252Z" fill="#5A98F1"/>
</mask>
<g mask="url(#mask1_2595_3513)">
<path d="M138 176C132.222 176 126.5 174.94 121.162 172.879C115.824 170.819 110.973 167.799 106.887 163.991C102.802 160.184 99.5605 155.664 97.3493 150.69C95.1381 145.716 94 140.384 94 135C94 129.616 95.1381 124.284 97.3493 119.31C99.5605 114.336 102.802 109.816 106.887 106.009C110.973 102.201 115.824 99.1814 121.162 97.1209C126.5 95.0605 132.222 94 138 94L138 135L138 176Z" fill="#7976FF"/>
</g>
<path fill-rule="evenodd" clip-rule="evenodd" d="M152.598 126.639C151.562 125.874 150.102 126.094 149.337 127.131L137.886 142.65L127.717 135.146C126.68 134.381 125.22 134.601 124.456 135.638C123.691 136.674 123.911 138.134 124.947 138.899L136.993 147.787C138.029 148.552 139.489 148.332 140.254 147.295C140.256 147.292 140.259 147.288 140.262 147.284L153.09 129.9C153.855 128.864 153.635 127.404 152.598 126.639Z" fill="white"/>
<mask id="mask2_2595_3513" style="mask-type:alpha" maskUnits="userSpaceOnUse" x="124" y="125" width="30" height="24">
<path fill-rule="evenodd" clip-rule="evenodd" d="M152.952 126.16C151.916 125.395 150.456 125.615 149.691 126.652L137.886 142.65L127.717 135.146C126.68 134.381 125.22 134.601 124.456 135.638C123.691 136.674 123.911 138.134 124.947 138.899L136.993 147.787L136.993 147.787C138.029 148.552 139.489 148.332 140.254 147.295C140.256 147.292 140.258 147.289 140.26 147.286L153.444 129.421C154.208 128.385 153.988 126.925 152.952 126.16Z" fill="white"/>
</mask>
<g mask="url(#mask2_2595_3513)">
<rect x="124" y="134" width="14" height="15" fill="#D3E2FF"/>
</g>
</svg>
