<svg width="176" height="176" viewBox="0 0 176 176" fill="none" xmlns="http://www.w3.org/2000/svg">
<circle cx="88" cy="88" r="88" fill="#DAE9FF" fill-opacity="0.22"/>
<circle cx="88" cy="88" r="73" fill="#DAE9FF"/>
<mask id="mask0_387_1165" style="mask-type:alpha" maskUnits="userSpaceOnUse" x="15" y="14" width="147" height="148">
<circle cx="88.4999" cy="88.0389" r="73.0519" fill="#DAFFEF"/>
</mask>
<g mask="url(#mask0_387_1165)">
<path d="M133.012 129.735C124.463 121.445 105.041 114.815 104.841 115.278C104.642 115.742 100.041 117.233 89.5072 117.243C79.3276 117.243 74.7862 115.722 74.5918 115.278C74.3974 114.835 53.9735 121.455 45.4241 129.735C37.3433 137.577 36.4011 154.76 35.9026 161.739H142.558C142.06 154.76 141.093 137.577 133.012 129.735Z" fill="#6D8DBD"/>
<path d="M84.7812 125.024H94.2579V161.739H84.7812V125.024Z" fill="#DAE9FF"/>
<path d="M101.317 102.611C101.317 102.611 102.034 96.5295 102.204 96.0909C101.915 96.3002 101.097 96.7389 100.813 96.9632C99.0085 98.394 94.2527 98.8825 89.4022 98.7728C84.5567 98.8825 79.801 98.394 77.9964 96.9632C77.7122 96.7389 76.8947 96.3002 76.6055 96.0909C76.775 96.5295 77.4979 102.616 77.4929 102.611C77.6723 113.748 75.6384 115.348 74.6265 119.007C77.8518 124.8 82.5328 119.007 85.7631 124.795C86.4561 126.046 92.3534 126.046 93.0463 124.795C96.2717 118.997 100.958 124.795 104.183 119.007C103.176 115.348 101.137 113.748 101.317 102.611Z" fill="#FAC396"/>
<path d="M77.3883 108.254C77.3831 112.788 79.105 117.154 82.2039 120.463C83.7204 122.123 85.5413 123.477 87.5678 124.451C88.0663 124.675 89.5619 124.775 89.188 125.607C89.0539 125.845 88.8596 126.042 88.6247 126.181C87.1291 127.238 86.1072 128.743 85.1351 130.249C84.1082 131.844 82.9367 133.28 81.9098 134.86C81.7168 135.253 81.3845 135.56 80.9775 135.722C80.3046 135.892 80.3494 135.308 80.1849 134.959C79.8963 134.362 79.563 133.787 79.1879 133.24L76.6954 129.471C75.2347 127.277 73.7591 125.054 72.9216 122.562C72.0842 120.069 71.9246 117.223 73.131 114.875C74.2178 112.726 76.2965 111.171 77.1839 108.937" fill="white"/>
<path d="M101.426 108.254C101.41 111.493 100.526 114.668 98.865 117.448C97.2043 120.228 94.8283 122.512 91.9847 124.062C91.2369 124.466 90.2847 124.491 89.5818 124.994C88.4353 125.817 90.549 126.49 91.1222 126.958C93.889 129.212 95.6088 132.248 97.2688 135.378C97.4034 135.642 97.7674 135.877 97.9867 135.692C98.0578 135.634 98.1156 135.561 98.1562 135.478C98.6705 134.459 99.2587 133.48 99.9159 132.547C100.704 131.55 101.466 130.503 102.164 129.456C103.62 127.263 105.095 125.039 105.938 122.547C106.78 120.054 106.935 117.208 105.724 114.86C104.642 112.711 102.558 111.156 101.671 108.922" fill="white"/>
<path d="M87.1394 128.419C87.1393 128.713 87.1972 129.004 87.3096 129.276C87.4221 129.547 87.5869 129.794 87.7948 130.002C88.0026 130.21 88.2494 130.375 88.521 130.488C88.7926 130.6 89.0837 130.658 89.3777 130.658C89.6717 130.658 89.9628 130.6 90.2344 130.488C90.506 130.375 90.7528 130.21 90.9606 130.002C91.1685 129.794 91.3333 129.547 91.4458 129.276C91.5582 129.004 91.6161 128.713 91.616 128.419C91.6161 128.125 91.5582 127.834 91.4458 127.562C91.3333 127.291 91.1685 127.044 90.9606 126.836C90.7528 126.628 90.506 126.463 90.2344 126.351C89.9628 126.238 89.6717 126.18 89.3777 126.18C89.0837 126.18 88.7926 126.238 88.521 126.351C88.2494 126.463 88.0026 126.628 87.7948 126.836C87.5869 127.044 87.4221 127.291 87.3096 127.562C87.1972 127.834 87.1393 128.125 87.1394 128.419Z" fill="#6D8DBD"/>
<path d="M87.1394 140.892C87.1393 141.186 87.1972 141.477 87.3096 141.749C87.4221 142.02 87.5869 142.267 87.7948 142.475C88.0026 142.683 88.2494 142.848 88.521 142.96C88.7926 143.073 89.0837 143.131 89.3777 143.131C89.6717 143.131 89.9628 143.073 90.2344 142.96C90.506 142.848 90.7528 142.683 90.9606 142.475C91.1685 142.267 91.3333 142.02 91.4458 141.749C91.5582 141.477 91.6161 141.186 91.616 140.892C91.6161 140.598 91.5582 140.307 91.4458 140.035C91.3333 139.763 91.1685 139.517 90.9606 139.309C90.7528 139.101 90.506 138.936 90.2344 138.823C89.9628 138.711 89.6717 138.653 89.3777 138.653C89.0837 138.653 88.7926 138.711 88.521 138.823C88.2494 138.936 88.0026 139.101 87.7948 139.309C87.5869 139.517 87.4221 139.763 87.3096 140.035C87.1972 140.307 87.1393 140.598 87.1394 140.892Z" fill="#6D8DBD"/>
<path d="M65.3843 88.3341C65.3843 88.3341 60.5787 81.4198 64.5568 71.6939C68.5349 61.968 88.9239 55.7416 88.9239 55.7416L114.208 63.9321C114.208 63.9321 116.611 88.8575 111.058 93.369C105.504 97.8805 65.3843 88.3341 65.3843 88.3341Z" fill="#553C0B"/>
<path d="M67.4382 98.1995C69.9756 104.251 75.9876 111.161 84.3227 113.778C94.5421 117.018 102.947 111.006 107.753 105.029C112.807 98.7479 113.301 89.8695 112.015 82.8256C111.088 77.7408 108.725 72.3569 102.872 69.4107C98.7495 67.3419 93.4005 66.8085 88.4154 67.3319C83.4304 67.8553 78.7543 69.3259 74.3176 71.0608C72.4579 71.7829 70.7783 72.9025 69.3963 74.3413C68.0142 75.7802 66.9632 77.5035 66.3166 79.3908C65.8953 80.7749 65.6935 82.2165 65.7184 83.663C65.6286 88.1696 65.514 93.5983 67.4382 98.1995Z" fill="#FAC396"/>
<path d="M63.9883 94.8745C65.6533 98.4139 67.9365 101.554 69.6513 98.5285C70.6483 96.7987 69.9255 94.4059 69.3522 92.6711C68.8537 91.1456 68.6992 88.8425 67.8567 87.5414C66.3612 85.323 61.1966 85.0489 61.8148 88.8176C62.3358 90.9039 63.0639 92.9329 63.9883 94.8745ZM114.417 94.8745C112.752 98.4139 110.469 101.554 108.754 98.5285C107.757 96.7987 108.48 94.4059 109.053 92.6711C109.552 91.1456 109.706 88.8425 110.549 87.5414C112.02 85.323 117.209 85.0489 116.586 88.8176C116.07 90.9046 115.343 92.934 114.417 94.8745Z" fill="#FAC396"/>
<path d="M117.134 56.1205C117.069 54.1971 116.567 52.3138 115.665 50.6136C114.763 48.9135 113.485 47.4412 111.929 46.3086C110.373 45.176 108.58 44.4128 106.685 44.077C104.79 43.7412 102.843 43.8417 100.993 44.3707C99.8891 42.404 98.2805 40.7677 96.333 39.6306C94.3855 38.4936 92.1698 37.897 89.9147 37.9026C87.6596 37.9082 85.4468 38.5157 83.505 39.6624C81.5632 40.8091 79.9627 42.4534 78.8689 44.4255C77.0097 43.8602 75.0455 43.7301 73.128 44.0452C71.2105 44.3602 69.3911 45.1121 67.8106 46.2425C66.2301 47.373 64.9307 48.8518 64.0129 50.5646C63.0952 52.2775 62.5836 54.1784 62.5178 56.1205C60.7181 56.5903 59.0565 57.4827 57.671 58.7237C56.2854 59.9646 55.216 61.5183 54.5516 63.2556C53.8872 64.9928 53.6469 66.8636 53.8507 68.7124C54.0545 70.5612 54.6965 72.3347 55.7234 73.8856C56.7503 75.4364 58.1324 76.7198 59.755 77.6292C61.3776 78.5385 63.1937 79.0476 65.0525 79.1141C66.9113 79.1806 68.7592 78.8025 70.4426 78.0114C72.1259 77.2202 73.5962 76.0388 74.7313 74.5653C75.1255 74.6052 75.5215 74.6252 75.9177 74.6251C77.9772 74.6322 80.0073 74.1363 81.8316 73.1807C83.656 72.2251 85.2195 70.8386 86.3864 69.1415C87.5466 69.4757 88.7484 69.6436 89.9557 69.64C91.0998 69.6397 92.2385 69.4838 93.3406 69.1764C94.5051 70.858 96.06 72.2321 97.872 73.1811C99.684 74.13 101.699 74.6255 103.744 74.6251C104.141 74.6255 104.537 74.6055 104.931 74.5653C106.066 76.0388 107.536 77.2202 109.22 78.0114C110.903 78.8025 112.751 79.1806 114.61 79.1141C116.468 79.0476 118.285 78.5385 119.907 77.6292C121.53 76.7198 122.912 75.4364 123.939 73.8856C124.966 72.3347 125.608 70.5612 125.812 68.7124C126.015 66.8636 125.775 64.9928 125.111 63.2556C124.446 61.5183 123.377 59.9646 121.991 58.7237C120.606 57.4827 118.944 56.5903 117.144 56.1205H117.134Z" fill="#553C0B"/>
<path d="M112.294 82.8256C111.863 80.9175 111.209 79.0668 110.345 77.3121C110.061 83.7528 108.406 98.7031 99.223 98.2494C87.4183 97.6761 81.6356 99.1368 76.3664 97.8008C71.0972 96.4648 68.3903 77.7557 68.3903 77.7557L67.0194 77.7009C66.6754 78.3839 66.2168 78.8375 66.0223 79.3809C65.6011 80.765 65.3992 82.2065 65.4241 83.6531C65.3942 85.0988 65.3643 86.6441 65.3942 88.2144C65.8533 91.7597 66.6036 95.2611 67.6375 98.6831C70.2846 104.61 76.1869 111.206 84.2977 113.773C94.5171 117.013 102.922 111.001 107.728 105.024C108.697 103.807 109.52 102.48 110.18 101.071C112.578 94.7848 112.673 91.7339 112.857 89.685C112.882 87.3861 112.693 85.0897 112.294 82.8256Z" fill="#CF9B36"/>
</g>
<path d="M171.304 111.252C161.21 107.09 152.301 102.068 144.924 96.3681C142.936 94.8322 140.503 94 138.001 94C135.498 94 133.065 94.8322 131.078 96.3681C123.701 102.066 114.791 107.09 104.696 111.252C104.197 111.455 103.769 111.804 103.466 112.254C103.164 112.704 103.002 113.234 103 113.778V136.237C103 155.675 132.873 176 138 176C143.127 176 173 155.673 173 136.237V113.778C172.998 113.234 172.836 112.704 172.534 112.254C172.231 111.804 171.803 111.455 171.304 111.252Z" fill="#0059DA"/>
<mask id="mask1_387_1165" style="mask-type:alpha" maskUnits="userSpaceOnUse" x="103" y="94" width="70" height="82">
<path d="M171.304 111.252C161.21 107.09 152.301 102.068 144.924 96.3681C142.936 94.8322 140.503 94 138.001 94C135.498 94 133.065 94.8322 131.078 96.3681C123.701 102.066 114.791 107.09 104.696 111.252C104.197 111.455 103.769 111.804 103.466 112.254C103.164 112.704 103.002 113.234 103 113.778V136.237C103 155.675 132.873 176 138 176C143.127 176 173 155.673 173 136.237V113.778C172.998 113.234 172.836 112.704 172.534 112.254C172.231 111.804 171.803 111.455 171.304 111.252Z" fill="#5A98F1"/>
</mask>
<g mask="url(#mask1_387_1165)">
<path d="M138 176C132.222 176 126.5 174.94 121.162 172.879C115.824 170.819 110.973 167.799 106.887 163.991C102.802 160.184 99.5605 155.664 97.3493 150.69C95.1381 145.716 94 140.384 94 135C94 129.616 95.1381 124.284 97.3493 119.31C99.5605 114.336 102.802 109.816 106.887 106.009C110.973 102.201 115.824 99.1814 121.162 97.1209C126.5 95.0605 132.222 94 138 94L138 135L138 176Z" fill="#1A6FEA"/>
</g>
<path fill-rule="evenodd" clip-rule="evenodd" d="M140 131.584C141.766 130.812 143 129.05 143 127C143 124.239 140.761 122 138 122C135.239 122 133 124.239 133 127C133 129.05 134.234 130.812 136 131.584V146C136 147.105 136.895 148 138 148C139.105 148 140 147.105 140 146V131.584Z" fill="white"/>
<mask id="mask2_387_1165" style="mask-type:alpha" maskUnits="userSpaceOnUse" x="133" y="122" width="10" height="26">
<path fill-rule="evenodd" clip-rule="evenodd" d="M140 131.584C141.766 130.812 143 129.05 143 127C143 124.239 140.761 122 138 122C135.239 122 133 124.239 133 127C133 129.05 134.234 130.812 136 131.584V146C136 147.105 136.895 148 138 148C139.105 148 140 147.105 140 146V131.584Z" fill="white"/>
</mask>
<g mask="url(#mask2_387_1165)">
<rect x="133" y="122" width="5" height="26" fill="#D3E2FF"/>
</g>
</svg>
