<svg width="40" height="40" viewBox="0 0 40 40" fill="none" xmlns="http://www.w3.org/2000/svg">
<rect width="40" height="40" rx="6" fill="#0260E7"/>
<path fill-rule="evenodd" clip-rule="evenodd" d="M15.65 10.3658C15.65 9.28882 16.523 8.41577 17.6 8.41577H22.4C23.477 8.41577 24.35 9.28882 24.35 10.3658V10.8533H26.6C28.3397 10.8533 29.75 12.2636 29.75 14.0033V28.4033C29.75 30.143 28.3397 31.5533 26.6 31.5533H13.4C11.6603 31.5533 10.25 30.143 10.25 28.4033V14.0033C10.25 12.2636 11.6603 10.8533 13.4 10.8533H15.65V10.3658ZM22.85 9.91577H17.15V13.3013H22.85V9.91577ZM13.4 12.3533C12.4887 12.3533 11.75 13.092 11.75 14.0033V28.4033C11.75 29.3145 12.4887 30.0533 13.4 30.0533H26.6C27.5113 30.0533 28.25 29.3145 28.25 28.4033V14.0033C28.25 13.092 27.5113 12.3533 26.6 12.3533H24.35V12.8513C24.35 13.9282 23.477 14.8013 22.4 14.8013H17.6C16.523 14.8013 15.65 13.9282 15.65 12.8513V12.3533H13.4Z" fill="white"/>
<path d="M16.6631 22.9785L19.0603 25.376L23.8631 20.5811" stroke="white" stroke-width="1.5" stroke-linecap="round" stroke-linejoin="round"/>
</svg>
