<svg width="40" height="40" viewBox="0 0 40 40" fill="none" xmlns="http://www.w3.org/2000/svg">
<rect width="40" height="40" rx="6" fill="#BABFC8"/>
<path fill-rule="evenodd" clip-rule="evenodd" d="M17.5998 10.3658H22.3998V12.8513H17.5998V10.3658ZM15.1998 10.3658C15.1998 9.04034 16.2743 7.96582 17.5998 7.96582H22.3998C23.7253 7.96582 24.7998 9.04034 24.7998 10.3658V10.4033H26.5998C28.588 10.4033 30.1998 12.0151 30.1998 14.0033V28.4033C30.1998 30.3915 28.588 32.0033 26.5998 32.0033H13.3998C11.4116 32.0033 9.7998 30.3915 9.7998 28.4033V14.0033C9.7998 12.0151 11.4116 10.4033 13.3998 10.4033H15.1998V10.3658ZM15.1998 12.8033H13.3998C12.7371 12.8033 12.1998 13.3406 12.1998 14.0033V28.4033C12.1998 29.0661 12.7371 29.6033 13.3998 29.6033H26.5998C27.2625 29.6033 27.7998 29.0661 27.7998 28.4033V14.0033C27.7998 13.3406 27.2625 12.8033 26.5998 12.8033H24.7998V12.8513C24.7998 14.1768 23.7253 15.2513 22.3998 15.2513H17.5998C16.2743 15.2513 15.1998 14.1768 15.1998 12.8513V12.8033Z" fill="white" stroke="#BABFC8" stroke-width="0.9"/>
<path d="M16.6631 22.9785L19.0603 25.376L23.8631 20.5811" stroke="white" stroke-width="1.5" stroke-linecap="round" stroke-linejoin="round"/>
</svg>
