<svg width="47" height="47" viewBox="0 0 47 47" fill="none" xmlns="http://www.w3.org/2000/svg">
<g opacity="0.4">
<path d="M15 1H7C3.68629 1 1 3.68629 1 7V15" stroke="#5C6067" stroke-width="1.4" stroke-linecap="round" stroke-linejoin="round"/>
<path d="M15 46H7C3.68629 46 1 43.3137 1 40V32" stroke="#5C6067" stroke-width="1.4" stroke-linecap="round" stroke-linejoin="round"/>
<path d="M32 1H40C43.3137 1 46 3.68629 46 7V15" stroke="#5C6067" stroke-width="1.4" stroke-linecap="round" stroke-linejoin="round"/>
<path d="M32 46H40C43.3137 46 46 43.3137 46 40V32" stroke="#5C6067" stroke-width="1.4" stroke-linecap="round" stroke-linejoin="round"/>
<path fill-rule="evenodd" clip-rule="evenodd" d="M23.5 22.125C26.5376 22.125 29 19.6626 29 16.625C29 13.5874 26.5376 11.125 23.5 11.125C20.4624 11.125 18 13.5874 18 16.625C18 19.6626 20.4624 22.125 23.5 22.125ZM23.5 35.875C28.8157 35.875 33.125 33.4126 33.125 30.375C33.125 27.3374 28.8157 24.875 23.5 24.875C18.1843 24.875 13.875 27.3374 13.875 30.375C13.875 33.4126 18.1843 35.875 23.5 35.875Z" fill="#5C6067"/>
</g>
</svg>
