<svg width="47" height="47" viewBox="0 0 47 47" fill="none" xmlns="http://www.w3.org/2000/svg">
<path d="M15 1H7C3.68629 1 1 3.68629 1 7V15" stroke="#BCBEC0" stroke-width="1.4" stroke-linecap="round" stroke-linejoin="round"/>
<path d="M15 46H7C3.68629 46 1 43.3137 1 40V32" stroke="#BCBEC0" stroke-width="1.4" stroke-linecap="round" stroke-linejoin="round"/>
<path d="M32 1H40C43.3137 1 46 3.68629 46 7V15" stroke="#BCBEC0" stroke-width="1.4" stroke-linecap="round" stroke-linejoin="round"/>
<path d="M32 46H40C43.3137 46 46 43.3137 46 40V32" stroke="#BCBEC0" stroke-width="1.4" stroke-linecap="round" stroke-linejoin="round"/>
<rect x="8" y="13" width="31" height="21" rx="4" fill="#BCBEC0"/>
<path d="M20 19L18 21.1333L20 23" stroke="#FCFCFC" stroke-width="1.4" stroke-linecap="round" stroke-linejoin="round"/>
<path d="M19 21H25C26.6569 21 28 22.3431 28 24V24C28 25.6569 26.6569 27 25 27H20.875" stroke="#FCFCFC" stroke-width="1.4" stroke-linecap="round" stroke-linejoin="round"/>
</svg>
