<svg width="47" height="47" viewBox="0 0 47 47" fill="none" xmlns="http://www.w3.org/2000/svg">
<g opacity="0.4">
<path d="M15 1H7C3.68629 1 1 3.68629 1 7V15" stroke="#5C6067" stroke-width="1.4" stroke-linecap="round" stroke-linejoin="round"/>
<path d="M15 46H7C3.68629 46 1 43.3137 1 40V32" stroke="#5C6067" stroke-width="1.4" stroke-linecap="round" stroke-linejoin="round"/>
<path d="M32 1H40C43.3137 1 46 3.68629 46 7V15" stroke="#5C6067" stroke-width="1.4" stroke-linecap="round" stroke-linejoin="round"/>
<path d="M32 46H40C43.3137 46 46 43.3137 46 40V32" stroke="#5C6067" stroke-width="1.4" stroke-linecap="round" stroke-linejoin="round"/>
<path d="M35 23.5C35 29.8513 29.8513 35 23.5 35C17.1487 35 12 29.8513 12 23.5C12 17.1487 17.1487 12 23.5 12C29.8513 12 35 17.1487 35 23.5Z" fill="#5C6067"/>
<path d="M28.5388 26.2378C27.5817 27.6996 25.9021 28.675 23.5 28.675C21.0978 28.675 19.4182 27.6996 18.4612 26.2378M21.2 20.625V22.925M25.8 20.625V22.925" stroke="#FCFCFC" stroke-width="1.4" stroke-linecap="round" stroke-linejoin="round"/>
</g>
</svg>
