<svg width="26" height="26" viewBox="0 0 26 26" fill="none" xmlns="http://www.w3.org/2000/svg">
<circle cx="13" cy="13" r="13" fill="#F53F3F"/>
<path d="M14.035 12.9983L18.4729 8.55635C18.7586 8.26924 18.7586 7.80713 18.4729 7.52002C18.1871 7.23291 17.7236 7.23291 17.4379 7.52002L13 11.962L8.56348 7.52002C8.27773 7.23291 7.81426 7.23291 7.52852 7.52002C7.24277 7.80713 7.24277 8.26924 7.52852 8.55635L11.965 12.997L7.52852 17.439C7.24277 17.7261 7.24277 18.1882 7.52852 18.4753C7.6707 18.6188 7.85801 18.6899 8.04668 18.6899C8.23398 18.6899 8.42129 18.6188 8.56484 18.4753L13 14.0347L17.4365 18.4753C17.5787 18.6188 17.7674 18.6899 17.9547 18.6899C18.142 18.6899 18.3293 18.6188 18.4715 18.4753C18.7572 18.1882 18.7572 17.7261 18.4715 17.439L14.035 12.9983Z" fill="white"/>
</svg>
