<svg width="116" height="28" viewBox="0 0 116 28" fill="none" xmlns="http://www.w3.org/2000/svg">
<path d="M31.2344 19.958L35.0022 10.0142H36.0121L39.7799 19.958H38.8088L37.8766 17.4332H33.0989L32.1666 19.958H31.2344ZM33.3319 16.7729H37.6435L35.4683 10.9464L33.3319 16.7729Z" fill="#0059DA"/>
<path d="M39.7827 20.1133H38.8116C38.7339 20.1133 38.6562 20.0744 38.6562 19.9968L37.7629 17.5885H33.2182L32.3248 19.9968C32.286 20.0744 32.2471 20.1133 32.1694 20.1133H31.2372C31.1983 20.1133 31.1207 20.0744 31.0818 20.0356C31.043 19.9968 31.043 19.9191 31.043 19.8802L34.8108 9.93636C34.8496 9.85867 34.8884 9.81982 34.9661 9.81982H35.9761C36.0537 9.81982 36.1314 9.85867 36.1314 9.93636L39.8992 19.8802C39.9381 19.9191 39.8992 19.9968 39.8604 20.0356C39.8215 20.0744 39.8215 20.1133 39.7827 20.1133ZM38.9282 19.8025H39.5108L35.8595 10.2083H35.0827L31.5091 19.8025H32.0917L32.9851 17.3943C33.024 17.3166 33.0628 17.2777 33.1405 17.2777H37.9182C37.9959 17.2777 38.0736 17.3166 38.0736 17.3943L38.9282 19.8025ZM37.6463 16.967H33.3347C33.2959 16.967 33.2182 16.9281 33.1793 16.8893C33.1405 16.8505 33.1405 16.7728 33.1405 16.7339L35.2769 10.9074C35.3157 10.8298 35.3546 10.7909 35.4323 10.7909C35.5099 10.7909 35.5876 10.8298 35.5876 10.9074L37.7629 16.7339C37.8017 16.7728 37.7629 16.8505 37.724 16.8893C37.7629 16.9281 37.724 16.967 37.6463 16.967ZM33.6066 16.6174H37.4133L35.5099 11.4512L33.6066 16.6174Z" fill="#0059DA"/>
<path d="M48.1355 19.4916C49.3008 19.4916 50.1553 19.0255 50.1553 17.9379V17.1999H51.0099V18.0933C51.0099 19.3751 49.9999 20.1131 48.1355 20.1131C46.1545 20.1131 45.1445 19.3751 45.1445 18.0933V14.4032C45.1445 13.1213 46.1545 12.3833 48.1355 12.3833C49.9999 12.3833 51.0099 13.1213 51.0099 14.4032V15.4131H50.1553V14.5197C50.1553 13.4321 49.4173 12.9659 48.1355 12.9659C46.6983 12.9659 45.9991 13.4321 45.9991 14.5197V17.899C46.0379 18.9867 46.8148 19.4916 48.1355 19.4916Z" fill="#0059DA"/>
<path d="M48.1383 20.2686C46.0796 20.2686 44.9531 19.4918 44.9531 18.0546V14.3645C44.9531 12.9273 46.0796 12.1504 48.1383 12.1504C50.0804 12.1504 51.168 12.9661 51.168 14.3645V15.4132C51.168 15.4909 51.0904 15.5686 51.0127 15.5686H50.1581C50.0804 15.5686 50.0027 15.4909 50.0027 15.4132V14.5198C50.0027 13.5876 49.3813 13.1215 48.1383 13.1215C46.7788 13.1215 46.1961 13.5487 46.1961 14.5198V17.8992C46.1961 18.8314 46.8176 19.2976 48.1383 19.2976C48.8375 19.2976 50.0027 19.1033 50.0027 17.8992V17.1612C50.0027 17.0835 50.0804 17.0058 50.1581 17.0058H51.0127C51.0904 17.0058 51.168 17.0835 51.168 17.1612V18.0546C51.2069 19.4529 50.0804 20.2686 48.1383 20.2686ZM48.1383 12.5388C46.8564 12.5388 45.3027 12.8496 45.3027 14.4033V18.0934C45.3027 19.6471 46.8564 19.9579 48.1383 19.9579C49.8862 19.9579 50.8573 19.2976 50.8573 18.0934V17.3554H50.3523V17.938C50.3523 19.0256 49.5366 19.686 48.1771 19.686C46.2738 19.686 45.8854 18.7537 45.8854 17.938V14.5587C45.8854 13.3934 46.6234 12.8107 48.1771 12.8107C50.0027 12.8107 50.3523 13.743 50.3523 14.5587V15.2579H50.8573V14.4033C50.8573 13.1992 49.8862 12.5388 48.1383 12.5388Z" fill="#0059DA"/>
<path d="M53.2617 19.9575V10.0137H54.1163V13.0046C54.8154 12.6939 55.7088 12.3831 56.6799 12.3831C58.1171 12.3831 58.8163 13.0823 58.8163 14.2476V19.9964H57.9229V14.3641C57.9229 13.393 57.3791 13.0046 56.5246 13.0046C55.7477 13.0046 54.8155 13.3542 54.1551 13.6649V19.9575H53.2617Z" fill="#0059DA"/>
<path d="M58.7805 20.113H57.9259C57.8483 20.113 57.7706 20.0353 57.7706 19.9576V14.3642C57.7706 13.5485 57.3821 13.1601 56.5276 13.1601C55.7119 13.1601 54.7796 13.5485 54.3135 13.7427V19.9576C54.3135 20.0353 54.2358 20.113 54.1581 20.113H53.2647C53.1871 20.113 53.1094 20.0353 53.1094 19.9576V10.0138C53.1094 9.93608 53.1871 9.8584 53.2647 9.8584H54.1193C54.197 9.8584 54.2747 9.93608 54.2747 10.0138V12.7328C54.8962 12.4609 55.7507 12.189 56.6441 12.189C58.1202 12.189 58.9359 12.927 58.9359 14.2088V19.9576C58.9747 20.0353 58.897 20.113 58.7805 20.113ZM58.0813 19.8023H58.6251V14.2088C58.6251 13.665 58.4697 13.2766 58.159 12.9659C57.8483 12.6551 57.3433 12.4997 56.683 12.4997C55.7507 12.4997 54.8185 12.8493 54.197 13.1212C54.1581 13.1601 54.0805 13.1212 54.0416 13.1212C54.0028 13.0824 53.9639 13.0435 53.9639 12.9659V10.1691H53.4201V19.7634H53.9639V13.665C53.9639 13.5874 54.0028 13.5485 54.0805 13.5097C54.5077 13.3154 55.5953 12.8105 56.5276 12.8105C57.5763 12.8105 58.1202 13.3543 58.1202 14.3642V19.8023H58.0813Z" fill="#0059DA"/>
<path d="M63.9757 19.4919C65.2964 19.4919 66.1121 18.9869 66.1121 17.7828V17.472H66.9667V17.9382C66.9667 19.2977 65.8402 20.1134 63.9369 20.1134C62.1113 20.1134 61.0625 19.3365 61.0625 17.9382V14.5199C61.0625 13.1604 62.1113 12.3447 63.9369 12.3447C65.8402 12.3447 66.9667 13.1216 66.9667 14.5199V16.5398H61.9559V17.7828C61.9559 18.9869 62.5774 19.4919 63.9757 19.4919ZM61.9559 15.9572H66.1121V14.6753C66.1121 13.4712 65.2576 12.9662 63.9757 12.9662C62.6162 12.9662 61.9559 13.4712 61.9559 14.6753V15.9572Z" fill="#0059DA"/>
<path d="M63.979 20.2689C63.0468 20.2689 62.2699 20.0746 61.7649 19.6862C61.2211 19.2978 60.9492 18.6763 60.9492 17.9383V14.52C60.9492 13.782 61.2211 13.1994 61.7649 12.7721C62.3087 12.3837 63.0468 12.1895 63.979 12.1895C65.96 12.1895 67.1641 13.044 67.1641 14.52V16.5399C67.1641 16.6176 67.0865 16.6953 67.0088 16.6953H62.1534V17.7829C62.1534 18.8705 62.6972 19.2978 63.979 19.2978C65.2997 19.2978 65.96 18.7928 65.96 17.7829V17.4721C65.96 17.3945 66.0377 17.3168 66.1154 17.3168H66.9699C67.0476 17.3168 67.1253 17.3945 67.1253 17.4721V17.9383C67.1641 19.4143 65.96 20.2689 63.979 20.2689ZM63.979 12.539C63.1244 12.539 62.4253 12.7333 61.9591 13.0828C61.493 13.4324 61.26 13.8986 61.26 14.52V17.9383C61.26 18.5598 61.493 19.0647 61.9591 19.3755C62.4253 19.725 63.1244 19.9193 63.979 19.9193C65.8046 19.9193 66.8145 19.1812 66.8145 17.9383V17.6275H66.2707V17.7829C66.2707 18.987 65.455 19.6474 63.9401 19.6474C62.4641 19.6474 61.7649 19.0647 61.7649 17.7829V16.5399C61.7649 16.4622 61.8426 16.3845 61.9203 16.3845H66.7757V14.52C66.8146 13.2382 65.7658 12.539 63.979 12.539ZM66.1154 16.1515H61.9591C61.8815 16.1515 61.8038 16.0738 61.8038 15.9961V14.7143C61.8038 13.4324 62.503 12.8498 63.979 12.8498C65.455 12.8498 66.3096 13.5101 66.3096 14.7143V15.9961C66.2707 16.0738 66.1931 16.1515 66.1154 16.1515ZM62.1534 15.8019H65.96V14.6754C65.96 13.6655 65.2997 13.1605 63.979 13.1605C62.6972 13.1605 62.1534 13.5878 62.1534 14.6754V15.8019Z" fill="#0059DA"/>
<path d="M69.9685 12.9662C70.5123 12.6943 71.3668 12.3447 72.2214 12.3447C73.1148 12.3447 73.7363 12.6166 74.0859 13.0827C74.8627 12.6555 75.795 12.3447 76.7272 12.3447C78.1256 12.3447 78.9024 13.1216 78.9024 14.3257V19.958H78.0479V14.4423C78.0479 13.51 77.6206 12.9662 76.6107 12.9662C75.8727 12.9662 75.0958 13.2381 74.3966 13.6654C74.4355 13.8596 74.4743 14.0927 74.4743 14.3257V19.958H73.6198V14.4423C73.6198 13.51 73.1925 12.9662 72.1826 12.9662C71.328 12.9662 70.6288 13.2381 70.085 13.5877V19.9969H69.2305V12.4224H69.8908L69.9685 12.9662Z" fill="#0059DA"/>
<path d="M78.9372 20.1133H78.0826C78.0049 20.1133 77.9272 20.0356 77.9272 19.9579V14.4421C77.9272 13.5487 77.5 13.1215 76.6454 13.1215C76.0239 13.1215 75.3636 13.3157 74.6256 13.743C74.6644 13.9372 74.7032 14.1314 74.7032 14.3256V19.9579C74.7032 20.0356 74.6256 20.1133 74.5479 20.1133H73.6933C73.6156 20.1133 73.5379 20.0356 73.5379 19.9579V14.4421C73.5379 13.5487 73.1107 13.1215 72.2561 13.1215C71.4016 13.1215 70.7412 13.3934 70.3528 13.6653V19.9579C70.3528 20.0356 70.2751 20.1133 70.1974 20.1133H69.3429C69.2652 20.1133 69.1875 20.0356 69.1875 19.9579V12.4223C69.1875 12.3446 69.2652 12.2669 69.3429 12.2669H70.0032C70.0809 12.2669 70.1586 12.3058 70.1586 12.3834L70.2363 12.6942C70.8189 12.4223 71.5958 12.1504 72.3726 12.1504C73.2272 12.1504 73.8875 12.3835 74.3148 12.8496C75.2082 12.3835 76.1016 12.1504 76.9173 12.1504C78.3934 12.1504 79.2479 12.9661 79.2479 14.2868V19.919C79.1314 20.0356 79.0537 20.1133 78.9372 20.1133ZM78.238 19.8025H78.7818V14.3645C78.7818 13.1992 78.0826 12.5777 76.8008 12.5777C75.9851 12.5777 75.1305 12.8107 74.2371 13.3157C74.1594 13.3545 74.0817 13.3545 74.0041 13.2768C73.6933 12.8496 73.0718 12.6165 72.2561 12.6165C71.4404 12.6165 70.6247 12.9273 70.0809 13.238C70.0421 13.2768 69.9644 13.2768 69.9255 13.238C69.8867 13.1992 69.8478 13.1603 69.8478 13.1215L69.7701 12.733H69.4206V19.919H69.9644V13.7041C69.9644 13.6264 70.0032 13.5876 70.0421 13.5487C70.5082 13.2768 71.2462 12.9273 72.2173 12.9273C73.266 12.9273 73.8487 13.5099 73.8487 14.5975V19.919H74.3925V14.481C74.3925 14.2868 74.3537 14.0926 74.3148 13.8595C74.3148 13.7818 74.3148 13.7041 74.3925 13.6653C75.2082 13.1992 75.9851 12.9273 76.6843 12.9273C77.733 12.9273 78.3157 13.5099 78.3157 14.5975V19.8025H78.238Z" fill="#0059DA"/>
<path d="M87.0565 12.5L83.9879 20.7736C83.3664 22.4439 82.3564 22.5604 81.4242 22.5604C81.1523 22.5604 80.8804 22.5604 80.6862 22.4827V21.8612C80.8804 21.9001 81.1135 21.9389 81.3854 21.9389C82.0069 21.9389 82.7449 21.7835 83.1722 20.5794L83.3664 19.9579L80.4531 12.5H81.3854L83.7936 18.948L86.0466 12.5H87.0565Z" fill="#0059DA"/>
<path d="M81.4252 22.7545C81.0756 22.7545 80.8425 22.7157 80.6483 22.6768C80.5706 22.638 80.5318 22.5991 80.5318 22.5214V21.8999C80.5318 21.8611 80.5706 21.7834 80.6095 21.7446C80.6483 21.7057 80.726 21.7057 80.7649 21.7057C80.9591 21.7446 81.231 21.7834 81.4252 21.7834C82.0467 21.7834 82.6682 21.628 83.0566 20.5404L83.212 19.9578L80.3376 12.5387C80.2987 12.4999 80.3376 12.4222 80.3376 12.3833C80.3764 12.3445 80.4153 12.3057 80.493 12.3057H81.4252C81.5029 12.3057 81.5806 12.3445 81.5806 12.4222L83.8335 18.4429L85.931 12.4222C85.9699 12.3445 86.0087 12.3057 86.0864 12.3057H87.0575C87.0963 12.3057 87.174 12.3445 87.2128 12.3833C87.2517 12.4222 87.2517 12.4999 87.2517 12.5387L84.1442 20.8512C83.4839 22.5991 82.3963 22.7545 81.4252 22.7545ZM80.8425 22.3661C80.9979 22.4049 81.1921 22.4049 81.4252 22.4049C82.3186 22.4049 83.212 22.2884 83.7946 20.7347L86.7856 12.6941H86.2029L83.9888 19.0255C83.95 19.1032 83.9112 19.1421 83.8335 19.1421C83.7558 19.1421 83.6781 19.1032 83.6781 19.0255L81.3087 12.6941H80.726L83.5616 19.9189C83.5616 19.9578 83.5616 19.9966 83.5616 20.0355L83.3674 20.657C82.9012 21.9776 82.0855 22.133 81.4252 22.133C81.1921 22.133 81.0368 22.133 80.8814 22.0942V22.3661H80.8425Z" fill="#0059DA"/>
<path d="M41.957 19.958V10.0142H42.8116V13.0051C42.8116 13.0051 42.8116 13.4324 42.8116 13.6654V19.958H41.957Z" fill="#0059DA"/>
<path d="M42.8146 20.1135H41.9601C41.8824 20.1135 41.8047 20.0358 41.8047 19.9581V10.0143C41.8047 9.93657 41.8824 9.85889 41.9601 9.85889H42.8146C42.8923 9.85889 42.97 9.93657 42.97 10.0143V19.9581C43.0088 20.0358 42.9311 20.1135 42.8146 20.1135ZM42.1154 19.8028H42.6592V10.1696H42.1154V19.8028Z" fill="#0059DA"/>
<path d="M92.2266 19.9575V10.0137H94.6737C97.3927 10.0137 98.4415 11.0236 98.4415 12.7327V13.3542C98.4415 14.9468 97.3927 15.9179 94.6737 15.9179H93.1976V19.9575H92.2266ZM93.1976 10.674V15.2575H94.7125C96.6547 15.2575 97.5092 14.7137 97.5092 13.3542V12.7715C97.5092 11.3343 96.6547 10.674 94.7902 10.674H93.1976Z" fill="#0059DA"/>
<path d="M93.1994 20.3462H92.2283C92.0341 20.3462 91.8398 20.1909 91.8398 19.9578V10.0139C91.8398 9.8197 91.9952 9.62549 92.2283 9.62549H94.6754C96.1126 9.62549 97.1225 9.89739 97.8217 10.4412C98.4821 10.9462 98.8316 11.723 98.8316 12.7329V13.3544C98.8316 14.3255 98.4821 15.0635 97.8217 15.5297C97.1225 16.0346 96.1126 16.2677 94.6754 16.2677H93.5878V19.919C93.5878 20.152 93.4324 20.3462 93.1994 20.3462ZM92.6167 19.5694H92.8109V15.9181C92.8109 15.7627 92.8886 15.6462 93.0051 15.5685C92.8886 15.4908 92.8109 15.3743 92.8109 15.2189V10.6743C92.8109 10.5577 92.8498 10.48 92.9275 10.4024H92.6167V19.5694ZM96.9283 10.7519C96.9672 10.7908 97.0448 10.8296 97.0837 10.8685C97.6275 11.2958 97.8994 11.9172 97.8994 12.7718V13.3544C97.8994 14.1701 97.6275 14.7528 97.0837 15.1412C97.2002 15.1024 97.3168 15.0247 97.3944 14.947C97.8606 14.5974 98.0936 14.0925 98.0936 13.3933V12.6941C98.0936 11.9949 97.8994 11.2181 96.9283 10.7519ZM93.5878 14.8693H94.7143C96.7341 14.8693 97.1225 14.2867 97.1225 13.3156V12.7329C97.1225 11.8396 96.8506 11.0238 94.7531 11.0238H93.5878V14.8693Z" fill="#0059DA"/>
<path d="M99.7966 17.7828C99.7966 16.5398 100.69 15.8795 102.555 15.8795H104.613V14.2869C104.613 13.3547 104.108 12.9662 102.826 12.9662C101.583 12.9662 101.117 13.3547 101.117 14.2869V14.6365H100.263V14.248C100.263 12.9274 101.117 12.3447 102.904 12.3447C104.807 12.3447 105.468 13.0051 105.468 14.248V19.9969H104.807L104.652 19.453C103.875 19.8415 102.904 20.0357 102.011 20.0357C100.496 20.0357 99.7578 19.4142 99.7578 18.2101V17.7828H99.7966ZM104.613 18.8704V16.4621H102.593C101.273 16.4621 100.69 16.8505 100.69 17.7439V18.1712C100.69 19.0258 101.195 19.4142 102.244 19.4142C102.982 19.4142 103.953 19.22 104.613 18.8704Z" fill="#0059DA"/>
<path d="M102.052 20.4239C101.197 20.4239 100.537 20.2297 100.109 19.8801C99.6432 19.4917 99.4102 18.9478 99.4102 18.2098V17.7825C99.4102 16.7338 99.954 15.4908 102.556 15.4908H104.266V14.2867C104.266 13.7817 104.149 13.3544 102.867 13.3544C101.624 13.3544 101.547 13.7428 101.547 14.2867V14.6362C101.547 14.8305 101.391 15.0247 101.158 15.0247H100.304C100.109 15.0247 99.9151 14.8693 99.9151 14.6362V14.2478C99.9151 13.4709 100.187 12.8883 100.731 12.4999C101.236 12.1503 101.935 11.9561 102.945 11.9561C103.955 11.9561 104.693 12.1503 105.198 12.4999C105.703 12.8883 105.936 13.4321 105.936 14.209V19.9578C105.936 20.152 105.78 20.3462 105.547 20.3462H104.887C104.732 20.3462 104.576 20.2297 104.499 20.0743L104.46 19.9578C103.722 20.2685 102.867 20.4239 102.052 20.4239ZM104.926 19.1421C105.004 19.1809 105.081 19.2586 105.081 19.3751L105.12 19.5305V14.2478C105.12 13.7817 105.042 13.3156 104.499 13.0437C104.809 13.2767 105.004 13.704 105.004 14.2867V15.8792C105.004 15.9958 104.965 16.1123 104.848 16.19C104.926 16.2677 105.004 16.3842 105.004 16.5007V18.909C105.004 18.9478 104.965 19.0644 104.926 19.1421ZM100.575 16.7726C100.226 17.0834 100.187 17.4718 100.187 17.7825V18.2098C100.187 18.7148 100.342 19.0644 100.614 19.2586C100.653 19.2974 100.692 19.2974 100.731 19.3363C100.42 19.0255 100.304 18.5983 100.304 18.2098V17.7437C100.304 17.3164 100.42 17.0057 100.575 16.7726ZM102.595 16.8503C101.197 16.8503 101.08 17.2776 101.08 17.7437V18.171C101.08 18.5983 101.158 19.0255 102.246 19.0255C102.945 19.0255 103.683 18.8702 104.266 18.5983V16.8115L102.595 16.8503ZM100.692 14.2478H100.77C100.77 13.7817 100.886 13.4321 101.08 13.199C100.809 13.3933 100.692 13.7428 100.692 14.2478Z" fill="#0059DA"/>
<path d="M113.623 12.5L110.554 20.7736C109.933 22.4439 108.923 22.5604 107.991 22.5604C107.719 22.5604 107.447 22.5604 107.253 22.4827V21.8612C107.447 21.9001 107.68 21.9389 107.952 21.9389C108.573 21.9389 109.311 21.7835 109.739 20.5794L109.933 19.9579L107.02 12.5H107.952L110.36 18.948L112.613 12.5H113.623Z" fill="#0059DA"/>
<path d="M107.991 22.9489C107.602 22.9489 107.369 22.91 107.136 22.8712C106.981 22.8323 106.864 22.677 106.864 22.4827V21.8613C106.864 21.7447 106.903 21.6282 107.02 21.5505C107.098 21.4728 107.253 21.4728 107.369 21.4728C107.525 21.5117 107.797 21.5117 107.991 21.5117C108.496 21.5117 109.079 21.434 109.428 20.4241L109.584 19.9191L106.709 12.5777C106.67 12.4612 106.67 12.3447 106.748 12.2281C106.826 12.1116 106.942 12.0728 107.059 12.0728H107.991C108.146 12.0728 108.302 12.1893 108.341 12.3058L110.399 17.7827L112.303 12.3447C112.341 12.1893 112.497 12.0728 112.652 12.0728H113.623C113.74 12.0728 113.856 12.1504 113.934 12.2281C114.012 12.3447 114.012 12.4612 113.973 12.5777L110.904 20.8513C110.244 22.7158 109.117 22.9489 107.991 22.9489ZM107.602 12.8885L110.322 19.8414C110.36 19.9191 110.36 19.9968 110.322 20.0745L110.127 20.696C110.05 20.929 109.933 21.1621 109.817 21.3563C109.933 21.1621 110.05 20.929 110.166 20.6183L110.71 19.1034C110.632 19.2199 110.516 19.2976 110.36 19.2976C110.205 19.2976 110.05 19.1811 110.011 19.0645L107.68 12.8496H107.602V12.8885ZM112.924 12.8885L110.826 18.9092L113.041 12.8885H112.924Z" fill="#0059DA"/>
<path d="M9.21492 13.6265V24.4249H3L9.21492 13.6265Z" fill="#0059DA"/>
<path d="M21.4922 13.6265V24.4249H27.7071L21.4922 13.6265Z" fill="#0059DA"/>
<path d="M15.7821 16.0348C16.9862 15.9571 18.1127 16.1125 18.8896 16.4621V9.12068L15.316 2.90576L11.7812 9.12068V17.5885C12.4416 16.967 14.073 16.1902 15.7821 16.0348Z" fill="#0059DA"/>
<path d="M18.9288 19.2197C18.1908 18.7148 17.2974 18.4429 16.2875 18.4429C14.5396 18.4429 13.1412 19.5305 12.3643 20.8512C12.0147 21.4338 11.8594 22.3272 11.8594 23.0652C11.8594 23.5702 11.9371 24.0363 12.0924 24.4636H18.9677L18.9288 19.2197Z" fill="#0059DA"/>
</svg>
