<svg width="9" height="9" viewBox="0 0 9 9" fill="none" xmlns="http://www.w3.org/2000/svg">
<path fill-rule="evenodd" clip-rule="evenodd" d="M1.17206 1.52387C1.46496 1.23098 1.93983 1.23098 2.23272 1.52387L7.73272 7.02387C8.02562 7.31676 8.02562 7.79164 7.73272 8.08453C7.43983 8.37742 6.96496 8.37742 6.67206 8.08453L1.17206 2.58453C0.879169 2.29164 0.879169 1.81676 1.17206 1.52387Z" fill="#B7BCC5"/>
<path fill-rule="evenodd" clip-rule="evenodd" d="M7.73272 1.52387C7.43983 1.23098 6.96496 1.23098 6.67206 1.52387L1.17206 7.02387C0.879169 7.31676 0.879169 7.79164 1.17206 8.08453C1.46496 8.37742 1.93983 8.37742 2.23272 8.08453L7.73272 2.58453C8.02562 2.29164 8.02562 1.81676 7.73272 1.52387Z" fill="#B7BCC5"/>
</svg>
