<svg width="122" height="28" viewBox="0 0 122 28" fill="none" xmlns="http://www.w3.org/2000/svg">
<path d="M9.63026 12.0609L14.1414 7.54995L18.6549 12.0633L21.2798 9.43839L14.1414 2.2998L7.00537 9.43601L9.63026 12.0609Z" fill="#F3BA2F"/>
<path d="M7.77645 13.9139L5.15161 11.2891L2.52664 13.914L5.15148 16.5389L7.77645 13.9139Z" fill="#F3BA2F"/>
<path d="M9.63014 15.7678L14.1413 20.2788L18.6546 15.7656L21.281 18.389L21.2797 18.3905L14.1413 25.5289L7.00507 18.3929L7.0014 18.3892L9.63014 15.7678Z" fill="#F3BA2F"/>
<path d="M23.1311 16.5405L25.756 13.9155L23.1312 11.2907L20.5062 13.9157L23.1311 16.5405Z" fill="#F3BA2F"/>
<path d="M16.8039 13.9131H16.805L14.1414 11.2495L12.1729 13.2179H12.1728L11.9467 13.4442L11.4802 13.9107L11.4765 13.9144L11.4802 13.9182L14.1414 16.5795L16.805 13.9159L16.8063 13.9144L16.8039 13.9131Z" fill="#F3BA2F"/>
<path d="M29.8484 7.92822H35.5574C36.9743 7.92822 38.0458 8.29186 38.7719 9.01913C39.3339 9.58238 39.6148 10.2805 39.6148 11.1132V11.1485C39.6148 11.5004 39.5713 11.8113 39.4838 12.081C39.3965 12.3511 39.2798 12.5942 39.1339 12.8112C38.9884 13.0285 38.8193 13.2191 38.627 13.3831C38.4345 13.5475 38.2278 13.6884 38.0063 13.8055C38.7186 14.0755 39.2792 14.4419 39.688 14.9054C40.0966 15.369 40.3012 16.0113 40.3012 16.8323V16.8674C40.3012 17.4306 40.1929 17.9232 39.9762 18.3458C39.7596 18.7679 39.4491 19.12 39.0449 19.4016C38.6408 19.6833 38.1548 19.8942 37.5867 20.0351C37.0187 20.1759 36.3892 20.2461 35.6985 20.2461H29.8484V7.92822ZM34.9866 12.9081C35.5851 12.9081 36.0603 12.8057 36.412 12.6003C36.7639 12.395 36.9398 12.0634 36.9398 11.606V11.5708C36.9398 11.1604 36.7872 10.8467 36.4823 10.6294C36.1771 10.4124 35.7372 10.3038 35.1626 10.3038H32.4878V12.9081H34.9866ZM35.7082 17.8708C36.3065 17.8708 36.7754 17.7625 37.116 17.5453C37.4561 17.3282 37.6264 16.9908 37.6264 16.5333V16.4982C37.6264 16.0876 37.4678 15.7622 37.1512 15.5214C36.8343 15.2813 36.3241 15.1609 35.6201 15.1609H32.4878V17.8709H35.7082V17.8708Z" fill="#F3BA2F"/>
<path d="M43.7006 7.92822H46.4108V20.2465H43.7006V7.92822Z" fill="#F3BA2F"/>
<path d="M50.5159 7.92822H53.0144L58.7865 15.5128V7.92822H61.4613V20.2465H59.1562L53.1905 12.4157V20.2465H50.5159V7.92822Z" fill="#F3BA2F"/>
<path d="M69.6663 7.84033H72.165L77.4445 20.2465H74.6112L73.4849 17.4838H68.276L67.1499 20.2465H64.3867L69.6663 7.84033ZM72.5171 15.0903L70.8804 11.0958L69.2442 15.0903H72.5171Z" fill="#F3BA2F"/>
<path d="M80.3695 7.92822H82.8685L88.6403 15.5128V7.92822H91.3151V20.2465H89.01L83.0443 12.4157V20.2465H80.3695V7.92822Z" fill="#F3BA2F"/>
<path d="M101.068 20.4577C100.165 20.4577 99.3262 20.2933 98.5518 19.9651C97.7774 19.6369 97.1088 19.1879 96.5457 18.6188C95.9825 18.0499 95.5423 17.3782 95.226 16.604C94.9092 15.8295 94.7509 15.0025 94.7509 14.1225V14.0875C94.7509 13.2076 94.9092 12.3836 95.226 11.6151C95.5425 10.8467 95.9825 10.1721 96.5457 9.59142C97.1086 9.01074 97.7834 8.55299 98.5692 8.21871C99.355 7.88443 100.224 7.71729 101.174 7.71729C101.748 7.71729 102.273 7.76444 102.748 7.85801C103.224 7.95213 103.655 8.08092 104.042 8.24512C104.429 8.40951 104.787 8.60894 105.116 8.84342C105.444 9.07826 105.749 9.33621 106.031 9.61784L104.306 11.6063C103.825 11.1724 103.335 10.8319 102.837 10.5856C102.338 10.3394 101.778 10.2161 101.156 10.2161C100.64 10.2161 100.162 10.3159 99.7221 10.5154C99.2822 10.7148 98.9037 10.9904 98.5868 11.3423C98.2703 11.6942 98.0239 12.102 97.8476 12.5653C97.672 13.0289 97.5842 13.5244 97.5842 14.0523V14.0873C97.5842 14.6152 97.672 15.114 97.8476 15.583C98.0239 16.0525 98.2669 16.4629 98.5782 16.8148C98.8888 17.1667 99.2644 17.4455 99.7041 17.6508C100.144 17.8563 100.628 17.9587 101.156 17.9587C101.86 17.9587 102.455 17.8297 102.942 17.5716C103.429 17.3138 103.913 16.9617 104.394 16.5157L106.119 18.2579C105.802 18.5983 105.473 18.9034 105.133 19.1729C104.793 19.443 104.42 19.6745 104.015 19.8682C103.611 20.0616 103.168 20.2086 102.687 20.308C102.206 20.4076 101.666 20.4577 101.068 20.4577Z" fill="#F3BA2F"/>
<path d="M109.308 7.92822H118.582V10.3392H111.983V12.838H117.79V15.2488H111.983V17.8357H118.67V20.2465H109.308V7.92822Z" fill="#F3BA2F"/>
</svg>
