<svg width="48" height="32" viewBox="0 0 48 32" fill="none" xmlns="http://www.w3.org/2000/svg">
<rect width="48" height="32" fill="white"/>
<path d="M26.06 25.5998C31.2567 25.6249 36 21.3202 36 16.0833C36 10.3565 31.2567 6.398 26.06 6.3999H21.5876C16.3287 6.398 12 10.3576 12 16.0833C12 21.3213 16.3287 25.6249 21.5876 25.5998H26.06Z" fill="#0079BE"/>
<path d="M21.6089 7.1936C16.8034 7.19513 12.9093 11.1284 12.9082 15.9829C12.9093 20.8366 16.8034 24.7695 21.6089 24.771C26.4155 24.7695 30.3104 20.8366 30.3111 15.9829C30.3103 11.1284 26.4155 7.19513 21.6089 7.1936ZM16.0938 15.9829C16.0983 13.6107 17.5654 11.5879 19.6343 10.7841V21.1806C17.5654 20.3772 16.0983 18.3554 16.0938 15.9829ZM23.5827 21.1829V10.7837C25.6523 11.5856 27.1218 13.6096 27.1255 15.9829C27.1218 18.357 25.6523 20.3794 23.5827 21.1829Z" fill="white"/>
<path d="M26.06 25.5998C31.2567 25.6249 36 21.3202 36 16.0833C36 10.3565 31.2567 6.398 26.06 6.3999H21.5876C16.3287 6.398 12 10.3576 12 16.0833C12 21.3213 16.3287 25.6249 21.5876 25.5998H26.06Z" fill="#0079BE"/>
<path d="M21.6089 7.1936C16.8034 7.19513 12.9093 11.1284 12.9082 15.9829C12.9093 20.8366 16.8034 24.7695 21.6089 24.771C26.4155 24.7695 30.3104 20.8366 30.3111 15.9829C30.3103 11.1284 26.4155 7.19513 21.6089 7.1936ZM16.0938 15.9829C16.0983 13.6107 17.5654 11.5879 19.6343 10.7841V21.1806C17.5654 20.3772 16.0983 18.3554 16.0938 15.9829ZM23.5827 21.1829V10.7837C25.6523 11.5856 27.1218 13.6096 27.1255 15.9829C27.1218 18.357 25.6523 20.3794 23.5827 21.1829Z" fill="white"/>
</svg>
