<svg width="48" height="32" viewBox="0 0 48 32" fill="none" xmlns="http://www.w3.org/2000/svg">
<rect width="48" height="32" fill="white"/>
<path d="M28.2168 23.3709H20.1042V8.62769H28.2168V23.3709Z" fill="#FF5F00"/>
<path d="M20.6192 16C20.6179 14.5802 20.9361 13.1788 21.5497 11.9018C22.1632 10.6247 23.056 9.50558 24.1604 8.62906C22.7927 7.54209 21.1503 6.86616 19.4207 6.6785C17.6911 6.49085 15.9442 6.79905 14.3796 7.56787C12.8151 8.33669 11.4959 9.53513 10.573 11.0262C9.65007 12.5173 9.16055 14.2409 9.1604 16C9.16073 17.7589 9.65031 19.4822 10.5732 20.9731C11.4961 22.464 12.815 23.6623 14.3794 24.431C15.9437 25.1998 17.6904 25.5081 19.4197 25.3206C21.1491 25.1332 22.7915 24.4576 24.1592 23.371C23.0551 22.4942 22.1627 21.375 21.5494 20.098C20.9361 18.821 20.618 17.4197 20.6192 16Z" fill="#EB001B"/>
<path d="M39.1604 16C39.1603 17.7591 38.6708 19.4827 37.7478 20.9738C36.8249 22.4649 35.5057 23.6633 33.9412 24.4322C32.3766 25.201 30.6297 25.5092 28.9001 25.3215C27.1706 25.1339 25.5281 24.4579 24.1604 23.371C26.3167 21.6543 27.7017 18.9909 27.7017 16C27.7017 13.0092 26.3167 10.3457 24.1604 8.62906C25.5281 7.54209 27.1706 6.86616 28.9001 6.6785C30.6297 6.49085 32.3766 6.79905 33.9412 7.56787C35.5057 8.33669 36.8249 9.53513 37.7478 11.0262C38.6708 12.5173 39.1603 14.2409 39.1604 16Z" fill="#F79E1B"/>
</svg>
