<svg width="48" height="32" viewBox="0 0 48 32" fill="none" xmlns="http://www.w3.org/2000/svg">
<rect width="48" height="32" fill="white"/>
<path fill-rule="evenodd" clip-rule="evenodd" d="M31.1387 15.5566V20.6003H34.0477V17.6115H37.3446C38.7322 17.6015 39.9109 16.7478 40.3553 15.5566H31.1387Z" fill="#37A72E"/>
<path fill-rule="evenodd" clip-rule="evenodd" d="M30.7509 11.3999C30.9203 13.4615 32.9451 15.0892 35.4181 15.0892C35.4261 15.0892 40.4762 15.0892 40.4762 15.0892C40.5136 14.9002 40.5331 14.705 40.5331 14.5055C40.5331 12.7977 39.1027 11.4125 37.3332 11.4L30.7509 11.3999Z" fill="url(#paint0_linear_2213_25418)"/>
<path fill-rule="evenodd" clip-rule="evenodd" d="M26.446 15.0404L26.4482 15.0357L26.4485 15.0358C26.4784 14.9843 26.5355 14.9494 26.6011 14.9494C26.6959 14.9494 26.773 15.0221 26.7756 15.1128L26.7757 15.1128V20.5534H29.6847V11.4001H26.7757C26.4068 11.412 25.99 11.6727 25.835 11.9928L23.52 16.7748C23.5143 16.7943 23.5053 16.8126 23.4938 16.829L23.493 16.8305L23.4927 16.8305C23.4577 16.879 23.3993 16.9108 23.3333 16.9108C23.2262 16.9108 23.1394 16.8272 23.1394 16.724V11.4001H20.2303V20.5534H23.1394V20.5524C23.5042 20.534 23.9112 20.2762 24.0639 19.9608L26.44 15.0528C26.4418 15.0486 26.4438 15.0444 26.446 15.0404Z" fill="#37A72E"/>
<path fill-rule="evenodd" clip-rule="evenodd" d="M15.583 15.1966L13.8828 20.5532H11.7902L10.0889 15.1934C10.0725 15.1076 9.99444 15.0425 9.90059 15.0425C9.79482 15.0425 9.70908 15.1251 9.70908 15.227C9.70908 15.2278 9.70908 15.2286 9.70909 15.2293L9.70908 20.5532H6.80005V11.3999H9.29696H10.0406C10.5759 11.3999 11.1368 11.8 11.2932 12.2928L12.709 16.7532C12.7794 16.9751 12.8937 16.9749 12.964 16.7532L14.3798 12.2928C14.5363 11.7997 15.0971 11.3999 15.6324 11.3999L16.3758 11.3999H18.8725V20.5532H15.9635V15.2293C15.9635 15.2286 15.9635 15.2278 15.9635 15.227C15.9635 15.1251 15.8777 15.0425 15.772 15.0425C15.6769 15.0425 15.5981 15.1092 15.583 15.1966Z" fill="#37A72E"/>
<defs>
<linearGradient id="paint0_linear_2213_25418" x1="30.7509" y1="13.2446" x2="40.5331" y2="13.2446" gradientUnits="userSpaceOnUse">
<stop stop-color="#00A0E5"/>
<stop offset="1" stop-color="#0077C3"/>
</linearGradient>
</defs>
</svg>
