<svg width="48" height="32" viewBox="0 0 48 32" fill="none" xmlns="http://www.w3.org/2000/svg">
<rect width="48" height="32" fill="white"/>
<path d="M27.1239 19.0986C25.9105 19.0986 25.2452 18.9334 24.2235 18.5166L23.845 18.3451L23.4157 20.8227C24.1538 21.1247 25.4844 21.3842 26.8609 21.4047C30.0939 21.4047 32.2069 19.915 32.2323 17.6231C32.2576 16.3631 31.4244 15.4067 29.6646 14.6186C28.597 14.1074 27.9317 13.7644 27.9317 13.2453C27.9317 12.786 28.5004 12.2968 29.6884 12.2968C30.4778 12.2779 31.2626 12.422 31.9931 12.7199L32.2782 12.8458L32.7075 10.4516L32.633 10.4674C31.749 10.1522 30.8161 9.9941 29.8769 10.0002C26.8356 10.0002 24.6892 11.5008 24.6734 13.6512C24.6544 15.2321 26.2004 16.1224 27.3678 16.6525C28.5669 17.1952 28.9676 17.5366 28.9645 18.0242C28.9565 18.7651 28.0061 19.0986 27.1239 19.0986ZM40.5261 10.2031H38.1501C37.4104 10.2031 36.8576 10.3997 36.5329 11.1202L31.963 21.2505H35.196L35.8422 19.5925L39.7864 19.5957C39.883 19.9827 40.1666 21.2505 40.1666 21.2505H43.0162L40.5261 10.2031ZM36.7277 17.3258L37.9537 14.2379C37.9379 14.2694 38.2072 13.5993 38.3624 13.184L38.5731 14.1373L39.2843 17.3258H36.7277ZM18.3754 21.1624H21.4547L23.3793 10.1103H20.3015V10.1071L18.3754 21.1624ZM12.7981 17.7364L12.4781 16.2011V16.2058L11.3978 11.1312C11.2125 10.428 10.6708 10.2204 9.99913 10.1952H5.0396L5 10.428C6.11673 10.6876 7.12257 11.0635 8.02229 11.5244C8.162 11.6056 8.2643 11.7376 8.30741 11.8925L10.9685 21.2348H14.2221L19.0708 10.2031H15.8093L12.7981 17.7364Z" fill="#1C33C3"/>
</svg>
