<svg width="48" height="32" viewBox="0 0 48 32" fill="none" xmlns="http://www.w3.org/2000/svg">
<path d="M0 0H48V32H0V0Z" fill="white"/>
<path d="M20.3446 19.8177C20.4133 19.8887 20.4934 19.9242 20.5896 19.9242H22.2059C22.2997 19.9242 22.3821 19.8887 22.4508 19.8177C22.5195 19.7466 22.5538 19.6637 22.5538 19.5642V15.9142C22.5538 15.3932 22.4852 14.9408 22.3478 14.5594C22.2104 14.1781 22.0204 13.8654 21.7778 13.6167C21.5328 13.368 21.2398 13.1856 20.8987 13.0648C20.5553 12.9464 20.1798 12.8848 19.77 12.8848C19.3671 12.8848 19.0122 12.9701 18.7055 13.143C18.3964 13.3159 18.1698 13.4959 18.0255 13.6807V10.855C18.0255 10.7579 17.9912 10.6726 17.9225 10.6039C17.8538 10.5328 17.7737 10.4973 17.6799 10.4973H16.0567C15.9629 10.4973 15.8804 10.5328 15.8118 10.6039C15.7431 10.675 15.7087 10.7579 15.7087 10.855V19.5642C15.7087 19.6613 15.7431 19.7466 15.8118 19.8177C15.8804 19.8887 15.9606 19.9242 16.0567 19.9242H17.673C17.7668 19.9242 17.8493 19.8887 17.9157 19.8177C17.9843 19.7466 18.0187 19.6637 18.0187 19.5642V16.2056C18.0187 15.8242 18.1057 15.5187 18.2819 15.2889C18.4582 15.0592 18.7375 14.9431 19.1221 14.9431C19.5067 14.9431 19.7883 15.0592 19.9692 15.2889C20.1478 15.5187 20.2393 15.8242 20.2393 16.2056V19.5642C20.2416 19.6637 20.276 19.7466 20.3446 19.8177Z" fill="#8347AD"/>
<path d="M25.9397 13.02H24.3211C24.2273 13.02 24.1448 13.0555 24.0762 13.1266C24.0075 13.1977 23.9731 13.2806 23.9731 13.3777V19.5644C23.9731 19.6615 24.0075 19.7468 24.0762 19.8178C24.1448 19.8889 24.225 19.9244 24.3211 19.9244H25.9374C26.0313 19.9244 26.1137 19.8889 26.1801 19.8178C26.2487 19.7468 26.2831 19.6639 26.2831 19.5644V13.3777C26.2831 13.2806 26.2487 13.1953 26.1801 13.1266C26.1137 13.0555 26.0335 13.02 25.9397 13.02Z" fill="#8347AD"/>
<path d="M34.4147 18.3562C34.5727 17.9748 34.6597 17.5248 34.678 17.0013C34.6871 16.8687 34.6917 16.6887 34.6917 16.4637C34.6917 16.2387 34.6871 16.0587 34.678 15.926C34.6597 15.4049 34.5727 14.9525 34.4147 14.5712C34.2567 14.1898 34.0484 13.8748 33.792 13.6214C33.5356 13.368 33.2357 13.1832 32.8946 13.0648C32.5512 12.9463 32.1895 12.8848 31.8049 12.8848C31.5233 12.8848 31.2852 12.9085 31.0929 12.9582C30.9006 13.0079 30.738 13.0695 30.6052 13.1429C30.4725 13.2187 30.3626 13.304 30.271 13.4011C30.1817 13.4982 30.097 13.5906 30.0215 13.6806V13.3751C30.0215 13.2779 29.9871 13.1927 29.9184 13.1216C29.8498 13.0506 29.7696 13.015 29.6758 13.015H28.1236C28.0298 13.015 27.9473 13.0506 27.8787 13.1216C27.81 13.1927 27.7756 13.2756 27.7756 13.3751V22.0843C27.7756 22.1814 27.81 22.2667 27.8787 22.3377C27.9473 22.4088 28.0275 22.4443 28.1236 22.4443H29.7399C29.8337 22.4443 29.9162 22.4088 29.9848 22.3377C30.0535 22.2667 30.0879 22.1838 30.0879 22.0843V19.261C30.1474 19.3415 30.2252 19.4268 30.3191 19.5191C30.4129 19.6115 30.5297 19.6992 30.6648 19.7773C30.8021 19.8578 30.9647 19.9242 31.1524 19.9763C31.3401 20.0284 31.5576 20.0568 31.8071 20.0568C32.1918 20.0568 32.5558 19.9952 32.8969 19.8721C33.238 19.7489 33.5379 19.5594 33.7943 19.3083C34.0484 19.0549 34.2567 18.7375 34.4147 18.3562ZM32.3795 16.8427C32.3543 17.1529 32.2559 17.423 32.0842 17.6527C31.9125 17.8825 31.6263 17.9985 31.2234 17.9985C31.0356 17.9985 30.8731 17.9677 30.7357 17.9061C30.5984 17.8446 30.4862 17.7617 30.3946 17.6598C30.3053 17.558 30.2344 17.4443 30.184 17.3211C30.1336 17.1979 30.0993 17.07 30.081 16.935C30.0627 16.8024 30.0558 16.6484 30.0558 16.4708C30.0558 16.2931 30.065 16.1392 30.081 16.0065C30.097 15.8739 30.1314 15.746 30.184 15.6205C30.2344 15.4973 30.3053 15.3836 30.3946 15.2818C30.4839 15.1799 30.5984 15.097 30.7357 15.0354C30.8731 14.9738 31.0356 14.9431 31.2234 14.9431C31.6263 14.9431 31.9125 15.0591 32.0842 15.2889C32.2559 15.5186 32.3543 15.7886 32.3795 16.0989C32.4069 16.3476 32.4069 16.5963 32.3795 16.8427Z" fill="#8347AD"/>
<path d="M40.4767 19.8178C40.5454 19.8889 40.6255 19.9244 40.7217 19.9244H42.2097C42.3036 19.9244 42.386 19.8889 42.4524 19.8178C42.5211 19.7468 42.5554 19.6639 42.5554 19.5644V13.3777C42.5554 13.2806 42.5211 13.1953 42.4524 13.1266C42.3837 13.0555 42.3036 13.02 42.2097 13.02H40.5935C40.4996 13.02 40.4172 13.0555 40.3485 13.1266C40.2798 13.1977 40.2455 13.2806 40.2455 13.3777V16.7363C40.2455 17.1177 40.1654 17.4232 40.0074 17.6529C39.8494 17.8827 39.5816 17.9988 39.2061 17.9988C38.8307 17.9988 38.5605 17.8827 38.398 17.6529C38.2355 17.4232 38.153 17.1177 38.153 16.7363V13.3777C38.153 13.2806 38.1187 13.1953 38.05 13.1266C37.9813 13.0555 37.9012 13.02 37.8051 13.02H36.1888C36.0949 13.02 36.0125 13.0555 35.9438 13.1266C35.8752 13.1977 35.8408 13.2806 35.8408 13.3777V17.0276C35.8408 18.0722 36.0858 18.8372 36.578 19.3252C37.0702 19.8131 37.7318 20.0547 38.5605 20.0547C38.8261 20.0547 39.055 20.031 39.2473 19.9813C39.4396 19.9315 39.6091 19.8699 39.7533 19.7965C39.8998 19.7207 40.0211 19.6378 40.1196 19.5431C40.218 19.4507 40.3004 19.356 40.3691 19.2588V19.5644C40.3737 19.6639 40.408 19.7468 40.4767 19.8178Z" fill="#8347AD"/>
<path d="M25.088 12.307C24.4722 12.307 23.9731 11.7883 23.9731 11.1535C23.9731 10.5163 24.4745 10 25.088 10C25.7039 10 26.203 10.5187 26.203 11.1535C26.2052 11.7883 25.7039 12.307 25.088 12.307Z" fill="#3CB4E5"/>
<path d="M9.51603 16.1724V13.9673L8.8796 14.7939C8.78115 14.9218 8.77658 15.1018 8.86815 15.2368L9.51603 16.1724Z" fill="#743CEB"/>
<path d="M9.37632 10.5992C9.31222 10.5328 9.22981 10.4973 9.13595 10.4973H7.32737C7.24038 10.4973 7.16483 10.5305 7.09844 10.5992C7.03434 10.6655 7 10.7508 7 10.8479V19.5879C7 19.6779 7.03205 19.7561 7.09844 19.8248C7.16254 19.8911 7.24038 19.9266 7.32737 19.9266H9.13595C9.2321 19.9266 9.31222 19.8934 9.37632 19.8248C9.44043 19.7584 9.47477 19.6779 9.47477 19.5879V16.9777L9.27559 16.7053L9.27102 16.7006L9.26644 16.6935L8.45601 15.5187C8.24311 15.2108 8.25226 14.7868 8.4812 14.4907L9.27788 13.4533L9.47477 13.188V10.8455C9.47477 10.7484 9.44272 10.6655 9.37632 10.5992Z" fill="#8347AD"/>
<path d="M14.7058 19.9243C14.7836 19.9243 14.85 19.8959 14.9004 19.8367C14.9531 19.7775 14.9782 19.7135 14.9782 19.6424C14.9782 19.5714 14.9599 19.5169 14.9256 19.4814L11.7251 15.0095L14.6921 10.9427C14.7264 10.8977 14.7447 10.8432 14.7447 10.7816C14.7447 10.7106 14.7173 10.6442 14.66 10.5874C14.6257 10.5519 14.5845 10.5258 14.541 10.5116C14.5158 10.5045 14.486 10.4998 14.4586 10.4998H12.4027C12.2631 10.4998 12.1532 10.5282 12.0708 10.5874C11.9884 10.6466 11.9243 10.7058 11.8831 10.7698L9.66928 13.7708L8.86802 14.8129C8.82223 14.8721 8.79705 14.9432 8.79705 15.0166C8.79476 15.0901 8.81536 15.1611 8.85886 15.2251L9.27323 15.8243L9.66928 16.3951L12.0502 19.6401C12.0754 19.6756 12.128 19.7325 12.2059 19.8082C12.2539 19.8556 12.3203 19.8888 12.4027 19.9077C12.4531 19.9196 12.5081 19.9243 12.5699 19.9243H14.7058Z" fill="#3CB4E5"/>
</svg>
