<svg width="40" height="40" viewBox="0 0 40 40" fill="none" xmlns="http://www.w3.org/2000/svg">
<rect x="0.25" y="0.25" width="39.5" height="39.5" rx="5.75" fill="white" stroke="#DBDEE3" stroke-width="0.5"/>
<path d="M23.0461 10.89C22.2093 11.8831 20.8704 12.6663 19.5315 12.5544C19.3641 11.2117 20.0196 9.78505 20.7867 8.90389C21.6235 7.88286 23.088 7.15556 24.2735 7.09961C24.4129 8.49828 23.869 9.86897 23.0461 10.89ZM24.2595 12.8202C22.3209 12.7083 20.6612 13.9251 19.7407 13.9251C18.8063 13.9251 17.3976 12.8761 15.8635 12.9041C13.8691 12.9321 12.0141 14.065 10.996 15.8693C8.90396 19.4778 10.4521 24.8207 12.4744 27.7579C13.4646 29.2125 14.6501 30.807 16.2121 30.7511C17.6905 30.6951 18.2763 29.786 20.0615 29.786C21.8606 29.786 22.3767 30.7511 23.9387 30.7231C25.5566 30.6951 26.5747 29.2685 27.5649 27.8139C28.6946 26.1635 29.1549 24.555 29.1828 24.4711C29.1549 24.4431 26.0587 23.2542 26.0308 19.6736C26.0029 16.6805 28.4715 15.2538 28.5831 15.1699C27.1884 13.0999 25.0126 12.8761 24.2595 12.8202Z" fill="black"/>
</svg>
