<svg width="48" height="32" viewBox="0 0 48 32" fill="none" xmlns="http://www.w3.org/2000/svg">
<path d="M0 0H48V32H0V0Z" fill="white"/>
<path d="M10.175 12H13.6822C13.8953 12.0183 14.1124 12.0875 14.2787 12.2419C14.4325 12.3853 14.5056 12.6153 14.4866 12.8347C14.46 13.1617 14.3088 13.455 14.1472 13.7222C13.8655 14.1744 13.4613 14.5342 12.9945 14.7222C12.8715 14.7853 12.733 14.7961 12.6105 14.8583C12.8004 14.8983 13.0042 14.9503 13.1427 15.1117C13.2777 15.2628 13.3195 15.4886 13.295 15.6944C13.2479 16.0253 13.1052 16.3286 12.9361 16.6022C12.6473 17.0781 12.2148 17.4403 11.7252 17.6242C11.014 17.8939 10.2519 17.8533 9.51131 17.8558C8.78253 17.8558 8.05349 17.8561 7.32471 17.8556C8.27488 15.9039 9.22406 13.9514 10.175 12ZM11.2842 13.1519C11.0994 13.5389 10.9093 13.9225 10.723 14.3083C10.9456 14.3086 11.1682 14.3097 11.3909 14.3058C11.5411 14.3072 11.6924 14.2953 11.8387 14.255C12.1174 14.1861 12.3566 13.9744 12.4983 13.7022C12.5649 13.5856 12.6529 13.4136 12.5547 13.2889C12.4497 13.1856 12.3007 13.1703 12.1667 13.1583C11.8727 13.1464 11.5782 13.1489 11.2842 13.1519ZM9.55714 16.7042C9.90952 16.7061 10.2624 16.7103 10.6145 16.6936C10.8046 16.6783 10.9969 16.6331 11.1625 16.5247C11.3879 16.3758 11.5444 16.1222 11.627 15.85C11.6458 15.77 11.6491 15.6725 11.597 15.6067C11.5063 15.4983 11.3653 15.48 11.2399 15.4686C10.881 15.4528 10.5216 15.4606 10.1625 15.4594C9.96086 15.8747 9.7585 16.2892 9.55714 16.7042Z" fill="#EC2C2E"/>
<path d="M28.7624 12H30.8253C30.9187 13.2739 31.0063 14.5483 31.1032 15.8217C31.2525 15.5517 31.377 15.265 31.5167 14.9883C32.0011 13.9922 32.4867 12.9967 32.9705 12H34.5022C33.5506 13.9511 32.6026 15.9047 31.651 17.8561C30.971 17.8542 30.2911 17.8589 29.6116 17.8539C29.557 17.1897 29.4937 16.5264 29.4358 15.8625C29.3805 15.2761 29.3366 14.6881 29.2743 14.1028C29.1513 14.3344 29.0426 14.5753 28.9254 14.8106C28.4303 15.8256 27.9382 16.8425 27.4415 17.8564C26.9321 17.855 26.4225 17.8561 25.9131 17.8558C26.8623 15.9036 27.8127 13.9519 28.7624 12Z" fill="#EC2C2E"/>
<path d="M39.5826 12.6851C40.1663 12.5678 40.7501 12.4501 41.3342 12.3342C41.1491 12.7145 40.964 13.0948 40.7789 13.4751C41.0922 13.4759 41.4055 13.474 41.7188 13.4762V13.4787C41.532 13.8587 41.3444 14.2384 41.1636 14.622C40.8503 14.6276 40.5367 14.6259 40.2234 14.6228C39.9793 15.112 39.7426 15.6064 39.5032 16.0984C39.4511 16.2359 39.3669 16.3703 39.3775 16.5256C39.3832 16.6298 39.4789 16.6853 39.5628 16.6948C39.8202 16.7334 40.0734 16.6489 40.3214 16.5831C40.0649 16.997 39.8037 17.4076 39.546 17.8206C39.1816 17.9064 38.8102 17.9578 38.4375 17.9601C38.1894 17.9576 37.9342 17.9492 37.7005 17.847C37.5552 17.7914 37.432 17.6495 37.417 17.4756C37.3947 17.2498 37.4779 17.0326 37.566 16.8345C37.9201 16.0959 38.282 15.362 38.6386 14.6251C38.4338 14.6226 38.2289 14.6301 38.0246 14.6214C38.2086 14.2412 38.3987 13.864 38.5768 13.4803C38.7824 13.4695 38.9885 13.4759 39.1944 13.4773C39.3284 13.2162 39.4528 12.949 39.5826 12.6851Z" fill="#EC2C2E"/>
<path d="M16.8238 13.3857C17.2455 13.3669 17.6788 13.3441 18.0875 13.4835C18.2741 13.5499 18.4689 13.6719 18.5391 13.8877C18.6107 14.1088 18.5328 14.3452 18.4424 14.5444C17.9085 15.648 17.3673 16.7474 16.8356 17.8524C16.3076 17.8582 15.779 17.8574 15.251 17.853C15.5688 17.2021 15.8886 16.5527 16.2002 15.8985C15.7749 16.071 15.3124 16.1302 14.9119 16.3755C14.8183 16.4471 14.7166 16.5146 14.652 16.6219C14.6071 16.6963 14.5623 16.786 14.5823 16.8785C14.6016 16.9538 14.6718 16.991 14.7351 17.0082C14.9545 17.0549 15.1781 17.0102 15.3918 16.9513C15.1581 17.2707 14.9265 17.5924 14.6908 17.9099C14.4013 17.9313 14.1108 17.9774 13.8205 17.948C13.5936 17.9388 13.3597 17.8894 13.1656 17.7527C13.0399 17.6649 12.9435 17.5224 12.9162 17.3585C12.8788 17.1344 12.9427 16.9074 13.0286 16.706C13.1483 16.4313 13.3179 16.1788 13.5365 15.9916C13.842 15.7063 14.2185 15.533 14.5986 15.411C15.1604 15.2282 15.7489 15.173 16.3101 14.9885C16.5052 14.9119 16.7354 14.7991 16.793 14.5555C16.8288 14.4202 16.7013 14.3341 16.5981 14.3194C16.2277 14.2646 15.8571 14.353 15.4935 14.4227C15.1571 14.5035 14.8243 14.601 14.4949 14.711C14.503 14.6869 14.5135 14.6641 14.526 14.6427C14.7263 14.3096 14.9237 13.9746 15.1233 13.641C15.6855 13.5227 16.252 13.4216 16.8238 13.3857Z" fill="#EC2C2E"/>
<path d="M21.8808 13.4239C22.1701 13.3633 22.4674 13.3597 22.7599 13.3931C22.9635 13.4308 23.1799 13.4758 23.3387 13.635C23.4824 13.7689 23.5383 13.9886 23.5165 14.1908C23.4829 14.5542 23.3046 14.8708 23.1538 15.1864C22.7206 16.0761 22.2878 16.9661 21.8545 17.8558C21.3289 17.8561 20.8029 17.8553 20.2773 17.8564C20.6467 17.0833 21.0258 16.3161 21.399 15.545C21.4776 15.377 21.5563 15.1895 21.526 14.995C21.5019 14.8561 21.3807 14.772 21.2615 14.7542C20.9487 14.7006 20.6369 14.8358 20.3812 15.0272C19.9772 15.3408 19.686 15.7964 19.4455 16.2669C19.1828 16.7933 18.9284 17.3253 18.6704 17.855C18.1432 17.8569 17.6158 17.8556 17.0884 17.8556C17.8026 16.3958 18.5074 14.93 19.2256 13.4728C19.7233 13.4781 20.2209 13.4736 20.7185 13.4753C20.6148 13.6878 20.5099 13.8997 20.4085 14.1136C20.4536 14.1086 20.4884 14.075 20.5257 14.0497C20.9384 13.7542 21.3945 13.5195 21.8808 13.4239Z" fill="#EC2C2E"/>
<path d="M25.567 13.4442C25.9364 13.3548 26.3168 13.3653 26.6922 13.3834C27.0027 13.4067 27.3185 13.4384 27.6156 13.5439C27.451 13.9806 27.29 14.4192 27.1322 14.8589C26.7889 14.7311 26.4332 14.6036 26.0658 14.6314C25.7636 14.6453 25.4645 14.755 25.2171 14.9486C24.9101 15.1842 24.6847 15.5345 24.5482 15.917C24.5018 16.0739 24.461 16.2506 24.5184 16.4109C24.5832 16.5828 24.7575 16.652 24.9108 16.6834C25.3876 16.7617 25.853 16.5859 26.3125 16.472C26.037 16.915 25.7641 17.36 25.4891 17.8034C24.9797 17.9173 24.4585 17.9848 23.9383 17.9503C23.6361 17.9231 23.3218 17.8553 23.0721 17.6528C22.8835 17.5017 22.7648 17.2567 22.7455 17.0006C22.7132 16.61 22.8349 16.2298 22.9764 15.8789C23.2894 15.1556 23.7427 14.4931 24.34 14.0317C24.7074 13.7467 25.1264 13.54 25.567 13.4442Z" fill="#EC2C2E"/>
<path d="M34.2172 14.1231C34.7898 13.672 35.4815 13.4117 36.183 13.377C36.5358 13.3592 36.8972 13.3786 37.2338 13.5061C37.4489 13.5906 37.6573 13.7361 37.7698 13.9631C37.8925 14.202 37.8877 14.4931 37.8306 14.7534C37.7372 15.1759 37.5183 15.5428 37.3398 15.9245C36.3743 15.9253 35.4091 15.9217 34.4439 15.9264C34.3733 16.0859 34.3084 16.2675 34.352 16.447C34.3915 16.6184 34.5388 16.7242 34.6816 16.7778C34.9473 16.8845 35.2343 16.8503 35.51 16.8284C35.9162 16.7728 36.3157 16.6725 36.7126 16.5639C36.4599 16.975 36.2088 17.3872 35.9533 17.7961C35.3039 17.9242 34.6422 17.9839 33.9828 17.9492C33.6332 17.9172 33.2648 17.8528 32.9766 17.6147C32.8007 17.4714 32.685 17.2445 32.6622 17.0042C32.6257 16.6406 32.7334 16.2828 32.8639 15.9545C33.1616 15.2281 33.6262 14.5814 34.2172 14.1231ZM35.5699 14.4364C35.2668 14.5717 35.0197 14.8286 34.8351 15.1234C35.2894 15.1281 35.7439 15.1239 36.1985 15.1253C36.2689 14.9645 36.349 14.7903 36.3235 14.6056C36.3089 14.4847 36.2105 14.3992 36.1076 14.3759C35.9285 14.3303 35.7392 14.3631 35.5699 14.4364Z" fill="#EC2C2E"/>
<path d="M7.10569 18.3071C17.8306 18.308 28.5555 18.3074 39.2804 18.3074C39.1935 18.4857 39.1076 18.6646 39.0195 18.8424C28.2946 18.8413 17.5697 18.8421 6.84448 18.8419C6.93214 18.6638 7.01754 18.4846 7.10569 18.3071Z" fill="#EC2C2E"/>
<path d="M6.5392 19.4673C7.51292 19.4634 8.48664 19.4667 9.46036 19.4656C19.2126 19.4656 28.965 19.4656 38.7175 19.4659C38.6301 19.6437 38.5449 19.8231 38.4562 20.0001H6.28125C6.36665 19.8223 6.45531 19.6462 6.5392 19.4673Z" fill="#EC2C2E"/>
</svg>
