<svg width="40" height="40" viewBox="0 0 40 40" fill="none" xmlns="http://www.w3.org/2000/svg">
<rect width="40" height="40" rx="6" fill="#BABFC8"/>
<path d="M15.1823 18.02L20.0046 13.1996L24.8288 18.0239L27.6332 15.2176L20.0046 7.58691L12.376 15.2156L15.1823 18.02Z" fill="white"/>
<path d="M7.58716 20.0045L10.3924 17.1992L13.1977 20.0045L10.3924 22.8098L7.58716 20.0045Z" fill="white"/>
<path d="M15.1813 21.9834L20.0036 26.8058L24.8279 21.9814L27.6342 24.7839L27.6322 24.7858L20.0036 32.4165L12.375 24.7897L12.3711 24.7858L15.1813 21.9834Z" fill="white"/>
<path d="M26.8047 20.0045L29.61 17.1992L32.4152 20.0045L29.61 22.8098L26.8047 20.0045Z" fill="white"/>
<path d="M22.8488 20.0009L20.0032 17.1533L17.899 19.2576L17.6558 19.4988L17.1577 19.997L17.1538 20.0009L17.1577 20.0068L20.0032 22.8504L22.8488 20.0028L22.8507 20.0009H22.8488Z" fill="white"/>
</svg>
