<svg width="20" height="20" viewBox="0 0 20 20" fill="none" xmlns="http://www.w3.org/2000/svg">
<path d="M17.5 4.98335C14.725 4.70835 11.9333 4.56668 9.15 4.56668C7.5 4.56668 5.85 4.65001 4.2 4.81668L2.5 4.98335" stroke="#F53F3F" stroke-width="1.5" stroke-linecap="round" stroke-linejoin="round"/>
<path d="M7.0835 4.14166L7.26683 3.04999C7.40016 2.25832 7.50016 1.66666 8.9085 1.66666H11.0918C12.5002 1.66666 12.6085 2.29166 12.7335 3.05832L12.9168 4.14166" stroke="#F53F3F" stroke-width="1.5" stroke-linecap="round" stroke-linejoin="round"/>
<path d="M15.7082 7.61667L15.1665 16.0083C15.0748 17.3167 14.9998 18.3333 12.6748 18.3333H7.32484C4.99984 18.3333 4.92484 17.3167 4.83317 16.0083L4.2915 7.61667" stroke="#F53F3F" stroke-width="1.5" stroke-linecap="round" stroke-linejoin="round"/>
<path d="M8.6084 13.75H11.3834" stroke="#F53F3F" stroke-width="1.5" stroke-linecap="round" stroke-linejoin="round"/>
<path d="M7.9165 10.4167H12.0832" stroke="#F53F3F" stroke-width="1.5" stroke-linecap="round" stroke-linejoin="round"/>
</svg>
