<svg width="40" height="40" viewBox="0 0 40 40" fill="none" xmlns="http://www.w3.org/2000/svg">
<path d="M22.1583 30.0568C27.6024 30.0831 32.5715 25.5734 32.5715 20.0872C32.5715 14.0878 27.6024 9.94088 22.1583 9.94287H17.473C11.9637 9.94088 7.42896 14.089 7.42896 20.0872C7.42896 25.5746 11.9637 30.0831 17.473 30.0568H22.1583Z" fill="#0079BE"/>
<path d="M17.4955 10.7744C12.4612 10.776 8.3818 14.8966 8.38062 19.9821C8.3818 25.0668 12.4612 29.187 17.4955 29.1886C22.531 29.187 26.6113 25.0668 26.612 19.9821C26.6112 14.8966 22.531 10.776 17.4955 10.7744ZM11.7178 19.9821C11.7226 17.497 13.2596 15.3779 15.4269 14.5358V25.4272C13.2596 24.5856 11.7225 22.4676 11.7178 19.9821ZM19.5633 25.4296V14.5354C21.7315 15.3755 23.2708 17.4958 23.2748 19.9821C23.2708 22.4692 21.7315 24.5879 19.5633 25.4296Z" fill="white"/>
<path d="M22.1583 30.0568C27.6024 30.0831 32.5715 25.5734 32.5715 20.0872C32.5715 14.0878 27.6024 9.94088 22.1583 9.94287H17.473C11.9637 9.94088 7.42896 14.089 7.42896 20.0872C7.42896 25.5746 11.9637 30.0831 17.473 30.0568H22.1583Z" fill="#0079BE"/>
<path d="M17.4955 10.7744C12.4612 10.776 8.3818 14.8966 8.38062 19.9821C8.3818 25.0668 12.4612 29.187 17.4955 29.1886C22.531 29.187 26.6113 25.0668 26.612 19.9821C26.6112 14.8966 22.531 10.776 17.4955 10.7744ZM11.7178 19.9821C11.7226 17.497 13.2596 15.3779 15.4269 14.5358V25.4272C13.2596 24.5856 11.7225 22.4676 11.7178 19.9821ZM19.5633 25.4296V14.5354C21.7315 15.3755 23.2708 17.4958 23.2748 19.9821C23.2708 22.4692 21.7315 24.5879 19.5633 25.4296Z" fill="white"/>
</svg>
