<svg width="40" height="40" viewBox="0 0 40 40" fill="none" xmlns="http://www.w3.org/2000/svg">
<rect width="40" height="40" rx="6" fill="#BABFC8"/>
<mask id="mask0_2202_23612" style="mask-type:alpha" maskUnits="userSpaceOnUse" x="0" y="0" width="40" height="40">
<rect width="40" height="40" rx="6" fill="#0059DA"/>
</mask>
<g mask="url(#mask0_2202_23612)">
<path d="M30.5268 22.8163H26.0737C24.4386 22.8153 23.1133 21.491 23.1123 19.8559C23.1123 18.2208 24.4386 16.8965 26.0737 16.8955H30.5268" stroke="white" stroke-width="1.5" stroke-linecap="round" stroke-linejoin="round"/>
<path d="M26.578 19.7874H26.2351" stroke="white" stroke-width="1.5" stroke-linecap="round" stroke-linejoin="round"/>
<path fill-rule="evenodd" clip-rule="evenodd" d="M15.2461 10.2803H24.7538C27.9418 10.2803 30.5263 12.8647 30.5263 16.0527V23.9474C30.5263 27.1354 27.9418 29.7199 24.7538 29.7199H15.2461C12.0581 29.7199 9.47363 27.1354 9.47363 23.9474V16.0527C9.47363 12.8647 12.0581 10.2803 15.2461 10.2803Z" stroke="white" stroke-width="1.5" stroke-linecap="round" stroke-linejoin="round"/>
<path opacity="0.5" d="M14.4619 15.2718H20.4008" stroke="white" stroke-width="1.5" stroke-linecap="round" stroke-linejoin="round"/>
</g>
</svg>
