<svg width="40" height="40" viewBox="0 0 40 40" fill="none" xmlns="http://www.w3.org/2000/svg">
<rect width="40" height="40" rx="6" fill="#3885F9"/>
<mask id="mask0_2202_23444" style="mask-type:alpha" maskUnits="userSpaceOnUse" x="0" y="0" width="40" height="40">
<rect width="40" height="40" rx="6" fill="#0059DA"/>
</mask>
<g mask="url(#mask0_2202_23444)">
<path d="M30.5268 22.8162H26.0737C24.4386 22.8152 23.1133 21.4909 23.1123 19.8558C23.1123 18.2207 24.4386 16.8964 26.0737 16.8954H30.5268" stroke="white" stroke-width="1.5" stroke-linecap="round" stroke-linejoin="round"/>
<path d="M26.578 19.7873H26.2351" stroke="white" stroke-width="1.5" stroke-linecap="round" stroke-linejoin="round"/>
<path fill-rule="evenodd" clip-rule="evenodd" d="M15.2461 10.2802H24.7538C27.9418 10.2802 30.5263 12.8646 30.5263 16.0526V23.9473C30.5263 27.1353 27.9418 29.7198 24.7538 29.7198H15.2461C12.0581 29.7198 9.47363 27.1353 9.47363 23.9473V16.0526C9.47363 12.8646 12.0581 10.2802 15.2461 10.2802Z" stroke="white" stroke-width="1.5" stroke-linecap="round" stroke-linejoin="round"/>
<path d="M14.4619 15.2716H20.4008" stroke="#1BCFF7" stroke-width="1.5" stroke-linecap="round" stroke-linejoin="round"/>
</g>
</svg>
