<svg width="48" height="32" viewBox="0 0 48 32" fill="none" xmlns="http://www.w3.org/2000/svg">
<path d="M0 0H48V32H0V0Z" fill="white"/>
<path fill-rule="evenodd" clip-rule="evenodd" d="M33.135 17.544C33.135 18.2489 32.6932 18.6187 32.2564 18.6187C31.6859 18.6187 31.3778 18.0586 31.3778 17.5321C31.3778 17.0077 31.6799 16.4757 32.2564 16.4757C32.6922 16.4757 33.135 16.8422 33.135 17.544ZM33.7233 15.815H33.2915C33.2053 15.815 33.135 15.8918 33.135 15.9859V16.4757C33.0924 16.1697 32.7348 15.761 32.1227 15.761C31.254 15.761 30.623 16.506 30.623 17.5321C30.623 18.5592 31.2629 19.3334 32.1118 19.3334C32.6407 19.3334 32.9696 18.9993 33.135 18.8101V19.1085C33.135 19.2026 33.2043 19.2793 33.2915 19.2793H33.7233C33.8095 19.2793 33.8789 19.2026 33.8789 19.1085V15.9859C33.8789 15.8918 33.8085 15.815 33.7233 15.815Z" fill="#002CB9"/>
<path fill-rule="evenodd" clip-rule="evenodd" d="M35.8241 17.2185C35.4775 17.1136 35.1783 17.0228 35.1783 16.7774C35.1783 16.573 35.3477 16.4573 35.6439 16.4573C35.9182 16.4573 36.1035 16.5892 36.155 16.8195C36.1718 16.8963 36.2342 16.9504 36.3065 16.9504H36.7374C36.783 16.9504 36.8265 16.9287 36.8553 16.8909C36.885 16.853 36.8979 16.8033 36.8909 16.7536C36.8028 16.1319 36.3452 15.761 35.6657 15.761C34.9515 15.761 34.4335 16.1913 34.4335 16.7838C34.4335 17.5364 35.0634 17.7202 35.5686 17.8683C35.9153 17.97 36.2154 18.0575 36.2154 18.2911C36.2154 18.503 36.0203 18.636 35.7053 18.636C35.4349 18.636 35.214 18.4868 35.1575 18.2651C35.1377 18.1895 35.0773 18.1376 35.006 18.1376H34.5523C34.5058 18.1376 34.4622 18.1603 34.4315 18.1992C34.4028 18.237 34.3899 18.2878 34.3978 18.3365C34.4969 18.9236 35.0387 19.3334 35.7162 19.3334C36.4383 19.3334 36.9434 18.902 36.9434 18.2835C36.9236 17.5504 36.3135 17.3666 35.8241 17.2185Z" fill="#002CB9"/>
<path fill-rule="evenodd" clip-rule="evenodd" d="M39.1344 15.8172C38.7808 15.8172 38.4589 15.9459 38.234 16.1751V14.8365C38.234 14.7424 38.1647 14.6667 38.0775 14.6667H37.6506C37.5645 14.6667 37.4951 14.7424 37.4951 14.8365V19.1085C37.4951 19.2026 37.5645 19.2793 37.6506 19.2793H38.0775C38.1637 19.2793 38.234 19.2026 38.234 19.1085V17.4066C38.234 16.8509 38.4975 16.4757 38.9561 16.4757C39.4118 16.4757 39.6733 16.8509 39.6733 17.4066V19.1085C39.6733 19.2026 39.7426 19.2793 39.8288 19.2793H40.2507C40.3369 19.2793 40.4062 19.2026 40.4062 19.1085V17.3028C40.4062 16.4011 39.907 15.8172 39.1344 15.8172Z" fill="#002CB9"/>
<path fill-rule="evenodd" clip-rule="evenodd" d="M30.1861 18.1484L29.8206 17.9214C29.7968 17.9062 29.7701 17.8987 29.7433 17.8987C29.6898 17.8987 29.6413 17.9279 29.6136 17.9754C29.5224 18.1322 29.3947 18.2609 29.2352 18.3593C29.047 18.475 28.834 18.5344 28.6023 18.5344C28.209 18.5344 27.8861 18.3971 27.6434 18.1257C27.4008 17.8543 27.277 17.5051 27.277 17.0877C27.277 16.6693 27.4008 16.3201 27.6434 16.0487C27.8861 15.7773 28.209 15.64 28.6023 15.64C28.833 15.64 29.046 15.6983 29.2322 15.8151C29.3907 15.9135 29.5185 16.0433 29.6126 16.2C29.6413 16.2476 29.6888 16.2757 29.7423 16.2757C29.7701 16.2757 29.7968 16.2682 29.8206 16.253L30.1871 16.0206C30.2247 15.9979 30.2515 15.9578 30.2614 15.9114C30.2713 15.8659 30.2633 15.8184 30.2396 15.7794C30.0771 15.5135 29.8582 15.295 29.5908 15.1318C29.2897 14.948 28.9569 14.855 28.6023 14.855C28.0129 14.855 27.5167 15.0712 27.1274 15.4983C26.7391 15.9243 26.542 16.4595 26.542 17.0877C26.542 17.7159 26.7391 18.2501 27.1274 18.6761C27.5167 19.1021 28.0129 19.3194 28.6023 19.3194C28.9608 19.3194 29.2956 19.2254 29.5967 19.0394C29.8642 18.874 30.0801 18.6555 30.2406 18.3896C30.2643 18.3506 30.2713 18.3031 30.2614 18.2576C30.2515 18.2122 30.2237 18.1722 30.1861 18.1484Z" fill="#002CB9"/>
<path fill-rule="evenodd" clip-rule="evenodd" d="M24.2827 16.7353C24.1757 16.7353 24.0885 16.8304 24.0885 16.9472V17.2532C24.0885 17.3699 24.1757 17.4651 24.2827 17.4651H25.3841C25.2583 18.2793 24.4748 18.555 24.1341 18.555C23.7379 18.555 23.4041 18.4101 23.1416 18.1257C22.892 17.8543 22.7642 17.5073 22.7642 17.0932C22.7642 16.679 22.89 16.3298 23.1386 16.0552C23.3873 15.7805 23.7092 15.641 24.0955 15.641C24.3342 15.641 24.5531 15.7005 24.7453 15.8162C24.8988 15.9092 25.0236 16.027 25.1167 16.1665C25.1514 16.2195 25.2108 16.2498 25.2742 16.2498C25.3089 16.2498 25.3425 16.2401 25.3713 16.2217L25.6654 16.0368C25.714 16.0065 25.7476 15.9557 25.7595 15.8973C25.7704 15.84 25.7595 15.7794 25.7288 15.7319C25.5694 15.4875 25.3594 15.2853 25.1048 15.1318C24.8017 14.948 24.463 14.855 24.0975 14.855C23.515 14.855 23.0198 15.0734 22.6256 15.5037C22.2313 15.9341 22.0312 16.466 22.0312 17.0856C22.0312 17.7095 22.2313 18.2436 22.6256 18.6718C23.0198 19.0999 23.5259 19.3173 24.1301 19.3173C24.6333 19.3173 25.2167 19.0491 25.5822 18.6512C25.9022 18.302 26.0438 17.8024 26.0834 17.5235H26.0844L26.0914 17.4564C26.0993 17.3818 26.1052 17.184 26.1092 17.0131C26.1131 16.8585 25.9992 16.732 25.8586 16.732H24.2827V16.7353Z" fill="#002CB9"/>
<path fill-rule="evenodd" clip-rule="evenodd" d="M19.45 16.3334C19.45 17.3675 19.2135 18.3652 18.7692 19.261C18.6188 19.5619 18.7151 19.9285 18.9939 20.1083C19.3098 20.3123 19.7271 20.1948 19.896 19.8541C20.4214 18.7975 20.7187 17.6009 20.7187 16.3334C20.7187 15.0676 20.4231 13.8744 19.8994 12.8179C19.7304 12.479 19.3115 12.3614 18.9972 12.5637C18.7185 12.7435 18.6222 13.1101 18.7725 13.411C19.2152 14.3067 19.45 15.3011 19.45 16.3334Z" fill="#6FBBF8"/>
<path fill-rule="evenodd" clip-rule="evenodd" d="M17.3958 16.3335C17.3958 16.975 17.2623 17.5941 17.0072 18.1613C16.8738 18.457 16.9751 18.8097 17.2454 18.9827C17.5698 19.1919 18.0006 19.0605 18.1611 18.7043C18.4922 17.9711 18.6662 17.167 18.6662 16.3352C18.6662 15.5052 18.4922 14.7028 18.1645 13.9714C18.004 13.6134 17.5732 13.482 17.2488 13.693C16.9785 13.8659 16.8771 14.2169 17.0106 14.5144C17.2623 15.0764 17.3958 15.6954 17.3958 16.3335Z" fill="#6FBBF8"/>
<path fill-rule="evenodd" clip-rule="evenodd" d="M13.1299 20.7014C11.9913 20.7014 10.9185 20.2466 10.1143 19.4218C9.30849 18.597 8.86418 17.5006 8.86418 16.3351C8.86418 15.1679 9.3068 14.0716 10.1143 13.2468C10.9202 12.4219 11.9913 11.9671 13.1299 11.9671C14.3598 11.9671 15.2366 12.479 15.735 12.875C15.9884 13.0756 16.3465 13.0548 16.5729 12.8231C16.8449 12.5464 16.8145 12.0899 16.5121 11.8513C15.833 11.3169 14.6926 10.6667 13.1299 10.6667C11.65 10.6667 10.2613 11.2564 9.21557 12.3268C8.16984 13.3972 7.59375 14.8203 7.59375 16.3334C7.59375 17.8378 8.1749 19.2748 9.21389 20.34C10.2596 21.4104 11.65 22.0001 13.1282 22.0001C14.3716 22.0001 15.5525 21.5833 16.5189 20.8138C16.8145 20.5769 16.8415 20.1273 16.5763 19.8558L16.5628 19.842C16.3398 19.6138 15.9867 19.5913 15.7383 19.7884C15.2518 20.174 14.3666 20.7014 13.1299 20.7014Z" fill="#325EED"/>
<path fill-rule="evenodd" clip-rule="evenodd" d="M16.448 15.8699C16.328 15.7472 16.1658 15.678 15.9969 15.678L13.7736 15.6815C13.4205 15.6815 13.135 15.9754 13.135 16.3351C13.135 16.6965 13.4205 16.9887 13.7736 16.9887C13.7753 16.9887 13.777 16.9887 13.777 16.9887L15.2637 16.987C14.9799 17.9502 14.0895 18.6453 13.0506 18.6073C11.8494 18.5623 10.8932 17.5317 10.9101 16.3005C10.9253 15.0572 11.9153 14.056 13.1333 14.056C13.5591 14.056 13.9645 14.177 14.3159 14.4036C14.5676 14.5661 14.8971 14.5246 15.1083 14.3084C15.3955 14.0145 15.3448 13.5216 15.0001 13.2986C14.2399 12.8058 13.3124 12.6276 12.3731 12.8282C11.0284 13.1153 9.97923 14.203 9.70386 15.5794C9.24266 17.8845 10.9591 19.918 13.1317 19.918C15.0626 19.918 16.6338 18.3099 16.6338 16.3334C16.6355 16.1604 16.5679 15.9927 16.448 15.8699Z" fill="#002CB9"/>
</svg>
