<svg width="40" height="40" viewBox="0 0 40 40" fill="none" xmlns="http://www.w3.org/2000/svg">
<rect width="40" height="40" rx="6" fill="#BABFC8"/>
<path d="M30.0067 20.0942C30.0067 19.3939 29.9293 18.6935 29.852 17.9932H20.1863V21.9618H25.6764C25.4444 23.2069 24.7485 24.3742 23.6659 25.0745V27.6425H26.991C28.9241 25.8527 30.0067 23.2069 30.0067 20.0942Z" fill="white"/>
<path d="M20.1863 30.134C22.9701 30.134 25.2898 29.2002 26.991 27.6439L23.666 25.0759C22.7381 25.6985 21.5782 26.0876 20.1863 26.0876C17.5573 26.0876 15.2375 24.2978 14.4642 21.8076H11.0619V24.4534C12.8404 27.9552 16.32 30.134 20.1863 30.134Z" fill="white"/>
<path d="M14.4642 21.8049C14.0002 20.5598 14.0002 19.1591 14.4642 17.8362V15.1904H11.0619C9.59266 18.0697 9.59266 21.4936 11.0619 24.4507L14.4642 21.8049Z" fill="white"/>
<path d="M20.1863 13.6361C21.6555 13.6361 23.0473 14.1808 24.1299 15.1925L27.0683 12.2354C25.2125 10.5234 22.738 9.51182 20.2636 9.58964C16.3973 9.58964 12.8403 11.7685 11.1392 15.2703L14.5415 17.9161C15.2374 15.4259 17.5572 13.6361 20.1863 13.6361Z" fill="white"/>
</svg>
