<svg width="48" height="32" viewBox="0 0 48 32" fill="none" xmlns="http://www.w3.org/2000/svg">
<path d="M0 0H48V32H0V0Z" fill="white"/>
<path fill-rule="evenodd" clip-rule="evenodd" d="M32.4908 20.9557H30.7749L33.1574 12H34.8698L32.4908 20.9557ZM18.2456 20.3946C18.1534 20.749 17.8379 20.9963 17.4869 20.9963H8.65183C8.41075 20.9963 8.22993 20.9114 8.11294 20.7416C7.99594 20.5718 7.96758 20.3577 8.03849 20.1066L10.1941 12.0221H11.91L9.98489 19.2428H16.8416L18.7667 12.0221H20.4792L18.2456 20.3946ZM31.6009 12.2806C31.4839 12.1107 31.2996 12.0258 31.0514 12.0258H21.6314L21.167 13.783H29.7361L29.2362 15.6583H22.3795V15.6546H20.6671L19.2454 21H20.9578L21.9115 17.4155H29.6155C29.8566 17.4155 30.0835 17.3306 30.2962 17.1608C30.509 16.991 30.6472 16.7769 30.7146 16.5258L31.6683 12.9413C31.7392 12.6682 31.7179 12.4504 31.6009 12.2806Z" fill="#66686C"/>
<path fill-rule="evenodd" clip-rule="evenodd" d="M37.834 12.0142L40.0003 16.5031L35.4409 20.992L35.9834 18.958L38.4757 16.5031L37.2916 14.0482L37.834 12.0142Z" fill="#0E8635"/>
<path fill-rule="evenodd" clip-rule="evenodd" d="M36.3091 12.0142L38.4753 16.5031L33.916 20.992L36.3091 12.0142Z" fill="#E97208"/>
</svg>
