<svg width="32" height="32" viewBox="0 0 32 32" fill="none" xmlns="http://www.w3.org/2000/svg">
<rect width="32" height="32" rx="10" transform="matrix(-1 0 0 1 32 0)" fill="#F4F5F7"/>
<path d="M14.264 15.9994L18.119 19.782C18.4043 20.062 18.4043 20.51 18.119 20.79C17.8336 21.07 17.377 21.07 17.0917 20.79L12.8268 16.6052C12.7853 16.5797 12.749 16.5492 12.7127 16.5136C12.5674 16.371 12.4947 16.1877 12.4999 15.9994C12.4999 15.8161 12.5674 15.6277 12.7127 15.4852C12.749 15.4495 12.7853 15.419 12.8268 15.3935L17.0917 11.2087C17.2318 11.0713 17.4186 11 17.6053 11C17.7921 11 17.9789 11.0713 18.119 11.2087C18.4043 11.4887 18.4043 11.9367 18.119 12.2167L14.264 15.9994Z" fill="#5D636D"/>
</svg>
