<svg width="40" height="40" viewBox="0 0 40 40" fill="none" xmlns="http://www.w3.org/2000/svg">
<path d="M22.812 26.6357H15.5088V13.3633H22.812V26.6357Z" fill="#FF5F00"/>
<path d="M15.9724 20.0001C15.9713 18.7219 16.2578 17.4603 16.8101 16.3107C17.3624 15.161 18.1661 14.1535 19.1604 13.3644C17.9291 12.3859 16.4505 11.7774 14.8935 11.6085C13.3364 11.4395 11.7638 11.717 10.3553 12.4091C8.94683 13.1012 7.7593 14.1801 6.92843 15.5225C6.09756 16.8648 5.65687 18.4165 5.65674 20.0001C5.65704 21.5835 6.09777 23.1349 6.92859 24.4771C7.7594 25.8192 8.94679 26.898 10.3551 27.59C11.7634 28.2821 13.3358 28.5596 14.8926 28.3909C16.4495 28.2221 17.928 27.6139 19.1593 26.6357C18.1653 25.8464 17.3619 24.8388 16.8098 23.6892C16.2577 22.5396 15.9713 21.2781 15.9724 20.0001Z" fill="#EB001B"/>
<path d="M32.6641 20.0001C32.6639 21.5837 32.2232 23.1354 31.3924 24.4777C30.5615 25.82 29.374 26.8989 27.9655 27.5911C26.557 28.2832 24.9844 28.5606 23.4273 28.3917C21.8703 28.2228 20.3916 27.6143 19.1604 26.6357C21.1016 25.0903 22.3484 22.6926 22.3484 20.0001C22.3484 17.3076 21.1016 14.9098 19.1604 13.3644C20.3916 12.3859 21.8703 11.7774 23.4273 11.6085C24.9844 11.4395 26.557 11.717 27.9655 12.4091C29.374 13.1012 30.5615 14.1801 31.3924 15.5225C32.2232 16.8648 32.6639 18.4165 32.6641 20.0001Z" fill="#F79E1B"/>
</svg>
