<svg width="40" height="40" viewBox="0 0 40 40" fill="none" xmlns="http://www.w3.org/2000/svg">
<path d="M27.4587 20.0723V25.2632H30.3638V22.1871H33.6562C35.041 22.1775 36.2175 21.2979 36.663 20.0723H27.4587Z" fill="#37A72E"/>
<path d="M27.0715 15.7944C27.241 17.914 29.2649 19.5915 31.7342 19.5915C31.7438 19.5915 36.7841 19.5915 36.7841 19.5915C36.8229 19.3992 36.8422 19.1974 36.8422 18.9907C36.8422 17.2315 35.4139 15.8089 33.6467 15.7944H27.0715Z" fill="url(#paint0_linear_2213_25181)"/>
<path d="M22.7719 19.5386V19.5338V19.5386C22.8058 19.4809 22.859 19.4473 22.9268 19.4473C23.0237 19.4473 23.0963 19.5242 23.1011 19.6155V25.215H26.0062V15.7944H23.1011C22.7332 15.8089 22.3168 16.0732 22.1618 16.4048L19.8523 21.3266C19.8475 21.3458 19.8378 21.365 19.8281 21.3843C19.7942 21.4323 19.7361 21.466 19.6683 21.466C19.5618 21.466 19.4746 21.3795 19.4746 21.2737V15.7944H16.5696V25.215H19.4746C19.8378 25.1957 20.2445 24.9314 20.3994 24.6045L22.7719 19.553C22.767 19.5482 22.7719 19.5434 22.7719 19.5386Z" fill="#37A72E"/>
<path d="M11.9264 19.702L10.2269 25.2149H8.1353L6.44068 19.6971C6.42616 19.6106 6.34869 19.5433 6.25185 19.5433C6.14533 19.5433 6.06302 19.6299 6.06302 19.7308V25.2101H3.15796V15.7896H5.65147H6.39226C6.92486 15.7896 7.4865 16.2029 7.64144 16.7076L9.05524 21.2977C9.12787 21.5284 9.23923 21.5236 9.31185 21.2977L10.7257 16.7076C10.8806 16.1981 11.4422 15.7896 11.9748 15.7896H12.7156H15.2091V25.2101H12.3041V19.7308C12.3041 19.7308 12.3041 19.7308 12.3041 19.726C12.3041 19.6202 12.2169 19.5385 12.1152 19.5385C12.0184 19.5433 11.9409 19.6106 11.9264 19.702Z" fill="#37A72E"/>
<defs>
<linearGradient id="paint0_linear_2213_25181" x1="27.0727" y1="17.693" x2="36.8416" y2="17.693" gradientUnits="userSpaceOnUse">
<stop stop-color="#00A0E5"/>
<stop offset="1" stop-color="#0077C3"/>
</linearGradient>
</defs>
</svg>
