<svg width="40" height="40" viewBox="0 0 40 40" fill="none" xmlns="http://www.w3.org/2000/svg">
<path d="M26.6879 21.1153L21.115 21.1149L21.1154 26.6878C21.1154 27.3029 20.6162 27.8021 20.0011 27.8021C19.386 27.802 18.8867 27.3027 18.8866 26.6876L18.8863 21.1148L13.3114 21.1145C12.6963 21.1144 12.197 20.6151 12.1969 20C12.1969 19.3849 12.6961 18.8857 13.3112 18.8857L18.8851 18.8851L18.8848 13.3122C18.8847 12.6971 19.384 12.1979 19.9991 12.1979C20.6142 12.198 21.1135 12.6973 21.1135 13.3124L21.1138 18.8852L26.6888 18.8855C27.3039 18.8856 27.8032 19.3849 27.8032 20C27.8032 20.6151 27.304 21.1143 26.6879 21.1153Z" fill="#0059DA"/>
<rect opacity="0.1" y="-9.15527e-05" width="40" height="39.9997" rx="6" fill="#0059DA"/>
</svg>
