<svg width="48" height="32" viewBox="0 0 48 32" fill="none" xmlns="http://www.w3.org/2000/svg">
<path d="M0 0H48V32H0V0Z" fill="white"/>
<path d="M12.1875 10.6666C15.0127 8.88763 17.8379 7.11221 20.6631 5.33325C23.485 7.17574 26.3102 9.01117 29.1386 10.8466C29.1354 12.0608 29.1386 13.275 29.1386 14.4892C28.8901 14.4892 28.6449 14.4892 28.3964 14.4892C28.3964 13.4515 28.3964 12.4173 28.3964 11.3796C25.8197 9.68887 23.2397 7.99815 20.6631 6.31097C18.0831 7.90991 15.5064 9.51238 12.9265 11.1113C12.933 14.341 12.9232 17.5706 12.9298 20.8003C15.5097 22.4239 18.0864 24.0511 20.6631 25.6853C23.2365 24.0546 25.8131 22.4274 28.3931 20.8003C28.3931 20.6238 28.3931 20.4438 28.3931 20.2673H29.1354C29.1354 20.592 29.1321 20.9167 29.1354 21.2415C26.3134 23.0557 23.485 24.8559 20.6598 26.6666C17.8379 24.8594 15.0127 23.0522 12.1875 21.245C12.1875 17.7189 12.1875 14.1927 12.1875 10.6666Z" fill="#4C94CE"/>
<path d="M23.3051 14.8916C23.7727 14.6939 24.2959 14.6692 24.7897 14.7645C25.2736 14.8528 25.7183 15.1316 26.0649 15.5057C25.8851 15.7211 25.7118 15.9434 25.5352 16.1623C25.2474 15.8693 24.8976 15.6222 24.4986 15.5552C24.0834 15.474 23.6387 15.5799 23.3051 15.8622C23.0076 16.1128 22.8016 16.4658 22.7198 16.8611C22.6152 17.3412 22.674 17.8459 22.8899 18.2801C23.0632 18.6224 23.3411 18.8907 23.6812 19.0354C24.0212 19.1766 24.4038 19.1731 24.7472 19.0566C25.0643 18.9472 25.3292 18.7213 25.5679 18.4813C25.7445 18.6754 25.9276 18.866 26.0976 19.0672C25.7706 19.4378 25.3652 19.7519 24.8943 19.8719C24.4594 19.9884 24.0049 19.9884 23.5667 19.8755C23.0076 19.7202 22.5204 19.346 22.2032 18.8236C21.6636 17.9412 21.6702 16.7129 22.2195 15.8375C22.4811 15.4069 22.8604 15.0787 23.3051 14.8916Z" fill="#4C94CE"/>
<path d="M32.716 15.0504C33.0822 14.828 33.4942 14.7115 33.9127 14.7151C34.2561 14.7045 34.5994 14.7645 34.9231 14.8915C35.2469 15.0292 35.5379 15.241 35.7799 15.5092C35.6033 15.7281 35.4267 15.9469 35.2501 16.1658C35.0343 15.9469 34.7891 15.7563 34.5111 15.6434C34.1155 15.4845 33.661 15.4951 33.2784 15.6928C32.9547 15.8622 32.6931 16.1516 32.5459 16.5081C32.3465 16.9917 32.3301 17.5423 32.5002 18.0365C32.6375 18.4424 32.9187 18.7989 33.2817 18.986C33.6054 19.1589 33.9847 19.1836 34.3313 19.0989C34.7008 19.0142 35.0114 18.7565 35.2828 18.4883C35.4594 18.6824 35.636 18.873 35.8126 19.0636C35.5019 19.4201 35.1226 19.7201 34.6844 19.8543C34.3313 19.9637 33.9585 19.9813 33.5956 19.946C32.8925 19.8613 32.2353 19.4095 31.8723 18.753C31.4047 17.9235 31.3982 16.8223 31.8494 15.9857C32.0554 15.5904 32.3563 15.2692 32.716 15.0504Z" fill="#4C94CE"/>
<path d="M17.3213 14.7998C18.0374 14.7998 18.7502 14.7998 19.4663 14.7998C19.9176 14.7998 20.3917 14.9304 20.7318 15.2657C21.0293 15.5552 21.17 15.9999 21.1601 16.4305C21.1634 16.8294 21.0326 17.2353 20.7678 17.5177C20.565 17.7294 20.3132 17.8777 20.0386 17.9518C20.4637 18.5907 20.8855 19.2295 21.3073 19.8684C20.9934 19.8719 20.6827 19.8684 20.3688 19.8684C20.3329 19.879 20.3165 19.8366 20.2969 19.8119C19.9274 19.2401 19.5546 18.6683 19.1819 18.1C18.8385 18.1036 18.4919 18.1 18.1486 18.1C18.1486 18.6895 18.1486 19.279 18.1486 19.8684C17.8739 19.8684 17.5992 19.8684 17.3246 19.8684C17.3213 18.1812 17.3213 16.4905 17.3213 14.7998ZM18.1453 15.6116C18.1453 16.1799 18.1453 16.7447 18.1453 17.3129C18.5606 17.3129 18.9726 17.3129 19.3879 17.3129C19.6233 17.3129 19.8653 17.2494 20.0517 17.0906C20.3917 16.8082 20.4146 16.2011 20.117 15.8764C19.9241 15.6787 19.6462 15.6152 19.3879 15.6116C18.9759 15.6116 18.5606 15.6116 18.1453 15.6116Z" fill="#4C94CE"/>
<path d="M26.7974 14.7998C27.5298 14.7998 28.259 14.7998 28.9915 14.7998C29.4035 14.8104 29.8416 14.9269 30.1392 15.2516C30.3517 15.474 30.4564 15.7987 30.4466 16.1128C30.4498 16.4058 30.3583 16.7094 30.1654 16.9211C30.0574 17.0517 29.9201 17.1435 29.7828 17.2353C30.0574 17.3412 30.3321 17.4894 30.5087 17.7471C30.7082 18.033 30.7409 18.4142 30.6853 18.7566C30.6231 19.0989 30.4269 19.399 30.149 19.5755C29.7959 19.8049 29.3708 19.8755 28.9653 19.8719C28.2427 19.8719 27.52 19.8719 26.7974 19.8719C26.7974 18.1812 26.7974 16.4905 26.7974 14.7998ZM27.6116 15.5869C27.6116 16.0352 27.6116 16.487 27.6116 16.9353C27.9909 16.9353 28.3735 16.9353 28.7528 16.9353C28.8934 16.9353 29.034 16.9141 29.168 16.8717C29.3381 16.8152 29.5016 16.6952 29.5735 16.5117C29.6651 16.2823 29.6389 15.9787 29.4623 15.8058C29.2956 15.6363 29.0536 15.594 28.8345 15.5834C28.4258 15.5869 28.0203 15.5869 27.6116 15.5869ZM27.6116 17.6871C27.6083 18.153 27.6116 18.6154 27.6116 19.0813C28.089 19.0813 28.5664 19.0813 29.0438 19.0813C29.2661 19.0707 29.5048 19.0284 29.6847 18.8695C29.9659 18.626 29.9561 18.0859 29.6487 17.8741C29.3838 17.6871 29.0536 17.6871 28.7528 17.6871H27.6116Z" fill="#4C94CE"/>
</svg>
