<svg width="48" height="32" viewBox="0 0 48 32" fill="none" xmlns="http://www.w3.org/2000/svg">
<path d="M0 0H48V32H0V0Z" fill="white"/>
<path d="M36.6947 7.97386C36.4535 7.62626 36.1198 7.35326 35.7317 7.18576C35.3435 7.01826 34.9163 6.96295 34.4983 7.0261L12.8571 10.0725C12.4335 10.1316 12.0348 10.3079 11.7057 10.5815C11.3766 10.8551 11.1303 11.2153 10.9943 11.6214C10.8583 12.0276 10.8381 12.4637 10.936 12.8807C11.0339 13.2977 11.246 13.6791 11.5484 13.9821L24.7653 27.2684C24.9771 27.4835 25.2295 27.6542 25.5078 27.7708C25.786 27.8873 26.0847 27.9473 26.3863 27.9473C26.5067 27.9471 26.6269 27.9378 26.7458 27.9194C27.1042 27.8653 27.4444 27.7264 27.7384 27.5142C28.0323 27.302 28.2715 27.0226 28.436 26.6992L36.8621 10.3634C37.0599 9.98921 37.149 9.56701 37.1195 9.14466C37.0899 8.72231 36.9427 8.31671 36.6947 7.97386ZM36.6498 10.2538L28.2255 26.5872C28.0779 26.877 27.8634 27.1273 27.5997 27.3173C27.3361 27.5073 27.031 27.6315 26.7098 27.6795C26.6029 27.6959 26.495 27.7042 26.3869 27.7044C26.1168 27.7044 25.8494 27.6506 25.6003 27.5462C25.3511 27.4417 25.1252 27.2887 24.9356 27.0961L11.7175 13.8079C11.4474 13.5363 11.2582 13.1948 11.171 12.8216C11.0838 12.4483 11.1021 12.0582 11.2239 11.6948C11.3456 11.3314 11.566 11.0091 11.8603 10.7641C12.1547 10.5191 12.5113 10.3611 12.8903 10.3077L34.532 7.26245C34.632 7.24854 34.7327 7.24161 34.8336 7.24171C35.186 7.24441 35.5317 7.3375 35.8379 7.5121C36.1441 7.6867 36.4005 7.93699 36.5826 8.23908C36.7648 8.54116 36.8666 8.88497 36.8783 9.23768C36.8901 9.59038 36.8114 9.94022 36.6498 10.2538Z" fill="#EE0033"/>
<path d="M34.1796 7.71381L13.3676 10.6448C13.0223 10.693 12.6972 10.8367 12.4289 11.0597C12.1607 11.2827 11.9597 11.5762 11.8487 11.9072C11.7376 12.2382 11.7209 12.5937 11.8003 12.9337C11.8797 13.2738 12.0522 13.5849 12.2983 13.8322L25.0131 26.6086C25.1858 26.7842 25.3917 26.9236 25.6187 27.0187C25.8457 27.1138 26.0894 27.1626 26.3355 27.1624C26.4345 27.1625 26.5333 27.1549 26.6312 27.1399C26.9237 27.0963 27.2016 26.9833 27.4417 26.8103C27.6818 26.6373 27.8772 26.4093 28.0115 26.1453L36.1134 10.438C36.2717 10.1317 36.3427 9.78767 36.3188 9.44361C36.2948 9.09955 36.1768 8.76873 35.9777 8.48736C35.7785 8.20599 35.5059 7.98494 35.1897 7.84839C34.8735 7.71185 34.5259 7.66508 34.1849 7.71322L34.1796 7.71381ZM35.8946 10.3273L27.7926 26.0352C27.6743 26.2646 27.5035 26.4627 27.2943 26.6135C27.085 26.7643 26.8431 26.8635 26.5883 26.9029C26.3336 26.9423 26.0731 26.9209 25.8281 26.8404C25.5832 26.76 25.3607 26.6227 25.1787 26.4397L12.4687 13.6628C12.254 13.4471 12.1036 13.1759 12.0342 12.8794C11.9648 12.583 11.9792 12.273 12.0758 11.9843C12.1724 11.6956 12.3473 11.4395 12.581 11.2448C12.8147 11.05 13.0979 10.9243 13.3989 10.8817L34.2121 7.95075C34.2905 7.9395 34.3695 7.93376 34.4487 7.93357C34.7286 7.93577 35.0033 8.00976 35.2465 8.14849C35.4897 8.28722 35.6934 8.48607 35.8381 8.72606C35.9828 8.96604 36.0637 9.23917 36.0731 9.51937C36.0825 9.79957 36.02 10.0775 35.8917 10.3267L35.8946 10.3273Z" fill="#EE0033"/>
<path d="M33.775 8.41411L13.9666 11.2017C13.6904 11.2398 13.4303 11.3545 13.2157 11.5327C13.001 11.711 12.8404 11.9457 12.7518 12.2105C12.6632 12.4753 12.6502 12.7596 12.7143 13.0314C12.7783 13.3032 12.9169 13.5517 13.1144 13.7488L25.2118 25.9097C25.3495 26.0499 25.5138 26.1611 25.6949 26.237C25.8761 26.3128 26.0705 26.3518 26.2668 26.3516C26.346 26.3515 26.4251 26.3454 26.5034 26.3333C26.7367 26.2978 26.9583 26.207 27.1495 26.0684C27.3407 25.9298 27.4961 25.7475 27.6027 25.5365L35.3138 10.588C35.4399 10.3437 35.4964 10.0694 35.4773 9.79502C35.4582 9.52067 35.3641 9.25687 35.2054 9.03247C35.0467 8.80806 34.8294 8.63169 34.5773 8.52263C34.3253 8.41357 34.0481 8.37603 33.7762 8.41411H33.775ZM35.1009 10.4778L27.3904 25.4305C27.2996 25.6072 27.1683 25.7598 27.0073 25.876C26.8463 25.9921 26.6602 26.0684 26.4641 26.0988C26.2681 26.1291 26.0676 26.1125 25.8791 26.0504C25.6907 25.9884 25.5195 25.8825 25.3797 25.7415L13.2841 13.5788C13.1183 13.4132 13.0019 13.2046 12.948 12.9764C12.8942 12.7481 12.905 12.5094 12.9792 12.287C13.0535 12.0646 13.1882 11.8673 13.3683 11.7175C13.5484 11.5676 13.7666 11.471 13.9985 11.4386L33.8064 8.6546C33.8673 8.64583 33.9288 8.64147 33.9903 8.64157C34.2054 8.64329 34.4165 8.70019 34.6034 8.80683C34.7903 8.91347 34.9468 9.0663 35.058 9.25074C35.1692 9.43517 35.2314 9.64507 35.2386 9.8604C35.2458 10.0757 35.1978 10.2893 35.0992 10.4808L35.1009 10.4778Z" fill="#EE0033"/>
<path d="M33.4563 9.1031L14.4793 11.7758C14.2818 11.8034 14.0958 11.8857 13.9423 12.0133C13.7889 12.1409 13.6739 12.3089 13.6104 12.4983C13.5469 12.6877 13.5374 12.8911 13.5828 13.0856C13.6283 13.2801 13.727 13.4581 13.8678 13.5996L25.459 25.2529C25.5578 25.3532 25.6756 25.4329 25.8054 25.4872C25.9353 25.5415 26.0746 25.5694 26.2154 25.5692C26.2716 25.5692 26.3277 25.5648 26.3833 25.5562C26.551 25.5311 26.7103 25.4663 26.848 25.367C26.9856 25.2678 27.0976 25.1371 27.1746 24.9857L34.5598 10.6616C34.6503 10.4863 34.6909 10.2895 34.6772 10.0927C34.6634 9.89586 34.5959 9.70662 34.4819 9.54568C34.368 9.38475 34.212 9.25832 34.0311 9.18026C33.8502 9.1022 33.6513 9.0755 33.4563 9.1031ZM34.3463 10.5502L26.9575 24.8762C26.8973 24.9931 26.8103 25.0941 26.7037 25.1709C26.597 25.2478 26.4738 25.2983 26.344 25.3184C26.2142 25.3385 26.0814 25.3276 25.9566 25.2866C25.8318 25.2455 25.7184 25.1755 25.6257 25.0823L14.0346 13.429C13.9255 13.319 13.8491 13.1806 13.8141 13.0296C13.779 12.8785 13.7867 12.7206 13.8362 12.5736C13.8856 12.4267 13.975 12.2964 14.0942 12.1974C14.2135 12.0985 14.3579 12.0347 14.5112 12.0133L33.4906 9.34063C33.6421 9.3189 33.7967 9.33937 33.9374 9.3998C34.0781 9.46022 34.1994 9.55826 34.2882 9.68319C34.3769 9.80811 34.4296 9.95509 34.4405 10.108C34.4514 10.261 34.42 10.4139 34.3499 10.5502H34.3463Z" fill="#EE0033"/>
<path d="M33.1382 9.79179L14.9862 12.3478C14.8666 12.3648 14.7542 12.4148 14.6614 12.4921C14.5687 12.5695 14.4992 12.6712 14.4608 12.7858C14.4225 12.9005 14.4167 13.0236 14.4442 13.1413C14.4717 13.259 14.5314 13.3668 14.6165 13.4525L25.7021 24.5952C25.762 24.656 25.8333 24.7042 25.912 24.7372C25.9907 24.7701 26.0751 24.7871 26.1604 24.7871C26.1943 24.787 26.228 24.7845 26.2615 24.7794C26.3627 24.7645 26.4588 24.7255 26.5419 24.6659C26.625 24.6062 26.6927 24.5276 26.7394 24.4364L33.8058 10.7366C33.86 10.6305 33.8842 10.5116 33.8756 10.3928C33.8671 10.274 33.8261 10.1598 33.7573 10.0626C33.6885 9.96543 33.5943 9.88903 33.4852 9.8417C33.376 9.79437 33.256 9.77793 33.1382 9.79416V9.79179ZM33.5929 10.6246L26.5271 24.3245C26.4974 24.382 26.4547 24.4316 26.4023 24.4694C26.3498 24.5072 26.2893 24.532 26.2254 24.5419C26.1616 24.5518 26.0964 24.5464 26.035 24.5262C25.9737 24.506 25.9179 24.4716 25.8724 24.4258L14.7863 13.2819C14.7325 13.2278 14.6948 13.1598 14.6774 13.0854C14.6601 13.0111 14.6637 12.9334 14.688 12.861C14.7122 12.7886 14.7561 12.7244 14.8147 12.6756C14.8734 12.6268 14.9444 12.5954 15.0199 12.5847L33.1713 10.0287C33.2458 10.0183 33.3217 10.0286 33.3907 10.0584C33.4597 10.0883 33.5193 10.1366 33.5628 10.198C33.6063 10.2594 33.6321 10.3317 33.6374 10.4068C33.6427 10.4819 33.6274 10.5571 33.5929 10.624V10.6246Z" fill="#EE0033"/>
<path d="M32.4131 10.5376L15.9158 12.8602C15.8352 12.8714 15.7592 12.9049 15.6965 12.957C15.6339 13.009 15.5869 13.0775 15.561 13.1548C15.5351 13.2321 15.5312 13.3151 15.5498 13.3945C15.5684 13.4739 15.6087 13.5465 15.6662 13.6042L25.7417 23.7334C25.782 23.7741 25.83 23.8064 25.8829 23.8285C25.9358 23.8506 25.9925 23.8619 26.0498 23.8619C26.0728 23.8619 26.0957 23.8601 26.1184 23.8566C26.1867 23.8465 26.2516 23.8201 26.3077 23.7797C26.3637 23.7393 26.4094 23.6861 26.4407 23.6244L32.8614 11.1732C32.8981 11.1017 32.9145 11.0215 32.9088 10.9413C32.9032 10.8611 32.8756 10.784 32.8292 10.7185C32.7827 10.6529 32.7192 10.6013 32.6455 10.5694C32.5718 10.5376 32.4908 10.5266 32.4113 10.5376H32.4131ZM32.6496 11.063L26.229 23.5136C26.2147 23.5414 26.194 23.5654 26.1687 23.5837C26.1434 23.602 26.1141 23.614 26.0833 23.6188C26.0524 23.6236 26.0209 23.621 25.9912 23.6113C25.9616 23.6015 25.9346 23.5849 25.9126 23.5628L15.8395 13.4348C15.8136 13.4086 15.7955 13.3757 15.7872 13.3398C15.7788 13.3039 15.7806 13.2664 15.7923 13.2314C15.804 13.1965 15.8252 13.1655 15.8535 13.1419C15.8818 13.1183 15.916 13.103 15.9525 13.0978L32.4468 10.7752C32.4565 10.7745 32.4661 10.7745 32.4758 10.7752C32.5099 10.775 32.5435 10.7837 32.5734 10.8004C32.6032 10.817 32.6282 10.8411 32.6461 10.8703C32.6639 10.8994 32.6739 10.9327 32.6752 10.9669C32.6764 11.0011 32.6688 11.035 32.6532 11.0654L32.6496 11.063Z" fill="#EE0033"/>
<path d="M35.0217 13.0623C34.7362 12.6047 34.3405 12.2264 33.8708 11.9623L27.9629 8.61846L20.4274 4.35355C18.5291 3.27903 16.2114 4.79781 16.4338 6.96996L16.7638 10.1947L17.8987 21.287L18.2872 25.0869C18.5587 27.743 21.7409 28.9473 23.6978 27.1353L23.7073 27.1264L31.4769 19.9365L34.4746 17.1613C35.0285 16.649 35.3862 15.959 35.4861 15.2106C35.586 14.4622 35.4217 13.7023 35.0217 13.0623Z" fill="#EE0033"/>
<path d="M27.837 14.3115C27.749 14.3115 27.6646 14.3465 27.6024 14.4089C27.5402 14.4712 27.5052 14.5557 27.5052 14.6438V14.9335C27.1975 14.6332 26.8082 14.4305 26.386 14.3507C25.9638 14.2709 25.5275 14.3175 25.1317 14.4848C24.7358 14.6521 24.398 14.9325 24.1605 15.2911C23.9229 15.6497 23.7963 16.0705 23.7963 16.5008C23.7963 16.9312 23.9229 17.352 24.1605 17.7106C24.398 18.0691 24.7358 18.3496 25.1317 18.5169C25.5275 18.6842 25.9638 18.7308 26.386 18.651C26.8082 18.5712 27.1975 18.3685 27.5052 18.0682V18.3561C27.5052 18.4443 27.5402 18.5289 27.6025 18.5913C27.6648 18.6536 27.7492 18.6887 27.8373 18.6887C27.9254 18.6887 28.0098 18.6536 28.0721 18.5913C28.1344 18.5289 28.1694 18.4443 28.1694 18.3561V14.6444C28.1694 14.5563 28.1344 14.4718 28.0722 14.4094C28.01 14.3471 27.9256 14.3121 27.8376 14.3121L27.837 14.3115ZM25.9848 18.022C25.6327 18.0224 25.2914 17.9004 25.019 17.677C24.7466 17.4535 24.56 17.1423 24.491 16.7965C24.422 16.4507 24.4749 16.0916 24.6406 15.7804C24.8064 15.4693 25.0747 15.2253 25.3999 15.0902C25.7251 14.955 26.0871 14.937 26.4241 15.0392C26.7611 15.1414 27.0522 15.3574 27.248 15.6506C27.4437 15.9437 27.5319 16.2958 27.4975 16.6468C27.4631 16.9978 27.3082 17.3259 27.0593 17.5754C26.9183 17.7168 26.7508 17.8291 26.5664 17.9057C26.382 17.9824 26.1844 18.0219 25.9848 18.022Z" fill="white"/>
<path d="M21.162 14.3115C20.5931 14.3116 20.0468 14.5349 19.6403 14.9335V14.6462C19.6403 14.558 19.6053 14.4734 19.5431 14.411C19.4808 14.3486 19.3963 14.3136 19.3083 14.3136C19.2202 14.3136 19.1357 14.3486 19.0735 14.411C19.0112 14.4734 18.9762 14.558 18.9762 14.6462V19.8618C18.9762 19.95 19.0112 20.0346 19.0735 20.097C19.1357 20.1594 19.2202 20.1944 19.3083 20.1944C19.3963 20.1944 19.4808 20.1594 19.5431 20.097C19.6053 20.0346 19.6403 19.95 19.6403 19.8618V18.0664C19.8969 18.3153 20.2105 18.4972 20.5536 18.5963C20.8968 18.6954 21.259 18.7086 21.6084 18.6348C21.9578 18.561 22.2838 18.4023 22.5577 18.1728C22.8317 17.9433 23.0452 17.65 23.1795 17.3185C23.3138 16.9871 23.3648 16.6277 23.3281 16.2719C23.2913 15.9161 23.1679 15.5747 22.9688 15.2779C22.7696 14.981 22.5006 14.7376 22.1856 14.5691C21.8706 14.4006 21.5191 14.3122 21.162 14.3115ZM21.162 18.022C20.8099 18.0221 20.4687 17.8999 20.1964 17.6763C19.9242 17.4526 19.7379 17.1413 19.6691 16.7954C19.6004 16.4496 19.6535 16.0905 19.8195 15.7795C19.9854 15.4685 20.2539 15.2247 20.5792 15.0898C20.9045 14.9548 21.2664 14.937 21.6034 15.0394C21.9403 15.1418 22.2313 15.3581 22.4268 15.6514C22.6224 15.9446 22.7104 16.2967 22.6758 16.6477C22.6412 16.9986 22.4861 17.3267 22.2371 17.576C22.0959 17.7174 21.9283 17.8295 21.7438 17.9061C21.5593 17.9826 21.3616 18.022 21.162 18.022Z" fill="white"/>
<path d="M32.7058 14.3566C32.6681 14.3347 32.6264 14.3205 32.5832 14.3147C32.5399 14.309 32.496 14.3118 32.4539 14.3231C32.4118 14.3344 32.3723 14.3539 32.3377 14.3804C32.3031 14.407 32.274 14.4402 32.2522 14.478L30.7188 17.1394L29.1812 14.478C29.1594 14.4402 29.1304 14.4071 29.0958 14.3805C29.0612 14.3539 29.0218 14.3344 28.9797 14.3231C28.9376 14.3118 28.8937 14.3089 28.8505 14.3146C28.8073 14.3203 28.7656 14.3345 28.7279 14.3563C28.6901 14.3781 28.657 14.4071 28.6305 14.4418C28.604 14.4764 28.5845 14.5159 28.5732 14.5581C28.5619 14.6002 28.559 14.6442 28.5647 14.6875C28.5704 14.7308 28.5845 14.7725 28.6063 14.8103L30.3326 17.804L29.2427 19.6954C29.2018 19.7717 29.1922 19.861 29.216 19.9442C29.2397 20.0275 29.2949 20.0982 29.3699 20.1414C29.4448 20.1845 29.5336 20.1967 29.6174 20.1754C29.7012 20.1541 29.7734 20.1009 29.8187 20.0271L32.8253 14.8097C32.8691 14.7335 32.8811 14.643 32.8584 14.558C32.8471 14.5159 32.8277 14.4765 32.8012 14.4419C32.7747 14.4073 32.7417 14.3783 32.704 14.3566H32.7058Z" fill="white"/>
<path d="M26.7317 16.4683C26.4454 16.3676 26.116 16.0376 26.0179 15.7509C26.0153 15.7453 26.0111 15.7405 26.0059 15.7371C26.0006 15.7337 25.9945 15.7319 25.9883 15.7319C25.9821 15.7319 25.976 15.7337 25.9707 15.7371C25.9655 15.7405 25.9613 15.7453 25.9587 15.7509C25.8582 16.0388 25.5311 16.3676 25.2431 16.4683C25.2373 16.4707 25.2322 16.4748 25.2287 16.48C25.2252 16.4853 25.2233 16.4915 25.2233 16.4979C25.2233 16.5042 25.2252 16.5105 25.2287 16.5157C25.2322 16.521 25.2373 16.5251 25.2431 16.5275C25.5306 16.6282 25.8582 16.9558 25.9587 17.2448C25.9611 17.2507 25.9652 17.2558 25.9705 17.2593C25.9757 17.2629 25.9819 17.2647 25.9883 17.2647C25.9946 17.2647 26.0008 17.2629 26.0061 17.2593C26.0114 17.2558 26.0155 17.2507 26.0179 17.2448C26.1184 16.957 26.4454 16.6282 26.734 16.5275C26.7399 16.5251 26.7449 16.521 26.7485 16.5157C26.752 16.5105 26.7539 16.5042 26.7539 16.4979C26.7539 16.4915 26.752 16.4853 26.7485 16.48C26.7449 16.4748 26.7399 16.4707 26.734 16.4683H26.7317Z" fill="white"/>
<path d="M21.35 12.1494H21.1803C21.1476 12.1494 21.1163 12.1624 21.0933 12.1855C21.0702 12.2086 21.0573 12.2399 21.0573 12.2726V13.5349C21.0573 13.5676 21.0702 13.5989 21.0933 13.622C21.1163 13.6451 21.1476 13.6581 21.1803 13.6581H21.35C21.3826 13.6581 21.4139 13.6451 21.437 13.622C21.46 13.5989 21.473 13.5676 21.473 13.5349V12.272C21.4728 12.2395 21.4598 12.2083 21.4368 12.1853C21.4137 12.1623 21.3825 12.1494 21.35 12.1494Z" fill="white"/>
<path d="M19.9952 13.6747C20.0981 13.6747 20.2188 13.6688 20.2832 13.5408L21.0006 12.1494H20.7386C20.6876 12.1498 20.6378 12.1648 20.5951 12.1926C20.5523 12.2204 20.5184 12.2599 20.4973 12.3064L20.0455 13.2684C20.0349 13.2909 20.0136 13.3276 19.9952 13.3276C19.9769 13.3276 19.9562 13.2909 19.9456 13.2684L19.4902 12.3064C19.4692 12.2599 19.4354 12.2205 19.3927 12.1927C19.3501 12.1649 19.3004 12.1499 19.2495 12.1494H18.9863L19.7037 13.5408C19.7752 13.6771 19.9201 13.6747 19.9952 13.6747Z" fill="white"/>
<path d="M29.0783 13.6575C29.1109 13.6574 29.142 13.6443 29.1649 13.6213C29.1879 13.5982 29.2008 13.5669 29.2008 13.5343V13.4011H29.0978C29.0227 13.4011 28.8666 13.3981 28.7744 13.3353C28.6561 13.2553 28.6644 13.1132 28.6644 13.0107V11.9178C28.6637 11.8855 28.6505 11.8547 28.6275 11.832C28.6046 11.8093 28.5736 11.7965 28.5414 11.7964H28.3704C28.3378 11.7964 28.3065 11.8094 28.2835 11.8325C28.2604 11.8556 28.2474 11.8869 28.2474 11.9196V13.1677C28.2474 13.3584 28.3149 13.4674 28.4355 13.5491C28.5561 13.6309 28.688 13.6599 28.94 13.6599L29.0783 13.6575Z" fill="white"/>
<path d="M23.8735 13.167C23.8735 13.3578 23.9409 13.4668 24.0616 13.5485C24.1822 13.6303 24.3141 13.6593 24.566 13.6593H24.7026C24.7351 13.6591 24.7663 13.6461 24.7892 13.623C24.8122 13.5999 24.825 13.5687 24.825 13.5361V13.4028H24.7221C24.647 13.4028 24.4909 13.3998 24.3986 13.3371C24.2804 13.2571 24.2886 13.1149 24.2886 13.0124V12.4053H25.155V13.1676C25.155 13.3584 25.2224 13.4674 25.3437 13.5491C25.4649 13.6309 25.5956 13.6599 25.8481 13.6599H25.9847C26.0174 13.6599 26.0486 13.6469 26.0717 13.6238C26.0948 13.6007 26.1077 13.5694 26.1077 13.5367V13.4034H26.0048C25.9303 13.4034 25.7736 13.4004 25.6814 13.3376C25.5631 13.2577 25.5714 13.1155 25.5714 13.013V12.4053H25.9753C25.9914 12.4053 26.0074 12.4021 26.0223 12.3959C26.0373 12.3897 26.0508 12.3806 26.0623 12.3692C26.0737 12.3578 26.0827 12.3442 26.0889 12.3292C26.0951 12.3143 26.0983 12.2983 26.0983 12.2821V12.1494H25.572V11.9184C25.572 11.8857 25.559 11.8544 25.5359 11.8313C25.5129 11.8081 25.4816 11.7952 25.4489 11.7952H25.278C25.2454 11.7952 25.2141 11.8081 25.1911 11.8313C25.168 11.8544 25.155 11.8857 25.155 11.9184V12.1494H24.2892V11.9184C24.2892 11.8857 24.2763 11.8544 24.2532 11.8313C24.2301 11.8081 24.1988 11.7952 24.1662 11.7952H23.9953C23.9627 11.7952 23.9314 11.8081 23.9083 11.8313C23.8853 11.8544 23.8723 11.8857 23.8723 11.9184V12.1494H23.6133V12.2827C23.6133 12.3153 23.6262 12.3467 23.6493 12.3698C23.6724 12.3929 23.7037 12.4059 23.7363 12.4059H23.8729L23.8735 13.167Z" fill="white"/>
<path d="M23.4335 12.9574C23.4652 12.9291 23.4897 12.8937 23.5052 12.8541C23.5206 12.8144 23.5264 12.7717 23.5222 12.7294C23.5222 12.5387 23.4761 12.3509 23.2555 12.2401C23.0817 12.1518 22.8546 12.1436 22.634 12.1436C22.4566 12.1436 22.1372 12.1436 21.9314 12.2857C21.7256 12.4279 21.7073 12.6358 21.7073 12.9178C21.7073 13.1168 21.7179 13.3247 21.8427 13.4669C21.9988 13.6446 22.2277 13.6576 22.4181 13.6576H23.3395C23.3721 13.6576 23.4034 13.6446 23.4265 13.6215C23.4495 13.5984 23.4625 13.5671 23.4625 13.5344V13.4011H22.5423C22.3897 13.4011 22.2153 13.3839 22.1621 13.2234C22.1457 13.1553 22.1373 13.0855 22.1372 13.0155H23.2319C23.3038 13.0199 23.375 12.9994 23.4335 12.9574ZM23 12.7584H22.4087C22.2584 12.7584 22.1366 12.8271 22.1366 12.9124V12.7584C22.1402 12.6583 22.1366 12.5766 22.2224 12.5013C22.3359 12.3989 22.5068 12.4018 22.6168 12.4018C22.7268 12.4018 22.8688 12.4072 22.9717 12.4699C23.0067 12.491 23.0359 12.5205 23.0566 12.5558C23.0772 12.5911 23.0887 12.631 23.0899 12.6719C23.0923 12.7098 23.0817 12.7584 23 12.7584Z" fill="white"/>
<path d="M26.9102 13.6576H27.8316C27.8642 13.6576 27.8955 13.6446 27.9186 13.6215C27.9417 13.5984 27.9546 13.567 27.9546 13.5344V13.4011H27.0344C26.8818 13.4011 26.7074 13.3839 26.6542 13.2234C26.6378 13.1553 26.6294 13.0855 26.6293 13.0155H27.7234C27.7958 13.0199 27.8675 12.9989 27.9262 12.9562C27.9579 12.9279 27.9824 12.8925 27.9978 12.8528C28.0133 12.8132 28.0191 12.7705 28.0149 12.7282C28.0149 12.5374 27.9688 12.3497 27.7482 12.2389C27.5743 12.1506 27.3473 12.1423 27.1273 12.1423C26.9498 12.1423 26.6299 12.1423 26.4241 12.2845C26.2183 12.4267 26.2006 12.6346 26.2006 12.9165C26.2006 13.1156 26.2106 13.3235 26.3354 13.4656C26.4909 13.6433 26.721 13.6576 26.9102 13.6576ZM26.6299 12.7578C26.6335 12.6577 26.6299 12.5759 26.7157 12.5007C26.8292 12.3982 27.0001 12.4012 27.1101 12.4012C27.2201 12.4012 27.3626 12.4065 27.4649 12.4693C27.5 12.4903 27.5292 12.5199 27.5498 12.5552C27.5705 12.5905 27.582 12.6304 27.5832 12.6713C27.5832 12.711 27.5726 12.7596 27.491 12.7596H26.8996C26.7494 12.7596 26.6275 12.8283 26.6275 12.9136L26.6299 12.7578Z" fill="white"/>
<path d="M21.2655 12.0067H21.3513C21.3674 12.0067 21.3834 12.0036 21.3983 11.9974C21.4131 11.9912 21.4267 11.9821 21.438 11.9706C21.4494 11.9592 21.4584 11.9456 21.4645 11.9306C21.4707 11.9157 21.4738 11.8997 21.4737 11.8835V11.8498C21.4737 11.8172 21.4608 11.7859 21.4379 11.7629C21.4149 11.7398 21.3838 11.7267 21.3513 11.7266H21.1798C21.1471 11.7266 21.1159 11.7395 21.0928 11.7626C21.0697 11.7858 21.0568 11.8171 21.0568 11.8498V12.1495C21.0704 12.1056 21.0984 12.0676 21.1363 12.0417C21.1742 12.0158 21.2198 12.0035 21.2655 12.0067Z" fill="white"/>
</svg>
