<svg width="40" height="40" viewBox="0 0 40 40" fill="none" xmlns="http://www.w3.org/2000/svg">
<path d="M22.5664 22.7237C21.5047 22.7237 20.9226 22.5792 20.0286 22.2145L19.6973 22.0644L19.3217 24.2323C19.9676 24.4966 21.1319 24.7237 22.3363 24.7416C25.1651 24.7416 27.0141 23.4381 27.0363 21.4327C27.0584 20.3302 26.3294 19.4933 24.7895 18.8037C23.8554 18.3564 23.2732 18.0563 23.2732 17.6021C23.2732 17.2002 23.7708 16.7722 24.8103 16.7722C25.5011 16.7557 26.1878 16.8817 26.827 17.1424L27.0764 17.2525L27.4521 15.1576L27.3869 15.1714C26.6134 14.8957 25.7971 14.7573 24.9753 14.7626C22.3141 14.7626 20.4361 16.0757 20.4222 17.9572C20.4056 19.3405 21.7583 20.1196 22.7798 20.5834C23.829 21.0583 24.1797 21.357 24.1769 21.7837C24.17 22.4319 23.3384 22.7237 22.5664 22.7237V22.7237ZM34.2934 14.9402H32.2144C31.5671 14.9402 31.0834 15.1122 30.7993 15.7426L26.8006 24.6067H29.6295L30.195 23.1559L33.6461 23.1587C33.7307 23.4973 33.9788 24.6067 33.9788 24.6067H36.4722L34.2934 14.9402ZM30.9697 21.1725L32.0425 18.4706C32.0287 18.4982 32.2643 17.9118 32.4001 17.5484L32.5844 18.3825L33.2068 21.1725H30.9697ZM14.9115 24.5296H17.6059L19.2899 14.8589H16.5968V14.8562L14.9115 24.5296ZM10.0313 21.5318L9.75135 20.1884V20.1925L8.80609 15.7522C8.64393 15.137 8.16992 14.9553 7.58225 14.9333H3.24266L3.20801 15.137C4.18514 15.3641 5.06526 15.693 5.85251 16.0963C5.97476 16.1673 6.06427 16.2829 6.10199 16.4184L8.43048 24.5929H11.2773L15.5199 14.9402H12.6661L10.0313 21.5318V21.5318Z" fill="#1C33C3"/>
</svg>
