<svg width="48" height="32" viewBox="0 0 48 32" fill="none" xmlns="http://www.w3.org/2000/svg">
<rect width="48" height="32" fill="white"/>
<path d="M26.5064 8.78796C25.7683 9.66384 24.5874 10.3547 23.4064 10.256C23.2588 9.0717 23.837 7.81339 24.5136 7.03621C25.2516 6.13566 26.5433 5.49417 27.5889 5.44482C27.7119 6.67845 27.2321 7.88741 26.5064 8.78796ZM27.5766 10.4904C25.8667 10.3917 24.4028 11.4649 23.591 11.4649C22.7668 11.4649 21.5244 10.5397 20.1712 10.5644C18.4122 10.5891 16.7761 11.5883 15.8781 13.1797C14.0329 16.3625 15.3984 21.0749 17.182 23.6655C18.0554 24.9485 19.101 26.3549 20.4788 26.3055C21.7827 26.2562 22.2993 25.4543 23.8739 25.4543C25.4607 25.4543 25.9159 26.3055 27.2936 26.2808C28.7206 26.2562 29.6186 24.9979 30.4919 23.7149C31.4883 22.2592 31.8943 20.8405 31.9189 20.7665C31.8943 20.7418 29.1634 19.6933 29.1388 16.5352C29.1142 13.8952 31.2915 12.6369 31.3899 12.5629C30.1598 10.7371 28.2408 10.5397 27.5766 10.4904Z" fill="black"/>
</svg>
