<svg width="48" height="32" viewBox="0 0 48 32" fill="none" xmlns="http://www.w3.org/2000/svg">
<path d="M0 0H48V32H0V0Z" fill="white"/>
<g clip-path="url(#clip0_2213_24621)">
<path d="M8.25 10.9607L8.30687 21.0004L15.3537 20.9614C16.0951 20.8886 16.9293 20.717 17.5123 20.2771C17.8325 20.0356 18.1516 19.7159 18.3606 19.3057V20.9798L23.5308 20.943C27.7114 20.6714 29.1273 17.8753 29.1063 16.0426C29.0843 14.1319 27.7769 11.1956 23.0712 10.9791L18.3606 10.9607V17.0668C18.0822 16.4706 17.4838 15.8904 16.1973 15.5443C17.1731 15.0048 17.6126 14.1632 17.51 13.28C17.4123 12.4398 17.0433 11.2964 14.7803 10.9974L8.25 10.9607ZM13.4392 12.2857C14.7369 12.5121 14.9951 13.2241 14.9983 13.7623C15.0018 14.3472 14.6607 15.1127 13.4392 15.1722L10.6621 15.1631V12.3041L13.4392 12.2857ZM20.8675 12.2949L22.3816 12.3156C25.3716 12.2801 26.3377 14.3331 26.3268 15.9898C26.3178 17.3658 25.7469 19.6538 22.3816 19.6456L20.8296 19.6272L20.8675 12.2949ZM14.2519 16.4904C15.5741 16.6208 16.0685 17.367 16.1001 18.0496C16.128 18.6511 15.8372 19.5392 14.2898 19.6548H10.6716V16.5271L14.2519 16.4904Z" fill="#0B2972"/>
<path d="M33.6296 10.6667C30.2501 10.6667 27.5116 13.056 27.5116 16.0012C27.5116 18.9465 30.2501 21.3334 33.6296 21.3334C37.0091 21.3334 39.75 18.9465 39.75 16.0012C39.75 13.056 37.0091 10.6667 33.6296 10.6667ZM33.6628 11.87C35.6128 11.87 37.1933 13.7035 37.1933 15.9645C37.1933 18.2255 35.6128 20.0589 33.6628 20.0589C31.7128 20.0589 30.1323 18.2255 30.1323 15.9645C30.1323 13.7035 31.7128 11.87 33.6628 11.87Z" fill="#FFB20C"/>
</g>
<defs>
<clipPath id="clip0_2213_24621">
<rect width="31.5" height="10.6667" fill="white" transform="translate(8.25 10.6667)"/>
</clipPath>
</defs>
</svg>
