<svg width="48" height="32" viewBox="0 0 48 32" fill="none" xmlns="http://www.w3.org/2000/svg">
<rect width="48" height="32" fill="white"/>
<path d="M19.6993 14.1839L23.9526 9.9323L28.2076 14.1874L30.6811 11.7122L23.9526 4.98193L17.2241 11.7105L19.6993 14.1839Z" fill="#F0B90B"/>
<path d="M13.0002 15.9342L15.4745 13.46L17.9488 15.9342L15.4745 18.4085L13.0002 15.9342Z" fill="#F0B90B"/>
<path d="M19.6984 17.6797L23.9517 21.933L28.2067 17.678L30.6819 20.1497L30.6801 20.1515L23.9517 26.8817L17.2232 20.1549L17.2197 20.1514L19.6984 17.6797Z" fill="#F0B90B"/>
<path d="M29.9506 15.9343L32.4248 13.46L34.8991 15.9343L32.4248 18.4085L29.9506 15.9343Z" fill="#F0B90B"/>
<path d="M26.461 15.9313L23.9512 13.4197L22.0953 15.2757L21.8808 15.4884L21.4415 15.9278L21.438 15.9313L21.4415 15.9364L23.9512 18.4445L26.461 15.933L26.4627 15.9313H26.461Z" fill="#F0B90B"/>
</svg>
