<svg width="48" height="32" viewBox="0 0 48 32" fill="none" xmlns="http://www.w3.org/2000/svg">
<path d="M0 0H48V32H0V0Z" fill="white"/>
<path d="M21.6094 22.2009V12.6758H24.7594C26.025 12.6758 26.9531 12.8676 27.5719 13.2831C28.1625 13.6986 28.4719 14.3059 28.4719 15.137C28.4719 15.6803 28.3313 16.1598 28.0219 16.5114C27.7125 16.863 27.2906 17.1187 26.6719 17.2785C27.3469 17.4064 27.8813 17.694 28.1906 18.0776C28.5281 18.4612 28.6969 18.9726 28.6969 19.6119C28.6969 20.4749 28.4156 21.1461 27.8813 21.5616C27.3469 22.0091 26.5312 22.2009 25.4344 22.2009H21.6094ZM23.8594 16.5434H24.7594C25.2656 16.5434 25.6312 16.4475 25.8562 16.2877C26.0813 16.1278 26.1938 15.8402 26.1938 15.4566C26.1938 15.105 26.0813 14.8493 25.8281 14.6575C25.575 14.4657 25.2375 14.4018 24.7594 14.4018H23.8594V16.5434ZM23.8594 20.4749H24.7594C25.3219 20.4749 25.7438 20.379 25.9688 20.1872C26.2219 19.9954 26.3344 19.7077 26.3344 19.2922C26.3344 18.9087 26.1938 18.621 25.9406 18.4292C25.6875 18.2374 25.2938 18.1415 24.7312 18.1415H23.8313V20.4749H23.8594Z" fill="#DCB91C"/>
<path d="M29.4844 22.2009V12.6758H33.3094C34.4062 12.6758 35.2219 12.9315 35.7844 13.4429C36.3469 13.9543 36.6281 14.7214 36.6281 15.7123C36.6281 16.7032 36.3469 17.4383 35.7844 17.9817C35.2219 18.5251 34.4625 18.8128 33.45 18.8128H31.7625V22.2009H29.4844ZM31.8188 16.9589H32.8594C33.3656 16.9589 33.7313 16.863 33.9563 16.6393C34.1813 16.4475 34.3219 16.1278 34.3219 15.6803C34.3219 15.2648 34.2094 14.9452 33.9844 14.7534C33.7594 14.5616 33.3937 14.4657 32.8875 14.4657H31.8469V16.9589H31.8188Z" fill="#DCB91C"/>
<path d="M37.4438 12.6758H39.7501V22.2009H37.4438V12.6758Z" fill="#DCB91C"/>
<path fill-rule="evenodd" clip-rule="evenodd" d="M8.3625 20.7946C8.44688 21.0823 8.64375 21.338 8.95313 21.5937C9.375 21.9773 12.6375 24.4384 13.65 25.1736L13.875 25.3334L14.0438 25.2056C14.2125 25.0777 18.1781 22.0092 18.6563 21.5937C18.9656 21.338 19.1344 21.0823 19.2469 20.7946C19.3875 20.3471 19.3313 19.9955 19.3031 19.7398C19.275 19.612 18.6281 15.169 18.2906 13.0594C16.8281 12.8037 15.3656 12.6759 13.875 12.6759C13.8469 12.6759 13.8188 12.6759 13.7906 12.6759V24.1827C11.7938 22.7124 9.88125 21.2741 9.54375 20.9864C9.34688 20.8266 9.23438 20.6667 9.17813 20.5069C9.09375 20.2832 9.12188 20.0914 9.15 19.8677C9.17813 19.7398 9.88125 14.9773 10.2188 12.9636C9.90938 12.9955 9.68438 13.0594 9.375 13.1234C9.0375 15.233 8.33438 19.612 8.30625 19.7398C8.25 19.9955 8.19375 20.3471 8.3625 20.7946ZM10.95 14.7535H11.3156V14.9773V15.1051H11.625V14.7535H11.9906V15.1051H12.2719V14.7535H12.6375V15.6485H10.95V14.7535ZM11.2031 15.7763H12.3281L12.7219 19.3243H10.8375L11.2031 15.7763ZM10.6125 19.5161H12.9469V20.411H12.3281V20.1873H11.2594V20.411H10.6125V19.5161ZM11.5125 17.7261H12.0469V17.5024H11.5125V17.7261ZM12.0469 16.7992H11.5125V17.0229H12.0469V16.7992ZM11.5125 18.4293H12.0469V18.2056H11.5125V18.4293ZM11.175 11.2375C10.95 11.2695 10.8094 11.3015 10.6125 11.3654C10.5844 11.5572 10.5281 11.9407 10.4719 12.2604C11.5688 12.0686 12.7219 11.9727 13.8469 11.9727C14.9156 11.9727 15.9844 12.0686 17.025 12.2284C16.9688 11.9407 16.9125 11.5572 16.8844 11.3654C16.7438 11.3015 16.575 11.2695 16.3219 11.2375C17.0531 11.0457 17.5031 10.4704 17.5031 9.89506C17.5031 9.1599 16.9969 8.55259 15.7031 8.42474C15.2531 8.00921 14.6344 7.8494 14.0719 7.78547C14.2125 7.68958 14.2969 7.4978 14.2969 7.27405C14.2969 6.95442 14.0156 6.66675 13.7344 6.66675C13.4531 6.66675 13.1719 6.92246 13.1719 7.27405C13.1719 7.46583 13.2563 7.65762 13.3969 7.78547C12.8625 7.8494 12.2156 8.00921 11.7656 8.42474C10.5 8.55259 9.99375 9.1599 9.99375 9.89506C9.99375 10.4704 10.4438 11.0457 11.175 11.2375ZM15.9844 8.87223C15.9844 8.87223 16.9406 8.96812 16.9406 9.92702C16.9406 10.6941 16.2094 11.1097 15.3094 10.9499C16.5469 10.4065 16.2938 9.28775 15.9844 8.87223ZM14.0438 8.32885C14.8594 8.42474 15.4781 9.00008 15.4781 9.70328C15.4781 10.4065 14.8313 11.0138 14.0156 11.0777C14.1844 10.822 14.2969 10.3106 14.2969 9.67131C14.2688 9.09597 14.1844 8.58456 14.0438 8.32885ZM13.4531 8.32885C13.3125 8.61652 13.2 9.09597 13.2 9.67131C13.2 10.2786 13.3125 10.822 13.4813 11.0777C12.6656 11.0138 12.0188 10.4384 12.0188 9.70328C12.0188 8.96812 12.6375 8.39278 13.4531 8.32885ZM11.5125 8.87223C11.2031 9.28775 10.95 10.3745 12.2156 10.9499C11.3156 11.0777 10.5844 10.6622 10.5844 9.92702C10.5281 9.00008 11.5125 8.87223 11.5125 8.87223ZM16.2938 21.1462C16.2938 21.1142 16.3219 21.0503 16.3219 21.0183C16.3781 21.0183 16.4344 20.9864 16.5188 20.9864C16.6313 20.8905 16.6313 20.6348 16.7438 20.5389C16.8 20.5069 16.8281 20.5389 16.8563 20.6028C16.8844 20.5069 16.8844 20.3791 16.9125 20.2512C16.9969 19.9955 17.2219 19.8357 17.1375 19.3562C17.1375 19.3562 17.1375 19.3562 17.1094 19.3243C17.0813 19.3882 17.0531 19.4202 17.025 19.4841C16.7156 19.4521 16.8281 18.685 17.0531 18.6211C17.1938 19.1005 17.8406 19.2284 17.8969 18.5891C17.8969 18.4613 17.8125 18.3015 17.7 18.1097C17.7563 17.9179 17.8125 17.7581 17.8688 17.6622C17.8969 17.5983 17.7 17.6941 17.5875 17.9179C17.6438 17.7261 17.7 17.5343 17.7844 17.4384C17.8125 17.3745 17.6438 17.4704 17.5313 17.6622C17.5875 17.4704 17.6438 17.2786 17.7281 17.1827C17.7563 17.1188 17.5313 17.2467 17.4469 17.4704C17.4188 17.3425 17.3906 17.2147 17.3906 17.1188C17.3906 16.8311 17.475 16.2558 17.5875 15.7763C17.6156 15.6485 17.6719 15.3928 17.8406 15.2969C17.7 15.2649 17.475 15.3928 17.475 15.6804C17.4469 15.2649 17.1656 15.1051 17.025 15.0731C17.475 15.5526 17.1094 16.6074 17.1094 17.0868C17.1094 17.7261 17.7844 18.3654 17.6719 18.5891C17.5313 18.9088 17.25 18.3015 17.1656 18.0777C17.0813 17.8859 16.7719 17.5663 16.5469 17.3106C16.6875 17.2147 16.8281 16.927 16.8281 16.6713C16.8563 16.7033 16.8844 16.7352 16.8844 16.7672H16.9125C16.8844 16.5115 16.9688 16.2238 16.8844 16.0001C16.9125 16.0001 16.9688 16.0001 16.9969 16.0001C16.9688 14.8494 16.2375 15.0731 15.8719 15.169C15.8719 15.201 15.8438 15.201 15.8438 15.233C15.9 15.233 15.9281 15.233 15.9844 15.233C15.9563 15.233 15.9 15.2649 15.8719 15.2649C15.8438 15.3288 15.8719 15.5206 15.9563 15.6165C15.9844 15.5206 15.9844 15.4887 16.0688 15.4567C16.1531 15.5206 16.2094 15.6804 16.1531 15.8403C16.0969 15.8722 16.0406 15.8403 16.0125 15.7763C15.9844 15.9362 15.9844 16.1279 16.0969 16.2238C16.0969 16.064 16.1531 16.0001 16.2656 16.032C16.2375 16.3836 16.0125 16.2878 15.8156 16.3836C15.4219 16.5435 15.3375 17.2147 14.9719 17.3106C15 17.4704 15.1406 17.5983 15.225 17.6622C15.1688 17.7581 14.9719 18.1097 14.8594 18.1097C14.8313 18.0457 14.8031 17.9818 14.7188 17.9818C14.6625 18.0138 14.6063 18.0138 14.55 18.0457C14.55 18.0777 14.5219 18.1097 14.5219 18.1097C14.55 18.1097 14.5781 18.1097 14.6063 18.1416C14.6063 18.1736 14.6063 18.2375 14.6063 18.2695C14.6625 18.2695 14.7188 18.2695 14.775 18.3015V18.3334C14.7188 18.3334 14.6625 18.3015 14.6063 18.3015C14.5781 18.3334 14.4938 18.4932 14.4938 18.5891V18.6211C14.5219 18.5891 14.5219 18.5891 14.55 18.5572C14.5781 18.5572 14.5781 18.5891 14.6063 18.6211C14.6063 18.6211 14.6344 18.6211 14.6344 18.653C14.6906 18.5891 14.7188 18.5572 14.775 18.4932C14.775 18.4932 14.775 18.5252 14.8031 18.5252C14.775 18.5891 14.7188 18.6211 14.6906 18.685C14.6906 18.7809 14.6625 18.8768 14.6906 18.9727C14.7188 18.9407 14.7469 18.9088 14.775 18.8768C14.8875 19.0046 14.9438 18.8448 15.0281 18.717C15.0563 18.7489 15.1125 18.7489 15.1688 18.7809C15.1688 18.8129 15.1688 18.8448 15.1688 18.8768C15.3375 18.685 15.1125 18.4932 15.3375 18.2695C15.45 18.3334 15.5063 18.3334 15.6188 18.2695C15.6469 18.2375 15.6469 18.2056 15.675 18.1736C15.6188 18.1416 15.5906 18.1097 15.5625 18.0457C15.5625 18.0138 15.5625 17.9818 15.5906 17.9818C15.6469 17.8859 15.7875 17.8859 15.8719 17.9179C16.0969 18.0138 16.2375 18.2695 16.4063 18.4613C16.3781 18.717 16.3781 19.0046 16.4063 19.2284C16.4625 19.4521 16.6031 19.548 16.5469 19.8357C16.6313 19.8357 16.6875 19.7718 16.7156 19.7078C16.7438 19.7078 16.7719 19.7078 16.8281 19.7078C16.7438 19.8996 16.575 20.2512 16.4063 20.3152C16.2375 20.3791 16.1813 20.1553 16.0406 20.1873C16.0125 20.2193 15.9844 20.2512 15.9844 20.2512C15.9281 20.2832 15.9 20.2512 15.8438 20.3471V20.3791C15.8719 20.3791 15.9 20.3791 15.9281 20.3791C15.9281 20.411 15.9563 20.443 15.9563 20.5069C15.9844 20.443 16.0406 20.411 16.0688 20.3471C16.0688 20.3471 16.0688 20.3471 16.0688 20.3791C16.0125 20.443 15.9563 20.5389 15.9281 20.6348C15.9281 20.6987 15.9281 20.7626 15.9281 20.8266C15.9281 20.8266 15.9281 20.8266 15.9563 20.8266L16.0125 20.7307H16.0406C16.0406 20.7626 16.0688 20.7626 16.0688 20.7946H16.0969C16.125 20.6987 16.125 20.6348 16.1531 20.5389C16.1531 20.5389 16.1813 20.5389 16.1813 20.5069C16.1531 20.6348 16.125 20.7946 16.1531 20.9544L16.1813 20.9864C16.1813 20.9544 16.2094 20.9225 16.2094 20.9225C16.125 20.9864 16.125 20.9544 16.1813 20.9864C16.1813 20.8585 16.1531 20.7626 16.2375 20.6987C16.1813 20.7946 16.2094 20.9864 16.2375 21.1142C16.2375 21.1142 16.2656 21.1462 16.2938 21.1462ZM16.1531 15.4247V15.2969C16.2375 15.2969 16.35 15.2969 16.4063 15.3288C16.3219 15.3288 16.2375 15.3608 16.1531 15.4247ZM16.3219 19.7078C16.2375 19.612 15.9281 19.1964 16.0125 18.9407C16.0406 18.8129 16.1531 18.8448 16.2375 18.9088C16.2375 18.8448 16.2375 18.7489 16.2656 18.685C16.2094 18.5891 16.0688 18.5252 16.125 18.3654C15.7313 18.0138 15.7594 18.6211 15.45 18.5891C15.45 18.717 15.5344 18.8129 15.6188 18.8448C15.6188 19.1325 15.7031 19.3243 15.8156 19.4202V19.4521C15.675 19.4841 15.4781 19.4841 15.3938 19.3882C15.2531 19.2604 15.225 19.1005 15.0281 19.1005C15.0281 19.1325 15.0563 19.1325 15.0563 19.1645C15.0563 19.1964 15.0563 19.2284 15.0281 19.2604C15.0563 19.2604 15.1125 19.2923 15.1406 19.2923C15.1406 19.2923 15.1406 19.2923 15.1688 19.2923V19.3882C15.0563 19.3562 14.9156 19.3562 14.8875 19.5161C14.9156 19.5161 14.9438 19.5161 14.9719 19.5161C15 19.548 15 19.58 15.0281 19.6759C15.0844 19.612 15.1125 19.548 15.1688 19.5161C15.1406 19.6759 15.0281 19.7078 15.0281 19.8996C15.0563 19.8996 15.0844 19.8677 15.1125 19.8357C15.1406 19.8677 15.1688 19.8996 15.1969 19.9316C15.225 19.8996 15.2531 19.8037 15.2531 19.7398H15.2813C15.2531 19.8677 15.1969 19.9955 15.2531 20.1234C15.2531 20.1553 15.2813 20.1553 15.2813 20.1873C15.2813 20.1553 15.3094 20.1234 15.3094 20.0914C15.3656 20.0594 15.3938 20.1234 15.45 20.0914C15.5344 20.0594 15.5344 19.8996 15.675 19.8996C15.7031 19.9316 15.7313 19.9636 15.7313 20.0594C15.8156 20.0275 15.8438 19.9316 15.9 19.8996C16.0969 19.8037 16.1531 19.9316 16.3219 19.7078ZM15.7031 16.0001C15.8719 15.9681 15.9281 15.7763 16.0969 15.7763C16.0688 15.7763 16.0125 15.7444 15.9844 15.7763C15.9 15.8083 15.5344 16.032 15.675 15.6804C15.5344 15.6804 15.4781 16.032 15.7031 16.0001ZM14.55 16.927C14.5781 16.9909 14.6906 16.9909 14.7469 16.9909C14.775 16.959 14.8031 16.8951 14.8313 16.8631C14.8313 16.8631 14.8313 16.8631 14.8594 16.8631C14.9438 16.9909 15.0281 17.1188 15.1125 17.2147C15.1125 17.2147 15.1125 17.2147 15.1406 17.2147C15.225 17.1188 15.2813 16.9909 15.3375 16.8951C15.3094 16.7033 15.1406 16.6394 15.0844 16.4795C15.0281 16.2878 15.1969 16.032 14.9719 15.8722C14.9719 15.9681 14.9438 16.0001 14.9156 16.064C14.9156 16.1279 14.9156 16.1919 14.9438 16.2238V16.2558C14.9156 16.2238 14.9156 16.1599 14.8875 16.096C14.8594 16.032 14.7469 15.9362 14.6625 15.9362C14.6906 16.0001 14.6625 16.064 14.6906 16.1279C14.7188 16.1919 14.7469 16.2558 14.775 16.3197V16.3517H14.7469C14.7188 16.3197 14.6906 16.2558 14.6344 16.2238C14.5781 16.1919 14.4938 16.2238 14.4375 16.2558C14.4656 16.2878 14.4938 16.3197 14.4938 16.3517C14.55 16.3836 14.775 16.7033 14.55 16.927ZM16.0125 14.5298C16.0969 14.4658 16.1813 14.4339 16.2656 14.4339C16.2375 14.4019 16.2375 14.4019 16.2375 14.3699C16.2375 14.306 16.2938 14.2741 16.3219 14.2741C16.3781 14.2741 16.4063 14.306 16.4063 14.3699C16.4063 14.4019 16.4063 14.4339 16.3781 14.4339C16.4625 14.4339 16.5469 14.4658 16.6313 14.5298C16.8281 14.5617 16.9125 14.6576 16.9125 14.7535C16.9125 14.8494 16.8281 14.9453 16.6875 14.9773C16.6875 15.0092 16.6875 15.0412 16.6875 15.0731C16.6031 15.0412 16.4625 15.0412 16.3219 15.0412C16.2094 15.0412 16.0406 15.0731 15.9563 15.0731C15.9563 15.0412 15.9563 15.0092 15.9563 14.9773C15.8156 14.9453 15.7313 14.8494 15.7313 14.7535C15.7313 14.6576 15.8156 14.5617 16.0125 14.5298ZM16.8 14.7855C16.8 14.6576 16.6594 14.6257 16.6594 14.6257C16.7156 14.6896 16.7438 14.8174 16.5469 14.9133C16.7156 14.9453 16.8 14.8814 16.8 14.7855ZM16.575 14.7535C16.575 14.6576 16.4625 14.5617 16.35 14.5617C16.3781 14.5937 16.3781 14.6576 16.3781 14.7535C16.3781 14.8494 16.35 14.9133 16.3219 14.9453C16.4906 14.9133 16.575 14.8494 16.575 14.7535ZM16.2656 14.9453C16.2375 14.9133 16.2094 14.8494 16.2094 14.7535C16.2094 14.6896 16.2375 14.5937 16.2375 14.5617C16.0969 14.5617 16.0125 14.6576 16.0125 14.7535C16.0406 14.8494 16.1531 14.9133 16.2656 14.9453ZM16.0688 14.9133C15.8719 14.8174 15.9281 14.6896 15.9563 14.6257C15.9563 14.6257 15.8156 14.6257 15.8156 14.7855C15.8156 14.8814 15.9281 14.9453 16.0688 14.9133Z" fill="#DCB91C"/>
<path fill-rule="evenodd" clip-rule="evenodd" d="M8.3625 20.7946C8.44688 21.0823 8.64375 21.338 8.95313 21.5937C9.375 21.9773 12.6375 24.4384 13.65 25.1736L13.875 25.3334L14.0438 25.2056C14.2125 25.0777 18.1781 22.0092 18.6563 21.5937C18.9656 21.338 19.1344 21.0823 19.2469 20.7946C19.3875 20.3471 19.3313 19.9955 19.3031 19.7398C19.275 19.612 18.6281 15.169 18.2906 13.0594C16.8281 12.8037 15.3656 12.6759 13.875 12.6759C13.8469 12.6759 13.8188 12.6759 13.7906 12.6759V24.1827C11.7938 22.7124 9.88125 21.2741 9.54375 20.9864C9.34688 20.8266 9.23438 20.6667 9.17813 20.5069C9.09375 20.2832 9.12188 20.0914 9.15 19.8677C9.17813 19.7398 9.88125 14.9773 10.2188 12.9636C9.90938 12.9955 9.68438 13.0594 9.375 13.1234C9.0375 15.233 8.33438 19.612 8.30625 19.7398C8.25 19.9955 8.19375 20.3471 8.3625 20.7946ZM10.95 14.7535H11.3156V14.9773V15.1051H11.625V14.7535H11.9906V15.1051H12.2719V14.7535H12.6375V15.6485H10.95V14.7535ZM11.2031 15.7763H12.3281L12.7219 19.3243H10.8375L11.2031 15.7763ZM10.6125 19.5161H12.9469V20.411H12.3281V20.1873H11.2594V20.411H10.6125V19.5161ZM11.5125 17.7261H12.0469V17.5024H11.5125V17.7261ZM12.0469 16.7992H11.5125V17.0229H12.0469V16.7992ZM11.5125 18.4293H12.0469V18.2056H11.5125V18.4293ZM11.175 11.2375C10.95 11.2695 10.8094 11.3015 10.6125 11.3654C10.5844 11.5572 10.5281 11.9407 10.4719 12.2604C11.5688 12.0686 12.7219 11.9727 13.8469 11.9727C14.9156 11.9727 15.9844 12.0686 17.025 12.2284C16.9688 11.9407 16.9125 11.5572 16.8844 11.3654C16.7438 11.3015 16.575 11.2695 16.3219 11.2375C17.0531 11.0457 17.5031 10.4704 17.5031 9.89506C17.5031 9.1599 16.9969 8.55259 15.7031 8.42474C15.2531 8.00921 14.6344 7.8494 14.0719 7.78547C14.2125 7.68958 14.2969 7.4978 14.2969 7.27405C14.2969 6.95442 14.0156 6.66675 13.7344 6.66675C13.4531 6.66675 13.1719 6.92246 13.1719 7.27405C13.1719 7.46583 13.2563 7.65762 13.3969 7.78547C12.8625 7.8494 12.2156 8.00921 11.7656 8.42474C10.5 8.55259 9.99375 9.1599 9.99375 9.89506C9.99375 10.4704 10.4438 11.0457 11.175 11.2375ZM15.9844 8.87223C15.9844 8.87223 16.9406 8.96812 16.9406 9.92702C16.9406 10.6941 16.2094 11.1097 15.3094 10.9499C16.5469 10.4065 16.2938 9.28775 15.9844 8.87223ZM14.0438 8.32885C14.8594 8.42474 15.4781 9.00008 15.4781 9.70328C15.4781 10.4065 14.8313 11.0138 14.0156 11.0777C14.1844 10.822 14.2969 10.3106 14.2969 9.67131C14.2688 9.09597 14.1844 8.58456 14.0438 8.32885ZM13.4531 8.32885C13.3125 8.61652 13.2 9.09597 13.2 9.67131C13.2 10.2786 13.3125 10.822 13.4813 11.0777C12.6656 11.0138 12.0188 10.4384 12.0188 9.70328C12.0188 8.96812 12.6375 8.39278 13.4531 8.32885ZM11.5125 8.87223C11.2031 9.28775 10.95 10.3745 12.2156 10.9499C11.3156 11.0777 10.5844 10.6622 10.5844 9.92702C10.5281 9.00008 11.5125 8.87223 11.5125 8.87223ZM16.2938 21.1462C16.2938 21.1142 16.3219 21.0503 16.3219 21.0183C16.3781 21.0183 16.4344 20.9864 16.5188 20.9864C16.6313 20.8905 16.6313 20.6348 16.7438 20.5389C16.8 20.5069 16.8281 20.5389 16.8563 20.6028C16.8844 20.5069 16.8844 20.3791 16.9125 20.2512C16.9969 19.9955 17.2219 19.8357 17.1375 19.3562C17.1375 19.3562 17.1375 19.3562 17.1094 19.3243C17.0813 19.3882 17.0531 19.4202 17.025 19.4841C16.7156 19.4521 16.8281 18.685 17.0531 18.6211C17.1938 19.1005 17.8406 19.2284 17.8969 18.5891C17.8969 18.4613 17.8125 18.3015 17.7 18.1097C17.7563 17.9179 17.8125 17.7581 17.8688 17.6622C17.8969 17.5983 17.7 17.6941 17.5875 17.9179C17.6438 17.7261 17.7 17.5343 17.7844 17.4384C17.8125 17.3745 17.6438 17.4704 17.5313 17.6622C17.5875 17.4704 17.6438 17.2786 17.7281 17.1827C17.7563 17.1188 17.5313 17.2467 17.4469 17.4704C17.4188 17.3425 17.3906 17.2147 17.3906 17.1188C17.3906 16.8311 17.475 16.2558 17.5875 15.7763C17.6156 15.6485 17.6719 15.3928 17.8406 15.2969C17.7 15.2649 17.475 15.3928 17.475 15.6804C17.4469 15.2649 17.1656 15.1051 17.025 15.0731C17.475 15.5526 17.1094 16.6074 17.1094 17.0868C17.1094 17.7261 17.7844 18.3654 17.6719 18.5891C17.5313 18.9088 17.25 18.3015 17.1656 18.0777C17.0813 17.8859 16.7719 17.5663 16.5469 17.3106C16.6875 17.2147 16.8281 16.927 16.8281 16.6713C16.8563 16.7033 16.8844 16.7352 16.8844 16.7672H16.9125C16.8844 16.5115 16.9688 16.2238 16.8844 16.0001C16.9125 16.0001 16.9688 16.0001 16.9969 16.0001C16.9688 14.8494 16.2375 15.0731 15.8719 15.169C15.8719 15.201 15.8438 15.201 15.8438 15.233C15.9 15.233 15.9281 15.233 15.9844 15.233C15.9563 15.233 15.9 15.2649 15.8719 15.2649C15.8438 15.3288 15.8719 15.5206 15.9563 15.6165C15.9844 15.5206 15.9844 15.4887 16.0688 15.4567C16.1531 15.5206 16.2094 15.6804 16.1531 15.8403C16.0969 15.8722 16.0406 15.8403 16.0125 15.7763C15.9844 15.9362 15.9844 16.1279 16.0969 16.2238C16.0969 16.064 16.1531 16.0001 16.2656 16.032C16.2375 16.3836 16.0125 16.2878 15.8156 16.3836C15.4219 16.5435 15.3375 17.2147 14.9719 17.3106C15 17.4704 15.1406 17.5983 15.225 17.6622C15.1688 17.7581 14.9719 18.1097 14.8594 18.1097C14.8313 18.0457 14.8031 17.9818 14.7188 17.9818C14.6625 18.0138 14.6063 18.0138 14.55 18.0457C14.55 18.0777 14.5219 18.1097 14.5219 18.1097C14.55 18.1097 14.5781 18.1097 14.6063 18.1416C14.6063 18.1736 14.6063 18.2375 14.6063 18.2695C14.6625 18.2695 14.7188 18.2695 14.775 18.3015V18.3334C14.7188 18.3334 14.6625 18.3015 14.6063 18.3015C14.5781 18.3334 14.4938 18.4932 14.4938 18.5891V18.6211C14.5219 18.5891 14.5219 18.5891 14.55 18.5572C14.5781 18.5572 14.5781 18.5891 14.6063 18.6211C14.6063 18.6211 14.6344 18.6211 14.6344 18.653C14.6906 18.5891 14.7188 18.5572 14.775 18.4932C14.775 18.4932 14.775 18.5252 14.8031 18.5252C14.775 18.5891 14.7188 18.6211 14.6906 18.685C14.6906 18.7809 14.6625 18.8768 14.6906 18.9727C14.7188 18.9407 14.7469 18.9088 14.775 18.8768C14.8875 19.0046 14.9438 18.8448 15.0281 18.717C15.0563 18.7489 15.1125 18.7489 15.1688 18.7809C15.1688 18.8129 15.1688 18.8448 15.1688 18.8768C15.3375 18.685 15.1125 18.4932 15.3375 18.2695C15.45 18.3334 15.5063 18.3334 15.6188 18.2695C15.6469 18.2375 15.6469 18.2056 15.675 18.1736C15.6188 18.1416 15.5906 18.1097 15.5625 18.0457C15.5625 18.0138 15.5625 17.9818 15.5906 17.9818C15.6469 17.8859 15.7875 17.8859 15.8719 17.9179C16.0969 18.0138 16.2375 18.2695 16.4063 18.4613C16.3781 18.717 16.3781 19.0046 16.4063 19.2284C16.4625 19.4521 16.6031 19.548 16.5469 19.8357C16.6313 19.8357 16.6875 19.7718 16.7156 19.7078C16.7438 19.7078 16.7719 19.7078 16.8281 19.7078C16.7438 19.8996 16.575 20.2512 16.4063 20.3152C16.2375 20.3791 16.1813 20.1553 16.0406 20.1873C16.0125 20.2193 15.9844 20.2512 15.9844 20.2512C15.9281 20.2832 15.9 20.2512 15.8438 20.3471V20.3791C15.8719 20.3791 15.9 20.3791 15.9281 20.3791C15.9281 20.411 15.9563 20.443 15.9563 20.5069C15.9844 20.443 16.0406 20.411 16.0688 20.3471C16.0688 20.3471 16.0688 20.3471 16.0688 20.3791C16.0125 20.443 15.9563 20.5389 15.9281 20.6348C15.9281 20.6987 15.9281 20.7626 15.9281 20.8266C15.9281 20.8266 15.9281 20.8266 15.9563 20.8266L16.0125 20.7307H16.0406C16.0406 20.7626 16.0688 20.7626 16.0688 20.7946H16.0969C16.125 20.6987 16.125 20.6348 16.1531 20.5389C16.1531 20.5389 16.1813 20.5389 16.1813 20.5069C16.1531 20.6348 16.125 20.7946 16.1531 20.9544L16.1813 20.9864C16.1813 20.9544 16.2094 20.9225 16.2094 20.9225C16.125 20.9864 16.125 20.9544 16.1813 20.9864C16.1813 20.8585 16.1531 20.7626 16.2375 20.6987C16.1813 20.7946 16.2094 20.9864 16.2375 21.1142C16.2375 21.1142 16.2656 21.1462 16.2938 21.1462ZM16.1531 15.4247V15.2969C16.2375 15.2969 16.35 15.2969 16.4063 15.3288C16.3219 15.3288 16.2375 15.3608 16.1531 15.4247ZM16.3219 19.7078C16.2375 19.612 15.9281 19.1964 16.0125 18.9407C16.0406 18.8129 16.1531 18.8448 16.2375 18.9088C16.2375 18.8448 16.2375 18.7489 16.2656 18.685C16.2094 18.5891 16.0688 18.5252 16.125 18.3654C15.7313 18.0138 15.7594 18.6211 15.45 18.5891C15.45 18.717 15.5344 18.8129 15.6188 18.8448C15.6188 19.1325 15.7031 19.3243 15.8156 19.4202V19.4521C15.675 19.4841 15.4781 19.4841 15.3938 19.3882C15.2531 19.2604 15.225 19.1005 15.0281 19.1005C15.0281 19.1325 15.0563 19.1325 15.0563 19.1645C15.0563 19.1964 15.0563 19.2284 15.0281 19.2604C15.0563 19.2604 15.1125 19.2923 15.1406 19.2923C15.1406 19.2923 15.1406 19.2923 15.1688 19.2923V19.3882C15.0563 19.3562 14.9156 19.3562 14.8875 19.5161C14.9156 19.5161 14.9438 19.5161 14.9719 19.5161C15 19.548 15 19.58 15.0281 19.6759C15.0844 19.612 15.1125 19.548 15.1688 19.5161C15.1406 19.6759 15.0281 19.7078 15.0281 19.8996C15.0563 19.8996 15.0844 19.8677 15.1125 19.8357C15.1406 19.8677 15.1688 19.8996 15.1969 19.9316C15.225 19.8996 15.2531 19.8037 15.2531 19.7398H15.2813C15.2531 19.8677 15.1969 19.9955 15.2531 20.1234C15.2531 20.1553 15.2813 20.1553 15.2813 20.1873C15.2813 20.1553 15.3094 20.1234 15.3094 20.0914C15.3656 20.0594 15.3938 20.1234 15.45 20.0914C15.5344 20.0594 15.5344 19.8996 15.675 19.8996C15.7031 19.9316 15.7313 19.9636 15.7313 20.0594C15.8156 20.0275 15.8438 19.9316 15.9 19.8996C16.0969 19.8037 16.1531 19.9316 16.3219 19.7078ZM15.7031 16.0001C15.8719 15.9681 15.9281 15.7763 16.0969 15.7763C16.0688 15.7763 16.0125 15.7444 15.9844 15.7763C15.9 15.8083 15.5344 16.032 15.675 15.6804C15.5344 15.6804 15.4781 16.032 15.7031 16.0001ZM14.55 16.927C14.5781 16.9909 14.6906 16.9909 14.7469 16.9909C14.775 16.959 14.8031 16.8951 14.8313 16.8631C14.8313 16.8631 14.8313 16.8631 14.8594 16.8631C14.9438 16.9909 15.0281 17.1188 15.1125 17.2147C15.1125 17.2147 15.1125 17.2147 15.1406 17.2147C15.225 17.1188 15.2813 16.9909 15.3375 16.8951C15.3094 16.7033 15.1406 16.6394 15.0844 16.4795C15.0281 16.2878 15.1969 16.032 14.9719 15.8722C14.9719 15.9681 14.9438 16.0001 14.9156 16.064C14.9156 16.1279 14.9156 16.1919 14.9438 16.2238V16.2558C14.9156 16.2238 14.9156 16.1599 14.8875 16.096C14.8594 16.032 14.7469 15.9362 14.6625 15.9362C14.6906 16.0001 14.6625 16.064 14.6906 16.1279C14.7188 16.1919 14.7469 16.2558 14.775 16.3197V16.3517H14.7469C14.7188 16.3197 14.6906 16.2558 14.6344 16.2238C14.5781 16.1919 14.4938 16.2238 14.4375 16.2558C14.4656 16.2878 14.4938 16.3197 14.4938 16.3517C14.55 16.3836 14.775 16.7033 14.55 16.927ZM16.0125 14.5298C16.0969 14.4658 16.1813 14.4339 16.2656 14.4339C16.2375 14.4019 16.2375 14.4019 16.2375 14.3699C16.2375 14.306 16.2938 14.2741 16.3219 14.2741C16.3781 14.2741 16.4063 14.306 16.4063 14.3699C16.4063 14.4019 16.4063 14.4339 16.3781 14.4339C16.4625 14.4339 16.5469 14.4658 16.6313 14.5298C16.8281 14.5617 16.9125 14.6576 16.9125 14.7535C16.9125 14.8494 16.8281 14.9453 16.6875 14.9773C16.6875 15.0092 16.6875 15.0412 16.6875 15.0731C16.6031 15.0412 16.4625 15.0412 16.3219 15.0412C16.2094 15.0412 16.0406 15.0731 15.9563 15.0731C15.9563 15.0412 15.9563 15.0092 15.9563 14.9773C15.8156 14.9453 15.7313 14.8494 15.7313 14.7535C15.7313 14.6576 15.8156 14.5617 16.0125 14.5298ZM16.8 14.7855C16.8 14.6576 16.6594 14.6257 16.6594 14.6257C16.7156 14.6896 16.7438 14.8174 16.5469 14.9133C16.7156 14.9453 16.8 14.8814 16.8 14.7855ZM16.575 14.7535C16.575 14.6576 16.4625 14.5617 16.35 14.5617C16.3781 14.5937 16.3781 14.6576 16.3781 14.7535C16.3781 14.8494 16.35 14.9133 16.3219 14.9453C16.4906 14.9133 16.575 14.8494 16.575 14.7535ZM16.2656 14.9453C16.2375 14.9133 16.2094 14.8494 16.2094 14.7535C16.2094 14.6896 16.2375 14.5937 16.2375 14.5617C16.0969 14.5617 16.0125 14.6576 16.0125 14.7535C16.0406 14.8494 16.1531 14.9133 16.2656 14.9453ZM16.0688 14.9133C15.8719 14.8174 15.9281 14.6896 15.9563 14.6257C15.9563 14.6257 15.8156 14.6257 15.8156 14.7855C15.8156 14.8814 15.9281 14.9453 16.0688 14.9133Z" fill="#DCB91C"/>
</svg>
