<svg width="48" height="32" viewBox="0 0 48 32" fill="none" xmlns="http://www.w3.org/2000/svg">
<rect width="48" height="32" fill="white"/>
<path d="M33.4491 15.8581C33.4491 15.1786 33.3741 14.4991 33.2991 13.8196H23.9215V17.67H29.248C29.0229 18.878 28.3477 20.0105 27.2974 20.69V23.1815H30.5233C32.3988 21.445 33.4491 18.878 33.4491 15.8581Z" fill="#4285F4"/>
<path d="M23.9215 25.5987C26.6223 25.5987 28.8729 24.6927 30.5233 23.1827L27.2975 20.6912C26.3972 21.2952 25.2719 21.6727 23.9215 21.6727C21.3708 21.6727 19.1202 19.9362 18.37 17.5203H15.0691V20.0872C16.7946 23.4847 20.1705 25.5987 23.9215 25.5987Z" fill="#34A853"/>
<path d="M18.37 17.5178C17.9198 16.3098 17.9198 14.9508 18.37 13.6673V11.1003H15.069C13.6437 13.8938 13.6437 17.2158 15.069 20.0847L18.37 17.5178Z" fill="#FBBC04"/>
<path d="M23.9216 9.59237C25.347 9.59237 26.6973 10.1209 27.7476 11.1024L30.5984 8.23339C28.7979 6.57241 26.3973 5.59092 23.9966 5.66642C20.2456 5.66642 16.7946 7.78039 15.1442 11.1779L18.4451 13.7448C19.1203 11.3289 21.3709 9.59237 23.9216 9.59237Z" fill="#EA4335"/>
</svg>
