<svg width="48" height="32" viewBox="0 0 48 32" fill="none" xmlns="http://www.w3.org/2000/svg">
<path d="M0 0H48V32H0V0Z" fill="white"/>
<path d="M30.7702 5.33406C27.9885 5.33406 25.7338 7.48898 25.7338 10.1446C25.7338 12.8001 27.9944 14.9551 30.7702 14.9551C33.546 14.9551 35.8125 12.8001 35.8125 10.1446C35.8125 7.48898 33.5577 5.33406 30.7702 5.33406ZM30.7702 12.197C30.2133 12.2072 29.675 11.9971 29.2738 11.6128C28.8725 11.2285 28.641 10.7014 28.6302 10.1475C28.659 9.60227 28.897 9.08881 29.2952 8.713C29.6933 8.33718 30.2213 8.12768 30.7702 8.12768C31.3191 8.12768 31.8471 8.33718 32.2452 8.713C32.6434 9.08881 32.8814 9.60227 32.9102 10.1475C32.8993 10.7014 32.6679 11.2285 32.2666 11.6128C31.8653 11.9971 31.3271 12.2072 30.7702 12.197ZM24.2944 8.94706V14.9756H21.3861V8.91778C21.3861 8.69259 21.2962 8.47662 21.1361 8.31739C20.976 8.15815 20.7589 8.0687 20.5325 8.0687C20.3061 8.0687 20.089 8.15815 19.9289 8.31739C19.7688 8.47662 19.6789 8.69259 19.6789 8.91778V14.9756H16.7824V8.91778C16.7824 8.69259 16.6925 8.47662 16.5324 8.31739C16.3723 8.15815 16.1552 8.0687 15.9288 8.0687C15.7024 8.0687 15.4852 8.15815 15.3252 8.31739C15.1651 8.47662 15.0751 8.69259 15.0751 8.91778V14.9756H12.1875V8.94706C12.2091 7.9696 12.6194 7.04051 13.3283 6.36331C14.0373 5.68611 14.9872 5.316 15.97 5.33406C16.7835 5.33239 17.5768 5.58653 18.2365 6.06017C18.8956 5.58766 19.6876 5.33361 20.5001 5.33406C21.4847 5.31364 22.4372 5.68261 23.1485 6.35998C23.8599 7.03735 24.272 7.96778 24.2944 8.94706ZM30.7702 17.0251C27.9885 17.0251 25.7338 19.1771 25.7338 21.8356C25.7338 24.4941 27.9944 26.6549 30.7702 26.6549C33.546 26.6549 35.8066 24.5029 35.8066 21.8473C35.8066 19.1917 33.5577 17.0251 30.7702 17.0251ZM30.7702 23.888C30.3664 23.8725 29.9761 23.7393 29.6479 23.5049C29.3197 23.2704 29.068 22.9452 28.9241 22.5696C28.7803 22.194 28.7507 21.7846 28.8389 21.3924C28.9272 21.0002 29.1294 20.6424 29.4205 20.3637C29.7116 20.0849 30.0786 19.8974 30.476 19.8245C30.8734 19.7516 31.2835 19.7966 31.6554 19.9537C32.0273 20.1109 32.3446 20.3734 32.5677 20.7085C32.7907 21.0436 32.9099 21.4366 32.9102 21.8385C32.9063 22.1138 32.8479 22.3856 32.7381 22.6384C32.6284 22.8911 32.4695 23.1198 32.2707 23.3114C32.0719 23.5029 31.837 23.6535 31.5794 23.7544C31.3219 23.8554 31.0469 23.9048 30.7702 23.8997V23.888ZM24.2944 20.6498V26.6666H21.3861V20.6176C21.3861 20.3924 21.2962 20.1764 21.1361 20.0172C20.976 19.858 20.7589 19.7685 20.5325 19.7685C20.3061 19.7685 20.089 19.858 19.9289 20.0172C19.7688 20.1764 19.6789 20.3924 19.6789 20.6176V26.6666H16.7824V20.6176C16.7824 20.3924 16.6925 20.1764 16.5324 20.0172C16.3723 19.858 16.1552 19.7685 15.9288 19.7685C15.7024 19.7685 15.4852 19.858 15.3252 20.0172C15.1651 20.1764 15.0751 20.3924 15.0751 20.6176V26.6666H12.1875V20.6498C12.1963 20.1647 12.3012 19.686 12.4961 19.2412C12.691 18.7965 12.9721 18.3942 13.3234 18.0576C13.6747 17.721 14.0893 17.4565 14.5434 17.2793C14.9975 17.1022 15.4823 17.0158 15.97 17.0251C16.783 17.0238 17.5759 17.2767 18.2365 17.7483C18.8957 17.2763 19.6879 17.0232 20.5001 17.0251C20.9887 17.0146 21.4746 17.1001 21.9299 17.2767C22.3852 17.4533 22.801 17.7175 23.1534 18.0543C23.5059 18.391 23.7881 18.7936 23.9839 19.239C24.1797 19.6843 24.2852 20.1638 24.2944 20.6498Z" fill="#A50064"/>
</svg>
