<svg width="48" height="32" viewBox="0 0 48 32" fill="none" xmlns="http://www.w3.org/2000/svg">
<rect width="48" height="32" fill="white"/>
<g clip-path="url(#clip0_2213_25196)">
<path d="M26.174 11.7975C27.775 11.7975 29.0728 10.4997 29.0728 8.89877C29.0728 7.29782 27.775 6 26.174 6C24.5731 6 23.2753 7.29782 23.2753 8.89877C23.2753 10.4997 24.5731 11.7975 26.174 11.7975Z" fill="#F16522"/>
<path d="M30.2799 24.5507C31.8808 24.5507 33.1786 23.2529 33.1786 21.6519C33.1786 20.051 31.8808 18.7532 30.2799 18.7532C28.6789 18.7532 27.3811 20.051 27.3811 21.6519C27.3811 23.2529 28.6789 24.5507 30.2799 24.5507Z" fill="#F16522"/>
<path d="M17.2369 21.8459C18.8379 21.8459 20.1357 20.5481 20.1357 18.9471C20.1357 17.3462 18.8379 16.0483 17.2369 16.0483C15.636 16.0483 14.3381 17.3462 14.3381 18.9471C14.3381 20.5481 15.636 21.8459 17.2369 21.8459Z" fill="#F16522"/>
<path d="M17.6235 14.9854C18.6641 14.9854 19.5077 14.1419 19.5077 13.1012C19.5077 12.0606 18.6641 11.217 17.6235 11.217C16.5828 11.217 15.7393 12.0606 15.7393 13.1012C15.7393 14.1419 16.5828 14.9854 17.6235 14.9854Z" fill="#F6921E"/>
<path d="M31.1011 14.2132C32.1417 14.2132 32.9853 13.3696 32.9853 12.329C32.9853 11.2884 32.1417 10.4448 31.1011 10.4448C30.0605 10.4448 29.2169 11.2884 29.2169 12.329C29.2169 13.3696 30.0605 14.2132 31.1011 14.2132Z" fill="#F6921E"/>
<path d="M24.9179 26.0001C25.9585 26.0001 26.8021 25.1565 26.8021 24.1159C26.8021 23.0753 25.9585 22.2317 24.9179 22.2317C23.8773 22.2317 23.0337 23.0753 23.0337 24.1159C23.0337 25.1565 23.8773 26.0001 24.9179 26.0001Z" fill="#F6921E"/>
<path d="M20.4731 24.3574C21.1936 24.3574 21.7776 23.7734 21.7776 23.053C21.7776 22.3326 21.1936 21.7485 20.4731 21.7485C19.7527 21.7485 19.1687 22.3326 19.1687 23.053C19.1687 23.7734 19.7527 24.3574 20.4731 24.3574Z" fill="#FFC10E"/>
<path d="M32.3573 17.8843C33.0777 17.8843 33.6617 17.3003 33.6617 16.5798C33.6617 15.8594 33.0777 15.2754 32.3573 15.2754C31.6369 15.2754 31.0529 15.8594 31.0529 16.5798C31.0529 17.3003 31.6369 17.8843 32.3573 17.8843Z" fill="#FFC10E"/>
<path d="M20.7629 11.1211C21.4834 11.1211 22.0674 10.5371 22.0674 9.81665C22.0674 9.09623 21.4834 8.51221 20.7629 8.51221C20.0425 8.51221 19.4585 9.09623 19.4585 9.81665C19.4585 10.5371 20.0425 11.1211 20.7629 11.1211Z" fill="#FFC10E"/>
</g>
<defs>
<clipPath id="clip0_2213_25196">
<rect width="20" height="20" fill="white" transform="translate(14 6)"/>
</clipPath>
</defs>
</svg>
