<svg width="48" height="32" viewBox="0 0 48 32" fill="none" xmlns="http://www.w3.org/2000/svg">
<rect width="48" height="32" fill="white"/>
<path d="M7.23853 12.3779H9.77355C10.2206 12.3779 10.6226 12.4199 10.9796 12.4979C11.3366 12.5789 11.6456 12.7109 11.9006 12.8969C12.1556 13.0799 12.3536 13.3169 12.4946 13.6049C12.6326 13.8929 12.7016 14.2379 12.7016 14.6429C12.7016 15.0779 12.6206 15.4409 12.4616 15.7349C12.2996 16.0289 12.0836 16.2659 11.8076 16.4459C11.5316 16.6259 11.2136 16.7579 10.8476 16.8389C10.4816 16.9199 10.0946 16.9589 9.68355 16.9589H8.61854V20.1959H7.23853V12.3779ZM9.58755 15.7919C9.81255 15.7919 10.0316 15.7769 10.2356 15.7409C10.4396 15.7079 10.6226 15.6479 10.7846 15.5639C10.9466 15.4799 11.0726 15.3629 11.1686 15.2159C11.2646 15.0689 11.3126 14.8769 11.3126 14.6399C11.3126 14.4119 11.2646 14.2259 11.1686 14.0819C11.0726 13.9379 10.9466 13.8269 10.7906 13.7459C10.6316 13.6649 10.4546 13.6109 10.2536 13.5869C10.0526 13.5599 9.84555 13.5479 9.63255 13.5479H8.62154V15.7889H9.58755V15.7919Z" fill="black"/>
<path d="M16.5236 19.524H16.4906C16.3586 19.761 16.1456 19.953 15.8546 20.103C15.5606 20.253 15.2306 20.331 14.8556 20.331C14.6426 20.331 14.4236 20.304 14.1926 20.247C13.9616 20.19 13.7486 20.1 13.5566 19.971C13.3616 19.842 13.2026 19.674 13.0736 19.464C12.9446 19.254 12.8816 18.993 12.8816 18.684C12.8816 18.285 12.9926 17.97 13.2176 17.733C13.4426 17.496 13.7276 17.316 14.0786 17.193C14.4296 17.067 14.8196 16.986 15.2486 16.944C15.6776 16.905 16.0946 16.884 16.5056 16.884V16.752C16.5056 16.422 16.3856 16.176 16.1486 16.017C15.9116 15.858 15.6266 15.78 15.2966 15.78C15.0176 15.78 14.7506 15.84 14.4956 15.957C14.2406 16.074 14.0276 16.218 13.8596 16.386L13.1786 15.579C13.4786 15.3 13.8236 15.09 14.2166 14.949C14.6096 14.808 15.0056 14.739 15.4076 14.739C15.8756 14.739 16.2626 14.805 16.5656 14.937C16.8686 15.069 17.1086 15.243 17.2856 15.456C17.4626 15.669 17.5826 15.909 17.6546 16.173C17.7236 16.437 17.7596 16.704 17.7596 16.968V20.193H16.5296L16.5236 19.524ZM16.5026 17.778H16.2056C15.9926 17.778 15.7706 17.787 15.5366 17.805C15.3026 17.823 15.0866 17.865 14.8886 17.925C14.6906 17.988 14.5256 18.075 14.3936 18.189C14.2616 18.303 14.1956 18.459 14.1956 18.66C14.1956 18.786 14.2226 18.891 14.2796 18.975C14.3336 19.059 14.4056 19.128 14.4926 19.179C14.5796 19.23 14.6786 19.266 14.7896 19.29C14.9006 19.311 15.0086 19.323 15.1196 19.323C15.5726 19.323 15.9176 19.203 16.1516 18.96C16.3856 18.717 16.5026 18.384 16.5026 17.967V17.778Z" fill="black"/>
<path d="M18.1436 14.895H19.6046L21.0746 18.75H21.0956L22.4006 14.895H23.7716L21.2786 21.333C21.1826 21.576 21.0806 21.792 20.9726 21.9779C20.8646 22.1669 20.7326 22.3229 20.5766 22.4519C20.4236 22.5809 20.2406 22.6799 20.0336 22.7459C19.8266 22.8119 19.5746 22.8449 19.2806 22.8449C19.1696 22.8449 19.0586 22.8389 18.9446 22.8299C18.8306 22.8179 18.7166 22.7999 18.5996 22.7699L18.7076 21.621C18.7946 21.651 18.8816 21.672 18.9656 21.681C19.0496 21.693 19.1276 21.696 19.2026 21.696C19.3406 21.696 19.4576 21.681 19.5536 21.645C19.6496 21.612 19.7306 21.561 19.7936 21.489C19.8596 21.42 19.9166 21.333 19.9706 21.231C20.0216 21.129 20.0756 21.006 20.1356 20.868L20.3996 20.193L18.1436 14.895Z" fill="black"/>
<path d="M37.6258 7.95898H28.8297C26.8257 7.95898 25.1997 9.59397 25.1997 11.6129V20.4659C25.1997 22.4848 26.8257 24.1198 28.8297 24.1198H37.6258C39.6298 24.1198 41.2559 22.4848 41.2559 20.4659V11.6099C41.2559 9.59397 39.6298 7.95898 37.6258 7.95898ZM32.0038 11.8889L32.4598 11.8319C32.4988 11.8289 33.4168 11.7179 34.4818 11.9429C35.9548 12.2549 36.9958 13.0499 37.4968 14.2439L36.5398 14.6489C35.8588 13.0199 33.9268 12.8369 33.0418 12.8429V17.6879H32.0038V11.8889ZM28.7277 12.5519C28.7277 12.1199 29.0757 11.7719 29.5047 11.7719C29.9338 11.7719 30.2818 12.1199 30.2818 12.5519C30.2818 12.9839 29.9338 13.3319 29.5047 13.3319C29.0757 13.3319 28.7277 12.9839 28.7277 12.5519ZM37.7518 16.9979C37.6948 17.3669 37.6108 17.6999 37.5028 17.9579C36.8008 19.6199 35.1598 20.4629 32.6308 20.4629H28.9467V14.6969H29.9848V19.4189H32.6278C34.7008 19.4189 36.0208 18.7889 36.5428 17.5499C36.6028 17.4059 36.6568 17.2139 36.6958 16.9979H35.8348L37.3168 15.1259L38.8018 17.0009L37.7518 16.9979Z" fill="black"/>
</svg>
