<svg width="48" height="32" viewBox="0 0 48 32" fill="none" xmlns="http://www.w3.org/2000/svg">
<rect width="48" height="32" fill="white"/>
<path d="M29.6372 21.6499C28.8002 21.6499 28.013 21.3241 27.4211 20.7326L24.2214 17.5334C23.9967 17.3082 23.6052 17.3089 23.3806 17.5334L20.1691 20.7443C19.5773 21.3357 18.79 21.6616 17.9531 21.6616H17.3225L21.3751 25.7133C22.6407 26.9786 24.6928 26.9786 25.9585 25.7133L30.0226 21.6499H29.6372Z" fill="#32BCAD"/>
<path d="M17.9531 10.3339C18.7901 10.3339 19.5773 10.6597 20.1692 11.2512L23.3806 14.4626C23.6119 14.6939 23.9896 14.6948 24.2214 14.4623L27.4212 11.2629C28.0131 10.6714 28.8003 10.3456 29.6372 10.3456H30.0226L25.9586 6.28233C24.6928 5.01689 22.6408 5.01689 21.3752 6.28233L17.3228 10.3339L17.9531 10.3339Z" fill="#32BCAD"/>
<path d="M33.3843 13.7064L30.9283 11.251C30.8742 11.2726 30.8157 11.2862 30.7538 11.2862H29.6372C29.0599 11.2862 28.4948 11.5203 28.0868 11.9284L24.8872 15.1275C24.5877 15.4269 24.1943 15.5767 23.8012 15.5767C23.4077 15.5767 23.0146 15.4269 22.7152 15.1278L19.5035 11.9167C19.0956 11.5085 18.5304 11.2745 17.9531 11.2745H16.5801C16.5215 11.2745 16.4668 11.2607 16.4151 11.2412L13.9494 13.7064C12.6837 14.9719 12.6837 17.0234 13.9494 18.2888L16.415 20.754C16.4668 20.7345 16.5215 20.7207 16.5801 20.7207H17.9531C18.5304 20.7207 19.0956 20.4867 19.5035 20.0786L22.7149 16.8678C23.2954 16.2879 24.3073 16.2877 24.8872 16.8681L28.0868 20.0669C28.4948 20.475 29.0599 20.7091 29.6372 20.7091H30.7538C30.8157 20.7091 30.8742 20.7226 30.9283 20.7443L33.3843 18.2888C34.6499 17.0234 34.6499 14.9719 33.3843 13.7064" fill="#32BCAD"/>
</svg>
