<svg width="48" height="32" viewBox="0 0 48 32" fill="none" xmlns="http://www.w3.org/2000/svg">
<rect width="48" height="32" fill="white"/>
<g clip-path="url(#clip0_5022_16438)">
<path d="M23.8655 19.0809V12.8559H25.4775C26.0717 12.8559 26.6275 12.8431 26.9102 12.8949C27.193 12.9466 27.5637 13.0819 27.7582 13.2031C28.0167 13.3615 28.2131 13.596 28.3475 13.9069C28.4818 14.2177 28.5494 14.5887 28.5502 15.0199C28.5502 15.7296 28.3947 16.2864 28.0197 16.6544C27.6447 17.0224 26.8172 17.1806 26.0912 17.1806H25.6802V19.0806L23.8655 19.0809ZM25.6702 16.0369C25.6984 16.0413 25.7268 16.0439 25.7552 16.0446C26.317 16.0649 26.4662 15.9264 26.552 15.8196C26.6842 15.6551 26.6887 15.2879 26.6887 14.9481C26.6887 14.6656 26.699 14.4346 26.4937 14.2126C26.3602 14.0664 26.0302 14.0171 25.6687 14.0171L25.6705 14.1216L25.6702 16.0369Z" fill="#231F20"/>
<path d="M40.469 19.0534H36.3865V12.8186H38.3997V17.1839H40.469V19.0534Z" fill="#231F20"/>
<path d="M42.7469 14.9692H40.8176V19.0625H42.7469V14.9692Z" fill="#231F20"/>
<path d="M42.7615 12.8459H40.7903V14.5389H42.7615V12.8459Z" fill="#231F20"/>
<path fill-rule="evenodd" clip-rule="evenodd" d="M33.6782 18.625C33.9374 18.531 34.1944 18.3337 34.4147 18.1332C35.0382 17.5657 35.6952 16.6022 35.6444 15.4292C35.5914 14.195 34.9289 13.4042 34.0467 12.9102C34.3012 12.966 34.5114 13.1352 34.7069 13.294C35.2722 13.752 35.7019 14.4607 35.7212 15.4602C35.7462 16.7877 35.0394 17.6932 34.3384 18.318C34.5582 18.2085 34.7277 18.007 34.8912 17.8107C35.3554 17.2555 35.7824 16.4647 35.7824 15.4755C35.7824 14.0827 34.9954 13.2805 34.0772 12.7565C34.3814 12.8437 34.6502 13.0252 34.8772 13.2175C35.4322 13.6895 35.9272 14.5175 35.8604 15.614C35.7944 16.6997 35.3134 17.5535 34.6622 18.1795C33.9595 18.8506 33.0492 19.2625 32.0812 19.3472C31.9533 19.3567 31.8248 19.3567 31.6969 19.3472C30.0929 19.2142 28.9309 18.1877 28.8087 16.612C28.7962 16.4483 28.7962 16.2839 28.8087 16.1202C28.8804 15.1272 29.3254 14.3357 29.9147 13.724C30.5559 13.059 31.3662 12.5572 32.4962 12.4797C32.5234 12.3547 32.5559 12.215 32.5729 12.1265C32.9452 12.5215 33.3979 12.9515 33.8632 13.417C33.3009 13.7052 32.7542 14.0077 32.2044 14.3082C32.2162 14.1955 32.2422 14.067 32.2502 13.9852C31.3064 14.152 30.5109 14.8367 30.3452 15.7977C30.1452 16.9697 30.9267 17.8662 32.0512 17.8727C33.1869 17.879 34.1512 17.0012 34.3244 15.9977C34.4632 15.1867 34.1069 14.6202 33.6494 14.2462C34.0764 14.529 34.5392 15.0385 34.4794 15.7962C34.3842 16.983 33.2682 17.9695 32.0977 17.9777C31.4579 17.983 30.8917 17.6967 30.4847 17.2252C30.8669 17.7817 31.5362 18.0752 32.2974 18.0252C32.8949 17.9847 33.4004 17.6907 33.7724 17.3335C34.1534 16.968 34.4474 16.4602 34.5259 15.9362C34.5553 15.7271 34.5553 15.5149 34.5259 15.3057C34.4324 14.6917 34.0592 14.4057 33.7179 14.0117C34.2037 14.3992 34.7134 14.916 34.6797 15.751C34.6297 16.973 33.4594 18.049 32.2357 18.1325C31.4332 18.1875 30.9382 17.9127 30.5154 17.5177C30.9172 18.0265 31.6734 18.2885 32.4654 18.1632C33.5944 17.9855 34.6007 17.0427 34.7244 15.8742C34.8334 14.8185 34.2994 14.3292 33.7904 13.8115C34.3334 14.223 34.7972 14.6792 34.8317 15.521C34.8599 16.2522 34.5042 16.968 34.0479 17.426C33.3184 18.1577 31.8947 18.6385 30.7904 17.9635C31.7317 18.6827 33.1937 18.2705 33.9712 17.5635C34.5334 17.052 34.9462 16.3695 34.8772 15.352C34.8219 14.5317 34.3579 14.1137 33.8322 13.677C34.3734 13.9537 34.8947 14.5085 34.9697 15.3052C35.0677 16.3505 34.5867 17.1245 34.0007 17.64C33.2934 18.265 32.2979 18.6362 31.1757 18.347C33.0327 18.9252 34.7699 17.547 35.0164 15.9502C35.1939 14.804 34.6087 14.1277 34.0492 13.646C33.9917 13.596 33.9589 13.5615 33.8802 13.4922C34.6774 13.908 35.3404 14.8247 35.0802 16.119C34.7739 17.6277 33.2639 18.8507 31.3157 18.5312C31.5984 18.6447 31.9282 18.6205 32.2157 18.6045C33.1017 18.5545 33.9052 18.1122 34.3344 17.6355C34.8564 17.0562 35.2687 16.3245 35.1887 15.2725C35.1172 14.32 34.5847 13.8635 33.9334 13.358C34.2084 13.4557 34.4434 13.6495 34.6412 13.8635C34.9694 14.2185 35.2367 14.704 35.2794 15.3052C35.3594 16.3905 34.8602 17.1977 34.3119 17.7635C33.7277 18.3662 32.9369 18.7527 31.9312 18.7617C33.5082 18.8092 34.5562 17.8417 35.0652 16.765C35.3554 16.148 35.4402 15.2787 35.2029 14.5987C34.9847 13.9722 34.4822 13.5422 33.9887 13.1937C34.8502 13.654 35.5757 14.5187 35.4184 15.858C35.365 16.3205 35.2114 16.7658 34.9684 17.163C34.4979 17.9517 33.7294 18.5065 32.8667 18.808C33.5052 18.6682 34.1109 18.287 34.5564 17.794C35.1012 17.1915 35.5214 16.427 35.4934 15.3667C35.4639 14.2235 34.7569 13.5637 34.0347 13.0472C34.0441 13.0486 34.0534 13.0512 34.0622 13.055C34.8499 13.4405 35.4467 14.111 35.5707 15.1515C35.7662 16.7967 34.6844 17.9977 33.6814 18.6237" fill="#27469B"/>
<path d="M5.23755 15.9851C5.23755 19.3061 7.3198 22.1371 10.25 23.2499V8.72485C7.3198 9.83385 5.23755 12.6644 5.23755 15.9851Z" fill="#DC1F29"/>
<path d="M12.9983 8.22485C12.7836 8.22485 12.5706 8.2326 12.3608 8.2486V8.7931H12.4001C15.3576 8.8146 17.7396 11.0706 17.7181 13.8324C17.6988 16.5824 15.3021 18.7949 12.3611 18.7919V23.7231C12.5708 23.7411 12.7838 23.7481 12.9986 23.7481C17.2843 23.7481 20.7611 20.2731 20.7611 15.9854C20.7611 11.6976 17.2841 8.22485 12.9983 8.22485Z" fill="#DC1F29"/>
</g>
<defs>
<clipPath id="clip0_5022_16438">
<rect width="37.7987" height="16.1723" fill="white" transform="translate(5.1001 7.8999)"/>
</clipPath>
</defs>
</svg>
