<svg width="48" height="32" viewBox="0 0 48 32" fill="none" xmlns="http://www.w3.org/2000/svg">
<path d="M0 0H48V32H0V0Z" fill="white"/>
<g clip-path="url(#clip0_2213_24619)">
<path fill-rule="evenodd" clip-rule="evenodd" d="M15.5962 17.201V15.1965H16.5311V17.1805C16.5311 17.6956 16.7745 17.9405 17.1465 17.9405C17.5233 17.9405 17.7667 17.7059 17.7667 17.206V15.1965H18.7016V17.1754C18.7016 18.323 18.0863 18.8331 17.1369 18.8331C16.1924 18.8331 15.5962 18.318 15.5962 17.201Z" fill="#FEA30B"/>
<path fill-rule="evenodd" clip-rule="evenodd" d="M19.2683 16.0075H20.1747V16.3952C20.3417 16.1656 20.5802 15.9463 20.9474 15.9463C21.496 15.9463 21.8252 16.3339 21.8252 16.9613V18.7668H20.9236V17.2724C20.9236 16.9663 20.7757 16.8031 20.5563 16.8031C20.3369 16.8031 20.1747 16.9663 20.1747 17.2724V18.7668H19.2683V16.0075Z" fill="#FEA30B"/>
<mask id="mask0_2213_24619" style="mask-type:alpha" maskUnits="userSpaceOnUse" x="5" y="11" width="38" height="10">
<path d="M5.625 20.6514H42.3283V11.3333H5.625V20.6514Z" fill="white"/>
</mask>
<g mask="url(#mask0_2213_24619)">
<path fill-rule="evenodd" clip-rule="evenodd" d="M22.3875 15.7213H23.289V15.0435H22.3875V15.7213Z" fill="#FEA30B"/>
<path fill-rule="evenodd" clip-rule="evenodd" d="M22.3875 18.7668H23.289V16.0076H22.3875V18.7668Z" fill="#FEA30B"/>
<path fill-rule="evenodd" clip-rule="evenodd" d="M25.7406 17.3999V17.3897C25.7406 17.048 25.5068 16.7624 25.1872 16.7624C24.8581 16.7624 24.6482 17.0428 24.6482 17.3796V17.3897C24.6482 17.7263 24.8772 18.0119 25.1967 18.0119C25.5259 18.0119 25.7406 17.7314 25.7406 17.3999ZM23.7705 17.3999V17.3897C23.7705 16.6042 24.3715 15.9463 25.1967 15.9463C26.022 15.9463 26.6183 16.594 26.6183 17.3796V17.3897C26.6183 18.1752 26.0173 18.8331 25.1872 18.8331C24.3667 18.8331 23.7705 18.1854 23.7705 17.3999Z" fill="#FEA30B"/>
<path fill-rule="evenodd" clip-rule="evenodd" d="M27.0708 16.0075H27.9772V16.3952C28.1441 16.1656 28.3826 15.9463 28.7498 15.9463C29.2985 15.9463 29.6276 16.3339 29.6276 16.9613V18.7668H28.7261V17.2724C28.7261 16.9663 28.5782 16.8031 28.3587 16.8031C28.1393 16.8031 27.9772 16.9663 27.9772 17.2724V18.7668H27.0708V16.0075Z" fill="#FEA30B"/>
<path fill-rule="evenodd" clip-rule="evenodd" d="M31.6869 17.3131H31.1203V17.9711H31.6965C31.9827 17.9711 32.1401 17.8538 32.1401 17.6447V17.6345C32.1401 17.4406 31.9971 17.3131 31.6869 17.3131ZM32.0065 16.2982C32.0065 16.0992 31.8587 15.9922 31.5867 15.9922H31.1203V16.6195H31.563C31.8443 16.6195 32.0065 16.5175 32.0065 16.3084V16.2982ZM30.2188 15.1965H31.8082C32.1608 15.1965 32.4424 15.3116 32.6441 15.509C32.8748 15.7348 32.9883 16.1837 32.8579 16.5416C32.7945 16.7151 32.6598 16.8258 32.5004 16.9001C32.9053 17.0309 33.1507 17.2876 33.1507 17.7722V17.7824C33.1507 18.3944 32.6832 18.7667 31.8866 18.7667H30.2188V15.1965Z" fill="#FEA30B"/>
<path fill-rule="evenodd" clip-rule="evenodd" d="M35.1646 17.7672V17.6397C35.0692 17.5989 34.9404 17.5683 34.8069 17.5683C34.5446 17.5683 34.3918 17.701 34.3918 17.9099V17.9203C34.3918 18.109 34.5255 18.2212 34.7114 18.2212C34.9785 18.2212 35.1646 18.0426 35.1646 17.7672ZM33.5237 17.9763V17.9661C33.5237 17.3898 33.9292 17.0991 34.535 17.0991C34.7735 17.0991 35.0072 17.1449 35.1551 17.2062V17.1603C35.1551 16.8696 34.9881 16.7063 34.6399 16.7063C34.368 16.7063 34.1581 16.7676 33.9244 16.8593L33.7384 16.181C34.0293 16.0535 34.3394 15.9668 34.7831 15.9668C35.2457 15.9668 35.5606 16.0841 35.7657 16.3034C35.9613 16.5075 36.0423 16.7931 36.0423 17.1806V18.7669H35.1504V18.4762C34.969 18.6853 34.7258 18.8281 34.3871 18.8281C33.8957 18.8281 33.5237 18.5221 33.5237 17.9763Z" fill="#FEA30B"/>
<path fill-rule="evenodd" clip-rule="evenodd" d="M36.5759 16.0075H37.4824V16.3952C37.6492 16.1656 37.8878 15.9463 38.255 15.9463C38.8037 15.9463 39.1328 16.3339 39.1328 16.9613V18.7668H38.2313V17.2724C38.2313 16.9663 38.0834 16.8031 37.8639 16.8031C37.6445 16.8031 37.4824 16.9663 37.4824 17.2724V18.7668H36.5759V16.0075Z" fill="#FEA30B"/>
<path fill-rule="evenodd" clip-rule="evenodd" d="M39.6711 15.0435H40.5775V16.9306L41.2788 16.0075H42.3043L41.4075 17.1091L42.3282 18.7668H41.3264L40.8112 17.8232L40.5775 18.1139V18.7668H39.6711V15.0435Z" fill="#FEA30B"/>
<path fill-rule="evenodd" clip-rule="evenodd" d="M11.3171 16.2385C10.9474 16.1877 10.7864 16.1673 10.7864 16.1673V14.7723C10.8777 14.7962 11.479 14.9512 11.479 14.9512C11.8473 15.0283 12.0347 15.3122 12.0347 15.6524C12.0347 15.9926 11.749 16.2979 11.3171 16.2385ZM12.8007 16.8153C12.8007 16.8153 13.2274 16.3656 13.2274 15.5188C13.2274 14.8119 12.7779 14.0285 11.986 13.7337L9.38261 12.7549L9.3742 17.5418C9.3742 17.5418 9.37502 18.2351 8.64534 18.3816C8.15684 18.4797 7.68066 18.0111 7.68066 17.4286C7.68131 17.4287 7.68335 13.656 7.68136 12.1099L5.625 11.3333V17.6352C5.625 19.8862 7.55207 20.8384 8.73595 20.6213C10.149 20.3622 10.7864 19.2051 10.7864 17.9528V17.5081L11.7834 17.5442C12.1132 17.5442 12.3584 17.849 12.3584 18.1685C12.3584 18.4517 12.1717 18.7567 11.7875 18.792L11.2396 18.8362C11.1518 19.2185 10.9615 19.7461 10.5341 20.2733L12.1394 19.9725C12.7859 19.8485 13.5376 19.2537 13.5376 18.271C13.5376 17.8523 13.4041 17.2396 12.8007 16.8153Z" fill="#FEA30B"/>
</g>
</g>
<defs>
<clipPath id="clip0_2213_24619">
<rect width="36.75" height="9.33333" fill="white" transform="translate(5.625 11.3333)"/>
</clipPath>
</defs>
</svg>
