<svg width="48" height="32" viewBox="0 0 48 32" fill="none" xmlns="http://www.w3.org/2000/svg">
<path d="M0 0H48V32H0V0Z" fill="white"/>
<path d="M16.9745 14.8477C16.8404 14.717 16.6702 14.6513 16.4631 14.6513C16.1588 14.6513 15.9367 14.7908 15.797 15.0695C15.4986 14.7348 15.0908 14.5676 14.5738 14.5676C13.9531 14.5676 13.4309 14.7964 13.008 15.2536C12.5853 15.7108 12.3739 16.2687 12.3739 16.9267C12.3739 17.5847 12.5853 18.1423 13.008 18.5998C13.4309 19.0571 13.9531 19.2856 14.5738 19.2856C15.0908 19.2856 15.4986 19.1185 15.797 18.7836C15.9367 19.0626 16.1588 19.2019 16.4631 19.2019C16.6702 19.2019 16.8404 19.1365 16.9745 19.0053C17.1082 18.8746 17.1751 18.7142 17.1751 18.5244V15.3288C17.1751 15.1393 17.1082 14.9789 16.9745 14.8477ZM15.4912 17.719C15.3176 17.9326 15.0785 18.0392 14.7745 18.0392C14.47 18.0392 14.2313 17.9326 14.0579 17.719C13.8846 17.5052 13.7978 17.2412 13.7978 16.9266C13.7978 16.6121 13.8846 16.348 14.0579 16.1343C14.2313 15.9208 14.47 15.8141 14.7745 15.8141C15.0785 15.8141 15.3176 15.9208 15.4912 16.1343C15.6646 16.348 15.7514 16.6121 15.7514 16.9266C15.7514 17.2411 15.6646 17.5052 15.4912 17.719Z" fill="#0FA8E0"/>
<path d="M18.7872 19.0053C18.6532 19.1365 18.4826 19.2018 18.2761 19.2018C18.069 19.2018 17.8985 19.1365 17.7647 19.0053C17.6307 18.8744 17.5638 18.7139 17.5638 18.5243V12.8057C17.5638 12.6161 17.6307 12.4556 17.7647 12.3246C17.8985 12.1935 18.069 12.1282 18.2761 12.1282C18.4826 12.1282 18.6532 12.1935 18.7872 12.3246C18.921 12.4556 18.9879 12.6161 18.9879 12.8057V18.5244C18.9879 18.7139 18.921 18.8744 18.7872 19.0053Z" fill="#0FA8E0"/>
<path d="M23.5044 15.2536C23.0481 14.7964 22.4669 14.5676 21.7608 14.5676C21.0549 14.5676 20.4786 14.7935 20.0314 15.2452C19.5838 15.6969 19.3602 16.2573 19.3602 16.9266C19.3602 17.5957 19.5838 18.1562 20.0314 18.6079C20.4786 19.0596 21.0549 19.2856 21.7608 19.2856C22.4669 19.2856 23.0481 19.0571 23.5044 18.5998C23.9426 18.1535 24.1617 17.5958 24.1617 16.9267C24.1617 16.2573 23.9427 15.6998 23.5044 15.2536ZM22.4776 17.719C22.304 17.9326 22.0651 18.0392 21.7608 18.0392C21.4564 18.0392 21.2177 17.9326 21.0444 17.719C20.8709 17.5052 20.7841 17.2412 20.7841 16.9266C20.7841 16.6121 20.8709 16.348 21.0444 16.1343C21.2177 15.9208 21.4564 15.8141 21.7608 15.8141C22.0651 15.8141 22.304 15.9208 22.4776 16.1343C22.6511 16.348 22.7375 16.6121 22.7375 16.9266C22.7375 17.2411 22.6512 17.5052 22.4776 17.719Z" fill="#0FA8E0"/>
<path d="M11.5856 14.726C12.0885 14.1063 12.3403 13.6888 12.3403 13.4739C12.3403 12.9768 12.0126 12.7283 11.3573 12.7283H7.90071C7.62915 12.7283 7.4191 12.7896 7.27006 12.912C7.12122 13.0348 7.04665 13.1939 7.04665 13.3898C7.04665 13.5861 7.12122 13.7454 7.27006 13.8679C7.4191 13.9905 7.62915 14.0517 7.90071 14.0517H10.2747L7.23539 17.8012C7.0368 18.0466 6.9375 18.2641 6.9375 18.4541C6.9375 18.9991 7.31499 19.2718 8.06965 19.2718H11.6352C12.2048 19.2718 12.4894 19.0435 12.4894 18.5869C12.4894 18.1305 12.2048 17.9022 11.6352 17.9022H9.01327L11.5856 14.726Z" fill="#0FA8E0"/>
<path d="M28.7287 14.0388H27.7748V15.9321H28.7287C29.0154 15.9321 29.2477 15.8427 29.4254 15.6641C29.6031 15.4856 29.692 15.2594 29.692 14.9854C29.692 14.7117 29.603 14.4853 29.4254 14.3067C29.2478 14.1282 29.0153 14.0388 28.7287 14.0388Z" fill="#32B34A"/>
<path d="M33.4881 15.8196C33.1853 15.8196 32.9479 15.9256 32.7754 16.1381C32.6031 16.3506 32.5167 16.6131 32.5167 16.9259C32.5167 17.2389 32.6031 17.5015 32.7754 17.7142C32.9479 17.9263 33.1853 18.0325 33.4881 18.0325C33.7905 18.0325 34.0283 17.9263 34.2008 17.7142C34.3735 17.5015 34.4596 17.2389 34.4596 16.9259C34.4596 16.6131 34.3735 16.3506 34.2008 16.1381C34.0283 15.9255 33.7905 15.8196 33.4881 15.8196Z" fill="#32B34A"/>
<path d="M40.2269 11.3333H26.3971C25.9356 11.3333 25.5616 11.6904 25.5616 12.131V19.8688C25.5616 20.3094 25.9357 20.6666 26.3971 20.6666H37.3147C37.1996 20.5624 37.1418 20.4404 37.1418 20.3006C37.1418 20.1865 37.1686 20.0667 37.2223 19.9415L37.7372 18.848L36.3133 15.4532C36.2715 15.3564 36.2507 15.2509 36.2507 15.1368C36.2507 14.9887 36.3163 14.8631 36.4477 14.7606C36.5791 14.658 36.7163 14.6067 36.8598 14.6067C37.176 14.6067 37.3911 14.752 37.5046 15.0428L38.391 17.3601L39.3404 15.0428C39.4597 14.752 39.6745 14.6067 39.9852 14.6067C40.1284 14.6067 40.2657 14.658 40.3971 14.7606C40.5283 14.8631 40.5942 14.9887 40.5942 15.1368C40.5942 15.2509 40.5731 15.3564 40.5314 15.4532L38.4225 20.3433C38.3648 20.4799 38.2952 20.5875 38.2143 20.6666H40.227C40.6884 20.6666 41.0624 20.3094 41.0624 19.8688V12.131C41.0622 11.6904 40.6883 11.3333 40.2269 11.3333ZM30.4588 16.5394C30.0222 16.9205 29.4736 17.111 28.8128 17.111H27.7747V18.5755C27.7747 18.7959 27.7092 18.967 27.5782 19.0889C27.4473 19.211 27.2788 19.272 27.0734 19.272C26.8675 19.272 26.6991 19.211 26.5683 19.0889C26.4372 18.967 26.3719 18.7959 26.3719 18.5755V13.5568C26.3719 13.0924 26.615 12.8602 27.1013 12.8602H28.7569C29.4489 12.8602 30.0208 13.0583 30.4731 13.454C30.9249 13.8501 31.151 14.3636 31.151 14.9945C31.1508 15.6316 30.92 16.1464 30.4588 16.5394ZM35.8756 18.5149C35.8756 18.7036 35.8091 18.8631 35.6762 18.9932C35.5428 19.1236 35.3733 19.1887 35.1676 19.1887C34.8648 19.1887 34.6439 19.0503 34.505 18.7726C34.2081 19.1057 33.8026 19.2719 33.2883 19.2719C32.671 19.2719 32.1518 19.0447 31.7313 18.5898C31.3107 18.135 31.1005 17.5801 31.1005 16.9257C31.1005 16.2714 31.3108 15.7165 31.7313 15.2619C32.1519 14.8072 32.6711 14.5797 33.2883 14.5797C33.8026 14.5797 34.2081 14.7459 34.505 15.0788C34.6439 14.8016 34.8648 14.6629 35.1676 14.6629C35.3733 14.6629 35.5427 14.7282 35.6762 14.8583C35.8091 14.9889 35.8756 15.1482 35.8756 15.3367V18.5149Z" fill="#32B34A"/>
</svg>
