<svg width="40" height="40" viewBox="0 0 40 40" fill="none" xmlns="http://www.w3.org/2000/svg">
<circle opacity="0.1" cx="20" cy="20" r="20" fill="#0059DA"/>
<path d="M26.0382 16.1152L21.7182 13.0927C20.5407 12.2677 18.7332 12.3127 17.6007 13.1902L13.8432 16.1227C13.0932 16.7077 12.5007 17.9077 12.5007 18.8526V24.0276C12.5007 25.9401 14.0532 27.5001 15.9657 27.5001H24.0507C25.9632 27.5001 27.5157 25.9476 27.5157 24.0351V18.9501C27.5157 17.9377 26.8632 16.6927 26.0382 16.1152Z" fill="#0059DA"/>
<path d="M19.1666 25.2083C18.7063 25.2083 18.3333 24.8352 18.3333 24.375V22.7083C18.3333 22.2481 18.7063 21.875 19.1666 21.875H20.8333C21.2935 21.875 21.6666 22.2481 21.6666 22.7083V24.375C21.6666 24.8352 21.2935 25.2083 20.8333 25.2083H19.1666Z" fill="#1BCFF7"/>
</svg>
