<svg width="40" height="40" viewBox="0 0 40 40" fill="none" xmlns="http://www.w3.org/2000/svg">
<circle opacity="0.1" cx="20" cy="20" r="20" fill="#0059DA"/>
<g clip-path="url(#clip0_199_1485)">
<path d="M29.1671 16.7918C29.1671 19.7801 26.9671 22.2459 24.1071 22.6768V22.6218C23.8229 19.0651 20.9354 16.1776 17.3512 15.8935H17.3237C17.7546 13.0335 20.2204 10.8335 23.2087 10.8335C26.4996 10.8335 29.1671 13.501 29.1671 16.7918Z" fill="#1BCFF7"/>
<path d="M22.7313 22.7318C22.5022 19.8259 20.1738 17.4976 17.268 17.2685C17.1122 17.2593 16.9472 17.2501 16.7913 17.2501C13.5005 17.2501 10.833 19.9176 10.833 23.2084C10.833 26.4992 13.5005 29.1667 16.7913 29.1667C20.0822 29.1667 22.7497 26.4992 22.7497 23.2084C22.7497 23.0526 22.7405 22.8876 22.7313 22.7318ZM17.598 24.0151L16.7913 25.5001L15.9847 24.0151L14.4997 23.2084L15.9847 22.4018L16.7913 20.9168L17.598 22.4018L19.083 23.2084L17.598 24.0151Z" fill="#0059DA"/>
</g>
<defs>
<clipPath id="clip0_199_1485">
<rect width="19.9999" height="19.9999" fill="white" transform="translate(10 10.0001)"/>
</clipPath>
</defs>
</svg>
