<svg width="20" height="20" viewBox="0 0 20 20" fill="none" xmlns="http://www.w3.org/2000/svg">
<path d="M10.0001 18.3334C14.6025 18.3334 18.3334 14.6024 18.3334 10C18.3334 5.39765 14.6025 1.66669 10.0001 1.66669C5.39771 1.66669 1.66675 5.39765 1.66675 10C1.66675 14.6024 5.39771 18.3334 10.0001 18.3334Z" stroke="#252830" stroke-width="1.5" stroke-linecap="round" stroke-linejoin="round"/>
<path d="M6.66642 2.5H7.49976C5.87476 7.36667 5.87476 12.6333 7.49976 17.5H6.66642" stroke="#252830" stroke-width="1.5" stroke-linecap="round" stroke-linejoin="round"/>
<path d="M12.5 2.5C14.125 7.36667 14.125 12.6333 12.5 17.5" stroke="#252830" stroke-width="1.5" stroke-linecap="round" stroke-linejoin="round"/>
<path d="M2.5 13.3333V12.5C7.36667 14.125 12.6333 14.125 17.5 12.5V13.3333" stroke="#252830" stroke-width="1.5" stroke-linecap="round" stroke-linejoin="round"/>
<path d="M2.5 7.50006C7.36667 5.87506 12.6333 5.87506 17.5 7.50006" stroke="#252830" stroke-width="1.5" stroke-linecap="round" stroke-linejoin="round"/>
</svg>
