<svg width="20" height="20" viewBox="0 0 20 20" fill="none" xmlns="http://www.w3.org/2000/svg">
<path d="M8.7418 1.8583L4.58346 3.42497C3.62513 3.7833 2.8418 4.91663 2.8418 5.9333V12.125C2.8418 13.1083 3.4918 14.4 4.28346 14.9916L7.8668 17.6666C9.0418 18.55 10.9751 18.55 12.1501 17.6666L15.7335 14.9916C16.5251 14.4 17.1751 13.1083 17.1751 12.125V5.9333C17.1751 4.9083 16.3918 3.77497 15.4335 3.41663L11.2751 1.8583C10.5668 1.59997 9.43346 1.59997 8.7418 1.8583Z" stroke="#252830" stroke-width="1.5" stroke-linecap="round" stroke-linejoin="round"/>
<path d="M9.99992 10.4166C10.9204 10.4166 11.6666 9.67045 11.6666 8.74998C11.6666 7.82951 10.9204 7.08331 9.99992 7.08331C9.07944 7.08331 8.33325 7.82951 8.33325 8.74998C8.33325 9.67045 9.07944 10.4166 9.99992 10.4166Z" stroke="#252830" stroke-width="1.5" stroke-miterlimit="10" stroke-linecap="round" stroke-linejoin="round"/>
<path d="M9.99976 10.4167V12.9167" stroke="#252830" stroke-width="1.5" stroke-miterlimit="10" stroke-linecap="round" stroke-linejoin="round"/>
</svg>
