<svg width="20" height="20" viewBox="0 0 20 20" fill="none" xmlns="http://www.w3.org/2000/svg">
<path d="M11.1853 9.4993L7.22014 13.6602C6.92662 13.9682 6.92662 14.461 7.22014 14.769C7.51365 15.077 7.98328 15.077 8.27679 14.769L12.6635 10.1657C12.7062 10.1377 12.7436 10.1041 12.7809 10.0649C12.9304 9.90811 13.0051 9.7065 12.9997 9.4993C12.9997 9.2977 12.9304 9.09049 12.7809 8.93369C12.7436 8.89449 12.7062 8.86089 12.6635 8.83289L8.27679 4.2296C8.1327 4.0784 7.94059 4 7.74847 4C7.55635 4 7.36423 4.0784 7.22014 4.2296C6.92662 4.53761 6.92662 5.03042 7.22014 5.33842L11.1853 9.4993Z" fill="#94ACBA"/>
</svg>
