<svg width="20" height="20" viewBox="0 0 20 20" fill="none" xmlns="http://www.w3.org/2000/svg">
<path d="M17.5 5.83335V14.1667C17.5 16.6667 16.25 18.3334 13.3333 18.3334H6.66667C3.75 18.3334 2.5 16.6667 2.5 14.1667V5.83335C2.5 3.33335 3.75 1.66669 6.66667 1.66669H13.3333C16.25 1.66669 17.5 3.33335 17.5 5.83335Z" stroke="#252830" stroke-width="1.5" stroke-miterlimit="10" stroke-linecap="round" stroke-linejoin="round"/>
<path d="M12.9166 1.66669V7.21667C12.9166 7.58334 12.4832 7.76667 12.2166 7.525L10.2833 5.74171C10.1249 5.59171 9.8749 5.59171 9.71656 5.74171L7.78327 7.525C7.51661 7.76667 7.08325 7.58334 7.08325 7.21667V1.66669H12.9166Z" stroke="#252830" stroke-width="1.5" stroke-miterlimit="10" stroke-linecap="round" stroke-linejoin="round"/>
<path d="M11.0417 11.6667H14.5834" stroke="#252830" stroke-width="1.5" stroke-miterlimit="10" stroke-linecap="round" stroke-linejoin="round"/>
<path d="M7.5 15H14.5833" stroke="#252830" stroke-width="1.5" stroke-miterlimit="10" stroke-linecap="round" stroke-linejoin="round"/>
</svg>
