<svg width="30" height="28" viewBox="0 0 30 28" fill="none" xmlns="http://www.w3.org/2000/svg">
<path fill-rule="evenodd" clip-rule="evenodd" d="M18.191 8.06447C18.191 11.6679 15.2702 14.5891 11.6673 14.5891C8.06432 14.5891 5.14355 11.6679 5.14355 8.06447C5.14355 4.46106 8.06432 1.54004 11.6673 1.54004C15.2702 1.54004 18.191 4.46106 18.191 8.06447ZM21.495 22.0742C22.7549 23.9504 21.439 26.4704 19.1711 26.4704H4.16371C1.89581 26.4704 0.57987 23.9504 1.83981 22.0742C3.74373 19.246 7.43957 17.3418 11.6674 17.3418C15.8952 17.3418 19.591 19.246 21.495 22.0742Z" fill="url(#paint0_linear_11648_8582)"/>
<path d="M11.9502 16.7339C10.9986 21.2099 13.901 25.6376 18.3547 26.5539C22.8155 27.5133 27.2153 24.586 28.1249 20.1151C28.7141 17.3728 27.8508 14.5441 25.9036 12.5822C24.7628 11.3911 23.3055 10.6141 21.7191 10.294C17.2586 9.33552 12.8594 12.263 11.9502 16.7339Z" fill="url(#paint1_linear_11648_8582)" stroke="#3A88F6" stroke-width="1.5"/>
<path d="M24.3291 21.6571L22.8103 20.0935C23.9786 18.2895 23.5113 15.884 21.7588 14.6813C20.0063 13.4786 17.6696 13.9597 16.5013 15.7638C15.3329 17.5678 15.8003 19.9733 17.5528 21.176C18.8379 22.0179 20.4736 22.0179 21.7004 21.176L23.2192 22.7395C23.5113 23.0402 23.9786 23.0402 24.2707 22.7395C24.6212 22.4388 24.6212 21.9578 24.3291 21.6571ZM18.0785 19.5523C17.2023 18.6503 17.2023 17.1469 18.0785 16.2448C18.9548 15.3428 20.4152 15.3428 21.2915 16.2448C22.1677 17.1469 22.1677 18.6503 21.2915 19.5523C20.3568 20.4544 18.9548 20.4544 18.0785 19.5523Z" fill="url(#paint2_linear_11648_8582)"/>
<defs>
<linearGradient id="paint0_linear_11648_8582" x1="1" y1="6" x2="22" y2="26" gradientUnits="userSpaceOnUse">
<stop stop-color="white"/>
<stop offset="1" stop-color="white" stop-opacity="0"/>
</linearGradient>
<linearGradient id="paint1_linear_11648_8582" x1="12.5203" y1="18.4182" x2="27.5562" y2="18.4182" gradientUnits="userSpaceOnUse">
<stop stop-color="#FFD76F"/>
<stop offset="0.0001" stop-color="#FFC56F"/>
<stop offset="1" stop-color="#FDA726"/>
</linearGradient>
<linearGradient id="paint2_linear_11648_8582" x1="23.4294" y1="21.7897" x2="18.2267" y2="16.7358" gradientUnits="userSpaceOnUse">
<stop offset="0.0113208" stop-color="#FFE7C2"/>
<stop offset="1" stop-color="white"/>
</linearGradient>
</defs>
</svg>
