<svg width="21" height="20" viewBox="0 0 21 20" fill="none" xmlns="http://www.w3.org/2000/svg">
<path d="M5.27275 10.8773H14.4378L10.8291 14.2086C10.7622 14.2691 10.7079 14.3422 10.6694 14.4237C10.6309 14.5053 10.6089 14.5937 10.6048 14.6838C10.6007 14.7739 10.6145 14.8639 10.6455 14.9486C10.6764 15.0333 10.7238 15.1111 10.785 15.1773C10.8462 15.2436 10.9199 15.2971 11.0019 15.3346C11.0839 15.3722 11.1725 15.3931 11.2626 15.3962C11.3528 15.3993 11.4426 15.3845 11.527 15.3526C11.6114 15.3207 11.6886 15.2724 11.7541 15.2105L16.6446 10.6964C16.7136 10.6325 16.7686 10.555 16.8063 10.4688C16.844 10.3826 16.8634 10.2895 16.8634 10.1955C16.8634 10.1014 16.844 10.0084 16.8063 9.92216C16.7686 9.83596 16.7136 9.75847 16.6446 9.69456L11.7541 5.18047C11.6884 5.11957 11.6113 5.07225 11.5273 5.04121C11.4432 5.01016 11.3539 4.99601 11.2644 4.99956C11.1749 5.0031 11.0869 5.02428 11.0056 5.06188C10.9243 5.09947 10.8512 5.15275 10.7905 5.21865C10.7297 5.28445 10.6825 5.36158 10.6516 5.44562C10.6207 5.52967 10.6066 5.61898 10.6102 5.70847C10.6138 5.79796 10.6349 5.88586 10.6725 5.96716C10.7101 6.04846 10.7633 6.12156 10.8291 6.18228L14.4378 9.51365H5.27275C5.18321 9.51363 5.09453 9.53126 5.0118 9.56551C4.92906 9.59977 4.85389 9.64999 4.79056 9.71331C4.72724 9.77662 4.677 9.85179 4.64273 9.93452C4.60846 10.0172 4.59082 10.1059 4.59082 10.1955C4.59082 10.285 4.60846 10.3737 4.64273 10.4564C4.677 10.5391 4.72724 10.6143 4.79056 10.6776C4.85389 10.7409 4.92906 10.7912 5.0118 10.8254C5.09453 10.8597 5.18321 10.8773 5.27275 10.8773Z" fill="white"/>
<path d="M5.27275 10.8773H14.4378L10.8291 14.2086C10.7622 14.2691 10.7079 14.3422 10.6694 14.4237C10.6309 14.5053 10.6089 14.5937 10.6048 14.6838C10.6007 14.7739 10.6145 14.8639 10.6455 14.9486C10.6764 15.0333 10.7238 15.1111 10.785 15.1773C10.8462 15.2436 10.9199 15.2971 11.0019 15.3346C11.0839 15.3722 11.1725 15.3931 11.2626 15.3962C11.3528 15.3993 11.4426 15.3845 11.527 15.3526C11.6114 15.3207 11.6886 15.2724 11.7541 15.2105L16.6446 10.6964C16.7136 10.6325 16.7686 10.555 16.8063 10.4688C16.844 10.3826 16.8634 10.2895 16.8634 10.1955C16.8634 10.1014 16.844 10.0084 16.8063 9.92216C16.7686 9.83596 16.7136 9.75847 16.6446 9.69456L11.7541 5.18047C11.6884 5.11957 11.6113 5.07225 11.5273 5.04121C11.4432 5.01016 11.3539 4.99601 11.2644 4.99956C11.1749 5.0031 11.0869 5.02428 11.0056 5.06188C10.9243 5.09947 10.8512 5.15275 10.7905 5.21865C10.7297 5.28445 10.6825 5.36158 10.6516 5.44562C10.6207 5.52967 10.6066 5.61898 10.6102 5.70847C10.6138 5.79796 10.6349 5.88586 10.6725 5.96716C10.7101 6.04846 10.7633 6.12156 10.8291 6.18228L14.4378 9.51365H5.27275C5.18321 9.51363 5.09453 9.53126 5.0118 9.56551C4.92906 9.59977 4.85389 9.64999 4.79056 9.71331C4.72724 9.77662 4.677 9.85179 4.64273 9.93452C4.60846 10.0172 4.59082 10.1059 4.59082 10.1955C4.59082 10.285 4.60846 10.3737 4.64273 10.4564C4.677 10.5391 4.72724 10.6143 4.79056 10.6776C4.85389 10.7409 4.92906 10.7912 5.0118 10.8254C5.09453 10.8597 5.18321 10.8773 5.27275 10.8773" stroke="white" stroke-width="0.5"/>
</svg>
