<svg width="16" height="16" viewBox="0 0 16 16" fill="none" xmlns="http://www.w3.org/2000/svg">
<path d="M10.6971 11.7767L8 9.07927L5.3029 11.7767C5.00521 12.0744 4.52195 12.0744 4.22426 11.7767C3.92657 11.479 3.92657 10.9957 4.22426 10.6979L6.92136 8.0005L4.22327 5.30207C3.92558 5.00434 3.92558 4.52103 4.22327 4.2233C4.52096 3.92557 5.00422 3.92557 5.30191 4.2233L8 6.92073L10.6971 4.2233C10.9948 3.92557 11.478 3.92557 11.7757 4.2233C12.0734 4.52103 12.0734 5.00434 11.7757 5.30207L9.07864 7.9995L11.7767 10.6979C12.0744 10.9957 12.0744 11.479 11.7767 11.7767C11.479 12.0744 10.9958 12.0744 10.6971 11.7767Z" fill="#252830"/>
</svg>
