<svg width="166" height="176" viewBox="0 0 166 176" fill="none" xmlns="http://www.w3.org/2000/svg">
<path opacity="0.2" d="M15.8028 38.1271C17.4935 37.5744 18.4186 35.7478 17.8691 34.0472C17.3196 32.3467 15.5035 31.4162 13.8128 31.969C12.1221 32.5217 11.1969 34.3483 11.7465 36.0488C12.296 37.7493 14.1121 38.6798 15.8028 38.1271Z" fill="#2173E6"/>
<path opacity="0.2" d="M31.3973 26.3107C32.547 25.9349 33.1761 24.6928 32.8024 23.5364C32.4287 22.3801 31.1938 21.7473 30.0441 22.1232C28.8944 22.499 28.2653 23.7411 28.639 24.8975C29.0127 26.0538 30.2476 26.6865 31.3973 26.3107Z" fill="#2173E6"/>
<path opacity="0.2" d="M136.286 24.1253C137.126 23.3533 137.185 22.0426 136.417 21.1978C135.65 20.353 134.347 20.294 133.507 21.066C132.667 21.838 132.608 23.1487 133.376 23.9935C134.143 24.8383 135.446 24.8973 136.286 24.1253Z" fill="#2173E6"/>
<path opacity="0.05" d="M80.0959 144.366C115.439 144.366 144.091 115.548 144.091 80.0003C144.091 44.4522 115.439 15.6348 80.0959 15.6348C44.7525 15.6348 16.1011 44.4522 16.1011 80.0003C16.1011 115.548 44.7525 144.366 80.0959 144.366Z" fill="#015CDB"/>
<g filter="url(#filter0_d_11540_8301)">
<path d="M122.347 28.8151L122.347 131.525C122.347 134.538 119.867 137.002 116.835 137.002H44.6343C41.6029 137.002 39.1227 134.538 39.1227 131.525L39.123 28.8151C39.123 25.8026 41.6032 23.3379 44.6346 23.3379L116.836 23.3379C119.867 23.3379 122.347 25.8026 122.347 28.8151Z" fill="white"/>
</g>
<g opacity="0.5">
<path d="M44.2278 72.3584L41.6099 72.3584L41.6099 74.9601L44.2278 74.9601L44.2278 72.3584Z" fill="#EAEEF9"/>
<path d="M44.2278 67.1563L41.6099 67.1562L41.6099 69.7579L44.2278 69.7579L44.2278 67.1563Z" fill="#EAEEF9"/>
<path d="M44.2254 61.9512L41.6074 61.9512L41.6074 64.5528L44.2254 64.5528L44.2254 61.9512Z" fill="#EAEEF9"/>
<path d="M44.2264 56.8848L41.6084 56.8848L41.6084 59.4864L44.2264 59.4864L44.2264 56.8848Z" fill="#EAEEF9"/>
<path d="M44.2264 46.4785L41.6084 46.4785L41.6084 49.0802L44.2264 49.0802L44.2264 46.4785Z" fill="#F3F5FA"/>
<path d="M49.5989 77.4238L46.981 77.4238L46.9809 80.0255L49.5989 80.0255L49.5989 77.4238Z" fill="#EAEEF9"/>
<path d="M49.598 72.3584L46.98 72.3584L46.98 74.9601L49.598 74.9601L49.598 72.3584Z" fill="#EAEEF9"/>
<path d="M49.5994 56.8857L46.9814 56.8857L46.9814 59.4874L49.5994 59.4874L49.5994 56.8857Z" fill="#EAEEF9"/>
<path d="M49.6009 36.21L46.9829 36.21L46.9829 38.8116L49.6009 38.8116L49.6009 36.21Z" fill="#EAEEF9"/>
<path d="M54.9744 77.4258L52.3564 77.4258L52.3564 80.0275L54.9744 80.0275L54.9744 77.4258Z" fill="#EAEEF9"/>
<path d="M54.9759 67.1563L52.3579 67.1562L52.3579 69.7579L54.9759 69.7579L54.9759 67.1563Z" fill="#EAEEF9"/>
<path d="M54.9734 61.9512L52.3555 61.9512L52.3555 64.5528L54.9734 64.5528L54.9734 61.9512Z" fill="#EAEEF9"/>
<path d="M54.972 56.8867L52.354 56.8867L52.354 59.4884L54.972 59.4884L54.972 56.8867Z" fill="#EAEEF9"/>
<path d="M54.9744 51.6826L52.3564 51.6826L52.3564 54.2843L54.9744 54.2843L54.9744 51.6826Z" fill="#F3F5FA"/>
<path d="M54.9744 46.4795L52.3564 46.4795L52.3564 49.0812L54.9744 49.0812L54.9744 46.4795Z" fill="#EAEEF9"/>
<path d="M54.9715 36.208L52.3535 36.208L52.3535 38.8097L54.9715 38.8097L54.9715 36.208Z" fill="#EAEEF9"/>
<path d="M54.9734 31.0049L52.3555 31.0049L52.3555 33.6066L54.9734 33.6066L54.9734 31.0049Z" fill="#F3F5FA"/>
<path d="M60.3465 72.3574L57.7285 72.3574L57.7285 74.9591L60.3465 74.9591L60.3465 72.3574Z" fill="#EAEEF9"/>
<path d="M60.346 67.1563L57.728 67.1562L57.728 69.7579L60.346 69.7579L60.346 67.1563Z" fill="#EAEEF9"/>
<path d="M60.3499 51.6826L57.7319 51.6826L57.7319 54.2843L60.3499 54.2843L60.3499 51.6826Z" fill="#F3F5FA"/>
<path d="M60.3465 41.4121L57.7285 41.4121L57.7285 44.0138L60.3465 44.0138L60.3465 41.4121Z" fill="#EAEEF9"/>
<path d="M65.8602 77.4248L63.2422 77.4248L63.2422 80.0265L65.8602 80.0265L65.8602 77.4248Z" fill="#EAEEF9"/>
<path d="M65.8616 72.3584L63.2437 72.3584L63.2436 74.9601L65.8616 74.9601L65.8616 72.3584Z" fill="#EAEEF9"/>
<path d="M65.8582 56.8857L63.2402 56.8857L63.2402 59.4874L65.8582 59.4874L65.8582 56.8857Z" fill="#EAEEF9"/>
<path d="M65.8602 51.6836L63.2422 51.6836L63.2422 54.2853L65.8602 54.2853L65.8602 51.6836Z" fill="#EAEEF9"/>
<path d="M65.8582 46.4785L63.2402 46.4785L63.2402 49.0802L65.8582 49.0802L65.8582 46.4785Z" fill="#F3F5FA"/>
<path d="M71.2332 77.4238L68.6152 77.4238L68.6152 80.0255L71.2332 80.0255L71.2332 77.4238Z" fill="#EAEEF9"/>
<path d="M71.2322 72.3584L68.6143 72.3584L68.6143 74.9601L71.2322 74.9601L71.2322 72.3584Z" fill="#EAEEF9"/>
<path d="M71.2317 67.1563L68.6138 67.1562L68.6138 69.7579L71.2317 69.7579L71.2317 67.1563Z" fill="#EAEEF9"/>
<path d="M71.2322 61.9531L68.6143 61.9531L68.6143 64.5548L71.2322 64.5548L71.2322 61.9531Z" fill="#EAEEF9"/>
<path d="M71.2357 56.8848L68.6177 56.8848L68.6177 59.4864L71.2356 59.4864L71.2357 56.8848Z" fill="#EAEEF9"/>
<path d="M71.2308 51.6797L68.6128 51.6797L68.6128 54.2814L71.2308 54.2814L71.2308 51.6797Z" fill="#EAEEF9"/>
<path d="M71.2342 36.208L68.6162 36.208L68.6162 38.8097L71.2342 38.8097L71.2342 36.208Z" fill="#EAEEF9"/>
<path d="M76.6033 77.4248L73.9854 77.4248L73.9853 80.0265L76.6033 80.0265L76.6033 77.4248Z" fill="#EAEEF9"/>
<path d="M76.6068 72.3574L73.9888 72.3574L73.9888 74.9591L76.6067 74.9591L76.6068 72.3574Z" fill="#EAEEF9"/>
<path d="M76.6048 67.1543L73.9868 67.1543L73.9868 69.756L76.6048 69.756L76.6048 67.1543Z" fill="#EAEEF9"/>
<path d="M76.6063 56.8857L73.9883 56.8857L73.9883 59.4874L76.6063 59.4874L76.6063 56.8857Z" fill="#EAEEF9"/>
<path d="M76.6058 51.6816L73.9878 51.6816L73.9878 54.2833L76.6058 54.2833L76.6058 51.6816Z" fill="#F3F5FA"/>
<path d="M81.9788 77.4258L79.3608 77.4258L79.3608 80.0275L81.9788 80.0275L81.9788 77.4258Z" fill="url(#paint0_linear_11540_8301)"/>
<path d="M81.9798 72.3584L79.3618 72.3584L79.3618 74.9601L81.9798 74.9601L81.9798 72.3584Z" fill="#EAEEF9"/>
<path d="M81.9822 67.1543L79.3643 67.1543L79.3643 69.756L81.9822 69.756L81.9822 67.1543Z" fill="#EAEEF9"/>
<path d="M81.9778 61.9512L79.3599 61.9512L79.3599 64.5528L81.9778 64.5528L81.9778 61.9512Z" fill="#F3F5FA"/>
<path d="M81.9813 56.8867L79.3633 56.8867L79.3633 59.4884L81.9813 59.4884L81.9813 56.8867Z" fill="#EAEEF9"/>
<path d="M81.9813 46.4795L79.3633 46.4795L79.3633 49.0812L81.9813 49.0812L81.9813 46.4795Z" fill="#EAEEF9"/>
<path d="M87.3563 77.4238L84.7383 77.4238L84.7383 80.0255L87.3563 80.0255L87.3563 77.4238Z" fill="#EAEEF9"/>
<path d="M87.3548 72.3584L84.7368 72.3584L84.7368 74.9601L87.3548 74.9601L87.3548 72.3584Z" fill="#EAEEF9"/>
<path d="M87.3524 67.1563L84.7344 67.1562L84.7344 69.7579L87.3523 69.7579L87.3524 67.1563Z" fill="url(#paint1_linear_11540_8301)"/>
<path d="M87.3533 61.9502L84.7354 61.9502L84.7353 64.5519L87.3533 64.5519L87.3533 61.9502Z" fill="#EAEEF9"/>
<path d="M87.3543 56.8857L84.7363 56.8857L84.7363 59.4874L87.3543 59.4874L87.3543 56.8857Z" fill="#EAEEF9"/>
<path d="M87.3543 51.6816L84.7363 51.6816L84.7363 54.2833L87.3543 54.2833L87.3543 51.6816Z" fill="#EAEEF9"/>
<path d="M92.7288 77.4248L90.1108 77.4248L90.1108 80.0265L92.7288 80.0265L92.7288 77.4248Z" fill="#EAEEF9"/>
<path d="M92.7278 72.3594L90.1099 72.3594L90.1099 74.961L92.7278 74.961L92.7278 72.3594Z" fill="#EAEEF9"/>
<path d="M92.7278 67.1553L90.1099 67.1553L90.1099 69.7569L92.7278 69.7569L92.7278 67.1553Z" fill="#EAEEF9"/>
<path d="M92.7293 56.8867L90.1113 56.8867L90.1113 59.4884L92.7293 59.4884L92.7293 56.8867Z" fill="#F3F5FA"/>
<path d="M92.7269 46.4785L90.1089 46.4785L90.1089 49.0802L92.7269 49.0802L92.7269 46.4785Z" fill="#EAEEF9"/>
<path d="M92.7259 31.0049L90.1079 31.0049L90.1079 33.6066L92.7259 33.6066L92.7259 31.0049Z" fill="#F3F5FA"/>
<path d="M98.1009 72.3574L95.4829 72.3574L95.4829 74.9591L98.1009 74.9591L98.1009 72.3574Z" fill="#EAEEF9"/>
<path d="M98.1028 67.1553L95.4849 67.1553L95.4849 69.7569L98.1028 69.7569L98.1028 67.1553Z" fill="#F3F5FA"/>
<path d="M98.1009 61.9502L95.4829 61.9502L95.4829 64.5519L98.1009 64.5519L98.1009 61.9502Z" fill="#EAEEF9"/>
<path d="M98.1033 41.4111L95.4854 41.4111L95.4853 44.0128L98.1033 44.0128L98.1033 41.4111Z" fill="#EAEEF9"/>
<path d="M103.475 77.4248L100.857 77.4248L100.857 80.0265L103.475 80.0265L103.475 77.4248Z" fill="#EAEEF9"/>
<path d="M103.476 67.1553L100.858 67.1553L100.858 69.7569L103.476 69.7569L103.476 67.1553Z" fill="#EAEEF9"/>
<path d="M103.476 61.9512L100.858 61.9512L100.858 64.5528L103.476 64.5528L103.476 61.9512Z" fill="#EAEEF9"/>
<path d="M103.475 56.8848L100.857 56.8848L100.857 59.4864L103.475 59.4864L103.475 56.8848Z" fill="#EAEEF9"/>
<path d="M103.477 51.6826L100.859 51.6826L100.859 54.2843L103.477 54.2843L103.477 51.6826Z" fill="#F3F5FA"/>
<path d="M103.475 46.4795L100.857 46.4795L100.857 49.0812L103.475 49.0812L103.475 46.4795Z" fill="#EAEEF9"/>
<path d="M108.985 77.4258L106.367 77.4258L106.367 80.0275L108.985 80.0275L108.985 77.4258Z" fill="#EAEEF9"/>
<path d="M108.987 61.9521L106.369 61.9521L106.369 64.5538L108.987 64.5538L108.987 61.9521Z" fill="#F3F5FA"/>
<path d="M108.988 51.6816L106.37 51.6816L106.37 54.2833L108.988 54.2833L108.988 51.6816Z" fill="#EAEEF9"/>
<path d="M114.36 77.4238L111.742 77.4238L111.742 80.0255L114.36 80.0255L114.36 77.4238Z" fill="#EAEEF9"/>
<path d="M114.362 72.3584L111.744 72.3584L111.744 74.9601L114.362 74.9601L114.362 72.3584Z" fill="#EAEEF9"/>
<path d="M114.362 67.1572L111.744 67.1572L111.744 69.7589L114.362 69.7589L114.362 67.1572Z" fill="#EAEEF9"/>
<path d="M114.359 61.9512L111.741 61.9512L111.741 64.5528L114.359 64.5528L114.359 61.9512Z" fill="#EAEEF9"/>
<path d="M114.363 56.8857L111.745 56.8857L111.745 59.4874L114.363 59.4874L114.363 56.8857Z" fill="#F3F5FA"/>
<path d="M114.36 41.4121L111.742 41.4121L111.742 44.0138L114.36 44.0138L114.36 41.4121Z" fill="#EAEEF9"/>
<path d="M119.735 77.4258L117.117 77.4258L117.117 80.0275L119.735 80.0275L119.735 77.4258Z" fill="#EAEEF9"/>
<path d="M119.732 67.1543L117.114 67.1543L117.114 69.756L119.732 69.756L119.732 67.1543Z" fill="#EAEEF9"/>
<path d="M119.734 61.9521L117.116 61.9521L117.116 64.5538L119.734 64.5538L119.734 61.9521Z" fill="#F3F5FA"/>
<path d="M117.071 95.6045L119.689 95.6045L119.689 93.0028L117.071 93.0028L117.071 95.6045Z" fill="#EAEEF9"/>
<path d="M117.072 90.3623L119.69 90.3623L119.69 87.7606L117.072 87.7606L117.072 90.3623Z" fill="#EAEEF9"/>
<path d="M117.072 85.2549L119.69 85.2549L119.69 82.6532L117.072 82.6532L117.072 85.2549Z" fill="#EAEEF9"/>
<path d="M111.667 100.711L114.285 100.711L114.285 98.1093L111.667 98.1093L111.667 100.711Z" fill="#EAEEF9"/>
<path d="M111.667 95.6055L114.285 95.6055L114.285 93.0038L111.667 93.0038L111.667 95.6055Z" fill="#EAEEF9"/>
<path d="M111.668 85.2578L114.286 85.2578L114.286 82.6561L111.668 82.6561L111.668 85.2578Z" fill="#EAEEF9"/>
<path d="M106.258 100.71L108.876 100.71L108.876 98.1083L106.258 98.1083L106.258 100.71Z" fill="#EAEEF9"/>
<path d="M106.258 95.6045L108.876 95.6045L108.876 93.0028L106.258 93.0028L106.258 95.6045Z" fill="#EAEEF9"/>
<path d="M106.257 90.3623L108.875 90.3623L108.875 87.7606L106.257 87.7606L106.257 90.3623Z" fill="#EAEEF9"/>
<path d="M106.258 85.2568L108.876 85.2568L108.876 82.6552L106.258 82.6552L106.258 85.2568Z" fill="#EAEEF9"/>
<path d="M100.989 100.71L103.607 100.71L103.607 98.1083L100.989 98.1083L100.989 100.71Z" fill="#EAEEF9"/>
<path d="M100.987 95.6045L103.605 95.6045L103.605 93.0028L100.987 93.0028L100.987 95.6045Z" fill="#EAEEF9"/>
<path d="M100.99 90.3623L103.608 90.3623L103.608 87.7606L100.99 87.7606L100.99 90.3623Z" fill="#EAEEF9"/>
<path d="M100.987 85.2568L103.605 85.2568L103.605 82.6552L100.987 82.6552L100.987 85.2568Z" fill="#EAEEF9"/>
<path d="M95.5827 100.71L98.2007 100.71L98.2007 98.1083L95.5827 98.1083L95.5827 100.71Z" fill="#EAEEF9"/>
<path d="M95.5803 95.6045L98.1982 95.6045L98.1982 93.0028L95.5803 93.0028L95.5803 95.6045Z" fill="#EAEEF9"/>
<path d="M95.5832 90.3623L98.2012 90.3623L98.2012 87.7606L95.5832 87.7606L95.5832 90.3623Z" fill="#EAEEF9"/>
<path d="M90.176 100.711L92.7939 100.711L92.794 98.1093L90.176 98.1093L90.176 100.711Z" fill="#EAEEF9"/>
<path d="M90.1755 95.6055L92.7935 95.6055L92.7935 93.0038L90.1755 93.0038L90.1755 95.6055Z" fill="#EAEEF9"/>
<path d="M90.1769 90.3623L92.7949 90.3623L92.7949 87.7606L90.1769 87.7606L90.1769 90.3623Z" fill="#EAEEF9"/>
<path d="M90.1769 85.2549L92.7949 85.2549L92.7949 82.6532L90.1769 82.6532L90.1769 85.2549Z" fill="#EAEEF9"/>
<path d="M84.7668 100.711L87.3848 100.711L87.3848 98.1093L84.7668 98.1093L84.7668 100.711Z" fill="#EAEEF9"/>
<path d="M84.7692 95.6025L87.3872 95.6025L87.3872 93.0009L84.7692 93.0009L84.7692 95.6025Z" fill="#EAEEF9"/>
<path d="M84.7678 90.3613L87.3857 90.3613L87.3857 87.7597L84.7678 87.7597L84.7678 90.3613Z" fill="#EAEEF9"/>
<path d="M79.3618 100.703L81.9798 100.703L81.9798 98.1016L79.3618 98.1016L79.3618 100.703Z" fill="url(#paint2_linear_11540_8301)"/>
<path d="M79.3625 95.6045L81.9805 95.6045L81.9805 93.0028L79.3625 93.0028L79.3625 95.6045Z" fill="#EAEEF9"/>
<path d="M79.361 90.3623L81.979 90.3623L81.979 87.7606L79.361 87.7606L79.361 90.3623Z" fill="#EAEEF9"/>
<path d="M79.361 85.2568L81.979 85.2568L81.979 82.6552L79.361 82.6552L79.361 85.2568Z" fill="#F3F5FA"/>
<path d="M73.9538 100.71L76.5718 100.71L76.5718 98.1083L73.9538 98.1083L73.9538 100.71Z" fill="#EAEEF9"/>
<path d="M73.9562 95.6055L76.5742 95.6055L76.5742 93.0038L73.9562 93.0038L73.9562 95.6055Z" fill="#EAEEF9"/>
<path d="M73.9878 90.4337L76.6058 90.4337L76.6058 87.832L73.9878 87.832L73.9878 90.4337Z" fill="url(#paint3_linear_11540_8301)"/>
<path d="M73.9548 85.2549L76.5728 85.2549L76.5728 82.6532L73.9548 82.6532L73.9548 85.2549Z" fill="#EAEEF9"/>
<path d="M68.5446 100.71L71.1626 100.71L71.1626 98.1083L68.5446 98.1083L68.5446 100.71Z" fill="#EAEEF9"/>
<path d="M68.5471 95.6045L71.165 95.6045L71.165 93.0028L68.5471 93.0028L68.5471 95.6045Z" fill="#EAEEF9"/>
<path d="M68.5505 90.3623L71.1685 90.3623L71.1685 87.7606L68.5505 87.7606L68.5505 90.3623Z" fill="#EAEEF9"/>
<path d="M63.1428 95.6055L65.7607 95.6055L65.7607 93.0038L63.1428 93.0038L63.1428 95.6055Z" fill="#EAEEF9"/>
<path d="M63.1413 90.3623L65.7593 90.3623L65.7593 87.7606L63.1413 87.7606L63.1413 90.3623Z" fill="#F3F5FA"/>
<path d="M63.1437 85.2578L65.7617 85.2578L65.7617 82.6561L63.1437 82.6561L63.1437 85.2578Z" fill="#EAEEF9"/>
<path d="M57.8737 100.71L60.4917 100.71L60.4917 98.1083L57.8737 98.1083L57.8737 100.71Z" fill="#EAEEF9"/>
<path d="M57.8698 90.3623L60.4878 90.3623L60.4878 87.7606L57.8698 87.7606L57.8698 90.3623Z" fill="#EAEEF9"/>
<path d="M57.729 85.2306L60.4848 85.2306L60.4848 82.6289L57.729 82.6289L57.729 85.2306Z" fill="#EAEEF9"/>
<path d="M52.4675 100.71L55.0854 100.71L55.0855 98.1083L52.4675 98.1083L52.4675 100.71Z" fill="#EAEEF9"/>
<path d="M52.4655 85.2578L55.0835 85.2578L55.0835 82.6561L52.4655 82.6561L52.4655 85.2578Z" fill="#F3F5FA"/>
<path d="M47.0578 100.711L49.6758 100.711L49.6758 98.1093L47.0578 98.1093L47.0578 100.711Z" fill="#EAEEF9"/>
<path d="M47.0554 95.6055L49.6733 95.6055L49.6733 93.0038L47.0554 93.0038L47.0554 95.6055Z" fill="#EAEEF9"/>
<path d="M47.0593 90.3613L49.6772 90.3613L49.6773 87.7597L47.0593 87.7597L47.0593 90.3613Z" fill="#EAEEF9"/>
<path d="M41.6516 100.711L44.2695 100.711L44.2695 98.1093L41.6516 98.1093L41.6516 100.711Z" fill="#EAEEF9"/>
<path d="M41.6525 90.3613L44.2705 90.3613L44.2705 87.7597L41.6525 87.7597L41.6525 90.3613Z" fill="#EAEEF9"/>
<path d="M41.6525 85.2568L44.2705 85.2568L44.2705 82.6552L41.6525 82.6552L41.6525 85.2568Z" fill="#F3F5FA"/>
</g>
<path d="M113.105 99.0773C112.388 99.7894 111.851 100.501 111.135 101.035C103.074 108.512 92.3264 112.962 80.325 112.962C70.8314 112.962 61.8752 110.114 54.5311 104.952C52.3816 103.528 50.4112 101.747 48.6199 99.9674C49.5156 98.7213 51.3068 97.8313 54.8893 96.4072L56.3223 95.8732C59.0092 94.8051 62.7708 93.381 67.6072 91.4229C68.3237 91.0669 69.0402 90.7109 69.3985 89.9988C69.5776 89.6428 69.9358 89.2868 69.9358 88.9308C70.2941 88.3967 70.2941 87.6847 70.2941 86.9727L70.2941 77.8942C70.115 77.7162 70.115 77.5382 69.9359 77.3601C69.2194 76.1141 68.682 74.868 68.5029 73.4439L67.7864 73.0879C65.4578 73.6219 65.6369 71.1298 65.0995 66.3235C64.9204 64.3654 65.0995 64.0094 65.9952 63.6534L66.7117 62.5853C64.9204 58.6691 64.2039 55.4649 64.2039 52.6168C64.204 48.1665 66.1743 45.1404 68.8612 43.7163C67.6074 40.8681 67.4282 39.6221 67.4282 39.6221C67.4282 39.6221 76.9218 41.2242 80.1461 40.5121C84.266 39.6221 90.7145 40.6901 93.0431 46.2084C93.5804 46.3864 93.9387 46.5645 94.4761 46.7425C97.5212 48.3445 98.5959 50.4807 98.9542 52.7948C99.4915 57.067 97.1629 61.6953 96.6255 63.6534C96.6255 63.6534 96.6255 63.8314 96.8047 63.8314C97.5212 64.1874 97.7003 64.7215 97.342 66.5015C96.8046 71.1298 96.9838 73.7999 94.6551 73.2659L92.5056 76.8261C92.5056 77.1821 92.3265 77.3601 92.3265 77.7162C92.3265 78.4282 92.3265 79.6743 92.3265 87.1507C92.3265 87.3287 92.3265 87.6847 92.3265 87.8627C92.3265 88.5748 92.6847 89.1088 93.043 89.6428C93.2221 89.8208 93.4012 89.9988 93.5803 90.1768C94.1177 90.7109 94.6551 91.0669 95.3716 91.4229C100.745 93.737 104.686 95.1611 107.552 96.2292C110.239 97.4752 112.03 98.3653 113.105 99.0773Z" fill="#EAEEF9"/>
<path d="M97.5194 66.4993C96.982 71.1276 97.1612 73.7977 94.8325 73.2637L92.683 76.8239C92.683 77.1799 92.5039 77.3579 92.5039 77.7139C92.5039 78.426 92.5039 79.672 92.5039 87.1485C92.5039 87.3265 92.5039 87.6825 92.5039 87.8605L82.1146 87.8605L82.1147 46.7402L94.6535 46.7402C97.6986 48.3423 98.7734 50.4784 99.1316 52.7926C99.669 57.0648 97.3403 61.6931 96.8029 63.6512C96.8029 63.6512 96.8029 63.8292 96.9821 63.8292C97.5194 64.1852 97.6986 64.7192 97.5194 66.4993Z" fill="#E3E7F5"/>
<path d="M117.404 112.427C109.343 119.903 92.3263 113.139 80.3249 113.139C70.8313 113.139 50.9484 120.615 43.6043 115.631C42.1713 114.563 43.9626 110.469 44.5 109.223C45.3956 106.731 46.2912 104.239 47.5451 101.924C50.232 96.7621 62.5916 94.27 67.6071 91.5999C68.5028 91.0658 69.0401 90.7098 69.3984 90.1758C75.3095 98.3642 87.49 98.3642 93.4011 90.3538C93.9385 90.8878 94.4759 91.2438 95.1924 91.5999C95.3715 91.5999 95.5506 91.7779 95.7297 91.7779C112.388 98.5422 113.463 97.6522 115.613 103.883C115.971 104.951 118.12 111.715 117.404 112.427Z" fill="white"/>
<path d="M117.403 112.426C109.342 119.902 92.3253 113.138 80.324 113.138C70.8304 113.138 50.9475 120.614 43.6034 115.63C42.1704 114.562 43.9616 110.468 44.499 109.222C45.3946 106.729 46.2903 104.237 47.5441 101.923C50.2221 96.7781 62.5084 94.2854 67.5558 91.6253C67.5899 91.6073 67.5739 91.5986 67.6125 91.5986C67.6881 91.5986 67.812 91.6358 67.8566 91.6968C74.6645 100.998 88.6599 101.001 95.4721 91.8812C95.5208 91.8161 95.5976 91.7766 95.6789 91.7766C95.7118 91.7766 95.7458 91.7836 95.7764 91.796C112.389 98.5393 113.464 97.6569 115.612 103.881C115.97 104.949 118.119 111.714 117.403 112.426Z" fill="url(#paint4_linear_11540_8301)"/>
<path d="M96.6226 63.6495C96.8017 62.5814 96.2644 61.1573 95.9061 60.0893C95.9061 59.9113 95.727 59.7333 95.727 59.5553C93.9357 55.9951 89.8159 54.393 86.0543 54.215C76.2024 53.6809 75.3067 55.639 72.0825 52.7909C72.9781 54.215 73.1573 56.5291 71.7242 59.3773C70.6495 61.3354 68.6791 62.2254 66.8879 62.7594C62.4098 52.6129 64.5593 46.2045 69.0374 43.8904C67.6044 40.8642 67.4253 39.6182 67.4253 39.6182C67.4253 39.6182 76.9189 41.2203 80.1432 40.5082C84.263 39.6182 90.7115 40.6862 93.0401 46.2045C96.9809 47.8066 98.593 50.2987 98.9512 52.9689C99.6677 57.2411 97.16 61.8694 96.6226 63.6495Z" fill="#1C3754"/>
<path d="M70.4705 87.3262L70.4706 78.2477C70.2914 78.0697 70.1123 77.8917 70.1123 77.7137L70.1123 77.1797C70.6497 78.0697 71.187 78.7818 72.0827 79.3158L79.2477 84.3001C80.8598 85.7242 83.3675 85.7242 84.9797 84.3001L91.6073 78.2477C91.7864 78.0697 92.1447 77.8917 92.3238 77.5357C92.3238 78.2477 92.3238 79.4938 92.3238 86.9702C92.3238 87.5043 92.3238 87.8603 92.5029 88.2163L70.2914 88.2163C70.4705 88.2163 70.4705 87.6823 70.4705 87.3262Z" fill="url(#paint5_linear_11540_8301)"/>
<path d="M122.346 107.979L122.346 131.526C122.346 134.539 119.866 137.004 116.834 137.004L44.633 137.004C41.6017 137.004 39.1215 134.539 39.1215 131.526L39.1216 107.979L122.346 107.979Z" fill="white"/>
<path d="M100.3 119.339L61.306 119.339C60.2037 119.339 59.3769 118.517 59.3769 117.422C59.377 116.326 60.2037 115.505 61.306 115.505L100.3 115.505C101.402 115.505 102.229 116.326 102.229 117.422C102.229 118.517 101.265 119.339 100.3 119.339Z" fill="#E3EAF2"/>
<path d="M88.4521 127.966L73.1576 127.966C72.4686 127.966 71.9175 127.418 71.9175 126.734L71.9175 125.364C71.9175 124.68 72.4686 124.132 73.1576 124.132L88.4521 124.132C89.141 124.132 89.6922 124.68 89.6922 125.364L89.6922 126.734C89.6922 127.418 89.141 127.966 88.4521 127.966Z" fill="#E3EAF2"/>
<g filter="url(#filter1_d_11540_8301)">
<path d="M152.989 126.198C150.156 140.159 136.417 149.276 122.537 146.284C108.656 143.435 99.5912 129.616 102.566 115.655C105.398 101.694 119.137 92.5772 133.018 95.5689C137.975 96.5661 142.507 98.9879 146.048 102.692C152.139 108.818 154.83 117.65 152.989 126.198Z" fill="url(#paint6_linear_11540_8301)"/>
</g>
<path fill-rule="evenodd" clip-rule="evenodd" d="M143.5 140.611L149.048 128.028L129 108.5L124 110.5L126.5 124.15L143.5 140.611ZM125.5 134L136.5 144.651L142.5 141.15L129 128L124 130L125.5 134Z" fill="url(#paint7_linear_11540_8301)"/>
<path fill-rule="evenodd" clip-rule="evenodd" d="M124 122.5C124 124.157 125.343 125.5 127 125.5C128.657 125.5 130 124.157 130 122.5L130 110.5C130 108.843 128.657 107.5 127 107.5C125.343 107.5 124 108.843 124 110.5L124 122.5ZM123.5 131C123.5 132.933 125.067 134.5 127 134.5C128.933 134.5 130.5 132.933 130.5 131C130.5 129.067 128.933 127.5 127 127.5C125.067 127.5 123.5 129.067 123.5 131Z" fill="url(#paint8_linear_11540_8301)"/>
<defs>
<filter id="filter0_d_11540_8301" x="13.2718" y="10.4125" width="134.926" height="165.366" filterUnits="userSpaceOnUse" color-interpolation-filters="sRGB">
<feFlood flood-opacity="0" result="BackgroundImageFix"/>
<feColorMatrix in="SourceAlpha" type="matrix" values="0 0 0 0 0 0 0 0 0 0 0 0 0 0 0 0 0 0 127 0" result="hardAlpha"/>
<feOffset dy="12.9254"/>
<feGaussianBlur stdDeviation="12.9254"/>
<feColorMatrix type="matrix" values="0 0 0 0 0.397708 0 0 0 0 0.47749 0 0 0 0 0.575 0 0 0 0.18 0"/>
<feBlend mode="normal" in2="BackgroundImageFix" result="effect1_dropShadow_11540_8301"/>
<feBlend mode="normal" in="SourceGraphic" in2="effect1_dropShadow_11540_8301" result="shape"/>
</filter>
<filter id="filter1_d_11540_8301" x="90.384" y="90.644" width="74.7916" height="75.0846" filterUnits="userSpaceOnUse" color-interpolation-filters="sRGB">
<feFlood flood-opacity="0" result="BackgroundImageFix"/>
<feColorMatrix in="SourceAlpha" type="matrix" values="0 0 0 0 0 0 0 0 0 0 0 0 0 0 0 0 0 0 127 0" result="hardAlpha"/>
<feOffset dy="7.26"/>
<feGaussianBlur stdDeviation="5.808"/>
<feColorMatrix type="matrix" values="0 0 0 0 0.996078 0 0 0 0 0.419608 0 0 0 0 0.172549 0 0 0 0.3 0"/>
<feBlend mode="normal" in2="BackgroundImageFix" result="effect1_dropShadow_11540_8301"/>
<feBlend mode="normal" in="SourceGraphic" in2="effect1_dropShadow_11540_8301" result="shape"/>
</filter>
<linearGradient id="paint0_linear_11540_8301" x1="79.353" y1="78.778" x2="81.9973" y2="78.778" gradientUnits="userSpaceOnUse">
<stop stop-color="#83A6FF"/>
<stop offset="1" stop-color="#5A78FF"/>
</linearGradient>
<linearGradient id="paint1_linear_11540_8301" x1="84.7431" y1="68.4691" x2="87.3873" y2="68.4691" gradientUnits="userSpaceOnUse">
<stop stop-color="#FF66A9"/>
<stop offset="1" stop-color="#F53689"/>
</linearGradient>
<linearGradient id="paint2_linear_11540_8301" x1="81.9925" y1="99.4061" x2="79.3482" y2="99.4061" gradientUnits="userSpaceOnUse">
<stop stop-color="#83A6FF"/>
<stop offset="1" stop-color="#5A78FF"/>
</linearGradient>
<linearGradient id="paint3_linear_11540_8301" x1="76.6019" y1="89.0971" x2="73.9576" y2="89.0971" gradientUnits="userSpaceOnUse">
<stop stop-color="#FF66A9"/>
<stop offset="1" stop-color="#F53689"/>
</linearGradient>
<linearGradient id="paint4_linear_11540_8301" x1="43.0876" y1="104.01" x2="117.846" y2="104.01" gradientUnits="userSpaceOnUse">
<stop stop-color="#5C9FFD"/>
<stop offset="1" stop-color="#1E71E4"/>
</linearGradient>
<linearGradient id="paint5_linear_11540_8301" x1="81.3418" y1="88.6284" x2="81.3418" y2="82.2864" gradientUnits="userSpaceOnUse">
<stop stop-color="#EAEEF9"/>
<stop offset="0.9913" stop-color="#CED5E6"/>
</linearGradient>
<linearGradient id="paint6_linear_11540_8301" x1="102.003" y1="120.906" x2="153.556" y2="120.906" gradientUnits="userSpaceOnUse">
<stop stop-color="#FF916F"/>
<stop offset="0.0001" stop-color="#FF9A70"/>
<stop offset="1" stop-color="#FD6626"/>
</linearGradient>
<linearGradient id="paint7_linear_11540_8301" x1="126.5" y1="116.262" x2="142.339" y2="128.521" gradientUnits="userSpaceOnUse">
<stop stop-color="#F45D1D"/>
<stop offset="1" stop-color="#F45D1D" stop-opacity="0"/>
</linearGradient>
<linearGradient id="paint8_linear_11540_8301" x1="129.604" y1="130.953" x2="121.966" y2="128.971" gradientUnits="userSpaceOnUse">
<stop offset="0.0113208" stop-color="#FFD9C9"/>
<stop offset="1" stop-color="white"/>
</linearGradient>
</defs>
</svg>
