<svg width="160" height="176" viewBox="0 0 160 176" fill="none" xmlns="http://www.w3.org/2000/svg">
<path opacity="0.2" d="M15.8033 38.1271C17.494 37.5744 18.4191 35.7478 17.8696 34.0472C17.3201 32.3467 15.504 31.4162 13.8133 31.969C12.1226 32.5217 11.1974 34.3483 11.747 36.0488C12.2965 37.7493 14.1126 38.6798 15.8033 38.1271Z" fill="#2173E6"/>
<path opacity="0.2" d="M31.3978 26.3107C32.5475 25.9349 33.1766 24.6928 32.8029 23.5364C32.4292 22.3801 31.1943 21.7473 30.0446 22.1232C28.8949 22.499 28.2658 23.7411 28.6395 24.8975C29.0132 26.0538 30.2481 26.6865 31.3978 26.3107Z" fill="#2173E6"/>
<path opacity="0.2" d="M136.287 24.1253C137.127 23.3533 137.185 22.0426 136.418 21.1978C135.65 20.353 134.347 20.294 133.507 21.066C132.667 21.838 132.609 23.1487 133.376 23.9935C134.144 24.8383 135.447 24.8973 136.287 24.1253Z" fill="#2173E6"/>
<path opacity="0.05" d="M80.0963 144.366C115.44 144.366 144.091 115.548 144.091 80.0003C144.091 44.4522 115.44 15.6348 80.0963 15.6348C44.753 15.6348 16.1016 44.4522 16.1016 80.0003C16.1016 115.548 44.753 144.366 80.0963 144.366Z" fill="#015CDB"/>
<g filter="url(#filter0_d_11678_8346)">
<path d="M122.348 28.8151L122.348 131.525C122.348 134.538 119.868 137.002 116.836 137.002H44.6352C41.6039 137.002 39.1237 134.538 39.1237 131.525L39.124 28.8151C39.124 25.8026 41.6042 23.3379 44.6356 23.3379L116.837 23.3379C119.868 23.3379 122.348 25.8026 122.348 28.8151Z" fill="white"/>
</g>
<g opacity="0.5">
<path d="M44.2283 72.3584L41.6104 72.3584L41.6103 74.9601L44.2283 74.9601L44.2283 72.3584Z" fill="#EAEEF9"/>
<path d="M44.2283 67.1563L41.6104 67.1562L41.6103 69.7579L44.2283 69.7579L44.2283 67.1563Z" fill="#EAEEF9"/>
<path d="M44.2264 61.9512L41.6084 61.9512L41.6084 64.5528L44.2264 64.5528L44.2264 61.9512Z" fill="#EAEEF9"/>
<path d="M44.2274 56.8848L41.6094 56.8848L41.6094 59.4864L44.2273 59.4864L44.2274 56.8848Z" fill="#EAEEF9"/>
<path d="M44.2274 46.4785L41.6094 46.4785L41.6094 49.0802L44.2273 49.0802L44.2274 46.4785Z" fill="#F3F5FA"/>
<path d="M49.6004 77.4238L46.9824 77.4238L46.9824 80.0255L49.6004 80.0255L49.6004 77.4238Z" fill="#EAEEF9"/>
<path d="M49.5984 72.3584L46.9805 72.3584L46.9805 74.9601L49.5984 74.9601L49.5984 72.3584Z" fill="#EAEEF9"/>
<path d="M49.6004 56.8857L46.9824 56.8857L46.9824 59.4874L49.6004 59.4874L49.6004 56.8857Z" fill="#EAEEF9"/>
<path d="M49.6014 36.21L46.9834 36.21L46.9834 38.8116L49.6014 38.8116L49.6014 36.21Z" fill="#EAEEF9"/>
<path d="M54.9754 77.4258L52.3574 77.4258L52.3574 80.0275L54.9754 80.0275L54.9754 77.4258Z" fill="#EAEEF9"/>
<path d="M54.9764 67.1563L52.3584 67.1562L52.3584 69.7579L54.9764 69.7579L54.9764 67.1563Z" fill="#EAEEF9"/>
<path d="M54.9744 61.9512L52.3564 61.9512L52.3564 64.5528L54.9744 64.5528L54.9744 61.9512Z" fill="#EAEEF9"/>
<path d="M54.9734 56.8867L52.3555 56.8867L52.3555 59.4884L54.9734 59.4884L54.9734 56.8867Z" fill="#EAEEF9"/>
<path d="M54.9754 51.6826L52.3574 51.6826L52.3574 54.2843L54.9754 54.2843L54.9754 51.6826Z" fill="#F3F5FA"/>
<path d="M54.9754 46.4795L52.3574 46.4795L52.3574 49.0812L54.9754 49.0812L54.9754 46.4795Z" fill="#EAEEF9"/>
<path d="M54.9725 36.208L52.3545 36.208L52.3545 38.8097L54.9725 38.8097L54.9725 36.208Z" fill="#EAEEF9"/>
<path d="M54.9744 31.0049L52.3564 31.0049L52.3564 33.6066L54.9744 33.6066L54.9744 31.0049Z" fill="#F3F5FA"/>
<path d="M60.3475 72.3574L57.7295 72.3574L57.7295 74.9591L60.3475 74.9591L60.3475 72.3574Z" fill="#EAEEF9"/>
<path d="M60.3465 67.1563L57.7285 67.1562L57.7285 69.7579L60.3465 69.7579L60.3465 67.1563Z" fill="#EAEEF9"/>
<path d="M60.3504 51.6826L57.7324 51.6826L57.7324 54.2843L60.3504 54.2843L60.3504 51.6826Z" fill="#F3F5FA"/>
<path d="M60.3475 41.4121L57.7295 41.4121L57.7295 44.0138L60.3475 44.0138L60.3475 41.4121Z" fill="#EAEEF9"/>
<path d="M65.8611 77.4248L63.2432 77.4248L63.2432 80.0265L65.8611 80.0265L65.8611 77.4248Z" fill="#EAEEF9"/>
<path d="M65.8621 72.3584L63.2441 72.3584L63.2441 74.9601L65.8621 74.9601L65.8621 72.3584Z" fill="#EAEEF9"/>
<path d="M65.8592 56.8857L63.2412 56.8857L63.2412 59.4874L65.8592 59.4874L65.8592 56.8857Z" fill="#EAEEF9"/>
<path d="M65.8611 51.6836L63.2432 51.6836L63.2432 54.2853L65.8611 54.2853L65.8611 51.6836Z" fill="#EAEEF9"/>
<path d="M65.8592 46.4785L63.2412 46.4785L63.2412 49.0802L65.8592 49.0802L65.8592 46.4785Z" fill="#F3F5FA"/>
<path d="M71.2342 77.4238L68.6162 77.4238L68.6162 80.0255L71.2342 80.0255L71.2342 77.4238Z" fill="#EAEEF9"/>
<path d="M71.2332 72.3584L68.6152 72.3584L68.6152 74.9601L71.2332 74.9601L71.2332 72.3584Z" fill="#EAEEF9"/>
<path d="M71.2332 67.1563L68.6152 67.1562L68.6152 69.7579L71.2332 69.7579L71.2332 67.1563Z" fill="#EAEEF9"/>
<path d="M71.2332 61.9531L68.6152 61.9531L68.6152 64.5548L71.2332 64.5548L71.2332 61.9531Z" fill="#EAEEF9"/>
<path d="M71.2361 56.8848L68.6182 56.8848L68.6182 59.4864L71.2361 59.4864L71.2361 56.8848Z" fill="#EAEEF9"/>
<path d="M71.2322 51.6797L68.6143 51.6797L68.6143 54.2814L71.2322 54.2814L71.2322 51.6797Z" fill="#EAEEF9"/>
<path d="M71.2352 36.208L68.6172 36.208L68.6172 38.8097L71.2352 38.8097L71.2352 36.208Z" fill="#EAEEF9"/>
<path d="M76.6043 77.4248L73.9863 77.4248L73.9863 80.0265L76.6043 80.0265L76.6043 77.4248Z" fill="#EAEEF9"/>
<path d="M76.6082 72.3574L73.9902 72.3574L73.9902 74.9591L76.6082 74.9591L76.6082 72.3574Z" fill="#EAEEF9"/>
<path d="M76.6063 67.1543L73.9883 67.1543L73.9883 69.756L76.6063 69.756L76.6063 67.1543Z" fill="#EAEEF9"/>
<path d="M76.6072 56.8857L73.9893 56.8857L73.9893 59.4874L76.6072 59.4874L76.6072 56.8857Z" fill="#EAEEF9"/>
<path d="M76.6063 51.6816L73.9883 51.6816L73.9883 54.2833L76.6063 54.2833L76.6063 51.6816Z" fill="#F3F5FA"/>
<path d="M81.9803 77.4258L79.3623 77.4258L79.3623 80.0275L81.9803 80.0275L81.9803 77.4258Z" fill="url(#paint0_linear_11678_8346)"/>
<path d="M81.9813 72.3584L79.3633 72.3584L79.3633 74.9601L81.9813 74.9601L81.9813 72.3584Z" fill="#EAEEF9"/>
<path d="M81.9832 67.1543L79.3652 67.1543L79.3652 69.756L81.9832 69.756L81.9832 67.1543Z" fill="#EAEEF9"/>
<path d="M81.9783 61.9512L79.3604 61.9512L79.3603 64.5528L81.9783 64.5528L81.9783 61.9512Z" fill="#F3F5FA"/>
<path d="M81.9822 56.8867L79.3643 56.8867L79.3643 59.4884L81.9822 59.4884L81.9822 56.8867Z" fill="#EAEEF9"/>
<path d="M81.9822 46.4795L79.3643 46.4795L79.3643 49.0812L81.9822 49.0812L81.9822 46.4795Z" fill="#EAEEF9"/>
<path d="M87.3572 77.4238L84.7393 77.4238L84.7393 80.0255L87.3572 80.0255L87.3572 77.4238Z" fill="#EAEEF9"/>
<path d="M87.3563 72.3584L84.7383 72.3584L84.7383 74.9601L87.3563 74.9601L87.3563 72.3584Z" fill="#EAEEF9"/>
<path d="M87.3533 67.1563L84.7354 67.1562L84.7353 69.7579L87.3533 69.7579L87.3533 67.1563Z" fill="url(#paint1_linear_11678_8346)"/>
<path d="M87.3543 61.9502L84.7363 61.9502L84.7363 64.5519L87.3543 64.5519L87.3543 61.9502Z" fill="#EAEEF9"/>
<path d="M87.3553 56.8857L84.7373 56.8857L84.7373 59.4874L87.3553 59.4874L87.3553 56.8857Z" fill="#EAEEF9"/>
<path d="M87.3553 51.6816L84.7373 51.6816L84.7373 54.2833L87.3553 54.2833L87.3553 51.6816Z" fill="#EAEEF9"/>
<path d="M92.7303 77.4248L90.1123 77.4248L90.1123 80.0265L92.7303 80.0265L92.7303 77.4248Z" fill="#EAEEF9"/>
<path d="M92.7293 72.3594L90.1113 72.3594L90.1113 74.961L92.7293 74.961L92.7293 72.3594Z" fill="#EAEEF9"/>
<path d="M92.7293 67.1553L90.1113 67.1553L90.1113 69.7569L92.7293 69.7569L92.7293 67.1553Z" fill="#EAEEF9"/>
<path d="M92.7303 56.8867L90.1123 56.8867L90.1123 59.4884L92.7303 59.4884L92.7303 56.8867Z" fill="#F3F5FA"/>
<path d="M92.7283 46.4785L90.1104 46.4785L90.1103 49.0802L92.7283 49.0802L92.7283 46.4785Z" fill="#EAEEF9"/>
<path d="M92.7264 31.0049L90.1084 31.0049L90.1084 33.6066L92.7264 33.6066L92.7264 31.0049Z" fill="#F3F5FA"/>
<path d="M98.1014 72.3574L95.4834 72.3574L95.4834 74.9591L98.1014 74.9591L98.1014 72.3574Z" fill="#EAEEF9"/>
<path d="M98.1043 67.1553L95.4863 67.1553L95.4863 69.7569L98.1043 69.7569L98.1043 67.1553Z" fill="#F3F5FA"/>
<path d="M98.1024 61.9502L95.4844 61.9502L95.4844 64.5519L98.1023 64.5519L98.1024 61.9502Z" fill="#EAEEF9"/>
<path d="M98.1043 41.4111L95.4863 41.4111L95.4863 44.0128L98.1043 44.0128L98.1043 41.4111Z" fill="#EAEEF9"/>
<path d="M103.475 77.4248L100.857 77.4248L100.857 80.0265L103.475 80.0265L103.475 77.4248Z" fill="#EAEEF9"/>
<path d="M103.477 67.1553L100.859 67.1553L100.859 69.7569L103.477 69.7569L103.477 67.1553Z" fill="#EAEEF9"/>
<path d="M103.477 61.9512L100.859 61.9512L100.859 64.5528L103.477 64.5528L103.477 61.9512Z" fill="#EAEEF9"/>
<path d="M103.475 56.8848L100.857 56.8848L100.857 59.4864L103.475 59.4864L103.475 56.8848Z" fill="#EAEEF9"/>
<path d="M103.478 51.6826L100.86 51.6826L100.86 54.2843L103.478 54.2843L103.478 51.6826Z" fill="#F3F5FA"/>
<path d="M103.475 46.4795L100.857 46.4795L100.857 49.0812L103.475 49.0812L103.475 46.4795Z" fill="#EAEEF9"/>
<path d="M108.986 77.4258L106.368 77.4258L106.368 80.0275L108.986 80.0275L108.986 77.4258Z" fill="#EAEEF9"/>
<path d="M108.987 61.9521L106.369 61.9521L106.369 64.5538L108.987 64.5538L108.987 61.9521Z" fill="#F3F5FA"/>
<path d="M108.989 51.6816L106.371 51.6816L106.371 54.2833L108.989 54.2833L108.989 51.6816Z" fill="#EAEEF9"/>
<path d="M114.361 77.4238L111.743 77.4238L111.743 80.0255L114.361 80.0255L114.361 77.4238Z" fill="#EAEEF9"/>
<path d="M114.363 72.3584L111.745 72.3584L111.745 74.9601L114.363 74.9601L114.363 72.3584Z" fill="#EAEEF9"/>
<path d="M114.362 67.1572L111.744 67.1572L111.744 69.7589L114.362 69.7589L114.362 67.1572Z" fill="#EAEEF9"/>
<path d="M114.36 61.9512L111.742 61.9512L111.742 64.5528L114.36 64.5528L114.36 61.9512Z" fill="#EAEEF9"/>
<path d="M114.364 56.8857L111.746 56.8857L111.746 59.4874L114.364 59.4874L114.364 56.8857Z" fill="#F3F5FA"/>
<path d="M114.361 41.4121L111.743 41.4121L111.743 44.0138L114.361 44.0138L114.361 41.4121Z" fill="#EAEEF9"/>
<path d="M119.736 77.4258L117.118 77.4258L117.118 80.0275L119.736 80.0275L119.736 77.4258Z" fill="#EAEEF9"/>
<path d="M119.733 67.1543L117.115 67.1543L117.115 69.756L119.733 69.756L119.733 67.1543Z" fill="#EAEEF9"/>
<path d="M119.735 61.9521L117.117 61.9521L117.117 64.5538L119.735 64.5538L119.735 61.9521Z" fill="#F3F5FA"/>
<path d="M117.072 95.6045L119.69 95.6045L119.69 93.0028L117.072 93.0028L117.072 95.6045Z" fill="#EAEEF9"/>
<path d="M117.073 90.3623L119.691 90.3623L119.691 87.7606L117.073 87.7606L117.073 90.3623Z" fill="#EAEEF9"/>
<path d="M117.073 85.2549L119.691 85.2549L119.691 82.6532L117.073 82.6532L117.073 85.2549Z" fill="#EAEEF9"/>
<path d="M111.668 100.711L114.286 100.711L114.286 98.1093L111.668 98.1093L111.668 100.711Z" fill="#EAEEF9"/>
<path d="M111.668 95.6055L114.286 95.6055L114.286 93.0038L111.668 93.0038L111.668 95.6055Z" fill="#EAEEF9"/>
<path d="M111.669 85.2578L114.287 85.2578L114.287 82.6561L111.669 82.6561L111.669 85.2578Z" fill="#EAEEF9"/>
<path d="M106.259 100.71L108.877 100.71L108.877 98.1083L106.259 98.1083L106.259 100.71Z" fill="#EAEEF9"/>
<path d="M106.259 95.6045L108.877 95.6045L108.877 93.0028L106.259 93.0028L106.259 95.6045Z" fill="#EAEEF9"/>
<path d="M106.257 90.3623L108.875 90.3623L108.875 87.7606L106.257 87.7606L106.257 90.3623Z" fill="#EAEEF9"/>
<path d="M106.26 85.2568L108.878 85.2568L108.878 82.6552L106.26 82.6552L106.26 85.2568Z" fill="#EAEEF9"/>
<path d="M100.99 100.71L103.608 100.71L103.608 98.1083L100.99 98.1083L100.99 100.71Z" fill="#EAEEF9"/>
<path d="M100.987 95.6045L103.605 95.6045L103.605 93.0028L100.987 93.0028L100.987 95.6045Z" fill="#EAEEF9"/>
<path d="M100.991 90.3623L103.609 90.3623L103.609 87.7606L100.991 87.7606L100.991 90.3623Z" fill="#EAEEF9"/>
<path d="M100.988 85.2568L103.606 85.2568L103.606 82.6552L100.988 82.6552L100.988 85.2568Z" fill="#EAEEF9"/>
<path d="M95.5832 100.71L98.2012 100.71L98.2012 98.1083L95.5832 98.1083L95.5832 100.71Z" fill="#EAEEF9"/>
<path d="M95.5812 95.6045L98.1992 95.6045L98.1992 93.0028L95.5812 93.0028L95.5812 95.6045Z" fill="#EAEEF9"/>
<path d="M95.5842 90.3623L98.2021 90.3623L98.2022 87.7606L95.5842 87.7606L95.5842 90.3623Z" fill="#EAEEF9"/>
<path d="M90.1769 100.711L92.7949 100.711L92.7949 98.1093L90.1769 98.1093L90.1769 100.711Z" fill="#EAEEF9"/>
<path d="M90.1769 95.6055L92.7949 95.6055L92.7949 93.0038L90.1769 93.0038L90.1769 95.6055Z" fill="#EAEEF9"/>
<path d="M90.1779 90.3623L92.7959 90.3623L92.7959 87.7606L90.1779 87.7606L90.1779 90.3623Z" fill="#EAEEF9"/>
<path d="M90.1779 85.2549L92.7959 85.2549L92.7959 82.6532L90.1779 82.6532L90.1779 85.2549Z" fill="#EAEEF9"/>
<path d="M84.7678 100.711L87.3857 100.711L87.3857 98.1093L84.7678 98.1093L84.7678 100.711Z" fill="#EAEEF9"/>
<path d="M84.7697 95.6025L87.3877 95.6025L87.3877 93.0009L84.7697 93.0009L84.7697 95.6025Z" fill="#EAEEF9"/>
<path d="M84.7687 90.3613L87.3867 90.3613L87.3867 87.7597L84.7687 87.7597L84.7687 90.3613Z" fill="#EAEEF9"/>
<path d="M79.3623 100.703L81.9803 100.703L81.9803 98.1016L79.3623 98.1016L79.3623 100.703Z" fill="url(#paint2_linear_11678_8346)"/>
<path d="M79.3635 95.6045L81.9814 95.6045L81.9815 93.0028L79.3635 93.0028L79.3635 95.6045Z" fill="#EAEEF9"/>
<path d="M79.3625 90.3623L81.9805 90.3623L81.9805 87.7606L79.3625 87.7606L79.3625 90.3623Z" fill="#EAEEF9"/>
<path d="M79.3625 85.2568L81.9805 85.2568L81.9805 82.6552L79.3625 82.6552L79.3625 85.2568Z" fill="#F3F5FA"/>
<path d="M73.9543 100.71L76.5723 100.71L76.5723 98.1083L73.9543 98.1083L73.9543 100.71Z" fill="#EAEEF9"/>
<path d="M73.9572 95.6055L76.5752 95.6055L76.5752 93.0038L73.9572 93.0038L73.9572 95.6055Z" fill="#EAEEF9"/>
<path d="M73.9893 90.4337L76.6072 90.4337L76.6072 87.832L73.9893 87.832L73.9893 90.4337Z" fill="url(#paint3_linear_11678_8346)"/>
<path d="M73.9562 85.2549L76.5742 85.2549L76.5742 82.6532L73.9562 82.6532L73.9562 85.2549Z" fill="#EAEEF9"/>
<path d="M68.5451 100.71L71.1631 100.71L71.1631 98.1083L68.5451 98.1083L68.5451 100.71Z" fill="#EAEEF9"/>
<path d="M68.548 95.6045L71.166 95.6045L71.166 93.0028L68.548 93.0028L68.548 95.6045Z" fill="#EAEEF9"/>
<path d="M68.551 90.3623L71.1689 90.3623L71.169 87.7606L68.551 87.7606L68.551 90.3623Z" fill="#EAEEF9"/>
<path d="M63.1437 95.6055L65.7617 95.6055L65.7617 93.0038L63.1437 93.0038L63.1437 95.6055Z" fill="#EAEEF9"/>
<path d="M63.1418 90.3623L65.7598 90.3623L65.7598 87.7606L63.1418 87.7606L63.1418 90.3623Z" fill="#F3F5FA"/>
<path d="M63.1447 85.2578L65.7627 85.2578L65.7627 82.6561L63.1447 82.6561L63.1447 85.2578Z" fill="#EAEEF9"/>
<path d="M57.8752 100.71L60.4932 100.71L60.4932 98.1083L57.8752 98.1083L57.8752 100.71Z" fill="#EAEEF9"/>
<path d="M57.8703 90.3623L60.4883 90.3623L60.4883 87.7606L57.8703 87.7606L57.8703 90.3623Z" fill="#EAEEF9"/>
<path d="M57.7305 85.2306L60.4862 85.2306L60.4862 82.6289L57.7305 82.6289L57.7305 85.2306Z" fill="#EAEEF9"/>
<path d="M52.468 100.71L55.0859 100.71L55.0859 98.1083L52.468 98.1083L52.468 100.71Z" fill="#EAEEF9"/>
<path d="M52.466 85.2578L55.084 85.2578L55.084 82.6561L52.466 82.6561L52.466 85.2578Z" fill="#F3F5FA"/>
<path d="M47.0588 100.711L49.6768 100.711L49.6768 98.1093L47.0588 98.1093L47.0588 100.711Z" fill="#EAEEF9"/>
<path d="M47.0568 95.6055L49.6748 95.6055L49.6748 93.0038L47.0568 93.0038L47.0568 95.6055Z" fill="#EAEEF9"/>
<path d="M47.0598 90.3613L49.6777 90.3613L49.6777 87.7597L47.0598 87.7597L47.0598 90.3613Z" fill="#EAEEF9"/>
<path d="M41.6525 100.711L44.2705 100.711L44.2705 98.1093L41.6525 98.1093L41.6525 100.711Z" fill="#EAEEF9"/>
<path d="M41.6535 90.3613L44.2715 90.3613L44.2715 87.7597L41.6535 87.7597L41.6535 90.3613Z" fill="#EAEEF9"/>
<path d="M41.6535 85.2568L44.2715 85.2568L44.2715 82.6552L41.6535 82.6552L41.6535 85.2568Z" fill="#F3F5FA"/>
</g>
<path d="M113.106 99.0773C112.389 99.7894 111.852 100.501 111.136 101.035C103.075 108.512 92.3274 112.962 80.326 112.962C70.8324 112.962 61.8761 110.114 54.532 104.952C52.3825 103.528 50.4122 101.747 48.6209 99.9674C49.5166 98.7213 51.3078 97.8313 54.8903 96.4072L56.3233 95.8732C59.0102 94.8051 62.7718 93.381 67.6082 91.4229C68.3247 91.0669 69.0412 90.7109 69.3994 89.9988C69.5786 89.6428 69.9368 89.2868 69.9368 88.9308C70.2951 88.3967 70.2951 87.6847 70.2951 86.9727L70.2951 77.8942C70.116 77.7162 70.116 77.5382 69.9369 77.3601C69.2204 76.1141 68.683 74.868 68.5039 73.4439L67.7874 73.0879C65.4587 73.6219 65.6379 71.1298 65.1005 66.3235C64.9214 64.3654 65.1005 64.0094 65.9961 63.6534L66.7126 62.5853C64.9214 58.6691 64.2049 55.4649 64.2049 52.6168C64.2049 48.1665 66.1753 45.1404 68.8622 43.7163C67.6083 40.8681 67.4292 39.6221 67.4292 39.6221C67.4292 39.6221 76.9228 41.2242 80.1471 40.5121C84.2669 39.6221 90.7154 40.6901 93.0441 46.2084C93.5814 46.3864 93.9397 46.5645 94.477 46.7425C97.5222 48.3445 98.5969 50.4807 98.9552 52.7948C99.4925 57.067 97.1639 61.6953 96.6265 63.6534C96.6265 63.6534 96.6265 63.8314 96.8056 63.8314C97.5221 64.1874 97.7013 64.7215 97.343 66.5015C96.8056 71.1298 96.9847 73.7999 94.6561 73.2659L92.5066 76.8261C92.5066 77.1821 92.3275 77.3601 92.3275 77.7162C92.3275 78.4282 92.3275 79.6743 92.3274 87.1507C92.3274 87.3287 92.3274 87.6847 92.3274 87.8627C92.3274 88.5748 92.6857 89.1088 93.0439 89.6428C93.2231 89.8208 93.4022 89.9988 93.5813 90.1768C94.1187 90.7109 94.6561 91.0669 95.3725 91.4229C100.746 93.737 104.687 95.1611 107.553 96.2292C110.24 97.4752 112.031 98.3653 113.106 99.0773Z" fill="#EAEEF9"/>
<path d="M97.5209 66.4993C96.9835 71.1276 97.1626 73.7977 94.834 73.2637L92.6845 76.8239C92.6845 77.1799 92.5054 77.3579 92.5054 77.7139C92.5054 78.426 92.5054 79.672 92.5053 87.1485C92.5053 87.3265 92.5053 87.6825 92.5053 87.8605L82.1161 87.8605L82.1162 46.7402L94.655 46.7402C97.7001 48.3423 98.7748 50.4784 99.1331 52.7926C99.6704 57.0648 97.3418 61.6931 96.8044 63.6512C96.8044 63.6512 96.8044 63.8292 96.9835 63.8292C97.5209 64.1852 97.7 64.7192 97.5209 66.4993Z" fill="#E3E7F5"/>
<path d="M117.405 112.427C109.344 119.903 92.3273 113.139 80.3259 113.139C70.8323 113.139 50.9494 120.615 43.6053 115.631C42.1723 114.563 43.9636 110.469 44.5009 109.223C45.3966 106.731 46.2922 104.239 47.5461 101.924C50.233 96.7621 62.5926 94.27 67.6081 91.5999C68.5037 91.0658 69.0411 90.7098 69.3994 90.1758C75.3105 98.3642 87.491 98.3642 93.4021 90.3538C93.9395 90.8878 94.4768 91.2438 95.1933 91.5999C95.3725 91.5999 95.5516 91.7779 95.7307 91.7779C112.389 98.5422 113.464 97.6522 115.614 103.883C115.972 104.951 118.121 111.715 117.405 112.427Z" fill="white"/>
<path d="M117.404 112.426C109.343 119.902 92.3263 113.138 80.3249 113.138C70.8313 113.138 50.9484 120.614 43.6043 115.63C42.1713 114.562 43.9626 110.468 44.5 109.222C45.3956 106.729 46.2912 104.237 47.5451 101.923C50.2231 96.7781 62.5094 94.2854 67.5568 91.6253C67.5909 91.6073 67.5749 91.5986 67.6135 91.5986C67.6891 91.5986 67.8129 91.6358 67.8576 91.6968C74.6655 100.998 88.6608 101.001 95.4731 91.8812C95.5217 91.8161 95.5986 91.7766 95.6799 91.7766C95.7128 91.7766 95.7468 91.7836 95.7773 91.796C112.39 98.5393 113.465 97.6569 115.613 103.881C115.971 104.949 118.12 111.714 117.404 112.426Z" fill="url(#paint4_linear_11678_8346)"/>
<path d="M96.6241 63.6495C96.8032 62.5814 96.2658 61.1573 95.9076 60.0893C95.9076 59.9113 95.7284 59.7333 95.7284 59.5553C93.9372 55.9951 89.8173 54.393 86.0557 54.215C76.2038 53.6809 75.3082 55.639 72.084 52.7909C72.9796 54.215 73.1587 56.5291 71.7257 59.3773C70.651 61.3354 68.6806 62.2254 66.8893 62.7594C62.4112 52.6129 64.5607 46.2045 69.0389 43.8904C67.6059 40.8642 67.4268 39.6182 67.4268 39.6182C67.4268 39.6182 76.9204 41.2203 80.1446 40.5082C84.2645 39.6182 90.713 40.6862 93.0416 46.2045C96.9823 47.8066 98.5945 50.2987 98.9527 52.9689C99.6692 57.2411 97.1614 61.8694 96.6241 63.6495Z" fill="#1C3754"/>
<path d="M70.4715 87.3262L70.4715 78.2477C70.2924 78.0697 70.1133 77.8917 70.1133 77.7137L70.1133 77.1797C70.6507 78.0697 71.188 78.7818 72.0836 79.3158L79.2486 84.3001C80.8607 85.7242 83.3685 85.7242 84.9806 84.3001L91.6083 78.2477C91.7874 78.0697 92.1456 77.8917 92.3248 77.5357C92.3248 78.2477 92.3248 79.4938 92.3247 86.9702C92.3247 87.5043 92.3247 87.8603 92.5039 88.2163L70.2924 88.2163C70.4715 88.2163 70.4715 87.6823 70.4715 87.3262Z" fill="url(#paint5_linear_11678_8346)"/>
<path d="M122.346 107.979L122.346 131.526C122.346 134.539 119.866 137.004 116.835 137.004L44.6335 137.004C41.6022 137.004 39.122 134.539 39.122 131.526L39.1221 107.979L122.346 107.979Z" fill="white"/>
<path d="M100.301 119.339L61.307 119.339C60.2047 119.339 59.3779 118.517 59.3779 117.422C59.3779 116.326 60.2047 115.505 61.307 115.505L100.301 115.505C101.403 115.505 102.23 116.326 102.23 117.422C102.23 118.517 101.266 119.339 100.301 119.339Z" fill="#E3EAF2"/>
<path d="M88.4526 127.966L73.1581 127.966C72.4691 127.966 71.918 127.418 71.918 126.734L71.918 125.364C71.918 124.68 72.4691 124.132 73.1581 124.132L88.4526 124.132C89.1415 124.132 89.6927 124.68 89.6927 125.364L89.6927 126.734C89.6927 127.418 89.1415 127.966 88.4526 127.966Z" fill="#E3EAF2"/>
<defs>
<filter id="filter0_d_11678_8346" x="13.2733" y="10.4125" width="134.926" height="165.366" filterUnits="userSpaceOnUse" color-interpolation-filters="sRGB">
<feFlood flood-opacity="0" result="BackgroundImageFix"/>
<feColorMatrix in="SourceAlpha" type="matrix" values="0 0 0 0 0 0 0 0 0 0 0 0 0 0 0 0 0 0 127 0" result="hardAlpha"/>
<feOffset dy="12.9254"/>
<feGaussianBlur stdDeviation="12.9254"/>
<feColorMatrix type="matrix" values="0 0 0 0 0.397708 0 0 0 0 0.47749 0 0 0 0 0.575 0 0 0 0.18 0"/>
<feBlend mode="normal" in2="BackgroundImageFix" result="effect1_dropShadow_11678_8346"/>
<feBlend mode="normal" in="SourceGraphic" in2="effect1_dropShadow_11678_8346" result="shape"/>
</filter>
<linearGradient id="paint0_linear_11678_8346" x1="79.3544" y1="78.778" x2="81.9987" y2="78.778" gradientUnits="userSpaceOnUse">
<stop stop-color="#83A6FF"/>
<stop offset="1" stop-color="#5A78FF"/>
</linearGradient>
<linearGradient id="paint1_linear_11678_8346" x1="84.744" y1="68.4691" x2="87.3883" y2="68.4691" gradientUnits="userSpaceOnUse">
<stop stop-color="#FF66A9"/>
<stop offset="1" stop-color="#F53689"/>
</linearGradient>
<linearGradient id="paint2_linear_11678_8346" x1="81.993" y1="99.4061" x2="79.3487" y2="99.4061" gradientUnits="userSpaceOnUse">
<stop stop-color="#83A6FF"/>
<stop offset="1" stop-color="#5A78FF"/>
</linearGradient>
<linearGradient id="paint3_linear_11678_8346" x1="76.6034" y1="89.0971" x2="73.9591" y2="89.0971" gradientUnits="userSpaceOnUse">
<stop stop-color="#FF66A9"/>
<stop offset="1" stop-color="#F53689"/>
</linearGradient>
<linearGradient id="paint4_linear_11678_8346" x1="43.0886" y1="104.01" x2="117.847" y2="104.01" gradientUnits="userSpaceOnUse">
<stop stop-color="#5C9FFD"/>
<stop offset="1" stop-color="#1E71E4"/>
</linearGradient>
<linearGradient id="paint5_linear_11678_8346" x1="81.3428" y1="88.6284" x2="81.3428" y2="82.2864" gradientUnits="userSpaceOnUse">
<stop stop-color="#EAEEF9"/>
<stop offset="0.9913" stop-color="#CED5E6"/>
</linearGradient>
</defs>
</svg>
