<svg width="76" height="76" viewBox="0 0 76 76" fill="none" xmlns="http://www.w3.org/2000/svg">
<g filter="url(#filter0_d_11678_9135)">
<path d="M63.189 36.1977C60.3563 50.1587 46.6174 59.2756 32.7369 56.2839C18.8563 53.4347 9.79136 39.6161 12.7658 25.6551C15.5985 11.6941 29.3374 2.57723 43.2179 5.56888C48.1753 6.5661 52.7076 8.98791 56.2486 12.6919C62.339 18.8176 65.0303 27.6501 63.189 36.1977Z" fill="url(#paint0_linear_11678_9135)"/>
</g>
<path fill-rule="evenodd" clip-rule="evenodd" d="M56.5495 47.1563L49.8011 49.5282L35.8496 34.1058L41.6995 30.9561L56.5495 47.1563ZM45.2995 48.5064L38.5511 50.8782L24.5996 34.5558L30.4496 31.4061L45.2995 48.5064ZM53.3998 40.4062L60.1482 38.0344L53.3998 30.9561L47.5498 34.1058L53.3998 40.4062Z" fill="url(#paint1_linear_11678_9135)"/>
<path fill-rule="evenodd" clip-rule="evenodd" d="M30.45 31.8569C30.45 33.8452 28.8382 35.457 26.85 35.457C24.8618 35.457 23.25 33.8452 23.25 31.8569C23.25 29.8686 24.8618 28.2568 26.85 28.2568C28.8382 28.2568 30.45 29.8686 30.45 31.8569ZM42.1502 31.8569C42.1502 33.8452 40.5384 35.457 38.5502 35.457C36.562 35.457 34.9502 33.8452 34.9502 31.8569C34.9502 29.8686 36.562 28.2568 38.5502 28.2568C40.5384 28.2568 42.1502 29.8686 42.1502 31.8569ZM50.2494 35.457C52.2376 35.457 53.8494 33.8452 53.8494 31.8569C53.8494 29.8686 52.2376 28.2568 50.2494 28.2568C48.2612 28.2568 46.6494 29.8686 46.6494 31.8569C46.6494 33.8452 48.2612 35.457 50.2494 35.457Z" fill="url(#paint2_linear_11678_9135)"/>
<defs>
<filter id="filter0_d_11678_9135" x="0.584188" y="0.643997" width="74.7916" height="75.0846" filterUnits="userSpaceOnUse" color-interpolation-filters="sRGB">
<feFlood flood-opacity="0" result="BackgroundImageFix"/>
<feColorMatrix in="SourceAlpha" type="matrix" values="0 0 0 0 0 0 0 0 0 0 0 0 0 0 0 0 0 0 127 0" result="hardAlpha"/>
<feOffset dy="7.26"/>
<feGaussianBlur stdDeviation="5.808"/>
<feColorMatrix type="matrix" values="0 0 0 0 0.996078 0 0 0 0 0.666667 0 0 0 0 0.172549 0 0 0 0.3 0"/>
<feBlend mode="normal" in2="BackgroundImageFix" result="effect1_dropShadow_11678_9135"/>
<feBlend mode="normal" in="SourceGraphic" in2="effect1_dropShadow_11678_9135" result="shape"/>
</filter>
<linearGradient id="paint0_linear_11678_9135" x1="12.2028" y1="30.9061" x2="63.756" y2="30.9061" gradientUnits="userSpaceOnUse">
<stop stop-color="#FFD76F"/>
<stop offset="0.0001" stop-color="#FFC56F"/>
<stop offset="1" stop-color="#FDA726"/>
</linearGradient>
<linearGradient id="paint1_linear_11678_9135" x1="39.8997" y1="33.6561" x2="41.4212" y2="45.5644" gradientUnits="userSpaceOnUse">
<stop stop-color="#FDA420"/>
<stop offset="1" stop-color="#FDA420" stop-opacity="0"/>
</linearGradient>
<linearGradient id="paint2_linear_11678_9135" x1="49.9306" y1="34.511" x2="48.0638" y2="26.5712" gradientUnits="userSpaceOnUse">
<stop offset="0.0113208" stop-color="#FFE7C2"/>
<stop offset="1" stop-color="white"/>
</linearGradient>
</defs>
</svg>
