<svg width="16" height="16" viewBox="0 0 16 16" fill="none" xmlns="http://www.w3.org/2000/svg">
<path fill-rule="evenodd" clip-rule="evenodd" d="M7.3335 1.33334C6.22893 1.33334 5.3335 2.22877 5.3335 3.33334V4.00001H6.66683V3.33334C6.66683 2.96515 6.96531 2.66668 7.3335 2.66668H12.6668C13.035 2.66668 13.3335 2.96515 13.3335 3.33334V8.66668C13.3335 9.03487 13.035 9.33334 12.6668 9.33334H11.3335V10.6667H12.6668C13.7714 10.6667 14.6668 9.77125 14.6668 8.66668V3.33334C14.6668 2.22877 13.7714 1.33334 12.6668 1.33334H7.3335ZM3.3335 4.66668C2.22893 4.66668 1.3335 5.56211 1.3335 6.66668V12C1.3335 13.1046 2.22893 14 3.3335 14H8.66683C9.7714 14 10.6668 13.1046 10.6668 12V6.66668C10.6668 5.56211 9.7714 4.66668 8.66683 4.66668H3.3335ZM2.66683 6.66668C2.66683 6.29849 2.96531 6.00001 3.3335 6.00001H8.66683C9.03502 6.00001 9.3335 6.29849 9.3335 6.66668V12C9.3335 12.3682 9.03502 12.6667 8.66683 12.6667H3.3335C2.96531 12.6667 2.66683 12.3682 2.66683 12V6.66668Z" fill="#252830"/>
</svg>
