<svg width="182" height="175" viewBox="0 0 182 175" fill="none" xmlns="http://www.w3.org/2000/svg">
<path opacity="0.2" d="M26.6036 38.1264C28.2943 37.5737 29.2194 35.747 28.6699 34.0465C28.1204 32.346 26.3043 31.4155 24.6136 31.9683C22.9228 32.521 21.9977 34.3476 22.5473 36.0481C23.0968 37.7486 24.9129 38.6791 26.6036 38.1264Z" fill="#2173E6"/>
<path opacity="0.2" d="M42.1981 26.3107C43.3478 25.9349 43.9769 24.6928 43.6032 23.5365C43.2295 22.3801 41.9946 21.7474 40.8449 22.1232C39.6952 22.4991 39.0661 23.7412 39.4398 24.8975C39.8135 26.0539 41.0484 26.6866 42.1981 26.3107Z" fill="#2173E6"/>
<path opacity="0.2" d="M147.087 24.1247C147.927 23.3526 147.986 22.042 147.218 21.1972C146.451 20.3524 145.147 20.2934 144.307 21.0654C143.468 21.8374 143.409 23.1481 144.176 23.9929C144.944 24.8377 146.247 24.8967 147.087 24.1247Z" fill="#2173E6"/>
<path opacity="0.05" d="M90.8966 144.366C126.24 144.366 154.891 115.548 154.891 80C154.891 44.4519 126.24 15.6344 90.8966 15.6344C55.5533 15.6344 26.9019 44.4519 26.9019 80C26.9019 115.548 55.5533 144.366 90.8966 144.366Z" fill="#015CDB"/>
<path d="M56.7734 53.0621V60.0556V116.003C56.7734 118.593 58.8336 120.665 61.2801 120.665H151.414C153.989 120.665 155.92 118.593 155.92 116.003V60.0556V53.3212C155.92 50.6015 153.731 48.3998 151.027 48.3998H61.2801L56.7734 53.0621Z" fill="white"/>
<g filter="url(#filter0_d_1217_21118)">
<path d="M31.9746 47.0734V55.3619V121.411C31.9746 124.39 34.4211 126.85 37.3826 126.85H143.869C146.83 126.85 149.277 124.39 149.277 121.411V55.3619V47.3324C149.277 44.0947 146.702 41.634 143.611 41.634H37.3826L31.9746 47.0734Z" fill="white"/>
</g>
<rect x="67.9746" y="70.634" width="40" height="12" rx="4" fill="#E3EAF2"/>
<rect x="67.9746" y="94.634" width="40" height="4" rx="2" fill="#E3EAF2"/>
<rect x="67.9746" y="86.634" width="40" height="4" rx="2" fill="#E3EAF2"/>
<rect x="67.9746" y="102.634" width="24" height="4" rx="2" fill="url(#paint0_linear_1217_21118)"/>
<path d="M113.689 52.5453H31.2812V46.8469C31.2812 43.8682 33.7277 41.4076 36.6893 41.4076H143.176C146.137 41.4076 148.584 43.8682 148.584 46.8469V52.5453H130.428H113.689Z" fill="url(#paint1_linear_1217_21118)"/>
<g filter="url(#filter1_d_1217_21118)">
<path d="M153.48 112.517C150.647 126.478 136.908 135.595 123.027 132.603C109.147 129.754 100.082 115.935 103.056 101.974C105.889 88.0132 119.628 78.8964 133.508 81.888C138.466 82.8852 142.998 85.3071 146.539 89.011C152.63 95.1368 155.321 103.969 153.48 112.517Z" fill="url(#paint2_linear_1217_21118)"/>
</g>
<path d="M149.119 118.554C149.316 125.099 143.996 130.651 137.494 130.849H134.341L118.184 114.588L131.976 102.095L136.705 99.3184L148.922 111.614L149.119 118.554Z" fill="url(#paint3_linear_1217_21118)"/>
<path fill-rule="evenodd" clip-rule="evenodd" d="M120.963 100.241L120.963 100.241L120.963 100.241ZM120.964 112.96C120.964 112.96 120.964 112.96 120.965 112.96L120.964 112.96ZM133.889 113.167C133.889 113.167 133.889 113.167 133.889 113.167L133.889 113.167ZM132.914 114.141L131.734 115.321L127.53 111.117L123.326 115.321C122.079 116.568 120.057 116.568 118.811 115.321C117.564 114.075 117.564 112.053 118.811 110.806L123.015 106.601L118.809 102.395C117.562 101.148 117.562 99.1261 118.809 97.8796C120.055 96.6331 122.077 96.633 123.324 97.8794C123.324 97.8795 123.324 97.8795 123.324 97.8796L127.53 102.084L131.734 97.8796C132.98 96.633 135.002 96.633 136.249 97.8796C137.495 99.1261 137.495 101.148 136.249 102.395L132.045 106.599L136.251 110.806C137.497 112.053 137.497 114.075 136.251 115.321C135.003 116.569 132.983 116.566 131.736 115.323L132.914 114.141ZM134.095 100.241C134.095 100.241 134.095 100.241 134.095 100.241L134.095 100.241Z" fill="url(#paint4_linear_1217_21118)"/>
<g opacity="0.5">
<path d="M13.1479 69.6003C12.8971 68.8366 12.9599 68.0045 13.3226 67.2871C13.6853 66.5696 14.3181 66.0257 15.0819 65.7748L32.3601 60.1C33.1239 59.8492 33.956 59.912 34.6734 60.2746C35.3908 60.6373 35.9348 61.2701 36.1857 62.0339L36.6586 63.4737L13.6208 71.0401L13.1479 69.6003ZM14.5666 73.9198L16.9311 81.119C17.182 81.8827 17.7259 82.5155 18.4434 82.8782C19.1608 83.2409 19.9929 83.3037 20.7567 83.0528L38.0349 77.378C38.7987 77.1272 39.4315 76.5832 39.7942 75.8658C40.1569 75.1484 40.2197 74.3163 39.9688 73.5525L37.6044 66.3534L14.5666 73.9198Z" fill="url(#paint5_linear_1217_21118)"/>
<rect width="4.35601" height="4.356" rx="1.1616" transform="matrix(0.950069 -0.312039 0.312041 0.950069 18.4688 75.8687)" fill="#CADBF2"/>
</g>
<g opacity="0.5">
<path d="M134.641 39.1728L138.98 41.4819C140.834 37.9984 139.829 34.8524 136.293 32.9703L127.032 28.0416C123.496 26.1594 120.325 27.0836 118.495 30.5227L114.498 38.0319C112.668 41.4711 113.672 44.617 117.209 46.4992L126.469 51.4278C130.006 53.31 133.176 52.3858 135.007 48.9467L135.177 48.6268L130.838 46.3177C128.825 45.246 128.039 42.7858 129.084 40.8226C130.129 38.8595 132.608 38.1367 134.622 39.2084L134.641 39.1728Z" fill="url(#paint6_linear_1217_21118)"/>
<path d="M129.118 36.2324L123.33 33.152C122.898 32.916 122.732 32.3852 122.957 31.9617C123.185 31.5458 123.714 31.395 124.143 31.6235L129.931 34.7039C130.364 34.9343 130.533 35.4633 130.308 35.8854C130.084 36.3074 129.551 36.4628 129.118 36.2324Z" fill="#CADBF2"/>
<path opacity="0.5" fill-rule="evenodd" clip-rule="evenodd" d="M133.828 40.6983L137.401 42.5998C137.824 42.8249 137.989 43.3415 137.77 43.7538L136.389 46.3487C136.166 46.7563 135.649 46.9068 135.226 46.6877L131.735 44.8298C130.708 44.3006 130.179 43.1457 130.463 42.0546C130.667 41.3921 131.16 40.8585 131.809 40.5969C132.458 40.3353 133.197 40.3724 133.828 40.6983ZM132.534 43.5091L132.871 43.6886C133.304 43.919 133.837 43.7636 134.062 43.3415C134.286 42.9194 134.117 42.3905 133.684 42.1601L133.347 41.9806C133.141 41.868 132.9 41.8404 132.677 41.9039C132.455 41.9675 132.269 42.1169 132.161 42.3188C131.936 42.7423 132.102 43.273 132.534 43.5091Z" fill="#015CDB"/>
</g>
<defs>
<filter id="filter0_d_1217_21118" x="0.0305901" y="25.662" width="181.19" height="149.104" filterUnits="userSpaceOnUse" color-interpolation-filters="sRGB">
<feFlood flood-opacity="0" result="BackgroundImageFix"/>
<feColorMatrix in="SourceAlpha" type="matrix" values="0 0 0 0 0 0 0 0 0 0 0 0 0 0 0 0 0 0 127 0" result="hardAlpha"/>
<feOffset dy="15.972"/>
<feGaussianBlur stdDeviation="15.972"/>
<feColorMatrix type="matrix" values="0 0 0 0 0.397708 0 0 0 0 0.47749 0 0 0 0 0.575 0 0 0 0.18 0"/>
<feBlend mode="normal" in2="BackgroundImageFix" result="effect1_dropShadow_1217_21118"/>
<feBlend mode="normal" in="SourceGraphic" in2="effect1_dropShadow_1217_21118" result="shape"/>
</filter>
<filter id="filter1_d_1217_21118" x="90.8747" y="76.9632" width="74.7916" height="75.0848" filterUnits="userSpaceOnUse" color-interpolation-filters="sRGB">
<feFlood flood-opacity="0" result="BackgroundImageFix"/>
<feColorMatrix in="SourceAlpha" type="matrix" values="0 0 0 0 0 0 0 0 0 0 0 0 0 0 0 0 0 0 127 0" result="hardAlpha"/>
<feOffset dy="7.26"/>
<feGaussianBlur stdDeviation="5.808"/>
<feColorMatrix type="matrix" values="0 0 0 0 0.968627 0 0 0 0 0.254902 0 0 0 0 0.254902 0 0 0 0.3 0"/>
<feBlend mode="normal" in2="BackgroundImageFix" result="effect1_dropShadow_1217_21118"/>
<feBlend mode="normal" in="SourceGraphic" in2="effect1_dropShadow_1217_21118" result="shape"/>
</filter>
<linearGradient id="paint0_linear_1217_21118" x1="67.9837" y1="104.562" x2="92.0706" y2="104.562" gradientUnits="userSpaceOnUse">
<stop stop-color="#5C9FFD"/>
<stop offset="1" stop-color="#1E71E4"/>
</linearGradient>
<linearGradient id="paint1_linear_1217_21118" x1="15.5304" y1="47.58" x2="149.115" y2="47.58" gradientUnits="userSpaceOnUse">
<stop stop-color="#015CDB"/>
<stop offset="1" stop-color="white"/>
</linearGradient>
<linearGradient id="paint2_linear_1217_21118" x1="102.493" y1="107.225" x2="154.047" y2="107.225" gradientUnits="userSpaceOnUse">
<stop stop-color="#FF6666"/>
<stop offset="1" stop-color="#F53636"/>
</linearGradient>
<linearGradient id="paint3_linear_1217_21118" x1="127.124" y1="106.598" x2="139.199" y2="118.596" gradientUnits="userSpaceOnUse">
<stop stop-color="#E61818"/>
<stop offset="1" stop-color="#F84242" stop-opacity="0"/>
</linearGradient>
<linearGradient id="paint4_linear_1217_21118" x1="131.746" y1="109.151" x2="126.319" y2="104.981" gradientUnits="userSpaceOnUse">
<stop offset="0.0113208" stop-color="#FFC6C6"/>
<stop offset="1" stop-color="white"/>
</linearGradient>
<linearGradient id="paint5_linear_1217_21118" x1="14.9465" y1="75.0472" x2="38.0677" y2="67.4533" gradientUnits="userSpaceOnUse">
<stop stop-color="#5C9FFD"/>
<stop offset="1" stop-color="#1E71E4"/>
</linearGradient>
<linearGradient id="paint6_linear_1217_21118" x1="116.68" y1="33.9507" x2="137.263" y2="44.9051" gradientUnits="userSpaceOnUse">
<stop stop-color="#5C9FFD"/>
<stop offset="1" stop-color="#1E71E4"/>
</linearGradient>
</defs>
</svg>
