<svg width="24" height="24" viewBox="0 0 24 24" fill="none" xmlns="http://www.w3.org/2000/svg">
<path d="M10.5777 12.6008L15.3358 7.60779C15.688 7.23818 15.688 6.64681 15.3358 6.27721C14.9836 5.9076 14.42 5.9076 14.0678 6.27721L8.80375 11.8011C8.75252 11.8347 8.70769 11.8751 8.66286 11.9221C8.48355 12.1103 8.39389 12.3522 8.4003 12.6008C8.4003 12.8428 8.48355 13.0914 8.66286 13.2796C8.70769 13.3266 8.75252 13.3669 8.80375 13.4005L14.0678 18.9245C14.2407 19.1059 14.4713 19.2 14.7018 19.2C14.9324 19.2 15.1629 19.1059 15.3358 18.9245C15.688 18.5549 15.688 17.9635 15.3358 17.5939L10.5777 12.6008Z" fill="#031633"/>
</svg>
